<svg width="48" height="48" viewBox="0 0 48 48" fill="none" xmlns="http://www.w3.org/2000/svg">
<g clip-path="url(#clip0_1356_188115)">
<rect width="48" height="48" rx="2" fill="#383838"/>
<rect x="5" y="16" width="37.3378" height="15.1689" rx="2.08446" fill="#E8822E" fill-opacity="0.15"/>
<path d="M11.0665 24.8614C11.0665 25.0865 11.1072 25.2772 11.1885 25.4336C11.2698 25.5899 11.3761 25.7181 11.5074 25.8182C11.645 25.912 11.8044 25.9839 11.9858 26.0339C12.1671 26.0777 12.3547 26.0996 12.5486 26.0996C12.6799 26.0996 12.8206 26.0902 12.9707 26.0714C13.1208 26.0464 13.2615 26.0026 13.3928 25.9401C13.5241 25.8776 13.6335 25.7932 13.7211 25.6868C13.8086 25.5743 13.8524 25.4336 13.8524 25.2647C13.8524 25.0834 13.793 24.9364 13.6742 24.8239C13.5616 24.7113 13.4115 24.6175 13.2239 24.5425C13.0363 24.4674 12.8237 24.4018 12.5861 24.3455C12.3485 24.2892 12.1077 24.2267 11.8638 24.1579C11.6137 24.0954 11.3698 24.0203 11.1322 23.9328C10.8946 23.839 10.6819 23.7202 10.4943 23.5763C10.3067 23.4325 10.1535 23.2543 10.0347 23.0417C9.92216 22.8228 9.86587 22.5602 9.86587 22.2537C9.86587 21.9098 9.93779 21.6128 10.0816 21.3626C10.2317 21.1063 10.4256 20.8936 10.6632 20.7248C10.9008 20.556 11.1697 20.4309 11.4699 20.3496C11.77 20.2683 12.0702 20.2277 12.3703 20.2277C12.7205 20.2277 13.0551 20.2683 13.374 20.3496C13.6992 20.4246 13.9868 20.5497 14.237 20.7248C14.4871 20.8999 14.6841 21.125 14.8279 21.4002C14.978 21.6691 15.053 21.9974 15.053 22.3851H13.6273C13.6148 22.185 13.571 22.0192 13.496 21.8879C13.4272 21.7566 13.3334 21.6534 13.2146 21.5784C13.0957 21.5033 12.9582 21.4502 12.8018 21.4189C12.6518 21.3877 12.486 21.372 12.3047 21.372C12.1859 21.372 12.0671 21.3845 11.9482 21.4095C11.8294 21.4346 11.72 21.4783 11.6199 21.5409C11.5261 21.6034 11.448 21.6816 11.3854 21.7754C11.3229 21.8692 11.2916 21.988 11.2916 22.1318C11.2916 22.2631 11.3167 22.3694 11.3667 22.4507C11.4167 22.532 11.5136 22.6071 11.6575 22.6758C11.8075 22.7446 12.0108 22.8134 12.2672 22.8822C12.5298 22.951 12.8706 23.0385 13.2896 23.1449C13.4147 23.1699 13.5866 23.2168 13.8055 23.2856C14.0306 23.3481 14.2526 23.4513 14.4715 23.5951C14.6903 23.7389 14.8779 23.9328 15.0343 24.1767C15.1969 24.4143 15.2782 24.7207 15.2782 25.0959C15.2782 25.4023 15.2188 25.6868 15.0999 25.9495C14.9811 26.2121 14.8029 26.4404 14.5653 26.6342C14.3339 26.8218 14.0431 26.9688 13.6929 27.0751C13.349 27.1814 12.9488 27.2346 12.4923 27.2346C12.1233 27.2346 11.7638 27.1877 11.4136 27.0939C11.0696 27.0063 10.7632 26.8656 10.4943 26.6718C10.2317 26.4779 10.0222 26.2309 9.86587 25.9307C9.70954 25.6306 9.6345 25.2741 9.64075 24.8614H11.0665ZM17.6364 21.6253H15.6291V20.3871H21.1164V21.6253H19.1091V27.0845H17.6364V21.6253ZM22.716 24.4956H24.4513L23.6071 22.038H23.5884L22.716 24.4956ZM22.8567 20.3871H24.3669L26.8714 27.0845H25.3424L24.8359 25.593H22.3315L21.8062 27.0845H20.3241L22.8567 20.3871ZM27.4489 20.3871H32.1577V21.6253H28.9216V23.173H31.7262V24.3174H28.9216V27.0845H27.4489V20.3871ZM33.0092 20.3871H37.718V21.6253H34.4818V23.173H37.2865V24.3174H34.4818V27.0845H33.0092V20.3871Z" fill="#E8822E"/>
</g>
<defs>
<clipPath id="clip0_1356_188115">
<rect width="48" height="48" rx="5" fill="white"/>
</clipPath>
</defs>
</svg>
