<svg width="48" height="48" viewBox="0 0 48 48" fill="none" xmlns="http://www.w3.org/2000/svg">
<g clip-path="url(#clip0_1356_188137)">
<rect width="48" height="48" rx="2" fill="#383838"/>
<path fill-rule="evenodd" clip-rule="evenodd" d="M9.75 12.9166C9.75 12.0421 10.4589 11.3333 11.3333 11.3333C12.2078 11.3333 12.9167 12.0421 12.9167 12.9166V35.0833C12.9167 35.9577 12.2078 36.6666 11.3333 36.6666C10.4589 36.6666 9.75 35.9577 9.75 35.0833V12.9166ZM37.4645 22.6322C37.9509 22.916 38.25 23.4367 38.25 23.9999C38.25 24.5631 37.9509 25.0839 37.4645 25.3676L18.4645 36.4509C17.9748 36.7366 17.3697 36.7386 16.8781 36.4562C16.3865 36.1739 16.0833 35.6502 16.0833 35.0833V12.9166C16.0833 12.3497 16.3864 11.826 16.8781 11.5436C17.3697 11.2612 17.9748 11.2633 18.4645 11.5489L37.4645 22.6322Z" fill="white"/>
</g>
<defs>
<clipPath id="clip0_1356_188137">
<rect width="48" height="48" rx="5" fill="white"/>
</clipPath>
</defs>
</svg>
