<svg width="48" height="48" viewBox="0 0 48 48" fill="none" xmlns="http://www.w3.org/2000/svg">
<g clip-path="url(#clip0_1356_188117)">
<rect width="48" height="48" rx="2" fill="#383838"/>
<g clip-path="url(#clip1_1356_188117)">
<g filter="url(#filter0_dd_1356_188117)">
<mask id="mask0_1356_188117" style="mask-type:luminance" maskUnits="userSpaceOnUse" x="6" y="6" width="36" height="36">
<path d="M41.0612 6.93872H6.93877C6.79601 6.93872 6.68027 7.05446 6.68027 7.19722V40.7707C6.68027 40.9135 6.79601 41.0292 6.93877 41.0292H41.0612C41.204 41.0292 41.3197 40.9135 41.3197 40.7707V7.19722C41.3197 7.05446 41.204 6.93872 41.0612 6.93872Z" fill="white"/>
</mask>
<g mask="url(#mask0_1356_188117)">
<path d="M41.0612 6.93872H6.93877C6.79601 6.93872 6.68027 7.05446 6.68027 7.19722V40.7707C6.68027 40.9135 6.79601 41.0292 6.93877 41.0292H41.0612C41.204 41.0292 41.3197 40.9135 41.3197 40.7707V7.19722C41.3197 7.05446 41.204 6.93872 41.0612 6.93872Z" fill="white"/>
<mask id="mask1_1356_188117" style="mask-type:luminance" maskUnits="userSpaceOnUse" x="11" y="12" width="26" height="14">
<path d="M36.1497 12.1089H11.8503V25.7776H36.1497V12.1089Z" fill="white"/>
</mask>
<g mask="url(#mask1_1356_188117)">
<g filter="url(#filter1_d_1356_188117)">
<path fill-rule="evenodd" clip-rule="evenodd" d="M19.4762 15.1173C19.262 15.1173 19.0884 15.2909 19.0884 15.5051V16.5391V18.2193V22.4846C19.0884 22.6274 19.2041 22.7431 19.3469 22.7431H28.6531C28.7959 22.7431 28.9116 22.6274 28.9116 22.4846V16.5391C28.9116 16.3963 28.7959 16.2806 28.6531 16.2806H24.1989L23.3407 15.2561C23.267 15.1681 23.1582 15.1173 23.0435 15.1173H19.4762Z" fill="#B1E5FA"/>
</g>
</g>
<path d="M16.7299 28.7101V29.9137H17.0546V28.7101H17.4971V28.4371H16.2873V28.7101H16.7299ZM17.5847 28.4371V29.9137H17.8783V29.3533C17.8783 29.2444 17.8962 29.1665 17.9321 29.1196C17.968 29.0714 18.0259 29.0472 18.1059 29.0472C18.1762 29.0472 18.225 29.0693 18.2527 29.1134C18.2802 29.1562 18.2941 29.2217 18.2941 29.3098V29.9137H18.5877V29.2561C18.5877 29.1899 18.5815 29.1299 18.5691 29.0762C18.558 29.0211 18.5381 28.9748 18.5091 28.9376C18.4802 28.8991 18.4401 28.8694 18.3892 28.8487C18.3395 28.8267 18.2754 28.8156 18.1969 28.8156C18.1417 28.8156 18.0852 28.8301 18.0273 28.859C17.9694 28.8867 17.9218 28.9314 17.8845 28.9934H17.8783V28.4371H17.5847ZM19.4785 29.2643H19.0008C19.0022 29.2437 19.0064 29.2203 19.0132 29.194C19.0215 29.1679 19.0345 29.1431 19.0525 29.1196C19.0718 29.0962 19.0966 29.0769 19.127 29.0617C19.1586 29.0451 19.1979 29.0369 19.2448 29.0369C19.3166 29.0369 19.3696 29.0563 19.4041 29.0948C19.4399 29.1334 19.4647 29.1899 19.4785 29.2643ZM19.0008 29.4505H19.7722C19.7777 29.3677 19.7708 29.2885 19.7515 29.2126C19.7322 29.1369 19.7004 29.0693 19.6564 29.01C19.6136 28.9508 19.5585 28.9039 19.4909 28.8694C19.4233 28.8335 19.3441 28.8156 19.2531 28.8156C19.1718 28.8156 19.0974 28.8301 19.0298 28.859C18.9636 28.888 18.9063 28.928 18.8581 28.979C18.8099 29.0286 18.7727 29.0879 18.7464 29.1568C18.7202 29.2258 18.7071 29.3003 18.7071 29.3802C18.7071 29.4629 18.7196 29.5387 18.7444 29.6076C18.7706 29.6767 18.8071 29.7359 18.854 29.7855C18.9009 29.8351 18.958 29.8738 19.0256 29.9013C19.0932 29.9275 19.169 29.9406 19.2531 29.9406C19.3745 29.9406 19.4779 29.9131 19.5633 29.8579C19.6487 29.8028 19.7122 29.711 19.7536 29.5828H19.4951C19.4854 29.6159 19.4593 29.6477 19.4165 29.678C19.3737 29.7069 19.3228 29.7214 19.2634 29.7214C19.1807 29.7214 19.1173 29.7001 19.0732 29.6573C19.0291 29.6146 19.0049 29.5456 19.0008 29.4505ZM21.314 29.4484V28.4371H20.9893V29.4339C20.9893 29.4602 20.9879 29.4877 20.9852 29.5166C20.9838 29.5443 20.9776 29.5704 20.9666 29.5952C20.9569 29.6188 20.9404 29.638 20.917 29.6531C20.8934 29.6684 20.8603 29.6759 20.8177 29.6759C20.779 29.6759 20.7474 29.6697 20.7226 29.6573C20.699 29.6449 20.6804 29.6283 20.6667 29.6076C20.6529 29.5857 20.6432 29.5594 20.6378 29.5291C20.6322 29.4988 20.6295 29.4657 20.6295 29.4298V29.3636H20.3358V29.4918C20.3358 29.5733 20.3495 29.6428 20.3772 29.7007C20.4047 29.7573 20.4413 29.8041 20.4868 29.8413C20.5323 29.8773 20.584 29.9034 20.6419 29.9199C20.6998 29.9379 20.7598 29.9468 20.8218 29.9468C20.9321 29.9468 21.0196 29.9303 21.0845 29.8972C21.1492 29.8628 21.1989 29.8206 21.2334 29.771C21.2677 29.7201 21.2899 29.6655 21.2995 29.6076C21.3091 29.5497 21.314 29.4967 21.314 29.4484ZM21.7765 29.3802C21.7765 29.3375 21.7806 29.2954 21.7889 29.254C21.7972 29.2126 21.811 29.1762 21.8303 29.1444C21.8509 29.1127 21.8778 29.0873 21.9109 29.0679C21.944 29.0472 21.9854 29.0369 22.035 29.0369C22.0846 29.0369 22.126 29.0472 22.1591 29.0679C22.1936 29.0873 22.2205 29.1127 22.2397 29.1444C22.2604 29.1762 22.2749 29.2126 22.2831 29.254C22.2914 29.2954 22.2956 29.3375 22.2956 29.3802C22.2956 29.4229 22.2914 29.4649 22.2831 29.5063C22.2749 29.5464 22.2604 29.5828 22.2397 29.6159C22.2205 29.6477 22.1936 29.6732 22.1591 29.6924C22.126 29.7118 22.0846 29.7214 22.035 29.7214C21.9854 29.7214 21.944 29.7118 21.9109 29.6924C21.8778 29.6732 21.8509 29.6477 21.8303 29.6159C21.811 29.5828 21.7972 29.5464 21.7889 29.5063C21.7806 29.4649 21.7765 29.4229 21.7765 29.3802ZM21.4828 29.3802C21.4828 29.4657 21.496 29.5429 21.5221 29.6118C21.5484 29.6808 21.5856 29.74 21.6338 29.7896C21.6821 29.838 21.74 29.8752 21.8075 29.9013C21.8751 29.9275 21.951 29.9406 22.035 29.9406C22.1191 29.9406 22.195 29.9275 22.2625 29.9013C22.3315 29.8752 22.39 29.838 22.4383 29.7896C22.4866 29.74 22.5238 29.6808 22.5499 29.6118C22.5762 29.5429 22.5892 29.4657 22.5892 29.3802C22.5892 29.2947 22.5762 29.2176 22.5499 29.1485C22.5238 29.0782 22.4866 29.019 22.4383 28.9707C22.39 28.9211 22.3315 28.8832 22.2625 28.8569C22.195 28.8294 22.1191 28.8156 22.035 28.8156C21.951 28.8156 21.8751 28.8294 21.8075 28.8569C21.74 28.8832 21.6821 28.9211 21.6338 28.9707C21.5856 29.019 21.5484 29.0782 21.5221 29.1485C21.496 29.2176 21.4828 29.2947 21.4828 29.3802ZM23.7314 29.9137V28.8445H23.4378V29.405C23.4378 29.5139 23.4199 29.5925 23.384 29.6407C23.3482 29.6876 23.2903 29.711 23.2103 29.711C23.14 29.711 23.0911 29.6897 23.0634 29.6469C23.0359 29.6029 23.0221 29.5367 23.0221 29.4484V28.8445H22.7284V29.5022C22.7284 29.5683 22.734 29.6291 22.745 29.6842C22.7574 29.7379 22.7781 29.7842 22.807 29.8227C22.836 29.8599 22.8753 29.8889 22.9249 29.9096C22.9759 29.9302 23.0407 29.9406 23.1193 29.9406C23.1813 29.9406 23.2421 29.9269 23.3013 29.8992C23.3606 29.8717 23.4088 29.8268 23.446 29.7648H23.4522V29.9137H23.7314ZM23.9027 28.8445V29.9137H24.1963V29.4319C24.1963 29.3836 24.2011 29.3388 24.2108 29.2974C24.2204 29.2561 24.2363 29.2203 24.2584 29.1899C24.2818 29.1582 24.3121 29.1334 24.3494 29.1154C24.3866 29.0976 24.4321 29.0886 24.4859 29.0886C24.5037 29.0886 24.5223 29.09 24.5417 29.0927C24.561 29.0941 24.5775 29.0962 24.5913 29.0989V28.8259C24.5678 28.8191 24.5465 28.8156 24.5272 28.8156C24.49 28.8156 24.4541 28.8211 24.4197 28.8321C24.3852 28.8432 24.3527 28.859 24.3225 28.8797C24.2921 28.8991 24.2652 28.9231 24.2418 28.9521C24.2183 28.9797 24.1997 29.01 24.186 29.0431H24.1819V28.8445H23.9027ZM24.6911 28.8445V29.9137H24.9848V29.3533C24.9848 29.2444 25.0026 29.1665 25.0385 29.1196C25.0743 29.0714 25.1322 29.0472 25.2123 29.0472C25.2826 29.0472 25.3314 29.0693 25.3591 29.1134C25.3866 29.1562 25.4004 29.2217 25.4004 29.3098V29.9137H25.6941V29.2561C25.6941 29.1899 25.6879 29.1299 25.6755 29.0762C25.6644 29.0211 25.6445 28.9748 25.6155 28.9376C25.5866 28.8991 25.5465 28.8694 25.4956 28.8487C25.4459 28.8267 25.3818 28.8156 25.3032 28.8156C25.2412 28.8156 25.1805 28.8301 25.1213 28.859C25.0619 28.8867 25.0137 28.9314 24.9765 28.9934H24.9703V28.8445H24.6911ZM26.5849 29.2643H26.1072C26.1086 29.2437 26.1127 29.2203 26.1196 29.194C26.1279 29.1679 26.1411 29.1431 26.1589 29.1196C26.1783 29.0962 26.2031 29.0769 26.2333 29.0617C26.2651 29.0451 26.3044 29.0369 26.3512 29.0369C26.423 29.0369 26.4761 29.0563 26.5105 29.0948C26.5464 29.1334 26.5712 29.1899 26.5849 29.2643ZM26.1072 29.4505H26.8786C26.8841 29.3677 26.8773 29.2885 26.8579 29.2126C26.8386 29.1369 26.807 29.0693 26.7628 29.01C26.7201 28.9508 26.6649 28.9039 26.5973 28.8694C26.5298 28.8335 26.4505 28.8156 26.3595 28.8156C26.2782 28.8156 26.2037 28.8301 26.1361 28.859C26.07 28.888 26.0128 28.928 25.9645 28.979C25.9163 29.0286 25.8791 29.0879 25.8528 29.1568C25.8267 29.2258 25.8135 29.3003 25.8135 29.3802C25.8135 29.4629 25.8259 29.5387 25.8508 29.6076C25.877 29.6767 25.9136 29.7359 25.9604 29.7855C26.0073 29.8351 26.0645 29.8738 26.132 29.9013C26.1996 29.9275 26.2755 29.9406 26.3595 29.9406C26.4809 29.9406 26.5843 29.9131 26.6697 29.8579C26.7553 29.8028 26.8186 29.711 26.86 29.5828H26.6014C26.5919 29.6159 26.5656 29.6477 26.5229 29.678C26.4802 29.7069 26.4292 29.7214 26.3698 29.7214C26.2871 29.7214 26.2238 29.7001 26.1796 29.6573C26.1355 29.6146 26.1113 29.5456 26.1072 29.4505ZM27.5284 30.0461L27.9751 28.8445H27.6711L27.4374 29.5766H27.4333L27.1914 28.8445H26.8791L27.2534 29.8475C27.2617 29.8682 27.2658 29.8903 27.2658 29.9137C27.2658 29.9455 27.2561 29.9745 27.2368 30.0006C27.2189 30.0268 27.1906 30.0419 27.1521 30.0461C27.1231 30.0475 27.0942 30.0468 27.0652 30.044C27.0363 30.0413 27.0079 30.0386 26.9804 30.0357V30.2777C27.0107 30.2805 27.0404 30.2826 27.0693 30.2839C27.0996 30.2867 27.13 30.288 27.1603 30.288C27.2609 30.288 27.3395 30.2694 27.3961 30.2322C27.4526 30.195 27.4966 30.1329 27.5284 30.0461ZM28.9923 29.2168C28.9551 29.2168 28.922 29.2093 28.8931 29.194C28.8654 29.1775 28.8427 29.1568 28.8248 29.132C28.8069 29.1059 28.793 29.0769 28.7835 29.0451C28.7752 29.012 28.7711 28.9783 28.7711 28.9438C28.7711 28.9107 28.7758 28.8784 28.7855 28.8466C28.7951 28.8149 28.8096 28.7866 28.829 28.7618C28.8482 28.737 28.8716 28.7171 28.8993 28.7018C28.9268 28.6867 28.9578 28.6791 28.9923 28.6791C29.0296 28.6791 29.0627 28.6867 29.0916 28.7018C29.1206 28.7171 29.1446 28.7378 29.164 28.7639C29.1847 28.7887 29.1998 28.8177 29.2095 28.8507C29.2205 28.8825 29.226 28.9148 29.226 28.9479C29.226 28.9839 29.2211 29.0182 29.2116 29.0513C29.2019 29.0831 29.1874 29.1113 29.1681 29.1361C29.1487 29.1609 29.1247 29.181 29.0957 29.1961C29.0668 29.2099 29.0323 29.2168 28.9923 29.2168ZM28.7814 29.5415H28.5022C28.5105 29.6049 28.5277 29.6614 28.5539 29.711C28.58 29.7607 28.6139 29.8028 28.6553 29.8372C28.6966 29.8717 28.7442 29.8972 28.798 29.9137C28.8517 29.9317 28.9096 29.9406 28.9717 29.9406C29.0751 29.9406 29.1626 29.9186 29.2343 29.8744C29.3059 29.8289 29.3646 29.7704 29.4101 29.6986C29.4556 29.6256 29.4887 29.5443 29.5094 29.4546C29.53 29.365 29.5404 29.2755 29.5404 29.1858C29.5404 29.0948 29.5321 29.0045 29.5156 28.9148C29.499 28.8253 29.4693 28.7453 29.4266 28.675C29.3839 28.6034 29.3266 28.5461 29.255 28.5033C29.1847 28.4592 29.0943 28.4371 28.9841 28.4371C28.9082 28.4371 28.8393 28.451 28.7773 28.4785C28.7152 28.5062 28.6615 28.544 28.616 28.5922C28.5718 28.6392 28.5374 28.695 28.5126 28.7597C28.489 28.8232 28.4774 28.8921 28.4774 28.9665C28.4774 29.0245 28.4863 29.0817 28.5043 29.1382C28.5221 29.1948 28.5504 29.2451 28.5891 29.2892C28.6304 29.3347 28.6807 29.3712 28.74 29.3988C28.7992 29.425 28.86 29.4381 28.922 29.4381C28.9923 29.4381 29.0544 29.4257 29.1082 29.4008C29.1619 29.376 29.2087 29.3347 29.2488 29.2768L29.2529 29.2809C29.2501 29.321 29.2439 29.3665 29.2343 29.4174C29.226 29.4684 29.2116 29.5166 29.1909 29.5621C29.1702 29.6063 29.1425 29.6442 29.1082 29.6759C29.0736 29.7063 29.0296 29.7214 28.9758 29.7214C28.9247 29.7214 28.882 29.7035 28.8476 29.6676C28.8131 29.6318 28.791 29.5898 28.7814 29.5415ZM29.8684 29.1837C29.8684 29.1589 29.8684 29.1293 29.8684 29.0948C29.8698 29.059 29.8726 29.0224 29.8767 28.9852C29.8808 28.9479 29.8878 28.9115 29.8974 28.8756C29.9071 28.8383 29.9201 28.8052 29.9367 28.7763C29.9546 28.7473 29.9767 28.7239 30.0028 28.706C30.0305 28.6881 30.0642 28.6791 30.1042 28.6791C30.1442 28.6791 30.178 28.6881 30.2055 28.706C30.2332 28.7239 30.2559 28.7473 30.2737 28.7763C30.2917 28.8052 30.3048 28.8383 30.313 28.8756C30.3227 28.9115 30.3296 28.9479 30.3337 28.9852C30.3393 29.0224 30.342 29.059 30.342 29.0948C30.3434 29.1293 30.3441 29.1589 30.3441 29.1837C30.3441 29.2251 30.3428 29.2755 30.3399 29.3347C30.3372 29.3926 30.3283 29.4492 30.313 29.5042C30.2993 29.558 30.2758 29.6043 30.2427 29.6428C30.2111 29.6814 30.1649 29.7007 30.1042 29.7007C30.045 29.7007 29.9995 29.6814 29.9677 29.6428C29.936 29.6043 29.9126 29.558 29.8974 29.5042C29.8837 29.4492 29.8754 29.3926 29.8726 29.3347C29.8698 29.2755 29.8684 29.2251 29.8684 29.1837ZM29.5748 29.1837C29.5748 29.3285 29.5886 29.4498 29.6161 29.5477C29.6451 29.6442 29.6837 29.7214 29.7319 29.7793C29.7803 29.8372 29.8361 29.8786 29.8994 29.9034C29.9643 29.9282 30.0326 29.9406 30.1042 29.9406C30.1773 29.9406 30.2456 29.9282 30.3089 29.9034C30.3738 29.8786 30.4303 29.8372 30.4785 29.7793C30.5281 29.7214 30.5668 29.6442 30.5943 29.5477C30.6232 29.4498 30.6377 29.3285 30.6377 29.1837C30.6377 29.0431 30.6232 28.9252 30.5943 28.8301C30.5668 28.7336 30.5281 28.6563 30.4785 28.5984C30.4303 28.5405 30.3738 28.4992 30.3089 28.4744C30.2456 28.4495 30.1773 28.4371 30.1042 28.4371C30.0326 28.4371 29.9643 28.4495 29.8994 28.4744C29.8361 28.4992 29.7803 28.5405 29.7319 28.5984C29.6837 28.6563 29.6451 28.7336 29.6161 28.8301C29.5886 28.9252 29.5748 29.0431 29.5748 29.1837ZM30.968 29.5663H30.6888C30.6915 29.638 30.7074 29.698 30.7363 29.7462C30.7667 29.7931 30.8046 29.831 30.8501 29.8599C30.897 29.8889 30.95 29.9096 31.0093 29.922C31.0686 29.9344 31.1293 29.9406 31.1913 29.9406C31.2519 29.9406 31.3113 29.9344 31.3692 29.922C31.4285 29.911 31.4808 29.891 31.5263 29.862C31.5718 29.8331 31.6084 29.7952 31.6359 29.7483C31.6649 29.7001 31.6794 29.6407 31.6794 29.5704C31.6794 29.5208 31.6697 29.4794 31.6504 29.4463C31.6311 29.4119 31.6056 29.3836 31.5739 29.3615C31.5422 29.3381 31.5056 29.3195 31.4643 29.3057C31.4243 29.292 31.383 29.2802 31.3402 29.2705C31.2988 29.261 31.2581 29.2519 31.2182 29.2437C31.1783 29.2354 31.1423 29.2265 31.1107 29.2168C31.0803 29.2058 31.0555 29.192 31.0362 29.1754C31.0169 29.1589 31.0073 29.1375 31.0073 29.1113C31.0073 29.0893 31.0128 29.072 31.0238 29.0596C31.0348 29.0459 31.048 29.0356 31.0631 29.0286C31.0796 29.0217 31.0976 29.0176 31.1169 29.0162C31.1361 29.0135 31.1541 29.012 31.1706 29.012C31.223 29.012 31.2685 29.0224 31.3071 29.0431C31.3458 29.0625 31.3671 29.1003 31.3712 29.1568H31.6504C31.6449 29.0906 31.6277 29.0362 31.5987 28.9934C31.5712 28.9494 31.536 28.9142 31.4932 28.888C31.4505 28.8619 31.4016 28.8432 31.3464 28.8321C31.2926 28.8211 31.2368 28.8156 31.1789 28.8156C31.121 28.8156 31.0645 28.8211 31.0093 28.8321C30.9541 28.8418 30.9045 28.8598 30.8604 28.8859C30.8163 28.9107 30.7804 28.9452 30.7529 28.9893C30.7266 29.0335 30.7136 29.09 30.7136 29.1589C30.7136 29.2058 30.7233 29.2457 30.7425 29.2788C30.7618 29.3106 30.7874 29.3375 30.8191 29.3595C30.8507 29.3802 30.8867 29.3975 30.9266 29.4112C30.968 29.4236 31.01 29.4347 31.0527 29.4443C31.1576 29.4664 31.2389 29.4885 31.2968 29.5104C31.3561 29.5325 31.3857 29.5656 31.3857 29.6097C31.3857 29.6359 31.3795 29.658 31.3671 29.6759C31.3547 29.6924 31.3388 29.7063 31.3195 29.7172C31.3016 29.7269 31.2809 29.7346 31.2575 29.74C31.2354 29.7441 31.2141 29.7462 31.1934 29.7462C31.1644 29.7462 31.1361 29.7428 31.1086 29.7359C31.0823 29.729 31.059 29.7187 31.0383 29.7048C31.0176 29.6897 31.0004 29.6711 30.9866 29.649C30.9742 29.6256 30.968 29.5981 30.968 29.5663Z" fill="#11191D"/>
<path d="M21.1912 33.0156V31.7327H21.0736C21.0652 31.781 21.0494 31.8208 21.0266 31.8521C21.0037 31.8835 20.9753 31.9082 20.9415 31.9263C20.9089 31.9444 20.8721 31.9571 20.8311 31.9643C20.7902 31.9704 20.7479 31.9733 20.7045 31.9733V32.0964H21.0374V33.0156H21.1912ZM21.6321 32.1869H21.7859C21.7848 32.1484 21.7884 32.1104 21.7968 32.0729C21.8065 32.0344 21.8216 32 21.842 31.9697C21.8626 31.9396 21.8885 31.9154 21.9198 31.8973C21.9524 31.8781 21.991 31.8684 22.0356 31.8684C22.0695 31.8684 22.1014 31.8738 22.1315 31.8847C22.1618 31.8955 22.1876 31.9113 22.2093 31.9317C22.2324 31.9523 22.2504 31.977 22.2636 32.0059C22.2769 32.0337 22.2835 32.0651 22.2835 32.1C22.2835 32.1447 22.2763 32.1839 22.2618 32.2176C22.2486 32.2515 22.2281 32.2828 22.2003 32.3117C22.1738 32.3407 22.1401 32.3696 22.099 32.3986C22.058 32.4264 22.0103 32.4571 21.956 32.4909C21.9114 32.5175 21.8686 32.5458 21.8275 32.5759C21.7866 32.6062 21.7497 32.6411 21.7172 32.6809C21.6846 32.7207 21.6574 32.7677 21.6357 32.822C21.6153 32.8751 21.602 32.9396 21.5959 33.0156H22.4337V32.8799H21.7751C21.7823 32.8401 21.7974 32.8052 21.8203 32.775C21.8445 32.7437 21.8728 32.7147 21.9053 32.6881C21.9392 32.6616 21.9759 32.6369 22.0157 32.6139C22.0555 32.5899 22.0953 32.5657 22.1352 32.5415C22.175 32.5162 22.2136 32.4897 22.251 32.4619C22.2884 32.4343 22.3215 32.4035 22.3505 32.3696C22.3794 32.3347 22.4024 32.2954 22.4193 32.252C22.4373 32.2086 22.4464 32.1586 22.4464 32.1018C22.4464 32.0416 22.4355 31.9885 22.4138 31.9426C22.3934 31.8968 22.365 31.8588 22.3288 31.8286C22.2926 31.7973 22.2498 31.7738 22.2003 31.758C22.1521 31.7412 22.1003 31.7327 22.0447 31.7327C21.9772 31.7327 21.9168 31.7442 21.8637 31.7671C21.8107 31.7901 21.766 31.822 21.7298 31.863C21.6949 31.9028 21.6689 31.9505 21.652 32.0059C21.6352 32.0615 21.6285 32.1217 21.6321 32.1869ZM23.3403 31.9118V31.7236H23.1865V31.9118H23.3403ZM23.1865 32.0801V33.0156H23.3403V32.0801H23.1865ZM23.7922 32.0801V31.7996H23.6384V32.0801H23.4791V32.2158H23.6384V32.8112C23.6384 32.8546 23.6425 32.8896 23.651 32.9161C23.6594 32.9427 23.6721 32.9632 23.689 32.9776C23.7071 32.9921 23.73 33.0024 23.7578 33.0084C23.7867 33.0133 23.8211 33.0156 23.8609 33.0156H23.9785V32.8799H23.908C23.8838 32.8799 23.8639 32.8794 23.8483 32.8781C23.8338 32.8758 23.8223 32.8715 23.8139 32.8654C23.8053 32.8595 23.7994 32.851 23.7958 32.8401C23.7933 32.8293 23.7922 32.8148 23.7922 32.7967V32.2158H23.9785V32.0801H23.7922ZM24.799 32.4583H24.2616C24.2639 32.4221 24.2718 32.3884 24.2851 32.357C24.2983 32.3244 24.3164 32.2961 24.3394 32.2719C24.3623 32.2479 24.3894 32.2291 24.4208 32.2158C24.4534 32.2013 24.4896 32.1941 24.5294 32.1941C24.5679 32.1941 24.603 32.2013 24.6344 32.2158C24.6669 32.2291 24.6946 32.2479 24.7176 32.2719C24.7416 32.2949 24.7604 32.3226 24.7737 32.3552C24.7882 32.3877 24.7966 32.4221 24.799 32.4583ZM24.9474 32.7189H24.7954C24.7821 32.7804 24.7543 32.8263 24.7122 32.8564C24.6711 32.8866 24.6181 32.9016 24.5529 32.9016C24.5023 32.9016 24.4582 32.8932 24.4208 32.8763C24.3834 32.8595 24.3526 32.8371 24.3286 32.8093C24.3044 32.7804 24.2869 32.7478 24.2761 32.7116C24.2652 32.6743 24.2603 32.6351 24.2616 32.594H24.9619C24.9642 32.5374 24.9588 32.4777 24.9456 32.4149C24.9335 32.3522 24.9106 32.2943 24.8768 32.2412C24.8443 32.1882 24.8002 32.1447 24.7447 32.1109C24.6905 32.076 24.6217 32.0584 24.5385 32.0584C24.4745 32.0584 24.4154 32.0705 24.3611 32.0946C24.308 32.1188 24.2616 32.1525 24.2218 32.1959C24.1831 32.2393 24.153 32.2907 24.1313 32.3497C24.1096 32.4089 24.0987 32.4741 24.0987 32.5452C24.1011 32.6164 24.1114 32.6822 24.1295 32.7424C24.1488 32.8028 24.1771 32.8546 24.2146 32.898C24.2519 32.9414 24.2978 32.9753 24.3521 32.9993C24.4075 33.0235 24.4727 33.0355 24.5475 33.0355C24.6536 33.0355 24.7416 33.009 24.8117 32.9559C24.8816 32.9029 24.9269 32.8238 24.9474 32.7189ZM25.1213 32.0801V33.0156H25.2751V32.433C25.2751 32.4149 25.2793 32.3926 25.2877 32.366C25.2974 32.3384 25.3119 32.3117 25.3312 32.2864C25.3517 32.2611 25.3777 32.2393 25.409 32.2213C25.4415 32.2032 25.4802 32.1941 25.5248 32.1941C25.5598 32.1941 25.5881 32.1995 25.6098 32.2104C25.6328 32.2201 25.6509 32.2346 25.6641 32.2538C25.6774 32.2719 25.6865 32.2936 25.6913 32.319C25.6973 32.3443 25.7003 32.3721 25.7003 32.4022V33.0156H25.8541V32.433C25.8541 32.3606 25.8758 32.3027 25.9193 32.2593C25.9627 32.2158 26.0224 32.1941 26.0984 32.1941C26.1359 32.1941 26.166 32.1995 26.1889 32.2104C26.213 32.2213 26.2318 32.2364 26.245 32.2556C26.2583 32.2737 26.2673 32.2954 26.2721 32.3208C26.277 32.3461 26.2794 32.3733 26.2794 32.4022V33.0156H26.4332V32.3298C26.4332 32.2816 26.4254 32.2406 26.4096 32.2068C26.3952 32.1719 26.3741 32.1434 26.3463 32.1217C26.3198 32.1 26.2872 32.0844 26.2486 32.0747C26.2112 32.0638 26.169 32.0584 26.1219 32.0584C26.0604 32.0584 26.0038 32.0724 25.9518 32.1C25.9012 32.1278 25.8602 32.167 25.8288 32.2176C25.8095 32.1597 25.7763 32.1188 25.7293 32.0946C25.6822 32.0705 25.6297 32.0584 25.5718 32.0584C25.4404 32.0584 25.3397 32.1115 25.2696 32.2176H25.266V32.0801H25.1213ZM26.7581 32.7207H26.6043C26.6067 32.7786 26.6188 32.8281 26.6405 32.8691C26.6622 32.9089 26.6911 32.9414 26.7273 32.9668C26.7635 32.9909 26.8051 33.0084 26.8522 33.0193C26.8992 33.0301 26.9487 33.0355 27.0006 33.0355C27.0476 33.0355 27.0947 33.0308 27.1417 33.0211C27.1899 33.0127 27.2328 32.997 27.2702 32.974C27.3088 32.9511 27.3396 32.921 27.3625 32.8835C27.3867 32.8462 27.3987 32.7991 27.3987 32.7424C27.3987 32.6978 27.3896 32.6604 27.3715 32.6302C27.3546 32.6001 27.3317 32.5754 27.3028 32.556C27.275 32.5356 27.2424 32.5193 27.2051 32.5072C27.1689 32.4951 27.1315 32.4849 27.0929 32.4764C27.0567 32.468 27.0205 32.4601 26.9843 32.4529C26.9481 32.4445 26.9155 32.4348 26.8866 32.4239C26.8576 32.4119 26.8335 32.3974 26.8142 32.3805C26.7961 32.3624 26.7871 32.3402 26.7871 32.3135C26.7871 32.2895 26.7931 32.2701 26.8051 32.2556C26.8172 32.24 26.8329 32.228 26.8522 32.2194C26.8715 32.2099 26.8927 32.2032 26.9155 32.1995C26.9397 32.1959 26.9632 32.1941 26.9861 32.1941C27.0114 32.1941 27.0361 32.1972 27.0603 32.2032C27.0856 32.2081 27.1085 32.2165 27.1291 32.2285C27.1496 32.2406 27.1664 32.2569 27.1797 32.2773C27.193 32.2967 27.2008 32.3214 27.2032 32.3515H27.3571C27.3534 32.2949 27.3414 32.2479 27.3209 32.2104C27.3003 32.1719 27.2727 32.1416 27.2376 32.1199C27.2039 32.097 27.1646 32.0814 27.12 32.0729C27.0754 32.0633 27.0266 32.0584 26.9734 32.0584C26.9325 32.0584 26.8908 32.0638 26.8486 32.0747C26.8076 32.0844 26.7701 32.1 26.7364 32.1217C26.7038 32.1423 26.6767 32.1694 26.655 32.2032C26.6344 32.237 26.6242 32.2773 26.6242 32.3244C26.6242 32.3848 26.6393 32.4318 26.6694 32.4655C26.6995 32.4994 26.737 32.5259 26.7816 32.5452C26.8275 32.5633 26.8769 32.5777 26.93 32.5886C26.9831 32.5983 27.032 32.6098 27.0766 32.623C27.1225 32.6351 27.1605 32.6514 27.1906 32.6718C27.2207 32.6924 27.2358 32.7225 27.2358 32.7623C27.2358 32.7913 27.2286 32.8154 27.2141 32.8347C27.1996 32.8528 27.1809 32.8667 27.158 32.8763C27.1363 32.886 27.1121 32.8926 27.0856 32.8962C27.0591 32.8998 27.0338 32.9016 27.0096 32.9016C26.9782 32.9016 26.9475 32.8987 26.9173 32.8926C26.8884 32.8866 26.8619 32.8769 26.8377 32.8636C26.8148 32.8492 26.7961 32.8305 26.7816 32.8075C26.7671 32.7835 26.7593 32.7545 26.7581 32.7207Z" fill="#566F82"/>
<path fill-rule="evenodd" clip-rule="evenodd" d="M10.725 37.3724L10.4286 37.0761V38.5735H10.1701V37.0759L9.87376 37.3724L9.69093 37.1896L10.2077 36.6726C10.2582 36.6222 10.34 36.6221 10.3905 36.6726L10.9077 37.1896L10.725 37.3724ZM9.86309 37.9273V37.6688H9.65306C9.4389 37.6688 9.2653 37.8423 9.2653 38.0565V38.832C9.2653 39.0462 9.4389 39.2198 9.65306 39.2198H10.9456C11.1597 39.2198 11.3333 39.0462 11.3333 38.832V38.0565C11.3333 37.8423 11.1597 37.6688 10.9456 37.6688H10.7355V37.9273H10.9456C11.017 37.9273 11.0748 37.9852 11.0748 38.0565V38.832C11.0748 38.9034 11.017 38.9613 10.9456 38.9613H9.65306C9.58167 38.9613 9.52381 38.9034 9.52381 38.832V38.0565C9.52381 37.9852 9.58167 37.9273 9.65306 37.9273H9.86309Z" fill="#566F82"/>
<path fill-rule="evenodd" clip-rule="evenodd" d="M36.7959 38.1857C36.9387 38.1857 37.0544 38.07 37.0544 37.9272C37.0544 37.7845 36.9387 37.6687 36.7959 37.6687C36.6531 37.6687 36.5374 37.7845 36.5374 37.9272C36.5374 38.07 36.6531 38.1857 36.7959 38.1857Z" fill="#566F82"/>
<path fill-rule="evenodd" clip-rule="evenodd" d="M37.7007 38.1857C37.8435 38.1857 37.9592 38.07 37.9592 37.9272C37.9592 37.7845 37.8435 37.6687 37.7007 37.6687C37.5579 37.6687 37.4422 37.7845 37.4422 37.9272C37.4422 38.07 37.5579 38.1857 37.7007 38.1857Z" fill="#566F82"/>
<path fill-rule="evenodd" clip-rule="evenodd" d="M38.6054 38.1857C38.7483 38.1857 38.8639 38.07 38.8639 37.9272C38.8639 37.7845 38.7483 37.6687 38.6054 37.6687C38.4626 37.6687 38.3469 37.7845 38.3469 37.9272C38.3469 38.07 38.4626 38.1857 38.6054 38.1857Z" fill="#566F82"/>
</g>
<path d="M41.0612 6.87415H6.93878C6.76032 6.87415 6.61565 7.01882 6.61565 7.19727V40.7708C6.61565 40.9492 6.76032 41.0939 6.93878 41.0939H41.0612C41.2397 41.0939 41.3844 40.9492 41.3844 40.7708V7.19727C41.3844 7.01882 41.2397 6.87415 41.0612 6.87415Z" stroke="black" stroke-opacity="0.025" stroke-width="0.129252"/>
</g>
</g>
</g>
<defs>
<filter id="filter0_dd_1356_188117" x="5.1551" y="5.41365" width="37.6898" height="37.9163" filterUnits="userSpaceOnUse" color-interpolation-filters="sRGB">
<feFlood flood-opacity="0" result="BackgroundImageFix"/>
<feColorMatrix in="SourceAlpha" type="matrix" values="0 0 0 0 0 0 0 0 0 0 0 0 0 0 0 0 0 0 127 0" result="hardAlpha"/>
<feOffset/>
<feGaussianBlur stdDeviation="0.697959"/>
<feColorMatrix type="matrix" values="0 0 0 0 0 0 0 0 0 0 0 0 0 0 0 0 0 0 0.06 0"/>
<feBlend mode="normal" in2="BackgroundImageFix" result="effect1_dropShadow_1356_188117"/>
<feColorMatrix in="SourceAlpha" type="matrix" values="0 0 0 0 0 0 0 0 0 0 0 0 0 0 0 0 0 0 127 0" result="hardAlpha"/>
<feOffset dy="1.29252"/>
<feGaussianBlur stdDeviation="0.439456"/>
<feColorMatrix type="matrix" values="0 0 0 0 0 0 0 0 0 0 0 0 0 0 0 0 0 0 0.09 0"/>
<feBlend mode="normal" in2="effect1_dropShadow_1356_188117" result="effect2_dropShadow_1356_188117"/>
<feBlend mode="normal" in="SourceGraphic" in2="effect2_dropShadow_1356_188117" result="shape"/>
</filter>
<filter id="filter1_d_1356_188117" x="19.0884" y="14.8588" width="9.82313" height="7.88436" filterUnits="userSpaceOnUse" color-interpolation-filters="sRGB">
<feFlood flood-opacity="0" result="BackgroundImageFix"/>
<feColorMatrix in="SourceAlpha" type="matrix" values="0 0 0 0 0 0 0 0 0 0 0 0 0 0 0 0 0 0 127 0" result="hardAlpha"/>
<feOffset dy="-0.258503"/>
<feComposite in2="hardAlpha" operator="out"/>
<feColorMatrix type="matrix" values="0 0 0 0 0 0 0 0 0 0.678431 0 0 0 0 0.937255 0 0 0 0.5 0"/>
<feBlend mode="normal" in2="BackgroundImageFix" result="effect1_dropShadow_1356_188117"/>
<feBlend mode="normal" in="SourceGraphic" in2="effect1_dropShadow_1356_188117" result="shape"/>
</filter>
<clipPath id="clip0_1356_188117">
<rect width="48" height="48" rx="5" fill="white"/>
</clipPath>
<clipPath id="clip1_1356_188117">
<rect width="38" height="37.483" fill="white" transform="translate(5 5.25854)"/>
</clipPath>
</defs>
</svg>
