<svg width="48" height="48" viewBox="0 0 48 48" fill="none" xmlns="http://www.w3.org/2000/svg">
<g clip-path="url(#clip0_1356_188098)">
<rect width="48" height="48" rx="2" fill="#383838"/>
<g clip-path="url(#clip1_1356_188098)">
<path d="M38.3469 13.1429H9.65306C7.08325 13.1429 5 15.2262 5 17.796V30.2042C5 32.774 7.08325 34.8572 9.65306 34.8572H38.3469C40.9168 34.8572 43 32.774 43 30.2042V17.796C43 15.2262 40.9168 13.1429 38.3469 13.1429Z" fill="#00ADEF"/>
<path d="M14.3957 23.7478V22.5822H15.4217C15.5194 22.5822 15.6125 22.5915 15.7009 22.6101C15.794 22.6241 15.8754 22.652 15.9452 22.6939C16.015 22.7358 16.0708 22.7939 16.1127 22.8684C16.1546 22.9428 16.1755 23.0382 16.1755 23.1545C16.1755 23.3639 16.1127 23.5152 15.9871 23.6082C15.8614 23.7013 15.7009 23.7478 15.5055 23.7478H14.3957ZM13.2999 21.7307V26.7141H15.7149C15.9382 26.7141 16.1546 26.6862 16.364 26.6304C16.578 26.5745 16.7665 26.4885 16.9293 26.3721C17.0968 26.2558 17.2294 26.1069 17.3272 25.9254C17.4249 25.7393 17.4737 25.5206 17.4737 25.2694C17.4737 24.9576 17.397 24.6924 17.2434 24.4737C17.0945 24.2503 16.8665 24.0945 16.5594 24.0061C16.7828 23.899 16.9503 23.7618 17.0619 23.5943C17.1783 23.4268 17.2364 23.2174 17.2364 22.9661C17.2364 22.7334 17.1969 22.538 17.1178 22.3798C17.0433 22.2216 16.9363 22.096 16.7967 22.0029C16.6571 21.9052 16.4896 21.8354 16.2942 21.7935C16.0988 21.7517 15.8824 21.7307 15.6451 21.7307H13.2999ZM14.3957 25.8626V24.4946H15.5892C15.8265 24.4946 16.0173 24.5505 16.1616 24.6621C16.3058 24.7692 16.3779 24.9506 16.3779 25.2065C16.3779 25.3368 16.3547 25.4439 16.3081 25.5276C16.2663 25.6114 16.2081 25.6788 16.1337 25.73C16.0592 25.7765 15.9731 25.8114 15.8754 25.8347C15.7777 25.8533 15.6753 25.8626 15.5683 25.8626H14.3957ZM21.4947 26.7141V23.1057H20.5036V24.9972C20.5036 25.3648 20.4431 25.63 20.3221 25.7928C20.2011 25.951 20.0057 26.0301 19.7358 26.0301C19.4985 26.0301 19.3333 25.958 19.2403 25.8138C19.1472 25.6649 19.1007 25.4415 19.1007 25.1437V23.1057H18.1096V25.3252C18.1096 25.5485 18.1282 25.7533 18.1654 25.9394C18.2073 26.1209 18.2771 26.2768 18.3748 26.407C18.4725 26.5327 18.6051 26.6304 18.7726 26.7002C18.9448 26.77 19.1635 26.8049 19.4287 26.8049C19.6381 26.8049 19.8428 26.7583 20.0429 26.6653C20.243 26.5722 20.4059 26.421 20.5315 26.2116H20.5524V26.7141H21.4947ZM23.5032 23.1057V22.0239H22.5121V23.1057H21.9119V23.7688H22.5121V25.8975C22.5121 26.079 22.5424 26.2256 22.6028 26.3372C22.6633 26.4489 22.7448 26.535 22.8471 26.5955C22.9541 26.656 23.0751 26.6955 23.2101 26.7141C23.3497 26.7374 23.4962 26.749 23.6498 26.749C23.7475 26.749 23.8475 26.7467 23.9499 26.7421C24.0523 26.7374 24.1453 26.7281 24.2291 26.7141V25.9464C24.1826 25.9557 24.1337 25.9627 24.0825 25.9673C24.0313 25.972 23.9778 25.9743 23.922 25.9743C23.7545 25.9743 23.6428 25.9464 23.587 25.8905C23.5311 25.8347 23.5032 25.723 23.5032 25.5555V23.7688H24.2291V23.1057H23.5032ZM25.957 23.1057V22.0239H24.9659V23.1057H24.3657V23.7688H24.9659V25.8975C24.9659 26.079 24.9961 26.2256 25.0566 26.3372C25.1171 26.4489 25.1986 26.535 25.3009 26.5955C25.4079 26.656 25.5289 26.6955 25.6639 26.7141C25.8034 26.7374 25.95 26.749 26.1036 26.749C26.2013 26.749 26.3013 26.7467 26.4037 26.7421C26.5061 26.7374 26.5991 26.7281 26.6829 26.7141V25.9464C26.6363 25.9557 26.5875 25.9627 26.5363 25.9673C26.4851 25.972 26.4316 25.9743 26.3758 25.9743C26.2083 25.9743 26.0966 25.9464 26.0408 25.8905C25.9849 25.8347 25.957 25.723 25.957 25.5555V23.7688H26.6829V23.1057H25.957ZM28.0339 24.9134C28.0339 24.7692 28.0478 24.6272 28.0757 24.4877C28.1037 24.3481 28.1502 24.2248 28.2153 24.1177C28.2851 24.0107 28.3759 23.9246 28.4875 23.8595C28.5992 23.7897 28.7388 23.7548 28.9063 23.7548C29.0738 23.7548 29.2134 23.7897 29.3251 23.8595C29.4414 23.9246 29.5321 24.0107 29.5973 24.1177C29.6671 24.2248 29.7159 24.3481 29.7439 24.4877C29.7718 24.6272 29.7857 24.7692 29.7857 24.9134C29.7857 25.0577 29.7718 25.1996 29.7439 25.3392C29.7159 25.4741 29.6671 25.5974 29.5973 25.7091C29.5321 25.8161 29.4414 25.9022 29.3251 25.9673C29.2134 26.0325 29.0738 26.065 28.9063 26.065C28.7388 26.065 28.5992 26.0325 28.4875 25.9673C28.3759 25.9022 28.2851 25.8161 28.2153 25.7091C28.1502 25.5974 28.1037 25.4741 28.0757 25.3392C28.0478 25.1996 28.0339 25.0577 28.0339 24.9134ZM27.0428 24.9134C27.0428 25.2019 27.087 25.4625 27.1754 25.6951C27.2638 25.9278 27.3894 26.1279 27.5523 26.2954C27.7151 26.4582 27.9105 26.5839 28.1385 26.6723C28.3665 26.7607 28.6225 26.8049 28.9063 26.8049C29.1901 26.8049 29.4461 26.7607 29.6741 26.6723C29.9067 26.5839 30.1045 26.4582 30.2673 26.2954C30.4302 26.1279 30.5558 25.9278 30.6442 25.6951C30.7326 25.4625 30.7768 25.2019 30.7768 24.9134C30.7768 24.6249 30.7326 24.3643 30.6442 24.1317C30.5558 23.8944 30.4302 23.6943 30.2673 23.5314C30.1045 23.3639 29.9067 23.236 29.6741 23.1476C29.4461 23.0545 29.1901 23.008 28.9063 23.008C28.6225 23.008 28.3665 23.0545 28.1385 23.1476C27.9105 23.236 27.7151 23.3639 27.5523 23.5314C27.3894 23.6943 27.2638 23.8944 27.1754 24.1317C27.087 24.3643 27.0428 24.6249 27.0428 24.9134ZM31.4212 23.1057V26.7141H32.4123V24.8227C32.4123 24.4551 32.4728 24.1922 32.5938 24.034C32.7148 23.8711 32.9102 23.7897 33.1801 23.7897C33.4174 23.7897 33.5826 23.8641 33.6757 24.013C33.7687 24.1573 33.8152 24.3783 33.8152 24.6761V26.7141H34.8063V24.4946C34.8063 24.2713 34.7854 24.0689 34.7435 23.8874C34.7063 23.7013 34.6388 23.5454 34.5411 23.4198C34.4434 23.2895 34.3085 23.1894 34.1363 23.1197C33.9688 23.0452 33.7524 23.008 33.4872 23.008C33.2778 23.008 33.0731 23.0568 32.873 23.1545C32.6729 23.2476 32.5101 23.3988 32.3844 23.6082H32.3635V23.1057H31.4212Z" fill="white"/>
</g>
</g>
<defs>
<clipPath id="clip0_1356_188098">
<rect width="48" height="48" rx="5" fill="white"/>
</clipPath>
<clipPath id="clip1_1356_188098">
<rect width="38" height="21.7143" fill="white" transform="translate(5 13.1429)"/>
</clipPath>
</defs>
</svg>
