<svg width="48" height="48" viewBox="0 0 48 48" fill="none" xmlns="http://www.w3.org/2000/svg">
<g clip-path="url(#clip0_1356_188116)">
<rect width="48" height="48" rx="2" fill="#383838"/>
<rect x="6" y="16" width="35.7464" height="16.3732" rx="2.18659" fill="#00ADEF" fill-opacity="0.15"/>
<path d="M13.0575 24.4672H14.2579C14.435 24.4672 14.6056 24.4541 14.7696 24.4279C14.9336 24.4017 15.0779 24.3525 15.2025 24.2803C15.3272 24.2016 15.4256 24.0933 15.4977 23.9556C15.5764 23.8178 15.6158 23.6374 15.6158 23.4144C15.6158 23.1914 15.5764 23.011 15.4977 22.8732C15.4256 22.7355 15.3272 22.6305 15.2025 22.5584C15.0779 22.4796 14.9336 22.4272 14.7696 22.4009C14.6056 22.3747 14.435 22.3616 14.2579 22.3616H13.0575V24.4672ZM11.5126 21.1611H14.681C15.1205 21.1611 15.4944 21.2267 15.8027 21.3579C16.111 21.4825 16.3603 21.6498 16.5506 21.8597C16.7473 22.0696 16.8884 22.3091 16.9737 22.578C17.0655 22.847 17.1114 23.1258 17.1114 23.4144C17.1114 23.6965 17.0655 23.9753 16.9737 24.2508C16.8884 24.5197 16.7473 24.7592 16.5506 24.9691C16.3603 25.179 16.111 25.3495 15.8027 25.4807C15.4944 25.6054 15.1205 25.6677 14.681 25.6677H13.0575V28.1866H11.5126V21.1611ZM18.0756 21.1611H19.6205V26.8878H23.0447V28.1866H18.0756V21.1611ZM29.8712 25.5299C29.8712 26.4811 29.6055 27.1896 29.0742 27.6553C28.5428 28.1145 27.8081 28.3441 26.8701 28.3441C25.9189 28.3441 25.1809 28.1145 24.6561 27.6553C24.1379 27.1961 23.8788 26.4877 23.8788 25.5299V21.1611H25.4236V25.5299C25.4236 25.7202 25.44 25.9071 25.4728 26.0908C25.5056 26.2745 25.5745 26.4385 25.6795 26.5828C25.7844 26.7205 25.9287 26.8353 26.1124 26.9272C26.3026 27.0124 26.5552 27.0551 26.8701 27.0551C27.4211 27.0551 27.8016 26.9337 28.0115 26.691C28.2214 26.4417 28.3263 26.0547 28.3263 25.5299V21.1611H29.8712V25.5299ZM32.2544 25.8546C32.2544 26.0908 32.2971 26.2909 32.3824 26.4549C32.4676 26.6189 32.5792 26.7533 32.7169 26.8583C32.8612 26.9567 33.0285 27.0321 33.2187 27.0846C33.409 27.1305 33.6058 27.1535 33.8091 27.1535C33.9469 27.1535 34.0945 27.1436 34.2519 27.124C34.4093 27.0977 34.5569 27.0518 34.6947 26.9862C34.8324 26.9206 34.9472 26.8321 35.0391 26.7205C35.1309 26.6025 35.1768 26.4549 35.1768 26.2777C35.1768 26.0875 35.1145 25.9334 34.9899 25.8153C34.8718 25.6972 34.7144 25.5988 34.5176 25.5201C34.3208 25.4414 34.0977 25.3725 33.8485 25.3135C33.5992 25.2544 33.3466 25.1888 33.0908 25.1167C32.8284 25.0511 32.5726 24.9724 32.3233 24.8805C32.074 24.7821 31.851 24.6575 31.6542 24.5066C31.4574 24.3557 31.2967 24.1688 31.1721 23.9457C31.054 23.7162 30.995 23.4406 30.995 23.1192C30.995 22.7584 31.0704 22.4468 31.2213 22.1844C31.3787 21.9155 31.5821 21.6925 31.8313 21.5153C32.0806 21.3382 32.3627 21.207 32.6775 21.1218C32.9924 21.0365 33.3073 20.9938 33.6222 20.9938C33.9895 20.9938 34.3405 21.0365 34.675 21.1218C35.0161 21.2005 35.3179 21.3317 35.5803 21.5153C35.8426 21.699 36.0493 21.9352 36.2002 22.2238C36.3576 22.5059 36.4363 22.8503 36.4363 23.257H34.9407C34.9276 23.0471 34.8816 22.8732 34.8029 22.7355C34.7308 22.5977 34.6324 22.4895 34.5077 22.4108C34.3831 22.332 34.2388 22.2763 34.0748 22.2435C33.9173 22.2107 33.7435 22.1943 33.5533 22.1943C33.4286 22.1943 33.304 22.2074 33.1794 22.2336C33.0547 22.2599 32.9399 22.3058 32.835 22.3714C32.7366 22.437 32.6546 22.519 32.589 22.6174C32.5234 22.7158 32.4906 22.8404 32.4906 22.9913C32.4906 23.1291 32.5168 23.2406 32.5693 23.3258C32.6218 23.4111 32.7235 23.4898 32.8743 23.562C33.0318 23.6342 33.245 23.7063 33.5139 23.7785C33.7894 23.8506 34.1469 23.9425 34.5864 24.054C34.7176 24.0802 34.898 24.1294 35.1276 24.2016C35.3638 24.2672 35.5967 24.3754 35.8262 24.5263C36.0558 24.6772 36.2526 24.8805 36.4166 25.1363C36.5872 25.3856 36.6725 25.707 36.6725 26.1006C36.6725 26.4221 36.6101 26.7205 36.4855 26.996C36.3609 27.2716 36.1739 27.511 35.9246 27.7143C35.6819 27.9111 35.3769 28.0653 35.0096 28.1768C34.6488 28.2883 34.2289 28.3441 33.7501 28.3441C33.363 28.3441 32.9859 28.2949 32.6185 28.1965C32.2577 28.1046 31.9363 27.9571 31.6542 27.7537C31.3787 27.5503 31.159 27.2912 30.995 26.9764C30.831 26.6615 30.7523 26.2876 30.7588 25.8546H32.2544Z" fill="#00ADEF"/>
</g>
<defs>
<clipPath id="clip0_1356_188116">
<rect width="48" height="48" rx="5" fill="white"/>
</clipPath>
</defs>
</svg>
