<svg width="48" height="48" viewBox="0 0 48 48" fill="none" xmlns="http://www.w3.org/2000/svg">
<g clip-path="url(#clip0_1435_30757)">
<rect width="48" height="48" rx="2" fill="#383838"/>
<g clip-path="url(#clip1_1435_30757)">
<path d="M36 24C36 26.501 35.2186 28.9395 33.7649 30.9747C32.3113 33.0098 30.2581 34.54 27.8923 35.3512C25.5266 36.1624 22.9665 36.2142 20.5698 35.4993C18.1732 34.7844 16.0598 33.3385 14.5251 31.3638C12.9903 29.3891 12.1109 26.9842 12.0098 24.4852C11.9087 21.9863 12.5909 19.5182 13.961 17.4259C15.3312 15.3336 17.3208 13.7217 19.6519 12.8155C21.9829 11.9093 24.5388 11.754 26.9624 12.3714L26.4607 14.3406C24.4476 13.8278 22.3245 13.9567 20.3882 14.7095C18.4519 15.4623 16.7992 16.8012 15.6611 18.5392C14.5229 20.2771 13.9563 22.3273 14.0403 24.403C14.1243 26.4788 14.8547 28.4765 16.1296 30.1168C17.4044 31.7571 19.1599 32.9581 21.1507 33.552C23.1415 34.1458 25.2681 34.1028 27.2332 33.4289C29.1984 32.7551 30.9038 31.4841 32.1113 29.7936C33.3188 28.103 33.9679 26.0775 33.9679 24H36Z" fill="#00ADEF"/>
</g>
</g>
<defs>
<clipPath id="clip0_1435_30757">
<rect width="48" height="48" rx="5" fill="white"/>
</clipPath>
<clipPath id="clip1_1435_30757">
<rect width="24" height="24" fill="white" transform="translate(12 12)"/>
</clipPath>
</defs>
</svg>
