<svg width="48" height="48" viewBox="0 0 48 48" fill="none" xmlns="http://www.w3.org/2000/svg">
<g clip-path="url(#clip0_1435_30736)">
<rect width="48" height="48" rx="2" fill="#383838"/>
<g clip-path="url(#clip1_1435_30736)">
<path d="M15.1429 17.3684H5.2381C4.72526 17.3684 4.30952 17.7926 4.30952 18.3158V28.421C4.30952 28.9443 4.72526 29.3684 5.2381 29.3684H15.1429C15.6557 29.3684 16.0714 28.9443 16.0714 28.421V18.3158C16.0714 17.7926 15.6557 17.3684 15.1429 17.3684Z" fill="white"/>
<path d="M15.1429 17.3684H5.2381C4.72526 17.3684 4.30952 17.7926 4.30952 18.3158V28.421C4.30952 28.9443 4.72526 29.3684 5.2381 29.3684H15.1429C15.6557 29.3684 16.0714 28.9443 16.0714 28.421V18.3158C16.0714 17.7926 15.6557 17.3684 15.1429 17.3684Z" stroke="#BDCAD3"/>
<path d="M22.0093 20.8446H22.8327V26.4505H26.1087V27.1579H22.0093V20.8446ZM30.6731 27.1402C30.546 27.2168 30.3698 27.2551 30.1444 27.2551C29.9538 27.2551 29.8007 27.2021 29.6851 27.096C29.5753 26.984 29.5204 26.8042 29.5204 26.5566C29.3182 26.8042 29.0813 26.984 28.8098 27.096C28.544 27.2021 28.2551 27.2551 27.9431 27.2551C27.7408 27.2551 27.5473 27.2316 27.3624 27.1844C27.1833 27.1372 27.0273 27.0636 26.8944 26.9633C26.7615 26.8631 26.6547 26.7334 26.5738 26.5743C26.4987 26.4093 26.4611 26.2118 26.4611 25.9819C26.4611 25.7225 26.5044 25.5103 26.5911 25.3452C26.6778 25.1802 26.7904 25.0476 26.9291 24.9473C27.0735 24.8412 27.2353 24.7617 27.4144 24.7086C27.5993 24.6556 27.7871 24.6113 27.9778 24.576C28.18 24.5347 28.3707 24.5052 28.5498 24.4876C28.7347 24.464 28.8964 24.4345 29.0351 24.3991C29.1738 24.3579 29.2835 24.3019 29.3644 24.2311C29.4453 24.1545 29.4858 24.0454 29.4858 23.904C29.4858 23.7389 29.454 23.6063 29.3904 23.5061C29.3327 23.4058 29.2547 23.3292 29.1564 23.2762C29.064 23.2231 28.9571 23.1878 28.8358 23.1701C28.7202 23.1524 28.6047 23.1436 28.4891 23.1436C28.1771 23.1436 27.9171 23.2054 27.7091 23.3292C27.5011 23.4472 27.3884 23.6741 27.3711 24.0101H26.6344C26.646 23.7271 26.7038 23.4884 26.8078 23.2939C26.9118 23.0993 27.0504 22.9432 27.2238 22.8252C27.3971 22.7014 27.5935 22.613 27.8131 22.56C28.0384 22.5069 28.2782 22.4804 28.5324 22.4804C28.7347 22.4804 28.934 22.4951 29.1304 22.5246C29.3327 22.5541 29.5147 22.616 29.6764 22.7103C29.8382 22.7987 29.9682 22.9255 30.0664 23.0905C30.1647 23.2555 30.2138 23.4707 30.2138 23.736V26.088C30.2138 26.2648 30.2224 26.3945 30.2398 26.477C30.2628 26.5596 30.3322 26.6008 30.4478 26.6008C30.5113 26.6008 30.5864 26.5861 30.6731 26.5566V27.1402ZM29.4771 24.797C29.3847 24.8678 29.2633 24.9208 29.1131 24.9562C28.9628 24.9857 28.804 25.0122 28.6364 25.0358C28.4747 25.0534 28.31 25.077 28.1424 25.1065C27.9748 25.1301 27.8247 25.1714 27.6918 25.2303C27.5588 25.2892 27.4491 25.3747 27.3624 25.4867C27.2815 25.5928 27.2411 25.7402 27.2411 25.9288C27.2411 26.0526 27.2642 26.1587 27.3104 26.2471C27.3624 26.3297 27.426 26.3974 27.5011 26.4505C27.582 26.5036 27.6744 26.5419 27.7784 26.5654C27.8824 26.589 27.9922 26.6008 28.1078 26.6008C28.3504 26.6008 28.5584 26.5684 28.7318 26.5036C28.9051 26.4328 29.0467 26.3474 29.1564 26.2471C29.2662 26.141 29.3471 26.029 29.3991 25.9111C29.4511 25.7873 29.4771 25.6724 29.4771 25.5663V24.797ZM31.3847 20.8446H32.1213V23.2054H32.1387C32.26 22.952 32.4507 22.7692 32.7107 22.6572C32.9707 22.5393 33.2567 22.4804 33.5687 22.4804C33.9153 22.4804 34.2158 22.5453 34.47 22.6749C34.73 22.8046 34.9438 22.9814 35.1114 23.2054C35.2847 23.4235 35.4147 23.677 35.5013 23.9659C35.588 24.2547 35.6314 24.5613 35.6314 24.8854C35.6314 25.2096 35.588 25.5162 35.5013 25.805C35.4205 26.0938 35.2934 26.3474 35.12 26.5654C34.9525 26.7777 34.7387 26.9457 34.4787 27.0694C34.2245 27.1932 33.9269 27.2551 33.586 27.2551C33.4763 27.2551 33.352 27.2433 33.2133 27.2198C33.0805 27.1962 32.9476 27.1579 32.8147 27.1048C32.6818 27.0518 32.5547 26.981 32.4334 26.8926C32.3178 26.7983 32.2196 26.6834 32.1387 26.5478H32.1213V27.1579H31.3847V20.8446ZM34.8513 24.8324C34.8513 24.6202 34.8225 24.4138 34.7647 24.2134C34.7127 24.0071 34.6289 23.8244 34.5133 23.6652C34.4036 23.5061 34.2592 23.3793 34.08 23.285C33.9067 23.1907 33.7016 23.1436 33.4647 23.1436C33.2163 23.1436 33.0053 23.1936 32.832 23.2939C32.6587 23.3941 32.5172 23.5267 32.4074 23.6918C32.2976 23.8509 32.2167 24.0336 32.1647 24.24C32.1185 24.4463 32.0953 24.6556 32.0953 24.8678C32.0953 25.0918 32.1213 25.3099 32.1733 25.5221C32.2253 25.7284 32.3063 25.9111 32.416 26.0703C32.5316 26.2294 32.6789 26.3591 32.858 26.4593C33.0372 26.5536 33.2538 26.6008 33.508 26.6008C33.7623 26.6008 33.9732 26.5507 34.1407 26.4505C34.314 26.3503 34.4527 26.2176 34.5567 26.0526C34.6607 25.8876 34.7358 25.6989 34.782 25.4867C34.8283 25.2745 34.8513 25.0564 34.8513 24.8324ZM39.6074 24.4345C39.5959 24.2577 39.5554 24.0897 39.4861 23.9305C39.4225 23.7713 39.3329 23.6357 39.2174 23.5238C39.1076 23.4058 38.9748 23.3145 38.8188 23.2497C38.6685 23.1789 38.5009 23.1436 38.3161 23.1436C38.1254 23.1436 37.9521 23.1789 37.7961 23.2497C37.6459 23.3145 37.5159 23.4058 37.4061 23.5238C37.2963 23.6417 37.2096 23.7802 37.1461 23.9393C37.0825 24.0926 37.0449 24.2577 37.0334 24.4345H39.6074ZM40.3181 25.7078C40.2199 26.2206 40.0032 26.6067 39.6681 26.8661C39.3329 27.1255 38.9112 27.2551 38.4028 27.2551C38.0445 27.2551 37.7325 27.1962 37.4668 27.0783C37.2068 26.9604 36.9872 26.7953 36.8081 26.5831C36.6289 26.3709 36.4932 26.1175 36.4008 25.8227C36.3141 25.528 36.2649 25.2067 36.2534 24.8589C36.2534 24.5111 36.3054 24.1928 36.4094 23.904C36.5134 23.6152 36.6579 23.3646 36.8428 23.1524C37.0334 22.9402 37.2559 22.7752 37.5101 22.6572C37.7701 22.5393 38.0532 22.4804 38.3594 22.4804C38.7581 22.4804 39.0874 22.5658 39.3474 22.7368C39.6132 22.9018 39.8241 23.1141 39.9801 23.3734C40.1419 23.6328 40.2516 23.9158 40.3094 24.2223C40.3729 24.5288 40.3989 24.8206 40.3874 25.0977H37.0334C37.0276 25.2981 37.0508 25.4897 37.1028 25.6724C37.1548 25.8492 37.2385 26.0084 37.3541 26.1499C37.4696 26.2855 37.6169 26.3945 37.7961 26.477C37.9752 26.5596 38.1861 26.6008 38.4288 26.6008C38.7408 26.6008 38.9949 26.5271 39.1914 26.3798C39.3936 26.2324 39.5265 26.0084 39.5901 25.7078H40.3181ZM41.1944 20.8446H41.931V27.1579H41.1944V20.8446Z" fill="white"/>
</g>
</g>
<defs>
<clipPath id="clip0_1435_30736">
<rect width="48" height="48" rx="5" fill="white"/>
</clipPath>
<clipPath id="clip1_1435_30736">
<rect width="39" height="24" fill="white" transform="translate(4 12)"/>
</clipPath>
</defs>
</svg>
