<svg width="48" height="48" viewBox="0 0 48 48" fill="none" xmlns="http://www.w3.org/2000/svg">
<g clip-path="url(#clip0_1435_30769)">
<rect width="48" height="48" rx="2" fill="#383838"/>
<g clip-path="url(#clip1_1435_30769)">
<g filter="url(#filter0_d_1435_30769)">
<path d="M41.0678 13.9706H6.9322C6.57649 13.9706 6.28814 14.2603 6.28814 14.6176V32.7353C6.28814 33.0926 6.57649 33.3823 6.9322 33.3823H41.0678C41.4235 33.3823 41.7119 33.0926 41.7119 32.7353V14.6176C41.7119 14.2603 41.4235 13.9706 41.0678 13.9706Z" fill="white"/>
<path d="M39.7797 28.8529H33.339C32.9833 28.8529 32.6949 29.1426 32.6949 29.5V31.4411C32.6949 31.7985 32.9833 32.0882 33.339 32.0882H39.7797C40.1354 32.0882 40.4237 31.7985 40.4237 31.4411V29.5C40.4237 29.1426 40.1354 28.8529 39.7797 28.8529Z" fill="#00ADEF"/>
<path d="M35.003 30.3383H35.1743C35.1691 30.2914 35.1563 30.2499 35.136 30.2137C35.1157 30.1775 35.0898 30.1473 35.0582 30.1231C35.0274 30.0982 34.9921 30.0794 34.9523 30.0665C34.9132 30.0536 34.8715 30.0472 34.8272 30.0472C34.7656 30.0472 34.71 30.0582 34.6604 30.0801C34.6115 30.102 34.5702 30.1322 34.5364 30.1707C34.5026 30.2092 34.4766 30.2545 34.4586 30.3065C34.4406 30.3579 34.4316 30.4137 34.4316 30.4741C34.4316 30.533 34.4406 30.5881 34.4586 30.6395C34.4766 30.69 34.5026 30.7342 34.5364 30.7719C34.5702 30.8097 34.6115 30.8395 34.6604 30.8614C34.71 30.8825 34.7656 30.8931 34.8272 30.8931C34.8768 30.8931 34.9223 30.8856 34.9636 30.8705C35.0049 30.8553 35.0409 30.8335 35.0718 30.8048C35.1026 30.7761 35.1274 30.7414 35.1462 30.7006C35.1649 30.6598 35.1766 30.6141 35.1811 30.5636H35.0098C35.003 30.6179 34.9843 30.6617 34.9534 30.6949C34.9234 30.7282 34.8813 30.7448 34.8272 30.7448C34.7873 30.7448 34.7535 30.7372 34.7257 30.7221C34.698 30.7063 34.6754 30.6855 34.6581 30.6598C34.6408 30.6342 34.6281 30.6055 34.6198 30.5738C34.6123 30.5414 34.6085 30.5081 34.6085 30.4741C34.6085 30.4386 34.6123 30.4043 34.6198 30.3711C34.6281 30.3379 34.6408 30.3084 34.6581 30.2828C34.6754 30.2563 34.698 30.2356 34.7257 30.2205C34.7535 30.2046 34.7873 30.1967 34.8272 30.1967C34.849 30.1967 34.8696 30.2005 34.8892 30.208C34.9095 30.2148 34.9275 30.2246 34.9433 30.2375C34.9591 30.2503 34.9722 30.2654 34.9827 30.2828C34.9933 30.2994 35 30.3179 35.003 30.3383ZM35.4271 30.5828C35.4271 30.5595 35.4293 30.5364 35.4338 30.5138C35.4383 30.4911 35.4458 30.4711 35.4564 30.4538C35.4676 30.4364 35.4823 30.4225 35.5003 30.4119C35.5183 30.4005 35.5409 30.3949 35.5679 30.3949C35.595 30.3949 35.6175 30.4005 35.6356 30.4119C35.6543 30.4225 35.669 30.4364 35.6795 30.4538C35.6908 30.4711 35.6987 30.4911 35.7032 30.5138C35.7077 30.5364 35.71 30.5595 35.71 30.5828C35.71 30.6062 35.7077 30.6293 35.7032 30.6519C35.6987 30.6738 35.6908 30.6938 35.6795 30.7119C35.669 30.7293 35.6543 30.7432 35.6356 30.7538C35.6175 30.7644 35.595 30.7697 35.5679 30.7697C35.5409 30.7697 35.5183 30.7644 35.5003 30.7538C35.4823 30.7432 35.4676 30.7293 35.4564 30.7119C35.4458 30.6938 35.4383 30.6738 35.4338 30.6519C35.4293 30.6293 35.4271 30.6062 35.4271 30.5828ZM35.267 30.5828C35.267 30.6297 35.2742 30.6719 35.2884 30.7097C35.3027 30.7474 35.323 30.7799 35.3493 30.807C35.3756 30.8335 35.4072 30.8539 35.444 30.8682C35.4807 30.8825 35.5221 30.8897 35.5679 30.8897C35.6137 30.8897 35.6551 30.8825 35.6919 30.8682C35.7295 30.8539 35.7614 30.8335 35.7877 30.807C35.8141 30.7799 35.8343 30.7474 35.8486 30.7097C35.8628 30.6719 35.87 30.6297 35.87 30.5828C35.87 30.536 35.8628 30.4938 35.8486 30.456C35.8343 30.4175 35.8141 30.3851 35.7877 30.3586C35.7614 30.3315 35.7295 30.3107 35.6919 30.2964C35.6551 30.2812 35.6137 30.2737 35.5679 30.2737C35.5221 30.2737 35.4807 30.2812 35.444 30.2964C35.4072 30.3107 35.3756 30.3315 35.3493 30.3586C35.323 30.3851 35.3027 30.4175 35.2884 30.456C35.2742 30.4938 35.267 30.536 35.267 30.5828ZM35.9741 30.2896V30.875H36.1342V30.5681C36.1342 30.5085 36.1439 30.4658 36.1635 30.4402C36.1829 30.4137 36.2145 30.4005 36.2581 30.4005C36.2965 30.4005 36.3231 30.4126 36.3382 30.4368C36.3531 30.4601 36.3607 30.4961 36.3607 30.5443V30.875H36.5208V30.5149C36.5208 30.4787 36.5174 30.4458 36.5106 30.4164C36.5046 30.3862 36.4937 30.3609 36.4779 30.3405C36.4621 30.3194 36.4403 30.3032 36.4126 30.2918C36.3855 30.2798 36.3506 30.2737 36.3077 30.2737C36.2739 30.2737 36.2408 30.2816 36.2085 30.2975C36.1762 30.3126 36.1499 30.3371 36.1296 30.3711H36.1263V30.2896H35.9741ZM36.6771 30.3971V30.875H36.8372V30.3971H36.9476V30.2896H36.8372V30.2545C36.8372 30.2303 36.8417 30.2133 36.8507 30.2035C36.8605 30.1929 36.8763 30.1877 36.898 30.1877C36.9183 30.1877 36.9379 30.1888 36.9566 30.1911V30.071C36.9431 30.0703 36.9293 30.0695 36.9149 30.0688C36.9007 30.0672 36.8864 30.0665 36.8721 30.0665C36.8067 30.0665 36.7579 30.0831 36.7256 30.1163C36.6933 30.1496 36.6771 30.1922 36.6771 30.2443V30.2896H36.5813V30.3971H36.6771ZM37.0445 30.2896V30.875H37.2046V30.2896H37.0445ZM37.2046 30.199V30.0665H37.0445V30.199H37.2046ZM37.3312 30.2896V30.875H37.4913V30.6112C37.4913 30.5847 37.4939 30.5602 37.4992 30.5375C37.5044 30.5149 37.5131 30.4952 37.5251 30.4787C37.5379 30.4613 37.5544 30.4477 37.5747 30.4379C37.595 30.4281 37.6198 30.4232 37.6491 30.4232C37.6588 30.4232 37.669 30.4239 37.6795 30.4254C37.6901 30.4262 37.6991 30.4273 37.7066 30.4288V30.2794C37.6938 30.2756 37.6822 30.2737 37.6716 30.2737C37.6513 30.2737 37.6318 30.2767 37.613 30.2828C37.5943 30.2888 37.5765 30.2975 37.56 30.3088C37.5435 30.3194 37.5289 30.3326 37.5161 30.3484C37.5033 30.3636 37.4931 30.3802 37.4857 30.3983H37.4834V30.2896H37.3312ZM37.7738 30.2896V30.875H37.9338V30.5353C37.9338 30.5066 37.938 30.4836 37.9462 30.4662C37.9545 30.4481 37.9643 30.4345 37.9755 30.4254C37.9876 30.4157 37.9996 30.4092 38.0116 30.4062C38.0244 30.4024 38.0346 30.4005 38.042 30.4005C38.0676 30.4005 38.0868 30.4051 38.0995 30.4141C38.1131 30.4225 38.1225 30.4338 38.1277 30.4481C38.1337 30.4624 38.1371 30.4783 38.1379 30.4957C38.1387 30.5122 38.139 30.5292 38.139 30.5466V30.875H38.299V30.5489C38.299 30.5308 38.3002 30.513 38.3024 30.4957C38.3055 30.4775 38.3107 30.4617 38.3182 30.4481C38.3265 30.4338 38.3374 30.4225 38.3509 30.4141C38.3652 30.4051 38.3836 30.4005 38.4061 30.4005C38.4286 30.4005 38.4464 30.4043 38.4591 30.4119C38.4726 30.4194 38.4827 30.4296 38.4895 30.4424C38.4963 30.4553 38.5005 30.4703 38.5019 30.4877C38.5034 30.5051 38.5042 30.5236 38.5042 30.5432V30.875H38.6642V30.4832C38.6642 30.4454 38.659 30.4134 38.6484 30.3869C38.638 30.3598 38.6233 30.3379 38.6045 30.3213C38.5857 30.3047 38.5632 30.2926 38.5368 30.285C38.5106 30.2775 38.482 30.2737 38.4512 30.2737C38.4106 30.2737 38.3754 30.2835 38.3452 30.3032C38.3159 30.3228 38.2927 30.3455 38.2754 30.3711C38.2596 30.3349 38.2363 30.3095 38.2055 30.2952C38.1754 30.2809 38.142 30.2737 38.1052 30.2737C38.0668 30.2737 38.0327 30.282 38.0026 30.2986C37.9733 30.3152 37.9482 30.3387 37.9271 30.3688H37.9248V30.2896H37.7738Z" fill="white"/>
<path d="M30.7627 28.8529H24.322C23.9663 28.8529 23.678 29.1426 23.678 29.5V31.4411C23.678 31.7985 23.9663 32.0882 24.322 32.0882H30.7627C31.1184 32.0882 31.4068 31.7985 31.4068 31.4411V29.5C31.4068 29.1426 31.1184 28.8529 30.7627 28.8529Z" fill="#EEF1F4"/>
<path d="M26.2888 30.3383H26.4601C26.4548 30.2914 26.4421 30.2499 26.4218 30.2137C26.4015 30.1775 26.3756 30.1473 26.344 30.1231C26.3132 30.0982 26.2778 30.0794 26.2381 30.0665C26.1989 30.0536 26.1572 30.0472 26.1129 30.0472C26.0513 30.0472 25.9957 30.0582 25.9461 30.0801C25.8973 30.102 25.856 30.1322 25.8221 30.1707C25.7883 30.2092 25.7624 30.2545 25.7444 30.3065C25.7263 30.3579 25.7173 30.4137 25.7173 30.4741C25.7173 30.533 25.7263 30.5881 25.7444 30.6395C25.7624 30.69 25.7883 30.7342 25.8221 30.7719C25.856 30.8097 25.8973 30.8395 25.9461 30.8614C25.9957 30.8825 26.0513 30.8931 26.1129 30.8931C26.1625 30.8931 26.2079 30.8856 26.2493 30.8705C26.2906 30.8553 26.3267 30.8335 26.3575 30.8048C26.3883 30.7761 26.4131 30.7414 26.4319 30.7006C26.4507 30.6598 26.4624 30.6141 26.4669 30.5636H26.2955C26.2888 30.6179 26.2699 30.6617 26.2392 30.6949C26.2091 30.7282 26.167 30.7448 26.1129 30.7448C26.0731 30.7448 26.0393 30.7372 26.0115 30.7221C25.9836 30.7063 25.9611 30.6855 25.9439 30.6598C25.9266 30.6342 25.9138 30.6055 25.9056 30.5738C25.898 30.5414 25.8943 30.5081 25.8943 30.4741C25.8943 30.4386 25.898 30.4043 25.9056 30.3711C25.9138 30.3379 25.9266 30.3084 25.9439 30.2828C25.9611 30.2563 25.9836 30.2356 26.0115 30.2205C26.0393 30.2046 26.0731 30.1967 26.1129 30.1967C26.1347 30.1967 26.1554 30.2005 26.1749 30.208C26.1952 30.2148 26.2133 30.2246 26.229 30.2375C26.2448 30.2503 26.2579 30.2654 26.2685 30.2828C26.279 30.2994 26.2857 30.3179 26.2888 30.3383ZM26.564 30.4696C26.5663 30.4318 26.5756 30.4005 26.5922 30.3756C26.6087 30.3507 26.6297 30.3307 26.6553 30.3156C26.6809 30.3005 26.7094 30.29 26.741 30.2839C26.7733 30.2771 26.8056 30.2737 26.8379 30.2737C26.8672 30.2737 26.8969 30.276 26.927 30.2805C26.957 30.2843 26.9844 30.2922 27.0092 30.3043C27.034 30.3163 27.0543 30.3333 27.0701 30.3552C27.0859 30.3764 27.0938 30.4047 27.0938 30.4402V30.7448C27.0938 30.7712 27.0952 30.7965 27.0983 30.8206C27.1013 30.8448 27.1065 30.8629 27.1141 30.875H26.9518C26.9487 30.8659 26.9461 30.8569 26.9439 30.8478C26.9423 30.838 26.9412 30.8282 26.9405 30.8184C26.9149 30.8448 26.8849 30.8633 26.8503 30.8739C26.8157 30.8845 26.7804 30.8897 26.7444 30.8897C26.7165 30.8897 26.6906 30.8863 26.6666 30.8795C26.6425 30.8727 26.6215 30.8621 26.6035 30.8478C26.5854 30.8335 26.5711 30.8154 26.5607 30.7935C26.5508 30.7715 26.546 30.7455 26.546 30.7153C26.546 30.6821 26.5516 30.6549 26.5629 30.6338C26.5749 30.6119 26.59 30.5946 26.608 30.5817C26.6268 30.5689 26.6478 30.5595 26.6711 30.5534C26.6951 30.5466 26.7192 30.5414 26.7432 30.5375C26.7672 30.5337 26.7909 30.5308 26.8143 30.5285C26.8375 30.5262 26.8582 30.5228 26.8762 30.5183C26.8943 30.5138 26.9085 30.5074 26.9191 30.499C26.9295 30.49 26.9345 30.4771 26.9337 30.4606C26.9337 30.4432 26.9307 30.4296 26.9247 30.4198C26.9194 30.4092 26.9119 30.4013 26.9022 30.396C26.8932 30.3899 26.8822 30.3862 26.8695 30.3847C26.8574 30.3824 26.8443 30.3813 26.83 30.3813C26.7985 30.3813 26.7737 30.3881 26.7556 30.4017C26.7376 30.4153 26.7271 30.4379 26.7241 30.4696H26.564ZM26.9337 30.5885C26.927 30.5946 26.9183 30.5994 26.9078 30.6032C26.898 30.6062 26.8871 30.6089 26.8751 30.6112C26.8638 30.6134 26.8518 30.6153 26.8391 30.6168C26.8262 30.6184 26.8134 30.6202 26.8007 30.6225C26.7887 30.6247 26.7767 30.6277 26.7647 30.6315C26.7534 30.6353 26.7432 30.6406 26.7342 30.6474C26.7259 30.6535 26.7192 30.6614 26.7139 30.6712C26.7086 30.681 26.7061 30.6934 26.7061 30.7085C26.7061 30.7229 26.7086 30.735 26.7139 30.7448C26.7192 30.7546 26.7263 30.7625 26.7354 30.7685C26.7444 30.7738 26.7548 30.7776 26.7669 30.7799C26.7789 30.7821 26.7913 30.7833 26.8041 30.7833C26.8357 30.7833 26.8601 30.778 26.8774 30.7674C26.8946 30.7568 26.9074 30.7444 26.9157 30.73C26.9239 30.7149 26.9288 30.6999 26.9303 30.6848C26.9326 30.6696 26.9337 30.6576 26.9337 30.6485V30.5885ZM27.218 30.2896V30.875H27.3781V30.5681C27.3781 30.5085 27.3878 30.4658 27.4074 30.4402C27.4269 30.4137 27.4585 30.4005 27.502 30.4005C27.5404 30.4005 27.567 30.4126 27.5821 30.4368C27.5971 30.4601 27.6046 30.4961 27.6046 30.5443V30.875H27.7647V30.5149C27.7647 30.4787 27.7613 30.4458 27.7545 30.4164C27.7485 30.3862 27.7376 30.3609 27.7218 30.3405C27.706 30.3194 27.6842 30.3032 27.6565 30.2918C27.6294 30.2798 27.5945 30.2737 27.5516 30.2737C27.5178 30.2737 27.4847 30.2816 27.4524 30.2975C27.4202 30.3126 27.3938 30.3371 27.3735 30.3711H27.3702V30.2896H27.218ZM28.2829 30.4957H28.4396C28.4373 30.4579 28.4283 30.4254 28.4125 30.3983C28.3967 30.3704 28.376 30.3473 28.3505 30.3292C28.3257 30.3104 28.2971 30.2964 28.2649 30.2873C28.2333 30.2782 28.2002 30.2737 28.1657 30.2737C28.1183 30.2737 28.0762 30.2816 28.0394 30.2975C28.0026 30.3133 27.9714 30.3356 27.9459 30.3643C27.9203 30.3922 27.9008 30.4259 27.8873 30.4651C27.8745 30.5036 27.8681 30.5455 27.8681 30.5908C27.8681 30.6345 27.8752 30.675 27.8895 30.7119C27.9038 30.7482 27.9237 30.7795 27.9493 30.8059C27.9748 30.8324 28.0056 30.8531 28.0417 30.8682C28.0785 30.8825 28.1187 30.8897 28.1623 30.8897C28.2397 30.8897 28.3032 30.8693 28.3528 30.8286C28.4024 30.7878 28.4324 30.7285 28.4429 30.6508H28.2885C28.2832 30.687 28.2701 30.7161 28.2491 30.738C28.2288 30.7591 28.1995 30.7697 28.1612 30.7697C28.1364 30.7697 28.1153 30.764 28.098 30.7527C28.0807 30.7414 28.0668 30.7271 28.0563 30.7097C28.0465 30.6915 28.0394 30.6716 28.0349 30.6497C28.0304 30.6277 28.0282 30.6062 28.0282 30.5851C28.0282 30.5632 28.0304 30.5414 28.0349 30.5194C28.0394 30.4968 28.0469 30.4764 28.0575 30.4583C28.0687 30.4394 28.083 30.4243 28.1003 30.413C28.1175 30.4009 28.1389 30.3949 28.1645 30.3949C28.2329 30.3949 28.2723 30.4284 28.2829 30.4957ZM28.9256 30.5194H28.6652C28.6659 30.5081 28.6682 30.4952 28.672 30.4809C28.6765 30.4666 28.6836 30.453 28.6934 30.4402C28.7039 30.4273 28.7174 30.4168 28.734 30.4085C28.7512 30.3994 28.7726 30.3949 28.7982 30.3949C28.8373 30.3949 28.8662 30.4055 28.885 30.4266C28.9045 30.4477 28.918 30.4787 28.9256 30.5194ZM28.6652 30.6213H29.0856C29.0886 30.576 29.0848 30.5326 29.0744 30.4911C29.0638 30.4496 29.0465 30.4126 29.0225 30.3802C28.9992 30.3477 28.9691 30.322 28.9324 30.3032C28.8955 30.2835 28.8523 30.2737 28.8027 30.2737C28.7584 30.2737 28.7178 30.2816 28.681 30.2975C28.6449 30.3133 28.6137 30.3353 28.5875 30.3632C28.5611 30.3903 28.5408 30.4228 28.5266 30.4606C28.5123 30.4983 28.5052 30.5391 28.5052 30.5828C28.5052 30.6281 28.5119 30.6696 28.5255 30.7074C28.5397 30.7452 28.5596 30.7776 28.5852 30.8048C28.6107 30.832 28.6419 30.8531 28.6787 30.8682C28.7155 30.8825 28.7568 30.8897 28.8027 30.8897C28.8688 30.8897 28.9252 30.8746 28.9718 30.8444C29.0183 30.8142 29.053 30.764 29.0755 30.6938H28.9346C28.9293 30.7119 28.915 30.7293 28.8918 30.7459C28.8684 30.7618 28.8407 30.7697 28.8084 30.7697C28.7633 30.7697 28.7287 30.758 28.7047 30.7346C28.6806 30.7112 28.6675 30.6734 28.6652 30.6213ZM29.1851 30.0665V30.875H29.3451V30.0665H29.1851Z" fill="#23313B"/>
<path d="M7.66644 18.3385V19.147H7.76788V18.4744H7.77014L8.02148 19.147H8.11278L8.36413 18.4744H8.36638V19.147H8.46782V18.3385H8.3213L8.06657 19.0179L7.81297 18.3385H7.66644ZM8.70011 18.8549C8.70011 18.8194 8.70462 18.788 8.71364 18.7609C8.7234 18.7329 8.73656 18.7095 8.75309 18.6907C8.76962 18.6718 8.78878 18.6574 8.81057 18.6476C8.83311 18.6378 8.85678 18.6329 8.88158 18.6329C8.90638 18.6329 8.92967 18.6378 8.95146 18.6476C8.974 18.6574 8.99354 18.6718 9.01007 18.6907C9.0266 18.7095 9.03938 18.7329 9.04839 18.7609C9.05816 18.788 9.06305 18.8194 9.06305 18.8549C9.06305 18.8903 9.05816 18.922 9.04839 18.95C9.03938 18.9771 9.0266 19.0002 9.01007 19.019C8.99354 19.0372 8.974 19.0511 8.95146 19.0609C8.92967 19.0708 8.90638 19.0757 8.88158 19.0757C8.85678 19.0757 8.83311 19.0708 8.81057 19.0609C8.78878 19.0511 8.76962 19.0372 8.75309 19.019C8.73656 19.0002 8.7234 18.9771 8.71364 18.95C8.70462 18.922 8.70011 18.8903 8.70011 18.8549ZM8.59867 18.8549C8.59867 18.8979 8.60469 18.9379 8.61671 18.9749C8.62873 19.0119 8.64676 19.0443 8.67081 19.0723C8.69486 19.0994 8.72453 19.121 8.75985 19.1368C8.79517 19.1519 8.83575 19.1595 8.88158 19.1595C8.92817 19.1595 8.96875 19.1519 9.00331 19.1368C9.03863 19.121 9.0683 19.0994 9.09235 19.0723C9.1164 19.0443 9.13443 19.0119 9.14645 18.9749C9.15847 18.9379 9.16449 18.8979 9.16449 18.8549C9.16449 18.8118 9.15847 18.7718 9.14645 18.7348C9.13443 18.6971 9.1164 18.6646 9.09235 18.6374C9.0683 18.6095 9.03863 18.5876 9.00331 18.5718C8.96875 18.5559 8.92817 18.548 8.88158 18.548C8.83575 18.548 8.79517 18.5559 8.75985 18.5718C8.72453 18.5876 8.69486 18.6095 8.67081 18.6374C8.64676 18.6646 8.62873 18.6971 8.61671 18.7348C8.60469 18.7718 8.59867 18.8118 8.59867 18.8549ZM9.34733 18.8594C9.34733 18.8307 9.35033 18.8028 9.35635 18.7756C9.36235 18.7484 9.37213 18.7243 9.38565 18.7031C9.39918 18.682 9.41721 18.665 9.43975 18.6522C9.46229 18.6393 9.48972 18.6329 9.52203 18.6329C9.55509 18.6329 9.58327 18.6393 9.60657 18.6522C9.62986 18.6642 9.64864 18.6805 9.66292 18.7009C9.67794 18.7212 9.68885 18.745 9.69561 18.7722C9.70237 18.7986 9.70575 18.8262 9.70575 18.8549C9.70575 18.882 9.70237 18.9088 9.69561 18.9353C9.68959 18.9617 9.67945 18.9855 9.66518 19.0066C9.65089 19.027 9.63249 19.0436 9.60995 19.0564C9.5874 19.0692 9.55998 19.0757 9.52767 19.0757C9.49686 19.0757 9.46981 19.0696 9.44652 19.0575C9.42397 19.0455 9.40518 19.0292 9.39016 19.0089C9.37588 18.9885 9.36498 18.9654 9.35747 18.9398C9.35071 18.9134 9.34733 18.8866 9.34733 18.8594ZM9.79818 19.147V18.3385H9.70237V18.6397H9.70012C9.68959 18.6223 9.67645 18.608 9.66067 18.5967C9.64564 18.5846 9.62948 18.5752 9.6122 18.5684C9.59492 18.5608 9.57763 18.5555 9.56035 18.5525C9.54307 18.5495 9.52691 18.548 9.51189 18.548C9.46755 18.548 9.42848 18.5563 9.39467 18.5729C9.3616 18.5888 9.3338 18.6106 9.31126 18.6386C9.28947 18.6658 9.27294 18.6978 9.26167 18.7348C9.25115 18.7718 9.24589 18.8111 9.24589 18.8526C9.24589 18.8941 9.25152 18.9334 9.26279 18.9704C9.27407 19.0073 9.29059 19.0398 9.31239 19.0677C9.33493 19.0957 9.36273 19.1179 9.39579 19.1345C9.42961 19.1512 9.46906 19.1595 9.51414 19.1595C9.55472 19.1595 9.59191 19.1523 9.62573 19.1379C9.65954 19.1236 9.68434 19.1002 9.70012 19.0677H9.70237V19.147H9.79818ZM10.4618 19.1447C10.4453 19.1545 10.4223 19.1595 10.393 19.1595C10.3682 19.1595 10.3483 19.1527 10.3333 19.1391C10.319 19.1247 10.3119 19.1017 10.3119 19.07C10.2856 19.1017 10.2548 19.1247 10.2195 19.1391C10.1849 19.1527 10.1473 19.1595 10.1067 19.1595C10.0804 19.1595 10.0553 19.1564 10.0312 19.1504C10.0079 19.1444 9.98765 19.1349 9.97037 19.1221C9.95308 19.1093 9.93919 19.0926 9.92866 19.0723C9.9189 19.0511 9.91401 19.0258 9.91401 18.9964C9.91401 18.9632 9.91965 18.936 9.93092 18.9149C9.94219 18.8937 9.95684 18.8767 9.97488 18.8639C9.99366 18.8503 10.0147 18.8401 10.038 18.8333C10.062 18.8265 10.0865 18.8209 10.1113 18.8164C10.1376 18.8111 10.1624 18.8073 10.1856 18.805C10.2097 18.802 10.2307 18.7982 10.2488 18.7937C10.2668 18.7884 10.2811 18.7813 10.2916 18.7722C10.3021 18.7624 10.3074 18.7484 10.3074 18.7303C10.3074 18.7092 10.3032 18.6922 10.295 18.6793C10.2875 18.6665 10.2773 18.6567 10.2645 18.6499C10.2525 18.6431 10.2386 18.6386 10.2228 18.6363C10.2078 18.634 10.1928 18.6329 10.1778 18.6329C10.1372 18.6329 10.1034 18.6408 10.0763 18.6567C10.0493 18.6718 10.0346 18.7009 10.0324 18.7439H9.93655C9.93806 18.7076 9.94557 18.6771 9.9591 18.6522C9.97262 18.6273 9.99066 18.6072 10.0132 18.5921C10.0357 18.5763 10.0613 18.565 10.0898 18.5582C10.1191 18.5514 10.1503 18.548 10.1834 18.548C10.2097 18.548 10.2356 18.5499 10.2612 18.5536C10.2875 18.5574 10.3111 18.5654 10.3322 18.5774C10.3532 18.5888 10.3701 18.605 10.3829 18.6261C10.3957 18.6473 10.4021 18.6748 10.4021 18.7088V19.01C10.4021 19.0326 10.4032 19.0492 10.4054 19.0598C10.4084 19.0704 10.4175 19.0757 10.4325 19.0757C10.4408 19.0757 10.4505 19.0738 10.4618 19.07V19.1447ZM10.3062 18.8447C10.2942 18.8537 10.2784 18.8605 10.2589 18.865C10.2394 18.8688 10.2187 18.8722 10.1969 18.8752C10.1759 18.8775 10.1545 18.8805 10.1327 18.8843C10.1109 18.8873 10.0913 18.8926 10.0741 18.9001C10.0568 18.9077 10.0425 18.9186 10.0312 18.933C10.0207 18.9466 10.0155 18.9654 10.0155 18.9896C10.0155 19.0055 10.0185 19.019 10.0245 19.0304C10.0312 19.0409 10.0395 19.0496 10.0493 19.0564C10.0598 19.0632 10.0718 19.0681 10.0853 19.0711C10.0989 19.0742 10.1131 19.0757 10.1282 19.0757C10.1597 19.0757 10.1868 19.0715 10.2093 19.0632C10.2319 19.0541 10.2503 19.0432 10.2645 19.0304C10.2788 19.0168 10.2893 19.0024 10.2961 18.9873C10.3029 18.9715 10.3062 18.9568 10.3062 18.9432V18.8447ZM10.5566 18.3385V19.147H10.6524V18.3385H10.5566ZM11.1179 18.3385V19.147H11.2137V19.0689H11.216C11.2265 19.0862 11.2393 19.101 11.2543 19.113C11.2701 19.1244 11.2866 19.1334 11.3039 19.1402C11.3212 19.147 11.3384 19.1519 11.3557 19.1549C11.3738 19.1579 11.3899 19.1595 11.4042 19.1595C11.4485 19.1595 11.4872 19.1515 11.5203 19.1357C11.5541 19.1198 11.5819 19.0983 11.6037 19.0711C11.6262 19.0432 11.6428 19.0107 11.6533 18.9738C11.6645 18.9368 11.6702 18.8975 11.6702 18.856C11.6702 18.8145 11.6645 18.7752 11.6533 18.7382C11.642 18.7012 11.6251 18.6688 11.6026 18.6408C11.5808 18.6122 11.553 18.5895 11.5191 18.5729C11.4861 18.5563 11.447 18.548 11.4019 18.548C11.3614 18.548 11.3242 18.5555 11.2903 18.5706C11.2565 18.585 11.2317 18.6084 11.216 18.6408H11.2137V18.3385H11.1179ZM11.5687 18.8492C11.5687 18.8779 11.5657 18.9058 11.5597 18.933C11.5537 18.9602 11.5439 18.9843 11.5304 19.0055C11.5169 19.0266 11.4989 19.0436 11.4763 19.0564C11.4545 19.0692 11.4271 19.0757 11.394 19.0757C11.361 19.0757 11.3328 19.0696 11.3095 19.0575C11.2862 19.0447 11.2671 19.0281 11.252 19.0077C11.2377 18.9873 11.2272 18.9639 11.2205 18.9375C11.2137 18.9103 11.2103 18.8824 11.2103 18.8537C11.2103 18.8265 11.2133 18.7997 11.2193 18.7733C11.2261 18.7469 11.2366 18.7235 11.2509 18.7031C11.2652 18.682 11.2836 18.665 11.3061 18.6522C11.3287 18.6393 11.3561 18.6329 11.3884 18.6329C11.4192 18.6329 11.4459 18.639 11.4684 18.651C11.4917 18.6631 11.5105 18.6793 11.5248 18.6997C11.5398 18.7201 11.5507 18.7435 11.5575 18.7699C11.565 18.7956 11.5687 18.822 11.5687 18.8492ZM11.8525 18.8549C11.8525 18.8194 11.857 18.788 11.8661 18.7609C11.8758 18.7329 11.889 18.7095 11.9055 18.6907C11.922 18.6718 11.9412 18.6574 11.963 18.6476C11.9855 18.6378 12.0092 18.6329 12.034 18.6329C12.0588 18.6329 12.0821 18.6378 12.1039 18.6476C12.1264 18.6574 12.1459 18.6718 12.1625 18.6907C12.179 18.7095 12.1918 18.7329 12.2008 18.7609C12.2106 18.788 12.2155 18.8194 12.2155 18.8549C12.2155 18.8903 12.2106 18.922 12.2008 18.95C12.1918 18.9771 12.179 19.0002 12.1625 19.019C12.1459 19.0372 12.1264 19.0511 12.1039 19.0609C12.0821 19.0708 12.0588 19.0757 12.034 19.0757C12.0092 19.0757 11.9855 19.0708 11.963 19.0609C11.9412 19.0511 11.922 19.0372 11.9055 19.019C11.889 19.0002 11.8758 18.9771 11.8661 18.95C11.857 18.922 11.8525 18.8903 11.8525 18.8549ZM11.7511 18.8549C11.7511 18.8979 11.7571 18.9379 11.7691 18.9749C11.7811 19.0119 11.7992 19.0443 11.8232 19.0723C11.8473 19.0994 11.8769 19.121 11.9123 19.1368C11.9476 19.1519 11.9882 19.1595 12.034 19.1595C12.0806 19.1595 12.1212 19.1519 12.1557 19.1368C12.191 19.121 12.2207 19.0994 12.2448 19.0723C12.2688 19.0443 12.2868 19.0119 12.2989 18.9749C12.3109 18.9379 12.3169 18.8979 12.3169 18.8549C12.3169 18.8118 12.3109 18.7718 12.2989 18.7348C12.2868 18.6971 12.2688 18.6646 12.2448 18.6374C12.2207 18.6095 12.191 18.5876 12.1557 18.5718C12.1212 18.5559 12.0806 18.548 12.034 18.548C11.9882 18.548 11.9476 18.5559 11.9123 18.5718C11.8769 18.5876 11.8473 18.6095 11.8232 18.6374C11.7992 18.6646 11.7811 18.6971 11.7691 18.7348C11.7571 18.7718 11.7511 18.8118 11.7511 18.8549ZM12.4997 18.8594C12.4997 18.8307 12.5027 18.8028 12.5088 18.7756C12.5148 18.7484 12.5245 18.7243 12.5381 18.7031C12.5516 18.682 12.5696 18.665 12.5922 18.6522C12.6147 18.6393 12.6421 18.6329 12.6744 18.6329C12.7075 18.6329 12.7357 18.6393 12.759 18.6522C12.7823 18.6642 12.8011 18.6805 12.8153 18.7009C12.8304 18.7212 12.8413 18.745 12.848 18.7722C12.8548 18.7986 12.8582 18.8262 12.8582 18.8549C12.8582 18.882 12.8548 18.9088 12.848 18.9353C12.842 18.9617 12.8319 18.9855 12.8176 19.0066C12.8033 19.027 12.7849 19.0436 12.7624 19.0564C12.7398 19.0692 12.7124 19.0757 12.6801 19.0757C12.6493 19.0757 12.6222 19.0696 12.5989 19.0575C12.5764 19.0455 12.5576 19.0292 12.5426 19.0089C12.5283 18.9885 12.5174 18.9654 12.5099 18.9398C12.5031 18.9134 12.4997 18.8866 12.4997 18.8594ZM12.9506 19.147V18.3385H12.8548V18.6397H12.8525C12.842 18.6223 12.8289 18.608 12.8131 18.5967C12.7981 18.5846 12.7819 18.5752 12.7646 18.5684C12.7473 18.5608 12.73 18.5555 12.7128 18.5525C12.6955 18.5495 12.6793 18.548 12.6643 18.548C12.62 18.548 12.5809 18.5563 12.5471 18.5729C12.514 18.5888 12.4862 18.6106 12.4637 18.6386C12.4419 18.6658 12.4253 18.6978 12.4141 18.7348C12.4036 18.7718 12.3983 18.8111 12.3983 18.8526C12.3983 18.8941 12.4039 18.9334 12.4152 18.9704C12.4265 19.0073 12.443 19.0398 12.4648 19.0677C12.4873 19.0957 12.5151 19.1179 12.5482 19.1345C12.582 19.1512 12.6215 19.1595 12.6665 19.1595C12.7071 19.1595 12.7443 19.1523 12.7781 19.1379C12.8119 19.1236 12.8367 19.1002 12.8525 19.0677H12.8548V19.147H12.9506ZM13.3268 19.2251C13.3155 19.2538 13.3042 19.278 13.2929 19.2976C13.2825 19.3172 13.2704 19.3331 13.2569 19.3452C13.2441 19.358 13.2295 19.3671 13.2129 19.3723C13.1971 19.3784 13.1788 19.3814 13.1577 19.3814C13.1464 19.3814 13.1351 19.3806 13.1239 19.3791C13.1126 19.3776 13.1017 19.375 13.0912 19.3712V19.2829C13.0995 19.2867 13.1089 19.2897 13.1194 19.2919C13.1306 19.295 13.14 19.2965 13.1475 19.2965C13.1671 19.2965 13.1833 19.2916 13.196 19.2818C13.2095 19.2727 13.2197 19.2595 13.2264 19.2421L13.2659 19.1436L13.0349 18.5616H13.143L13.3132 19.0406H13.3155L13.4789 18.5616H13.5804L13.3268 19.2251Z" fill="#23313B"/>
<path d="M7.67626 15.681V16.7205H7.88929V15.9911H7.89219L8.14579 16.7205H8.32114L8.57474 15.9839H8.57764V16.7205H8.79066V15.681H8.4704L8.24143 16.3959H8.23853L7.99653 15.681H7.67626ZM9.10353 16.3449C9.10353 16.3148 9.10642 16.2852 9.11222 16.2561C9.11802 16.227 9.12768 16.2013 9.1412 16.1789C9.15569 16.1566 9.17453 16.1387 9.19772 16.1251C9.22091 16.1105 9.24989 16.1032 9.28467 16.1032C9.31945 16.1032 9.34843 16.1105 9.37162 16.1251C9.39577 16.1387 9.41461 16.1566 9.42814 16.1789C9.44263 16.2013 9.45277 16.227 9.45857 16.2561C9.46436 16.2852 9.46726 16.3148 9.46726 16.3449C9.46726 16.375 9.46436 16.4046 9.45857 16.4337C9.45277 16.4619 9.44263 16.4876 9.42814 16.5109C9.41461 16.5332 9.39577 16.5512 9.37162 16.5648C9.34843 16.5783 9.31945 16.5851 9.28467 16.5851C9.24989 16.5851 9.22091 16.5783 9.19772 16.5648C9.17453 16.5512 9.15569 16.5332 9.1412 16.5109C9.12768 16.4876 9.11802 16.4619 9.11222 16.4337C9.10642 16.4046 9.10353 16.375 9.10353 16.3449ZM8.89775 16.3449C8.89775 16.4051 8.90692 16.4594 8.92528 16.508C8.94364 16.5565 8.96972 16.5982 9.00353 16.6332C9.03735 16.6671 9.07792 16.6934 9.12526 16.7118C9.1726 16.7302 9.22574 16.7395 9.28467 16.7395C9.3436 16.7395 9.39674 16.7302 9.44408 16.7118C9.49238 16.6934 9.53344 16.6671 9.56725 16.6332C9.60107 16.5982 9.62715 16.5565 9.64551 16.508C9.66386 16.4594 9.67304 16.4051 9.67304 16.3449C9.67304 16.2847 9.66386 16.2304 9.64551 16.1819C9.62715 16.1324 9.60107 16.0906 9.56725 16.0566C9.53344 16.0217 9.49238 15.995 9.44408 15.9766C9.39674 15.9572 9.3436 15.9475 9.28467 15.9475C9.22574 15.9475 9.1726 15.9572 9.12526 15.9766C9.07792 15.995 9.03735 16.0217 9.00353 16.0566C8.96972 16.0906 8.94364 16.1324 8.92528 16.1819C8.90692 16.2304 8.89775 16.2847 8.89775 16.3449ZM10.2904 16.342C10.2904 16.3731 10.2875 16.4031 10.2817 16.4323C10.2759 16.4614 10.2662 16.4876 10.2527 16.5109C10.2392 16.5332 10.2208 16.5512 10.1976 16.5648C10.1754 16.5783 10.1474 16.5851 10.1136 16.5851C10.0817 16.5851 10.0542 16.5783 10.031 16.5648C10.0088 16.5502 9.98992 16.5318 9.97446 16.5094C9.95997 16.4861 9.94934 16.4599 9.94258 16.4308C9.93581 16.4017 9.93243 16.3726 9.93243 16.3435C9.93243 16.3124 9.93533 16.2828 9.94113 16.2546C9.94789 16.2255 9.95803 16.1998 9.97156 16.1775C9.98605 16.1552 10.0049 16.1372 10.0281 16.1236C10.0513 16.11 10.0798 16.1032 10.1136 16.1032C10.1474 16.1032 10.1754 16.11 10.1976 16.1236C10.2198 16.1372 10.2377 16.1552 10.2512 16.1775C10.2657 16.1988 10.2759 16.2241 10.2817 16.2532C10.2875 16.2813 10.2904 16.3109 10.2904 16.342ZM10.2933 16.6244V16.7205H10.4889V15.681H10.2831V16.0596H10.2802C10.257 16.0227 10.2252 15.995 10.1846 15.9766C10.145 15.9572 10.1029 15.9475 10.0585 15.9475C10.0034 15.9475 9.95514 15.9586 9.91359 15.9809C9.87205 16.0023 9.83727 16.0309 9.80925 16.0668C9.7822 16.1028 9.76143 16.1445 9.74694 16.192C9.73342 16.2386 9.72665 16.2872 9.72665 16.3376C9.72665 16.39 9.73342 16.4405 9.74694 16.489C9.76143 16.5376 9.7822 16.5808 9.80925 16.6186C9.83727 16.6555 9.87253 16.6851 9.91504 16.7074C9.95755 16.7288 10.0068 16.7395 10.0629 16.7395C10.1121 16.7395 10.1561 16.7307 10.1947 16.7133C10.2343 16.6948 10.2662 16.6652 10.2904 16.6244H10.2933ZM10.5874 16.1993C10.5903 16.1508 10.6024 16.1105 10.6237 16.0785C10.6449 16.0465 10.672 16.0207 10.7048 16.0013C10.7377 15.9819 10.7744 15.9683 10.815 15.9606C10.8565 15.9518 10.898 15.9475 10.9396 15.9475C10.9773 15.9475 11.0154 15.9504 11.0541 15.9562C11.0927 15.961 11.128 15.9712 11.1599 15.9868C11.1917 16.0023 11.2178 16.0241 11.2381 16.0523C11.2584 16.0795 11.2685 16.1159 11.2685 16.1615V16.5531C11.2685 16.5871 11.2705 16.6196 11.2743 16.6506C11.2782 16.6817 11.285 16.705 11.2946 16.7205H11.086C11.0821 16.7089 11.0787 16.6972 11.0758 16.6856C11.0739 16.673 11.0724 16.6604 11.0715 16.6477C11.0386 16.6817 11 16.7055 10.9555 16.7191C10.9111 16.7327 10.8657 16.7395 10.8193 16.7395C10.7836 16.7395 10.7502 16.7351 10.7193 16.7264C10.6884 16.7176 10.6613 16.704 10.6382 16.6856C10.615 16.6671 10.5966 16.6439 10.5831 16.6157C10.5705 16.5876 10.5643 16.5541 10.5643 16.5153C10.5643 16.4725 10.5715 16.4376 10.586 16.4104C10.6014 16.3823 10.6208 16.36 10.644 16.3435C10.6681 16.327 10.6952 16.3148 10.7251 16.3071C10.756 16.2983 10.7869 16.2915 10.8179 16.2867C10.8488 16.2818 10.8792 16.2779 10.9092 16.275C10.9391 16.2721 10.9657 16.2678 10.9889 16.2619C11.012 16.2561 11.0304 16.2479 11.0439 16.2372C11.0574 16.2255 11.0637 16.209 11.0628 16.1877C11.0628 16.1654 11.0589 16.1479 11.0512 16.1353C11.0444 16.1217 11.0347 16.1115 11.0222 16.1047C11.0106 16.0969 10.9966 16.0921 10.9802 16.0901C10.9647 16.0872 10.9478 16.0858 10.9294 16.0858C10.8889 16.0858 10.857 16.0945 10.8338 16.112C10.8106 16.1294 10.7971 16.1586 10.7932 16.1993H10.5874ZM11.0628 16.3522C11.0541 16.36 11.043 16.3663 11.0294 16.3711C11.0169 16.375 11.0029 16.3784 10.9874 16.3813C10.9729 16.3842 10.9575 16.3866 10.941 16.3886C10.9246 16.3905 10.9082 16.393 10.8918 16.3959C10.8763 16.3988 10.8608 16.4027 10.8454 16.4075C10.8309 16.4124 10.8179 16.4192 10.8063 16.4279C10.7956 16.4357 10.7869 16.4459 10.7802 16.4585C10.7734 16.4711 10.77 16.4871 10.77 16.5065C10.77 16.525 10.7734 16.5405 10.7802 16.5531C10.7869 16.5657 10.7961 16.5759 10.8077 16.5837C10.8193 16.5905 10.8328 16.5953 10.8483 16.5982C10.8637 16.6011 10.8797 16.6026 10.8961 16.6026C10.9367 16.6026 10.9681 16.5958 10.9903 16.5822C11.0125 16.5686 11.0289 16.5526 11.0396 16.5342C11.0502 16.5148 11.0565 16.4954 11.0584 16.4759C11.0613 16.4565 11.0628 16.441 11.0628 16.4294V16.3522ZM11.3858 15.681V16.7205H11.5915V15.681H11.3858ZM12.082 15.681V16.7205H12.3095V16.2721H12.7283V16.7205H12.9559V15.681H12.7283V16.0799H12.3095V15.681H12.082ZM13.5904 16.2634H13.2557C13.2566 16.2488 13.2595 16.2323 13.2644 16.2139C13.2702 16.1954 13.2793 16.178 13.2919 16.1615C13.3054 16.145 13.3228 16.1314 13.3441 16.1207C13.3663 16.1091 13.3938 16.1032 13.4267 16.1032C13.4769 16.1032 13.5141 16.1168 13.5382 16.144C13.5634 16.1712 13.5808 16.211 13.5904 16.2634ZM13.2557 16.3944H13.7962C13.8001 16.3362 13.7952 16.2804 13.7817 16.227C13.7682 16.1736 13.746 16.126 13.715 16.0843C13.6851 16.0426 13.6464 16.0096 13.5991 15.9853C13.5518 15.9601 13.4962 15.9475 13.4325 15.9475C13.3755 15.9475 13.3233 15.9576 13.2759 15.978C13.2296 15.9984 13.1895 16.0266 13.1557 16.0625C13.1219 16.0974 13.0958 16.1391 13.0774 16.1877C13.0591 16.2362 13.0499 16.2886 13.0499 16.3449C13.0499 16.4031 13.0586 16.4565 13.076 16.5051C13.0943 16.5536 13.1199 16.5953 13.1528 16.6303C13.1856 16.6652 13.2257 16.6924 13.2731 16.7118C13.3204 16.7302 13.3735 16.7395 13.4325 16.7395C13.5175 16.7395 13.5899 16.72 13.6498 16.6812C13.7097 16.6424 13.7542 16.5779 13.7832 16.4876H13.602C13.5952 16.5109 13.5769 16.5332 13.5469 16.5546C13.517 16.5749 13.4812 16.5851 13.4397 16.5851C13.3817 16.5851 13.3373 16.5701 13.3064 16.54C13.2755 16.5099 13.2586 16.4614 13.2557 16.3944ZM13.8612 16.1993C13.8641 16.1508 13.8762 16.1105 13.8975 16.0785C13.9187 16.0465 13.9458 16.0207 13.9786 16.0013C14.0115 15.9819 14.0482 15.9683 14.0888 15.9606C14.1303 15.9518 14.1718 15.9475 14.2134 15.9475C14.2511 15.9475 14.2892 15.9504 14.3279 15.9562C14.3665 15.961 14.4018 15.9712 14.4337 15.9868C14.4655 16.0023 14.4916 16.0241 14.5119 16.0523C14.5322 16.0795 14.5423 16.1159 14.5423 16.1615V16.5531C14.5423 16.5871 14.5443 16.6196 14.5481 16.6506C14.552 16.6817 14.5588 16.705 14.5684 16.7205H14.3598C14.3559 16.7089 14.3525 16.6972 14.3496 16.6856C14.3477 16.673 14.3462 16.6604 14.3453 16.6477C14.3124 16.6817 14.2738 16.7055 14.2293 16.7191C14.1849 16.7327 14.1395 16.7395 14.0931 16.7395C14.0574 16.7395 14.024 16.7351 13.9931 16.7264C13.9622 16.7176 13.9352 16.704 13.912 16.6856C13.8888 16.6671 13.8704 16.6439 13.8569 16.6157C13.8443 16.5876 13.8381 16.5541 13.8381 16.5153C13.8381 16.4725 13.8453 16.4376 13.8598 16.4104C13.8753 16.3823 13.8946 16.36 13.9178 16.3435C13.9419 16.327 13.969 16.3148 13.9989 16.3071C14.0298 16.2983 14.0607 16.2915 14.0917 16.2867C14.1226 16.2818 14.153 16.2779 14.183 16.275C14.2129 16.2721 14.2395 16.2678 14.2627 16.2619C14.2858 16.2561 14.3042 16.2479 14.3177 16.2372C14.3313 16.2255 14.3375 16.209 14.3366 16.1877C14.3366 16.1654 14.3327 16.1479 14.325 16.1353C14.3182 16.1217 14.3086 16.1115 14.296 16.1047C14.2844 16.0969 14.2704 16.0921 14.254 16.0901C14.2385 16.0872 14.2216 16.0858 14.2032 16.0858C14.1627 16.0858 14.1308 16.0945 14.1076 16.112C14.0844 16.1294 14.0709 16.1586 14.067 16.1993H13.8612ZM14.3366 16.3522C14.3279 16.36 14.3168 16.3663 14.3032 16.3711C14.2907 16.375 14.2767 16.3784 14.2612 16.3813C14.2467 16.3842 14.2313 16.3866 14.2148 16.3886C14.1984 16.3905 14.182 16.393 14.1656 16.3959C14.1501 16.3988 14.1347 16.4027 14.1192 16.4075C14.1047 16.4124 14.0917 16.4192 14.0801 16.4279C14.0694 16.4357 14.0607 16.4459 14.054 16.4585C14.0472 16.4711 14.0438 16.4871 14.0438 16.5065C14.0438 16.525 14.0472 16.5405 14.054 16.5531C14.0607 16.5657 14.0699 16.5759 14.0815 16.5837C14.0931 16.5905 14.1066 16.5953 14.1221 16.5982C14.1376 16.6011 14.1535 16.6026 14.1699 16.6026C14.2105 16.6026 14.2419 16.5958 14.2641 16.5822C14.2863 16.5686 14.3028 16.5526 14.3134 16.5342C14.324 16.5148 14.3303 16.4954 14.3322 16.4759C14.3351 16.4565 14.3366 16.441 14.3366 16.4294V16.3522ZM15.1856 16.342C15.1856 16.3731 15.1827 16.4031 15.1769 16.4323C15.1711 16.4614 15.1615 16.4876 15.1479 16.5109C15.1344 16.5332 15.1161 16.5512 15.0929 16.5648C15.0706 16.5783 15.0426 16.5851 15.0088 16.5851C14.9769 16.5851 14.9494 16.5783 14.9262 16.5648C14.904 16.5502 14.8852 16.5318 14.8697 16.5094C14.8552 16.4861 14.8446 16.4599 14.8378 16.4308C14.8311 16.4017 14.8277 16.3726 14.8277 16.3435C14.8277 16.3124 14.8306 16.2828 14.8364 16.2546C14.8431 16.2255 14.8533 16.1998 14.8668 16.1775C14.8813 16.1552 14.9001 16.1372 14.9233 16.1236C14.9465 16.11 14.975 16.1032 15.0088 16.1032C15.0426 16.1032 15.0706 16.11 15.0929 16.1236C15.1151 16.1372 15.133 16.1552 15.1465 16.1775C15.161 16.1988 15.1711 16.2241 15.1769 16.2532C15.1827 16.2813 15.1856 16.3109 15.1856 16.342ZM15.1885 16.6244V16.7205H15.3841V15.681H15.1784V16.0596H15.1755C15.1523 16.0227 15.1204 15.995 15.0798 15.9766C15.0402 15.9572 14.9982 15.9475 14.9537 15.9475C14.8987 15.9475 14.8504 15.9586 14.8088 15.9809C14.7673 16.0023 14.7325 16.0309 14.7045 16.0668C14.6774 16.1028 14.6567 16.1445 14.6422 16.192C14.6287 16.2386 14.6219 16.2872 14.6219 16.3376C14.6219 16.39 14.6287 16.4405 14.6422 16.489C14.6567 16.5376 14.6774 16.5808 14.7045 16.6186C14.7325 16.6555 14.7678 16.6851 14.8103 16.7074C14.8528 16.7288 14.9021 16.7395 14.9581 16.7395C15.0074 16.7395 15.0513 16.7307 15.09 16.7133C15.1296 16.6948 15.1615 16.6652 15.1856 16.6244H15.1885ZM15.9957 16.2634H15.6609C15.6619 16.2488 15.6648 16.2323 15.6696 16.2139C15.6754 16.1954 15.6846 16.178 15.6972 16.1615C15.7107 16.145 15.7281 16.1314 15.7493 16.1207C15.7716 16.1091 15.7991 16.1032 15.8319 16.1032C15.8822 16.1032 15.9194 16.1168 15.9435 16.144C15.9686 16.1712 15.986 16.211 15.9957 16.2634ZM15.6609 16.3944H16.2015C16.2053 16.3362 16.2005 16.2804 16.187 16.227C16.1734 16.1736 16.1512 16.126 16.1203 16.0843C16.0904 16.0426 16.0517 16.0096 16.0044 15.9853C15.957 15.9601 15.9015 15.9475 15.8377 15.9475C15.7807 15.9475 15.7286 15.9576 15.6812 15.978C15.6348 15.9984 15.5948 16.0266 15.5609 16.0625C15.5271 16.0974 15.501 16.1391 15.4827 16.1877C15.4643 16.2362 15.4552 16.2886 15.4552 16.3449C15.4552 16.4031 15.4638 16.4565 15.4812 16.5051C15.4996 16.5536 15.5252 16.5953 15.558 16.6303C15.5909 16.6652 15.631 16.6924 15.6783 16.7118C15.7257 16.7302 15.7788 16.7395 15.8377 16.7395C15.9227 16.7395 15.9952 16.72 16.0551 16.6812C16.115 16.6424 16.1594 16.5779 16.1884 16.4876H16.0073C16.0005 16.5109 15.9822 16.5332 15.9522 16.5546C15.9223 16.5749 15.8865 16.5851 15.845 16.5851C15.787 16.5851 15.7426 16.5701 15.7117 16.54C15.6807 16.5099 15.6638 16.4614 15.6609 16.3944ZM16.2752 15.9678V16.7205H16.481V16.3813C16.481 16.3473 16.4844 16.3158 16.4911 16.2867C16.4979 16.2576 16.509 16.2323 16.5245 16.211C16.5409 16.1886 16.5621 16.1712 16.5882 16.1586C16.6143 16.1459 16.6462 16.1396 16.6839 16.1396C16.6964 16.1396 16.7095 16.1406 16.723 16.1425C16.7365 16.1435 16.7481 16.145 16.7578 16.1469V15.9547C16.7414 15.9499 16.7264 15.9475 16.7129 15.9475C16.6868 15.9475 16.6617 15.9513 16.6375 15.9591C16.6133 15.9669 16.5906 15.978 16.5694 15.9926C16.5481 16.0062 16.5293 16.0232 16.5129 16.0435C16.4964 16.063 16.4834 16.0843 16.4737 16.1076H16.4708V15.9678H16.2752Z" fill="#23313B"/>
<path fill-rule="evenodd" clip-rule="evenodd" d="M40.1935 15.4906C40.1621 15.459 40.1111 15.459 40.0796 15.4906L39.7796 15.792L39.4795 15.4906C39.4481 15.459 39.3972 15.459 39.3657 15.4906L39.3605 15.4958C39.3291 15.5274 39.3291 15.5786 39.3605 15.6102L39.6606 15.9116L39.3605 16.2131C39.329 16.2447 39.329 16.2959 39.3605 16.3275L39.3656 16.3327C39.397 16.3643 39.448 16.3643 39.4794 16.3327L39.7796 16.0312L40.0797 16.3327C40.1112 16.3643 40.1622 16.3643 40.1936 16.3327L40.1988 16.3275C40.2302 16.2959 40.2302 16.2447 40.1988 16.2131L39.8986 15.9116L40.1986 15.6102C40.2301 15.5786 40.2301 15.5274 40.1986 15.4958L40.1935 15.4906Z" fill="#23313B"/>
</g>
</g>
</g>
<defs>
<filter id="filter0_d_1435_30769" x="-9.71186" y="1.97058" width="67.4237" height="51.4117" filterUnits="userSpaceOnUse" color-interpolation-filters="sRGB">
<feFlood flood-opacity="0" result="BackgroundImageFix"/>
<feColorMatrix in="SourceAlpha" type="matrix" values="0 0 0 0 0 0 0 0 0 0 0 0 0 0 0 0 0 0 127 0" result="hardAlpha"/>
<feOffset dy="4"/>
<feGaussianBlur stdDeviation="8"/>
<feColorMatrix type="matrix" values="0 0 0 0 0 0 0 0 0 0 0 0 0 0 0 0 0 0 0.2 0"/>
<feBlend mode="normal" in2="BackgroundImageFix" result="effect1_dropShadow_1435_30769"/>
<feBlend mode="normal" in="SourceGraphic" in2="effect1_dropShadow_1435_30769" result="shape"/>
</filter>
<clipPath id="clip0_1435_30769">
<rect width="48" height="48" rx="5" fill="white"/>
</clipPath>
<clipPath id="clip1_1435_30769">
<rect width="38" height="22" fill="white" transform="translate(5 13)"/>
</clipPath>
</defs>
</svg>
