<svg width="24" height="24" viewBox="0 0 24 24" fill="none" xmlns="http://www.w3.org/2000/svg">
<path fill-rule="evenodd" clip-rule="evenodd" d="M5 15.7274V7.92358C5.01701 7.90413 5.0366 7.88246 5.05882 7.85894C5.16939 7.74187 5.34409 7.57986 5.58985 7.41603C6.07724 7.0911 6.85682 6.75 8 6.75C9.14318 6.75 9.92276 7.0911 10.4102 7.41603C10.6559 7.57986 10.8306 7.74187 10.9412 7.85894C10.9656 7.88478 10.9868 7.90839 11.005 7.92928C11.0017 7.95238 11 7.97599 11 8V15.7274C10.9772 15.7143 10.954 15.7011 10.9303 15.6879C10.2958 15.3354 9.33755 15 8 15C6.66245 15 5.70417 15.3354 5.06968 15.6879C5.04598 15.7011 5.02276 15.7143 5 15.7274ZM12 15.7274C12.0228 15.7143 12.046 15.7011 12.0697 15.6879C12.7042 15.3354 13.6624 15 15 15C16.3376 15 17.2958 15.3354 17.9303 15.6879C17.954 15.7011 17.9772 15.7143 18 15.7274V7.92358C17.983 7.90413 17.9634 7.88246 17.9412 7.85894C17.8306 7.74187 17.6559 7.57986 17.4101 7.41603C16.9228 7.0911 16.1432 6.75 15 6.75C13.8568 6.75 13.0772 7.0911 12.5899 7.41603C12.3441 7.57986 12.1694 7.74187 12.0588 7.85894C12.0344 7.88478 12.0132 7.90839 11.995 7.92928C11.9983 7.95238 12 7.97599 12 8V15.7274ZM10.9648 6.58397C11.1825 6.7291 11.36 6.87508 11.5 7.0055C11.64 6.87508 11.8175 6.7291 12.0352 6.58397C12.6728 6.1589 13.6432 5.75 15 5.75C16.3568 5.75 17.3272 6.1589 17.9649 6.58397C18.2816 6.79514 18.5131 7.00813 18.6682 7.17231C18.7458 7.25446 18.8044 7.32463 18.8453 7.37664C18.8657 7.40265 18.8818 7.42417 18.8935 7.44041L18.9079 7.46075L18.9127 7.46779L18.9146 7.4705L18.9154 7.47164L18.9157 7.47216C18.9159 7.47241 18.916 7.47265 18.5 7.75L18.916 7.47265C18.9708 7.55478 19 7.65129 19 7.75V16.75C19 16.9623 18.8659 17.1515 18.6655 17.2218C18.4665 17.2916 18.2454 17.2291 18.1124 17.0658L18.1103 17.0634L18.5 16.75C18.1096 17.0623 18.1097 17.0626 18.1099 17.0628L18.1103 17.0632L18.1103 17.0634C18.1068 17.0594 18.0995 17.0511 18.0884 17.0393C18.066 17.0156 18.0281 16.9775 17.9739 16.9296C17.8654 16.8339 17.6915 16.6992 17.4447 16.5621C16.9542 16.2896 16.1624 16 15 16C13.8376 16 13.0458 16.2896 12.5553 16.5621C12.3085 16.6992 12.1346 16.8339 12.0261 16.9296C11.9719 16.9775 11.934 17.0156 11.9116 17.0393C11.9005 17.0511 11.8932 17.0594 11.8897 17.0634L11.8901 17.0628L11.8897 17.0632L11.8897 17.0634L11.8876 17.0658C11.7927 17.1823 11.6504 17.25 11.5 17.25C11.3496 17.25 11.2073 17.1823 11.1124 17.0658L11.1124 17.0658L11.1103 17.0634L11.1103 17.0632L11.1102 17.0631L11.1103 17.0634C11.1068 17.0594 11.0995 17.0511 11.0884 17.0393C11.066 17.0156 11.0281 16.9775 10.9739 16.9296C10.8654 16.8339 10.6915 16.6992 10.4447 16.5621C9.95417 16.2896 9.16245 16 8 16C6.83755 16 6.04583 16.2896 5.55532 16.5621C5.30854 16.6992 5.13461 16.8339 5.02612 16.9296C4.97186 16.9775 4.934 17.0156 4.91165 17.0393C4.90047 17.0511 4.89319 17.0594 4.88969 17.0634L4.89007 17.0628L4.88973 17.0632L4.88969 17.0634L4.88762 17.0658C4.75465 17.2291 4.53346 17.2916 4.3345 17.2218C4.13412 17.1515 4 16.9623 4 16.75V7.75C4 7.65129 4.02922 7.55478 4.08397 7.47265L4.5 7.75C4.08397 7.47265 4.08414 7.47241 4.0843 7.47216L4.08465 7.47164L4.08542 7.4705L4.08725 7.46779L4.09209 7.46075L4.1065 7.44041C4.11823 7.42417 4.13425 7.40265 4.15469 7.37664C4.19555 7.32463 4.25423 7.25446 4.33181 7.17231C4.48686 7.00813 4.71841 6.79514 5.03515 6.58397C5.67276 6.1589 6.64318 5.75 8 5.75C9.35682 5.75 10.3272 6.1589 10.9648 6.58397Z" fill="white"/>
</svg>
