<svg width="24" height="24" viewBox="0 0 24 24" fill="none" xmlns="http://www.w3.org/2000/svg">
<path fill-rule="evenodd" clip-rule="evenodd" d="M12 18.9C8.18921 18.9 5.09998 15.8107 5.09998 12C5.09998 8.18921 8.18921 5.09998 12 5.09998C15.8107 5.09998 18.9 8.18921 18.9 12C18.9 15.8107 15.8107 18.9 12 18.9ZM4.09998 12C4.09998 7.63693 7.63693 4.09998 12 4.09998C16.363 4.09998 19.9 7.63693 19.9 12C19.9 16.363 16.363 19.9 12 19.9C7.63693 19.9 4.09998 16.363 4.09998 12ZM9.49998 12C9.22383 12 8.99998 12.2238 8.99998 12.5C8.99998 12.7761 9.22383 13 9.49998 13H14.5C14.7761 13 15 12.7761 15 12.5C15 12.2238 14.7761 12 14.5 12H9.49998ZM9.99998 15.5C9.99998 15.2238 10.2238 15 10.5 15H13.5C13.7761 15 14 15.2238 14 15.5C14 15.7761 13.7761 16 13.5 16H10.5C10.2238 16 9.99998 15.7761 9.99998 15.5ZM8.49998 8.99998C8.22383 8.99998 7.99998 9.22383 7.99998 9.49998C7.99998 9.77612 8.22383 9.99998 8.49998 9.99998H15.5C15.7761 9.99998 16 9.77612 16 9.49998C16 9.22383 15.7761 8.99998 15.5 8.99998H8.49998Z" fill="white"/>
</svg>
