<svg width="24" height="24" viewBox="0 0 24 24" fill="none" xmlns="http://www.w3.org/2000/svg">
<path fill-rule="evenodd" clip-rule="evenodd" d="M14.9 11.5C14.9 13.3777 13.3777 14.9 11.5 14.9C9.62221 14.9 8.09998 13.3777 8.09998 11.5C8.09998 9.62221 9.62221 8.09998 11.5 8.09998C13.3777 8.09998 14.9 9.62221 14.9 11.5ZM14.2378 14.9447C13.4864 15.5427 12.5349 15.9 11.5 15.9C9.06992 15.9 7.09998 13.93 7.09998 11.5C7.09998 9.06992 9.06992 7.09998 11.5 7.09998C13.93 7.09998 15.9 9.06992 15.9 11.5C15.9 12.5348 15.5427 13.4862 14.9449 14.2375L17.8538 17.1464C18.049 17.3417 18.049 17.6583 17.8538 17.8535C17.6585 18.0488 17.3419 18.0488 17.1467 17.8535L14.2378 14.9447Z" fill="white"/>
</svg>
