<svg width="24" height="24" viewBox="0 0 24 24" fill="none" xmlns="http://www.w3.org/2000/svg">
<mask id="path-1-inside-1_2307_115533" fill="white">
<path fill-rule="evenodd" clip-rule="evenodd" d="M8.78051 9.48737C8.29235 8.99921 7.5009 8.99921 7.01274 9.48737L5.38418 11.1159C4.89603 11.6041 4.89603 12.3955 5.38418 12.8837L7.01293 14.5124C7.50108 15.0006 8.29254 15.0006 8.78069 14.5124L10.4093 12.8839C10.8974 12.3957 10.8974 11.6043 10.4093 11.1161L8.78051 9.48737ZM9.48761 7.0125C8.99946 7.50065 8.99946 8.29211 9.48761 8.78026L11.1164 10.409C11.6045 10.8972 12.396 10.8972 12.8841 10.409L14.5129 8.78021C15.0011 8.29205 15.0011 7.50059 14.5129 7.01244L12.8842 5.38369C12.396 4.89554 11.6046 4.89554 11.1164 5.3837L9.48761 7.0125ZM16.9878 9.48731C16.4996 8.99916 15.7082 8.99916 15.22 9.48731L13.5912 11.1161C13.1031 11.6043 13.1031 12.3957 13.5912 12.8839L15.2198 14.5125C15.708 15.0007 16.4995 15.0007 16.9876 14.5125L18.6164 12.8837C19.1046 12.3955 19.1046 11.6041 18.6164 11.1159L16.9878 9.48731ZM14.5127 16.9874C15.0009 16.4992 15.0009 15.7078 14.5127 15.2196L12.8841 13.591C12.396 13.1028 11.6045 13.1028 11.1164 13.591L9.4878 15.2195C8.99964 15.7077 8.99965 16.4992 9.4878 16.9873L11.1164 18.6159C11.6046 19.1041 12.396 19.1041 12.8842 18.6159L14.5127 16.9874Z"/>
</mask>
<path d="M12.8842 18.6159L13.5913 19.323L12.8842 18.6159ZM12.8841 13.591L13.5912 12.8839L12.8841 13.591ZM11.1164 13.591L10.4093 12.8839L11.1164 13.591ZM14.5127 15.2196L15.2198 14.5125L14.5127 15.2196ZM18.6164 11.1159L19.3235 10.4088L19.3235 10.4088L18.6164 11.1159ZM15.2198 14.5125L15.927 13.8054L15.2198 14.5125ZM13.5912 11.1161L12.8841 10.409L13.5912 11.1161ZM15.22 9.48731L14.5129 8.7802L15.22 9.48731ZM16.9878 9.48731L16.2807 10.1944L16.9878 9.48731ZM11.1164 5.3837L10.4093 4.67659L11.1164 5.3837ZM14.5129 7.01244L13.8058 7.71954L14.5129 7.01244ZM12.8841 10.409L12.177 9.7019L12.8841 10.409ZM9.48761 7.0125L8.78051 6.30539L9.48761 7.0125ZM10.4093 12.8839L9.70214 12.1768L10.4093 12.8839ZM10.4093 11.1161L9.70214 11.8232L10.4093 11.1161ZM7.01293 14.5124L7.72003 13.8053L7.01293 14.5124ZM8.78069 14.5124L9.4878 15.2195L8.78069 14.5124ZM8.78051 9.48737L8.0734 10.1945L8.78051 9.48737ZM6.09129 11.823L7.71985 10.1945L6.30563 8.78026L4.67708 10.4088L6.09129 11.823ZM7.72003 13.8053L6.09129 12.1766L4.67708 13.5908L6.30582 15.2195L7.72003 13.8053ZM9.4878 15.2195L11.1164 13.591L9.70214 12.1768L8.07359 13.8053L9.4878 15.2195ZM11.1164 10.409L9.48761 8.78026L8.0734 10.1945L9.70214 11.8232L11.1164 10.409ZM8.78051 9.48737L10.4093 11.1161L11.8235 9.7019L10.1947 8.07316L8.78051 9.48737ZM13.5912 11.1161L15.22 9.48731L13.8058 8.0731L12.177 9.7019L13.5912 11.1161ZM12.1771 6.0908L13.8058 7.71954L15.22 6.30533L13.5913 4.67659L12.1771 6.0908ZM10.1947 7.7196L11.8235 6.0908L10.4093 4.67659L8.78051 6.30539L10.1947 7.7196ZM14.5129 8.7802L12.8841 10.409L14.2983 11.8232L15.9271 10.1944L14.5129 8.7802ZM12.8841 13.591L14.5127 15.2196L15.927 13.8054L14.2983 12.1768L12.8841 13.591ZM17.9093 12.1766L16.2805 13.8054L17.6947 15.2196L19.3235 13.5908L17.9093 12.1766ZM16.2807 10.1944L17.9093 11.823L19.3235 10.4088L17.6949 8.7802L16.2807 10.1944ZM15.2198 14.5125L13.5912 12.8839L12.177 14.2981L13.8056 15.9267L15.2198 14.5125ZM10.4093 12.8839L8.78069 14.5124L10.1949 15.9267L11.8235 14.2981L10.4093 12.8839ZM11.8235 17.9088L10.1949 16.2802L8.78069 17.6944L10.4093 19.323L11.8235 17.9088ZM13.8056 16.2803L12.1771 17.9088L13.5913 19.323L15.2198 17.6945L13.8056 16.2803ZM10.4093 19.323C11.288 20.2017 12.7126 20.2017 13.5913 19.323L12.1771 17.9088C12.0794 18.0065 11.9212 18.0065 11.8235 17.9088L10.4093 19.323ZM8.78069 14.5124C7.90201 15.3911 7.90202 16.8157 8.78069 17.6944L10.1949 16.2802C10.0973 16.1826 10.0973 16.0243 10.1949 15.9267L8.78069 14.5124ZM13.5912 12.8839C12.7126 12.0052 11.2879 12.0052 10.4093 12.8839L11.8235 14.2981C11.9211 14.2005 12.0794 14.2005 12.177 14.2981L13.5912 12.8839ZM13.8056 15.9267C13.9033 16.0243 13.9033 16.1826 13.8056 16.2803L15.2198 17.6945C16.0985 16.8158 16.0985 15.3912 15.2198 14.5125L13.8056 15.9267ZM19.3235 13.5908C20.2022 12.7121 20.2022 11.2875 19.3235 10.4088L17.9093 11.823C18.0069 11.9207 18.0069 12.079 17.9093 12.1766L19.3235 13.5908ZM14.5127 15.2196C15.3914 16.0983 16.816 16.0983 17.6947 15.2196L16.2805 13.8054C16.1829 13.903 16.0246 13.903 15.927 13.8054L14.5127 15.2196ZM12.8841 10.409C12.0054 11.2877 12.0054 12.7123 12.8841 13.591L14.2983 12.1768C14.2007 12.0791 14.2007 11.9209 14.2983 11.8232L12.8841 10.409ZM15.9271 10.1944C16.0248 10.0968 16.1831 10.0968 16.2807 10.1944L17.6949 8.7802C16.8162 7.90153 15.3916 7.90153 14.5129 8.7802L15.9271 10.1944ZM13.5913 4.67659C12.7126 3.79791 11.288 3.79791 10.4093 4.67659L11.8235 6.0908C11.9212 5.99317 12.0794 5.99317 12.1771 6.0908L13.5913 4.67659ZM15.22 9.48731C16.0987 8.60863 16.0987 7.18401 15.22 6.30533L13.8058 7.71954C13.9034 7.81717 13.9035 7.97547 13.8058 8.0731L15.22 9.48731ZM10.4093 11.1161C11.2879 11.9948 12.7126 11.9948 13.5912 11.1161L12.177 9.7019C12.0794 9.79953 11.9211 9.79953 11.8235 9.7019L10.4093 11.1161ZM10.1947 8.07316C10.0971 7.97553 10.0971 7.81723 10.1947 7.7196L8.78051 6.30539C7.90183 7.18407 7.90183 8.60869 8.78051 9.48737L10.1947 8.07316ZM11.1164 13.591C11.995 12.7123 11.995 11.2877 11.1164 10.409L9.70214 11.8232C9.79978 11.9209 9.79977 12.0791 9.70214 12.1768L11.1164 13.591ZM6.30582 15.2195C7.1845 16.0982 8.60912 16.0982 9.4878 15.2195L8.07359 13.8053C7.97596 13.903 7.81766 13.903 7.72003 13.8053L6.30582 15.2195ZM7.71985 10.1945C7.81748 10.0968 7.97577 10.0968 8.0734 10.1945L9.48761 8.78026C8.60894 7.90158 7.18431 7.90158 6.30563 8.78026L7.71985 10.1945ZM4.67708 10.4088C3.7984 11.2875 3.7984 12.7121 4.67708 13.5908L6.09129 12.1766C5.99366 12.079 5.99366 11.9207 6.09129 11.823L4.67708 10.4088Z" fill="white" mask="url(#path-1-inside-1_2307_115533)"/>
</svg>
