<svg width="12" height="17" viewBox="0 0 12 17" fill="none" xmlns="http://www.w3.org/2000/svg">
<g id="icon-figma-logo">
<path id="Union" fill-rule="evenodd" clip-rule="evenodd" d="M3.5 1.5H5.5V5.5H3.5C2.39543 5.5 1.5 4.60457 1.5 3.5C1.5 2.39543 2.39543 1.5 3.5 1.5ZM1.8411 6C1.03275 5.46254 0.5 4.54349 0.5 3.5C0.5 1.84315 1.84315 0.5 3.5 0.5H5.5H6H6.5H8.5C10.1569 0.5 11.5 1.84315 11.5 3.5C11.5 4.54349 10.9672 5.46255 10.1589 6.00001C10.9672 6.53747 11.5 7.45651 11.5 8.5C11.5 10.1569 10.1568 11.5 8.49999 11.5C7.73164 11.5 7.03075 11.2111 6.5 10.7361V11V11.5V13.5C6.5 15.1569 5.15685 16.5 3.5 16.5C1.84315 16.5 0.5 15.1569 0.5 13.5C0.5 12.4565 1.03276 11.5375 1.84111 11C1.03276 10.4625 0.5 9.54349 0.5 8.5C0.5 7.45651 1.03275 6.53746 1.8411 6ZM3.5 6.5C2.39543 6.5 1.5 7.39543 1.5 8.5C1.5 9.60457 2.39543 10.5 3.5 10.5H5.5V8.5V6.5H3.5ZM3.5 11.5C2.39543 11.5 1.5 12.3954 1.5 13.5C1.5 14.6046 2.39543 15.5 3.5 15.5C4.60457 15.5 5.5 14.6046 5.5 13.5V11.5H3.5ZM6.5 8.5C6.5 9.60456 7.39544 10.5 8.49999 10.5C9.60456 10.5 10.5 9.60457 10.5 8.5C10.5 7.39543 9.60456 6.5 8.49999 6.5C7.39544 6.5 6.5 7.39544 6.5 8.5ZM6.5 5.5H8.49999H8.5C9.60457 5.5 10.5 4.60457 10.5 3.5C10.5 2.39543 9.60457 1.5 8.5 1.5H6.5V5.5Z" fill="white"/>
</g>
</svg>
