<svg width="58" height="56" viewBox="0 0 58 56" fill="none" xmlns="http://www.w3.org/2000/svg">
<path d="M0 5C0 2.23858 2.23858 0 5 0H53C55.7614 0 58 2.23858 58 5V51C58 53.7614 55.7614 56 53 56H5C2.23858 56 0 53.7614 0 51V5Z" fill="#383838"/>
<g filter="url(#filter0_d_2267_21149)">
<path fill-rule="evenodd" clip-rule="evenodd" d="M14.9239 16.2C14.2576 16.2 13.7174 16.7372 13.7174 17.4V20.6V25.8V39C13.7174 39.4418 14.0775 39.8 14.5218 39.8H43.4783C43.9225 39.8 44.2826 39.4418 44.2826 39V20.6C44.2826 20.1581 43.9225 19.8 43.4783 19.8H29.619L26.9486 16.6294C26.7194 16.3572 26.3807 16.2 26.0237 16.2H14.9239Z" fill="#B1E5FA"/>
</g>
<defs>
<filter id="filter0_d_2267_21149" x="13.7174" y="15.113" width="30.5652" height="24.6871" filterUnits="userSpaceOnUse" color-interpolation-filters="sRGB">
<feFlood flood-opacity="0" result="BackgroundImageFix"/>
<feColorMatrix in="SourceAlpha" type="matrix" values="0 0 0 0 0 0 0 0 0 0 0 0 0 0 0 0 0 0 127 0" result="hardAlpha"/>
<feOffset dy="-1.08696"/>
<feComposite in2="hardAlpha" operator="out"/>
<feColorMatrix type="matrix" values="0 0 0 0 0 0 0 0 0 0.678431 0 0 0 0 0.937255 0 0 0 0.5 0"/>
<feBlend mode="normal" in2="BackgroundImageFix" result="effect1_dropShadow_2267_21149"/>
<feBlend mode="normal" in="SourceGraphic" in2="effect1_dropShadow_2267_21149" result="shape"/>
</filter>
</defs>
</svg>
