<svg width="58" height="56" viewBox="0 0 58 56" fill="none" xmlns="http://www.w3.org/2000/svg">
<path d="M0 5C0 2.23858 2.23858 0 5 0H53C55.7614 0 58 2.23858 58 5V51C58 53.7614 55.7614 56 53 56H5C2.23858 56 0 53.7614 0 51V5Z" fill="#383838"/>
<g clip-path="url(#clip0_2267_21008)">
<path opacity="0.804914" d="M29 50.5C41.4264 50.5 51.5 40.4264 51.5 28C51.5 15.5736 41.4264 5.5 29 5.5C16.5736 5.5 6.5 15.5736 6.5 28C6.5 40.4264 16.5736 50.5 29 50.5Z" fill="#1A2E3B"/>
<mask id="mask0_2267_21008" style="mask-type:luminance" maskUnits="userSpaceOnUse" x="29" y="5" width="23" height="23">
<path d="M51.5 5.5H29V28H51.5V5.5Z" fill="white"/>
</mask>
<g mask="url(#mask0_2267_21008)">
<path d="M29 44.9821C38.3789 44.9821 45.9821 37.3789 45.9821 28C45.9821 18.621 38.3789 11.0178 29 11.0178C19.621 11.0178 12.0178 18.621 12.0178 28C12.0178 37.3789 19.621 44.9821 29 44.9821Z" stroke="#00ADEF" stroke-width="4.13265"/>
</g>
<path fill-rule="evenodd" clip-rule="evenodd" d="M27.3125 22.375H23.9375V33.625H27.3125V22.375ZM34.0625 22.375H30.6875V33.625H34.0625V22.375Z" fill="white"/>
</g>
<defs>
<clipPath id="clip0_2267_21008">
<rect width="45" height="45" fill="white" transform="translate(6.5 5.5)"/>
</clipPath>
</defs>
</svg>
