<svg width="58" height="56" viewBox="0 0 58 56" fill="none" xmlns="http://www.w3.org/2000/svg">
<path d="M0 5C0 2.23858 2.23858 0 5 0H53C55.7614 0 58 2.23858 58 5V51C58 53.7614 55.7614 56 53 56H5C2.23858 56 0 53.7614 0 51V5Z" fill="#383838"/>
<g clip-path="url(#clip0_2267_21286)">
<path d="M44.3571 16H12.6429C9.80254 16 7.5 18.3025 7.5 21.1429V34.8571C7.5 37.6975 9.80254 40 12.6429 40H44.3571C47.1975 40 49.5 37.6975 49.5 34.8571V21.1429C49.5 18.3025 47.1975 16 44.3571 16Z" fill="#00ADEF"/>
<path d="M17.8847 27.7214V26.4331H19.0187C19.1267 26.4331 19.2296 26.4434 19.3273 26.4639C19.4302 26.4794 19.5202 26.5102 19.5973 26.5565C19.6744 26.6028 19.7362 26.6671 19.7824 26.7494C19.8287 26.8317 19.8519 26.9371 19.8519 27.0657C19.8519 27.2971 19.7824 27.4642 19.6436 27.5671C19.5047 27.6699 19.3273 27.7214 19.1113 27.7214H17.8847ZM16.6736 25.4919V30.9999H19.3427C19.5896 30.9999 19.8287 30.9691 20.0602 30.9074C20.2967 30.8457 20.505 30.7505 20.685 30.6219C20.8702 30.4934 21.0167 30.3288 21.1247 30.1282C21.2327 29.9225 21.2867 29.6808 21.2867 29.4031C21.2867 29.0585 21.2019 28.7654 21.0322 28.5237C20.8676 28.2768 20.6156 28.1045 20.2762 28.0068C20.523 27.8885 20.7082 27.7368 20.8316 27.5517C20.9602 27.3665 21.0244 27.1351 21.0244 26.8574C21.0244 26.6002 20.9807 26.3842 20.8933 26.2094C20.811 26.0345 20.6927 25.8957 20.5384 25.7928C20.3842 25.6848 20.199 25.6077 19.983 25.5614C19.767 25.5151 19.5279 25.4919 19.2656 25.4919H16.6736ZM17.8847 30.0588V28.5468H19.2039C19.4662 28.5468 19.677 28.6085 19.8364 28.7319C19.9959 28.8502 20.0756 29.0508 20.0756 29.3337C20.0756 29.4777 20.0499 29.5959 19.9984 29.6885C19.9522 29.7811 19.8879 29.8557 19.8056 29.9122C19.7233 29.9637 19.6282 30.0022 19.5202 30.0279C19.4122 30.0485 19.299 30.0588 19.1807 30.0588H17.8847ZM25.7309 30.9999V27.0117H24.6355V29.1022C24.6355 29.5085 24.5686 29.8017 24.4349 29.9817C24.3012 30.1565 24.0852 30.2439 23.7869 30.2439C23.5246 30.2439 23.3421 30.1642 23.2392 30.0048C23.1364 29.8402 23.0849 29.5934 23.0849 29.2642V27.0117H21.9895V29.4648C21.9895 29.7117 22.0101 29.9379 22.0512 30.1437C22.0975 30.3442 22.1746 30.5165 22.2826 30.6605C22.3906 30.7994 22.5372 30.9074 22.7224 30.9845C22.9126 31.0617 23.1544 31.1002 23.4475 31.1002C23.6789 31.1002 23.9052 31.0488 24.1264 30.9459C24.3475 30.8431 24.5275 30.6759 24.6664 30.4445H24.6895V30.9999H25.7309ZM27.9509 27.0117V25.8159H26.8555V27.0117H26.192V27.7445H26.8555V30.0974C26.8555 30.2979 26.8889 30.4599 26.9557 30.5834C27.0226 30.7068 27.1126 30.8019 27.2257 30.8688C27.344 30.9357 27.4777 30.9794 27.6269 30.9999C27.7812 31.0257 27.9432 31.0385 28.1129 31.0385C28.2209 31.0385 28.3315 31.0359 28.4446 31.0308C28.5577 31.0257 28.6606 31.0154 28.7532 30.9999V30.1514C28.7017 30.1617 28.6477 30.1694 28.5912 30.1745C28.5346 30.1797 28.4755 30.1822 28.4137 30.1822C28.2286 30.1822 28.1052 30.1514 28.0435 30.0897C27.9817 30.0279 27.9509 29.9045 27.9509 29.7194V27.7445H28.7532V27.0117H27.9509ZM30.663 27.0117V25.8159H29.5675V27.0117H28.9041V27.7445H29.5675V30.0974C29.5675 30.2979 29.601 30.4599 29.6678 30.5834C29.7347 30.7068 29.8247 30.8019 29.9378 30.8688C30.0561 30.9357 30.1898 30.9794 30.339 30.9999C30.4933 31.0257 30.6553 31.0385 30.825 31.0385C30.933 31.0385 31.0435 31.0359 31.1567 31.0308C31.2698 31.0257 31.3727 31.0154 31.4653 30.9999V30.1514C31.4138 30.1617 31.3598 30.1694 31.3033 30.1745C31.2467 30.1797 31.1875 30.1822 31.1258 30.1822C30.9407 30.1822 30.8173 30.1514 30.7555 30.0897C30.6938 30.0279 30.663 29.9045 30.663 29.7194V27.7445H31.4653V27.0117H30.663ZM32.9584 29.0097C32.9584 28.8502 32.9739 28.6934 33.0047 28.5391C33.0356 28.3848 33.087 28.2485 33.159 28.1302C33.2362 28.0119 33.3364 27.9168 33.4599 27.8448C33.5833 27.7677 33.7376 27.7291 33.9227 27.7291C34.1079 27.7291 34.2622 27.7677 34.3856 27.8448C34.5142 27.9168 34.6144 28.0119 34.6864 28.1302C34.7636 28.2485 34.8176 28.3848 34.8484 28.5391C34.8793 28.6934 34.8947 28.8502 34.8947 29.0097C34.8947 29.1691 34.8793 29.3259 34.8484 29.4802C34.8176 29.6294 34.7636 29.7657 34.6864 29.8891C34.6144 30.0074 34.5142 30.1025 34.3856 30.1745C34.2622 30.2465 34.1079 30.2825 33.9227 30.2825C33.7376 30.2825 33.5833 30.2465 33.4599 30.1745C33.3364 30.1025 33.2362 30.0074 33.159 29.8891C33.087 29.7657 33.0356 29.6294 33.0047 29.4802C32.9739 29.3259 32.9584 29.1691 32.9584 29.0097ZM31.863 29.0097C31.863 29.3285 31.9119 29.6165 32.0096 29.8737C32.1073 30.1308 32.2462 30.3519 32.4262 30.5371C32.6062 30.7171 32.8222 30.8559 33.0742 30.9537C33.3262 31.0514 33.609 31.1002 33.9227 31.1002C34.2364 31.1002 34.5193 31.0514 34.7713 30.9537C35.0284 30.8559 35.247 30.7171 35.427 30.5371C35.607 30.3519 35.7459 30.1308 35.8436 29.8737C35.9413 29.6165 35.9902 29.3285 35.9902 29.0097C35.9902 28.6908 35.9413 28.4028 35.8436 28.1457C35.7459 27.8834 35.607 27.6622 35.427 27.4822C35.247 27.2971 35.0284 27.1557 34.7713 27.0579C34.5193 26.9551 34.2364 26.9037 33.9227 26.9037C33.609 26.9037 33.3262 26.9551 33.0742 27.0579C32.8222 27.1557 32.6062 27.2971 32.4262 27.4822C32.2462 27.6622 32.1073 27.8834 32.0096 28.1457C31.9119 28.4028 31.863 28.6908 31.863 29.0097ZM36.7024 27.0117V30.9999H37.7978V28.9094C37.7978 28.5031 37.8647 28.2125 37.9984 28.0377C38.1321 27.8577 38.3481 27.7677 38.6464 27.7677C38.9087 27.7677 39.0913 27.8499 39.1941 28.0145C39.297 28.1739 39.3484 28.4182 39.3484 28.7474V30.9999H40.4438V28.5468C40.4438 28.2999 40.4207 28.0762 40.3744 27.8757C40.3333 27.6699 40.2587 27.4977 40.1507 27.3588C40.0427 27.2148 39.8935 27.1042 39.7033 27.0271C39.5181 26.9448 39.279 26.9037 38.9858 26.9037C38.7544 26.9037 38.5281 26.9577 38.307 27.0657C38.0858 27.1685 37.9058 27.3357 37.767 27.5671H37.7438V27.0117H36.7024Z" fill="white"/>
</g>
<defs>
<clipPath id="clip0_2267_21286">
<rect width="42" height="24" fill="white" transform="translate(7.5 16)"/>
</clipPath>
</defs>
</svg>
