<svg width="58" height="56" viewBox="0 0 58 56" fill="none" xmlns="http://www.w3.org/2000/svg">
<path d="M0 5C0 2.23858 2.23858 0 5 0H53C55.7614 0 58 2.23858 58 5V51C58 53.7614 55.7614 56 53 56H5C2.23858 56 0 53.7614 0 51V5Z" fill="#383838"/>
<path fill-rule="evenodd" clip-rule="evenodd" d="M28.5 42.4C36.4529 42.4 42.9 35.9529 42.9 28C42.9 20.0471 36.4529 13.6 28.5 13.6C20.5471 13.6 14.1 20.0471 14.1 28C14.1 35.9529 20.5471 42.4 28.5 42.4ZM46.5 28C46.5 37.941 38.441 46 28.5 46C18.5589 46 10.5 37.941 10.5 28C10.5 18.0589 18.5589 10 28.5 10C38.441 10 46.5 18.0589 46.5 28ZM31.3546 29.8H21.3V26.2H31.3546L27.2274 22.0728L29.773 19.5272L36.973 26.7272C37.6759 27.4301 37.6759 28.5699 36.973 29.2728L29.773 36.4728L27.2274 33.9272L31.3546 29.8Z" fill="white"/>
</svg>
