<svg width="58" height="56" viewBox="0 0 58 56" fill="none" xmlns="http://www.w3.org/2000/svg">
<path d="M0 5C0 2.23858 2.23858 0 5 0H53C55.7614 0 58 2.23858 58 5V51C58 53.7614 55.7614 56 53 56H5C2.23858 56 0 53.7614 0 51V5Z" fill="#383838"/>
<g clip-path="url(#clip0_2267_21128)">
<path fill-rule="evenodd" clip-rule="evenodd" d="M36.4525 27.8953L14.6287 39.5941L26.2975 46.3499C27.5475 47.0745 29.5947 47.0745 30.8453 46.3514L43.3694 39.0994C44.6217 38.3753 45.6444 36.5942 45.6444 35.1446V32.8638L36.4525 27.8953Z" fill="#1FA9E0"/>
<path fill-rule="evenodd" clip-rule="evenodd" d="M43.3731 16.6871L30.9099 9.44278C29.6615 8.71657 27.6127 8.71268 26.3605 9.43556L23.0538 11.341V20.6552L45.6443 32.8637V20.6452C45.6443 19.195 44.6215 17.4145 43.3731 16.6871Z" fill="#257FC0"/>
<path fill-rule="evenodd" clip-rule="evenodd" d="M13.7767 16.6946C12.5244 17.4175 11.5 19.1947 11.5 20.6449V35.1447C11.5 36.5944 12.5228 38.3755 13.775 39.0995L14.6287 39.5942L23.0535 35.0776V11.3413L13.7767 16.6946Z" fill="#3AC4F1"/>
</g>
<defs>
<clipPath id="clip0_2267_21128">
<rect width="35" height="39" fill="white" transform="translate(11.5 8.5)"/>
</clipPath>
</defs>
</svg>
