<svg width="48" height="48" viewBox="0 0 48 48" fill="none" xmlns="http://www.w3.org/2000/svg">
<g clip-path="url(#clip0_1356_188187)">
<rect width="48" height="48" rx="2" fill="#383838"/>
<g clip-path="url(#clip1_1356_188187)">
<path d="M43 17.0758H4V23.4432H43V17.0758Z" fill="white"/>
<path d="M43 17.0758H4V17.1895H43V17.0758Z" fill="#E2DEDE"/>
<path fill-rule="evenodd" clip-rule="evenodd" d="M4.90962 19.5773C4.84682 19.5773 4.79592 19.6282 4.79592 19.691V20.2595H4.2274C4.16461 20.2595 4.1137 20.3104 4.1137 20.3732C4.1137 20.436 4.16461 20.4869 4.2274 20.4869H4.79592V21.0554C4.79592 21.1182 4.84682 21.1691 4.90962 21.1691C4.97241 21.1691 5.02332 21.1182 5.02332 21.0554V20.4869H5.59183C5.65463 20.4869 5.70554 20.436 5.70554 20.3732C5.70554 20.3104 5.65463 20.2595 5.59183 20.2595H5.02332V19.691C5.02332 19.6282 4.97241 19.5773 4.90962 19.5773Z" fill="#3B3331"/>
<path d="M6.92329 21.0554V19.6719H7.09726V20.2818H7.84838V19.6719H8.02234V21.0554H7.84838V20.4333H7.09726V21.0554H6.92329ZM8.8094 21.0759C8.6525 21.0759 8.52901 21.0302 8.43896 20.9388C8.35027 20.846 8.30593 20.7211 8.30593 20.5642C8.30593 20.4633 8.3264 20.3739 8.36733 20.2961C8.40826 20.2184 8.4642 20.1576 8.53515 20.114C8.6061 20.069 8.68592 20.0464 8.77461 20.0464C8.90833 20.0464 9.01271 20.0901 9.08775 20.1774C9.16279 20.2647 9.20031 20.3841 9.20031 20.5356C9.20031 20.5479 9.19963 20.5595 9.19827 20.5704C9.19827 20.5813 9.19759 20.5902 9.19622 20.597H8.47375C8.47921 20.7034 8.51196 20.7866 8.57199 20.8467C8.63339 20.9067 8.71526 20.9367 8.81759 20.9367C8.86535 20.9367 8.91515 20.9292 8.967 20.9142C9.02021 20.8992 9.07479 20.8774 9.13073 20.8487L9.18803 20.9633C9.06387 21.0384 8.93766 21.0759 8.8094 21.0759ZM8.77052 20.1856C8.69547 20.1856 8.63203 20.2109 8.58018 20.2613C8.52833 20.3118 8.4949 20.3787 8.47989 20.4619H9.03658C9.02567 20.3719 8.99701 20.3036 8.95062 20.2572C8.9056 20.2095 8.84556 20.1856 8.77052 20.1856ZM9.40783 20.1488C9.46241 20.1147 9.52176 20.0894 9.58589 20.073C9.65138 20.0553 9.71824 20.0464 9.78646 20.0464C9.91199 20.0464 10.0075 20.0785 10.073 20.1426C10.1399 20.2068 10.1733 20.2961 10.1733 20.4107V20.7894C10.1733 20.8385 10.176 20.8869 10.1815 20.9347C10.1883 20.9811 10.1965 21.0193 10.206 21.0493L10.0587 21.0739C10.0464 21.0329 10.0368 20.9879 10.03 20.9388C9.93314 21.0302 9.81648 21.0759 9.68004 21.0759C9.58589 21.0759 9.51017 21.0507 9.45286 21.0002C9.39555 20.9497 9.3669 20.8815 9.3669 20.7955C9.3669 20.7123 9.40169 20.6434 9.47128 20.5888C9.54223 20.5342 9.64593 20.4994 9.78237 20.4844L10.0095 20.4619V20.4148C10.0095 20.262 9.93041 20.1856 9.77214 20.1856C9.72438 20.1856 9.67321 20.1931 9.61864 20.2081C9.56406 20.2218 9.51289 20.2416 9.46514 20.2675L9.40783 20.1488ZM9.53677 20.7873C9.53677 20.8378 9.55451 20.8767 9.58998 20.904C9.62546 20.9299 9.67253 20.9429 9.7312 20.9429C9.83354 20.9429 9.92632 20.906 10.0095 20.8324V20.5908L9.7967 20.6154C9.70801 20.625 9.64252 20.6441 9.60022 20.6727C9.55792 20.7014 9.53677 20.7396 9.53677 20.7873ZM10.4065 20.5683C10.4065 20.4646 10.4256 20.3739 10.4638 20.2961C10.5034 20.2184 10.5587 20.1576 10.6296 20.114C10.7019 20.069 10.7872 20.0464 10.8855 20.0464C10.9837 20.0464 11.0717 20.0703 11.1495 20.1181V19.6125H11.3153V20.7935C11.3153 20.8371 11.318 20.8828 11.3234 20.9306C11.3289 20.9783 11.3371 21.0165 11.348 21.0452L11.1965 21.0739C11.1884 21.0507 11.1815 21.0275 11.1761 21.0043C11.172 20.9797 11.1686 20.9565 11.1658 20.9347C11.1263 20.9797 11.0785 21.0145 11.0226 21.0391C10.9666 21.0636 10.908 21.0759 10.8466 21.0759C10.7579 21.0759 10.6801 21.0554 10.6133 21.0145C10.5478 20.9722 10.4966 20.9135 10.4598 20.8385C10.4243 20.7621 10.4065 20.672 10.4065 20.5683ZM10.5764 20.5663C10.5764 20.685 10.6037 20.7764 10.6583 20.8405C10.7142 20.9047 10.792 20.9367 10.8916 20.9367C10.9421 20.9367 10.9898 20.9258 11.0349 20.904C11.0813 20.8822 11.1195 20.8521 11.1495 20.8139V20.2572C11.1113 20.2327 11.0717 20.2149 11.0308 20.204C10.9898 20.1917 10.9503 20.1856 10.9121 20.1856C10.807 20.1856 10.7245 20.2211 10.6644 20.292C10.6057 20.3616 10.5764 20.453 10.5764 20.5663ZM12.0732 21.0759C11.9163 21.0759 11.7929 21.0302 11.7028 20.9388C11.6141 20.846 11.5698 20.7211 11.5698 20.5642C11.5698 20.4633 11.5902 20.3739 11.6312 20.2961C11.6721 20.2184 11.728 20.1576 11.799 20.114C11.8699 20.069 11.9498 20.0464 12.0385 20.0464C12.1722 20.0464 12.2766 20.0901 12.3516 20.1774C12.4266 20.2647 12.4642 20.3841 12.4642 20.5356C12.4642 20.5479 12.4635 20.5595 12.4621 20.5704C12.4621 20.5813 12.4614 20.5902 12.4601 20.597H11.7376C11.7431 20.7034 11.7758 20.7866 11.8358 20.8467C11.8972 20.9067 11.9791 20.9367 12.0814 20.9367C12.1292 20.9367 12.179 20.9292 12.2308 20.9142C12.2841 20.8992 12.3386 20.8774 12.3946 20.8487L12.4519 20.9633C12.3277 21.0384 12.2015 21.0759 12.0732 21.0759ZM12.0344 20.1856C11.9593 20.1856 11.8959 20.2109 11.844 20.2613C11.7922 20.3118 11.7587 20.3787 11.7437 20.4619H12.3004C12.2895 20.3719 12.2609 20.3036 12.2145 20.2572C12.1694 20.2095 12.1094 20.1856 12.0344 20.1856ZM12.7187 21.0554V20.3289C12.7187 20.2866 12.7153 20.2416 12.7085 20.1938C12.703 20.146 12.6962 20.1065 12.688 20.0751L12.8395 20.0485C12.8477 20.0771 12.8545 20.1065 12.86 20.1365C12.8654 20.1651 12.8695 20.1924 12.8722 20.2184C12.9486 20.1051 13.0469 20.0485 13.167 20.0485C13.2093 20.0485 13.2515 20.0546 13.2938 20.0669L13.2775 20.2265C13.257 20.2197 13.2372 20.2149 13.2181 20.2122C13.199 20.2095 13.1765 20.2081 13.1506 20.2081C13.096 20.2081 13.0455 20.2197 12.9991 20.2429C12.9541 20.2647 12.9159 20.2954 12.8845 20.335V21.0554H12.7187Z" fill="#3B3331"/>
<path d="M43 23.4431H4V29.9242H43V23.4431Z" fill="white"/>
<path d="M43 23.4431H4V23.5568H43V23.4431Z" fill="#E2DEDE"/>
<path fill-rule="evenodd" clip-rule="evenodd" d="M4.90962 25.9446C4.84682 25.9446 4.79592 25.9955 4.79592 26.0583V26.6268H4.2274C4.16461 26.6268 4.1137 26.6777 4.1137 26.7405C4.1137 26.8033 4.16461 26.8542 4.2274 26.8542H4.79592V27.4227C4.79592 27.4855 4.84682 27.5364 4.90962 27.5364C4.97241 27.5364 5.02332 27.4855 5.02332 27.4227V26.8542H5.59183C5.65463 26.8542 5.70554 26.8033 5.70554 26.7405C5.70554 26.6777 5.65463 26.6268 5.59183 26.6268H5.02332V26.0583C5.02332 25.9955 4.97241 25.9446 4.90962 25.9446Z" fill="#3B3331"/>
<path d="M6.92329 27.4229V26.0393H7.09726V26.6492H7.84838V26.0393H8.02234V27.4229H7.84838V26.8007H7.09726V27.4229H6.92329ZM8.8094 27.4433C8.6525 27.4433 8.52901 27.3976 8.43896 27.3062C8.35027 27.2134 8.30593 27.0886 8.30593 26.9317C8.30593 26.8307 8.3264 26.7413 8.36733 26.6636C8.40826 26.5858 8.4642 26.5251 8.53515 26.4814C8.6061 26.4364 8.68592 26.4139 8.77461 26.4139C8.90833 26.4139 9.01271 26.4575 9.08775 26.5449C9.16279 26.6322 9.20031 26.7516 9.20031 26.903C9.20031 26.9153 9.19963 26.9269 9.19827 26.9378C9.19827 26.9487 9.19759 26.9576 9.19622 26.9644H8.47375C8.47921 27.0708 8.51196 27.1541 8.57199 27.2141C8.63339 27.2741 8.71526 27.3042 8.81759 27.3042C8.86535 27.3042 8.91515 27.2967 8.967 27.2816C9.02021 27.2666 9.07479 27.2448 9.13073 27.2162L9.18803 27.3308C9.06387 27.4058 8.93766 27.4433 8.8094 27.4433ZM8.77052 26.553C8.69547 26.553 8.63203 26.5783 8.58018 26.6288C8.52833 26.6793 8.4949 26.7461 8.47989 26.8293H9.03658C9.02567 26.7393 8.99701 26.6711 8.95062 26.6247C8.9056 26.5769 8.84556 26.553 8.77052 26.553ZM9.40783 26.5162C9.46241 26.4821 9.52176 26.4568 9.58589 26.4405C9.65138 26.4227 9.71824 26.4139 9.78646 26.4139C9.91199 26.4139 10.0075 26.4459 10.073 26.5101C10.1399 26.5742 10.1733 26.6636 10.1733 26.7782V27.1568C10.1733 27.2059 10.176 27.2544 10.1815 27.3021C10.1883 27.3485 10.1965 27.3867 10.206 27.4167L10.0587 27.4413C10.0464 27.4004 10.0368 27.3553 10.03 27.3062C9.93314 27.3976 9.81648 27.4433 9.68004 27.4433C9.58589 27.4433 9.51017 27.4181 9.45286 27.3676C9.39555 27.3171 9.3669 27.2489 9.3669 27.1629C9.3669 27.0797 9.40169 27.0108 9.47128 26.9562C9.54223 26.9017 9.64593 26.8669 9.78237 26.8519L10.0095 26.8293V26.7823C10.0095 26.6294 9.93041 26.553 9.77214 26.553C9.72438 26.553 9.67321 26.5605 9.61864 26.5756C9.56406 26.5892 9.51289 26.609 9.46514 26.6349L9.40783 26.5162ZM9.53677 27.1548C9.53677 27.2052 9.55451 27.2441 9.58998 27.2714C9.62546 27.2973 9.67253 27.3103 9.7312 27.3103C9.83354 27.3103 9.92632 27.2735 10.0095 27.1998V26.9583L9.7967 26.9828C9.70801 26.9924 9.64252 27.0115 9.60022 27.0401C9.55792 27.0688 9.53677 27.107 9.53677 27.1548ZM10.4065 26.9358C10.4065 26.8321 10.4256 26.7413 10.4638 26.6636C10.5034 26.5858 10.5587 26.5251 10.6296 26.4814C10.7019 26.4364 10.7872 26.4139 10.8855 26.4139C10.9837 26.4139 11.0717 26.4377 11.1495 26.4855V25.98H11.3153V27.1609C11.3153 27.2046 11.318 27.2503 11.3234 27.298C11.3289 27.3458 11.3371 27.384 11.348 27.4126L11.1965 27.4413C11.1884 27.4181 11.1815 27.3949 11.1761 27.3717C11.172 27.3471 11.1686 27.3239 11.1658 27.3021C11.1263 27.3471 11.0785 27.3819 11.0226 27.4065C10.9666 27.4311 10.908 27.4433 10.8466 27.4433C10.7579 27.4433 10.6801 27.4229 10.6133 27.3819C10.5478 27.3396 10.4966 27.281 10.4598 27.2059C10.4243 27.1295 10.4065 27.0395 10.4065 26.9358ZM10.5764 26.9337C10.5764 27.0524 10.6037 27.1438 10.6583 27.208C10.7142 27.2721 10.792 27.3042 10.8916 27.3042C10.9421 27.3042 10.9898 27.2932 11.0349 27.2714C11.0813 27.2496 11.1195 27.2196 11.1495 27.1814V26.6247C11.1113 26.6001 11.0717 26.5824 11.0308 26.5715C10.9898 26.5592 10.9503 26.553 10.9121 26.553C10.807 26.553 10.7245 26.5885 10.6644 26.6595C10.6057 26.7291 10.5764 26.8205 10.5764 26.9337ZM12.0732 27.4433C11.9163 27.4433 11.7929 27.3976 11.7028 27.3062C11.6141 27.2134 11.5698 27.0886 11.5698 26.9317C11.5698 26.8307 11.5902 26.7413 11.6312 26.6636C11.6721 26.5858 11.728 26.5251 11.799 26.4814C11.8699 26.4364 11.9498 26.4139 12.0385 26.4139C12.1722 26.4139 12.2766 26.4575 12.3516 26.5449C12.4266 26.6322 12.4642 26.7516 12.4642 26.903C12.4642 26.9153 12.4635 26.9269 12.4621 26.9378C12.4621 26.9487 12.4614 26.9576 12.4601 26.9644H11.7376C11.7431 27.0708 11.7758 27.1541 11.8358 27.2141C11.8972 27.2741 11.9791 27.3042 12.0814 27.3042C12.1292 27.3042 12.179 27.2967 12.2308 27.2816C12.2841 27.2666 12.3386 27.2448 12.3946 27.2162L12.4519 27.3308C12.3277 27.4058 12.2015 27.4433 12.0732 27.4433ZM12.0344 26.553C11.9593 26.553 11.8959 26.5783 11.844 26.6288C11.7922 26.6793 11.7587 26.7461 11.7437 26.8293H12.3004C12.2895 26.7393 12.2609 26.6711 12.2145 26.6247C12.1694 26.5769 12.1094 26.553 12.0344 26.553ZM12.7187 27.4229V26.6963C12.7187 26.654 12.7153 26.609 12.7085 26.5612C12.703 26.5135 12.6962 26.4739 12.688 26.4425L12.8395 26.4159C12.8477 26.4446 12.8545 26.4739 12.86 26.5039C12.8654 26.5326 12.8695 26.5599 12.8722 26.5858C12.9486 26.4725 13.0469 26.4159 13.167 26.4159C13.2093 26.4159 13.2515 26.4221 13.2938 26.4343L13.2775 26.594C13.257 26.5872 13.2372 26.5824 13.2181 26.5796C13.199 26.5769 13.1765 26.5756 13.1506 26.5756C13.096 26.5756 13.0455 26.5872 12.9991 26.6103C12.9541 26.6322 12.9159 26.6629 12.8845 26.7024V27.4229H12.7187Z" fill="#3B3331"/>
<path d="M43 29.8104H4V29.9241H43V29.8104Z" fill="#E2DEDE"/>
</g>
</g>
<defs>
<clipPath id="clip0_1356_188187">
<rect width="48" height="48" rx="5" fill="white"/>
</clipPath>
<clipPath id="clip1_1356_188187">
<rect width="39" height="12.8484" fill="white" transform="translate(4 17.0758)"/>
</clipPath>
</defs>
</svg>
