<svg width="48" height="48" viewBox="0 0 48 48" fill="none" xmlns="http://www.w3.org/2000/svg">
<g clip-path="url(#clip0_1435_28892)">
<rect width="48" height="48" rx="2" fill="#383838"/>
<g clip-path="url(#clip1_1435_28892)">
<g filter="url(#filter0_d_1435_28892)">
<path d="M42.587 21.5625H5.41304V26.8125H42.587V21.5625Z" fill="white"/>
<path fill-rule="evenodd" clip-rule="evenodd" d="M9.21342 22.5023C9.15992 22.4533 9.07307 22.4533 9.01957 22.5023L7.9677 23.4638C7.95693 23.4737 7.95374 23.4884 7.95961 23.5012C7.96549 23.5141 7.97927 23.5224 7.99457 23.5224H8.25973V24.4448C8.25973 24.4638 8.27667 24.4792 8.29758 24.4792H8.8655C8.88641 24.4792 8.90335 24.4638 8.90335 24.4448V23.7134H9.32706V24.4448C9.32706 24.4638 9.34401 24.4792 9.36493 24.4792H9.93283C9.95374 24.4792 9.9707 24.4638 9.9707 24.4448V23.5224H10.2359C10.2511 23.5224 10.2649 23.5141 10.2708 23.5013C10.2767 23.4885 10.2735 23.4738 10.2628 23.4639L9.9707 23.1951V22.5794C9.9707 22.5604 9.95374 22.5451 9.93283 22.5451H9.5865C9.56559 22.5451 9.54863 22.5604 9.54863 22.5794V22.8209L9.21393 22.5028L9.21342 22.5023Z" fill="#D71E28"/>
<path d="M7.04491 25.1779H7.20848L7.49245 25.875H7.34706L7.28118 25.7069H6.96313L6.89612 25.875H6.75981L7.04491 25.1779ZM7.00402 25.6007H7.23915L7.12215 25.3026L7.00402 25.6007ZM7.82538 25.8853C7.76708 25.8853 7.71597 25.8746 7.67204 25.8533C7.62888 25.8313 7.59518 25.8007 7.57095 25.7615C7.54747 25.7217 7.53573 25.6749 7.53573 25.6213C7.53573 25.5677 7.54747 25.5213 7.57095 25.4821C7.59518 25.4422 7.62888 25.4116 7.67204 25.3903C7.71597 25.3683 7.76745 25.3573 7.82652 25.3573C7.85832 25.3573 7.89013 25.3611 7.92193 25.3686C7.95373 25.3762 7.9829 25.3872 8.00939 25.4016L7.96509 25.4872C7.9189 25.4659 7.87499 25.4553 7.83333 25.4553C7.7826 25.4553 7.74246 25.4704 7.71293 25.5006C7.68416 25.5302 7.66977 25.5704 7.66977 25.6213C7.66977 25.6722 7.68416 25.7124 7.71293 25.742C7.74246 25.7715 7.7826 25.7863 7.83333 25.7863C7.87422 25.7863 7.91815 25.776 7.96509 25.7554L8.00939 25.8399C7.95487 25.8702 7.89353 25.8853 7.82538 25.8853ZM8.35893 25.8853C8.30063 25.8853 8.24951 25.8746 8.20559 25.8533C8.16242 25.8313 8.12873 25.8007 8.1045 25.7615C8.08102 25.7217 8.06928 25.6749 8.06928 25.6213C8.06928 25.5677 8.08102 25.5213 8.1045 25.4821C8.12873 25.4422 8.16242 25.4116 8.20559 25.3903C8.24951 25.3683 8.301 25.3573 8.36007 25.3573C8.39187 25.3573 8.42367 25.3611 8.45548 25.3686C8.48728 25.3762 8.51644 25.3872 8.54294 25.4016L8.49864 25.4872C8.45245 25.4659 8.40854 25.4553 8.36688 25.4553C8.31615 25.4553 8.27601 25.4704 8.24648 25.5006C8.21771 25.5302 8.20332 25.5704 8.20332 25.6213C8.20332 25.6722 8.21771 25.7124 8.24648 25.742C8.27601 25.7715 8.31615 25.7863 8.36688 25.7863C8.40777 25.7863 8.4517 25.776 8.49864 25.7554L8.54294 25.8399C8.48842 25.8702 8.42708 25.8853 8.35893 25.8853ZM8.88794 25.8853C8.83039 25.8853 8.78003 25.8743 8.73686 25.8523C8.69447 25.8303 8.66153 25.7994 8.63804 25.7595C8.61457 25.7196 8.60283 25.6735 8.60283 25.6213C8.60283 25.569 8.61457 25.523 8.63804 25.4831C8.66153 25.4432 8.69447 25.4123 8.73686 25.3903C8.78003 25.3683 8.83039 25.3573 8.88794 25.3573C8.94549 25.3573 8.99547 25.3683 9.03787 25.3903C9.08103 25.4123 9.11436 25.4432 9.13783 25.4831C9.16206 25.523 9.17417 25.569 9.17417 25.6213C9.17417 25.6735 9.16206 25.7196 9.13783 25.7595C9.11436 25.7994 9.08103 25.8303 9.03787 25.8523C8.99547 25.8743 8.94549 25.8853 8.88794 25.8853ZM8.88794 25.7884C8.93716 25.7884 8.97464 25.7729 9.00039 25.742C9.02689 25.711 9.04014 25.6708 9.04014 25.6213C9.04014 25.5718 9.02689 25.5316 9.00039 25.5006C8.97464 25.4697 8.93716 25.4542 8.88794 25.4542C8.83947 25.4542 8.80199 25.4697 8.77548 25.5006C8.74974 25.5316 8.73686 25.5718 8.73686 25.6213C8.73686 25.6708 8.74974 25.711 8.77548 25.742C8.80199 25.7729 8.83947 25.7884 8.88794 25.7884ZM9.41407 25.3676V25.6739C9.41407 25.7103 9.42391 25.7378 9.4436 25.7564C9.46405 25.7743 9.49244 25.7832 9.52879 25.7832C9.57196 25.7832 9.61133 25.7719 9.64692 25.7492V25.3676H9.77528V25.7358C9.77528 25.7585 9.77678 25.7818 9.77982 25.8059C9.7836 25.8293 9.78814 25.8492 9.79345 25.8657L9.67305 25.8853C9.67001 25.8743 9.66699 25.8633 9.66396 25.8523C9.66169 25.8406 9.65942 25.83 9.65715 25.8203C9.6064 25.8636 9.54772 25.8853 9.48109 25.8853C9.41899 25.8853 9.37091 25.8688 9.33683 25.8358C9.30275 25.8028 9.28572 25.756 9.28572 25.6955V25.3676H9.41407ZM9.94043 25.875V25.5058C9.94043 25.4838 9.93892 25.4611 9.93589 25.4377C9.93286 25.4137 9.9287 25.393 9.92339 25.3759L10.0438 25.3573C10.0468 25.369 10.0495 25.381 10.0517 25.3934C10.0548 25.4051 10.0574 25.4164 10.0597 25.4274C10.1104 25.3807 10.1714 25.3573 10.2426 25.3573C10.3047 25.3573 10.3528 25.3738 10.3868 25.4068C10.4209 25.4391 10.4379 25.4848 10.4379 25.544V25.875H10.3085V25.5656C10.3085 25.5312 10.2982 25.5051 10.2778 25.4872C10.2581 25.4687 10.2301 25.4594 10.1937 25.4594C10.1475 25.4594 10.1063 25.4718 10.0699 25.4965V25.875H9.94043ZM10.8199 25.8853C10.7586 25.8853 10.712 25.8702 10.6802 25.8399C10.6484 25.8097 10.6325 25.7664 10.6325 25.71V25.4635H10.5189V25.3676H10.6325C10.6348 25.3415 10.6378 25.316 10.6416 25.2913C10.6461 25.2665 10.651 25.2418 10.6563 25.217H10.762V25.3676H10.938V25.4635H10.762V25.6904C10.762 25.7227 10.7688 25.7461 10.7824 25.7605C10.7961 25.775 10.8184 25.7822 10.8494 25.7822C10.8638 25.7822 10.8786 25.7808 10.8937 25.778C10.9089 25.7753 10.9248 25.7705 10.9414 25.7636L10.9755 25.8502C10.9536 25.8612 10.9289 25.8698 10.9017 25.876C10.8752 25.8822 10.8479 25.8853 10.8199 25.8853ZM11.2513 25.8853C11.2104 25.8853 11.1699 25.8805 11.1297 25.8709C11.0903 25.8605 11.0544 25.8458 11.0218 25.8265L11.0638 25.745C11.1252 25.776 11.1846 25.7915 11.2422 25.7915C11.2778 25.7915 11.305 25.7863 11.324 25.776C11.3429 25.7657 11.3523 25.7509 11.3523 25.7316C11.3523 25.7014 11.3292 25.6818 11.2831 25.6729L11.2035 25.6564C11.1521 25.6454 11.1134 25.6275 11.0877 25.6027C11.0627 25.5773 11.0502 25.5467 11.0502 25.511C11.0502 25.4656 11.0691 25.4288 11.107 25.4006C11.1449 25.3717 11.196 25.3573 11.2603 25.3573C11.3368 25.3573 11.405 25.3748 11.4648 25.4099L11.4194 25.4883C11.3671 25.4635 11.3183 25.4511 11.2728 25.4511C11.2115 25.4511 11.1808 25.469 11.1808 25.5048C11.1808 25.5192 11.1865 25.5309 11.1979 25.5398C11.2092 25.5488 11.2282 25.556 11.2547 25.5615L11.3364 25.579C11.4341 25.599 11.483 25.6471 11.483 25.7234C11.483 25.7708 11.4621 25.8097 11.4205 25.8399C11.3789 25.8702 11.3224 25.8853 11.2513 25.8853Z" fill="#3B3331"/>
<path fill-rule="evenodd" clip-rule="evenodd" d="M15.9449 23.4375C15.9449 22.9197 16.4074 22.5 16.9778 22.5C17.2519 22.5 17.5146 22.5988 17.7083 22.7746C17.902 22.9504 18.0109 23.1889 18.0109 23.4375C18.0109 23.9553 17.5484 24.375 16.9778 24.375C16.4074 24.375 15.9449 23.9553 15.9449 23.4375ZM16.9778 24.2812C17.4914 24.2812 17.9076 23.9035 17.9076 23.4375C17.9076 22.9715 17.4914 22.5938 16.9778 22.5938C16.4644 22.5938 16.0482 22.9715 16.0482 23.4375C16.0482 23.9035 16.4644 24.2812 16.9778 24.2812ZM17.0864 23.3869L16.9324 23.3587C16.8426 23.3428 16.7992 23.3006 16.7992 23.2312C16.7982 23.1937 16.8155 23.1576 16.8467 23.1328C16.8883 23.1039 16.9402 23.0899 16.9923 23.0934C17.0775 23.095 17.1608 23.1156 17.2351 23.1534C17.2483 23.1585 17.2633 23.1585 17.2764 23.1534C17.2995 23.149 17.3167 23.1316 17.3193 23.1103C17.3219 23.089 17.3092 23.0686 17.2877 23.0597C17.2505 23.0412 17.2114 23.0259 17.171 23.0137C17.1284 23.0015 17.0844 22.9936 17.0399 22.9903V22.9125C17.0399 22.8866 17.0168 22.8656 16.9882 22.8656C16.9597 22.8656 16.9365 22.8866 16.9365 22.9125V22.9903C16.8648 22.9952 16.7968 23.0216 16.7434 23.0653C16.6919 23.109 16.6642 23.1711 16.668 23.235C16.665 23.2922 16.6878 23.348 16.731 23.3897C16.7785 23.4304 16.8381 23.4578 16.9025 23.4684L17.0585 23.4975C17.1535 23.5172 17.2 23.5603 17.2 23.6278C17.2012 23.6705 17.1801 23.7111 17.1432 23.7375C17.0962 23.7683 17.0389 23.7835 16.9809 23.7806C16.9286 23.7805 16.8764 23.7739 16.826 23.7609C16.7751 23.7483 16.727 23.728 16.6834 23.7009C16.6576 23.69 16.6268 23.6989 16.6127 23.7215C16.5986 23.7441 16.6061 23.7727 16.6298 23.7872C16.6717 23.8148 16.7186 23.8357 16.7682 23.8491C16.8236 23.8642 16.8809 23.873 16.9386 23.8753V23.9559C16.9386 23.9818 16.9617 24.0028 16.9902 24.0028C17.0188 24.0028 17.042 23.9818 17.042 23.9559V23.8753C17.1181 23.8712 17.1907 23.8445 17.2485 23.7994C17.3021 23.7547 17.3315 23.691 17.3291 23.625C17.331 23.5704 17.3117 23.5169 17.2743 23.4741C17.224 23.427 17.1579 23.3963 17.0864 23.3869ZM15.3696 23.8556H15.6908C15.717 23.8556 15.7383 23.8363 15.7383 23.8125C15.7383 23.7885 15.7172 23.7689 15.6908 23.7684H15.3727C15.3598 23.7684 15.3476 23.7731 15.3387 23.7814C15.3297 23.7897 15.3248 23.8009 15.3251 23.8125C15.3245 23.8355 15.3443 23.8546 15.3696 23.8556ZM15.6877 23.4834H15.1712C15.1427 23.4834 15.1196 23.4624 15.1196 23.4366C15.1196 23.4107 15.1427 23.3897 15.1712 23.3897H15.6877C15.7162 23.3897 15.7393 23.4107 15.7393 23.4366C15.7393 23.4624 15.7162 23.4834 15.6877 23.4834ZM15.1247 23.0625C15.1247 23.0868 15.1465 23.1066 15.1733 23.1066H15.8964C15.9137 23.1066 15.9297 23.0982 15.9384 23.0845C15.9471 23.0709 15.9471 23.0541 15.9384 23.0405C15.9297 23.0268 15.9137 23.0184 15.8964 23.0184H15.1733C15.1465 23.0184 15.1247 23.0382 15.1247 23.0625Z" fill="#3B3331"/>
<path d="M15.1099 25.1779V25.2542H14.8498V25.875H14.7533V25.2542H14.4932V25.1779H15.1099ZM15.1769 25.875V25.5089C15.1769 25.4876 15.175 25.4649 15.1712 25.4408C15.1682 25.4168 15.1644 25.3968 15.1599 25.381L15.2439 25.3676C15.2485 25.3821 15.2523 25.3968 15.2553 25.412C15.2583 25.4264 15.2606 25.4401 15.2621 25.4532C15.3045 25.3961 15.359 25.3676 15.4256 25.3676C15.4492 25.3676 15.4726 25.3707 15.4961 25.3769L15.487 25.4573C15.4756 25.4539 15.4647 25.4515 15.454 25.4501C15.4435 25.4487 15.431 25.4481 15.4165 25.4481C15.3863 25.4481 15.3583 25.4539 15.3325 25.4656C15.3075 25.4766 15.2863 25.492 15.2689 25.512V25.875H15.1769ZM15.5745 25.4181C15.6048 25.401 15.6377 25.3882 15.6734 25.38C15.7097 25.3711 15.7468 25.3666 15.7847 25.3666C15.8543 25.3666 15.9073 25.3827 15.9437 25.4151C15.9808 25.4474 15.9993 25.4924 15.9993 25.5501V25.7409C15.9993 25.7657 16.0008 25.7901 16.0039 25.8141C16.0076 25.8375 16.0121 25.8568 16.0175 25.8719L15.9357 25.8843C15.9289 25.8636 15.9236 25.841 15.9198 25.8162C15.866 25.8623 15.8013 25.8853 15.7256 25.8853C15.6734 25.8853 15.6313 25.8726 15.5995 25.8471C15.5677 25.8217 15.5518 25.7873 15.5518 25.744C15.5518 25.7021 15.5711 25.6674 15.6097 25.6399C15.6491 25.6124 15.7066 25.5948 15.7824 25.5873L15.9085 25.5759V25.5522C15.9085 25.4752 15.8645 25.4367 15.7767 25.4367C15.7502 25.4367 15.7218 25.4405 15.6915 25.4481C15.6612 25.4549 15.6328 25.4649 15.6063 25.478L15.5745 25.4181ZM15.6461 25.7399C15.6461 25.7653 15.6559 25.7849 15.6756 25.7987C15.6952 25.8117 15.7214 25.8183 15.754 25.8183C15.8108 25.8183 15.8622 25.7997 15.9085 25.7626V25.6409L15.7903 25.6533C15.7411 25.6581 15.7047 25.6677 15.6813 25.6821C15.6578 25.6966 15.6461 25.7158 15.6461 25.7399ZM16.1697 25.875V25.5089C16.1697 25.4876 16.1678 25.4649 16.164 25.4408C16.1609 25.4168 16.1572 25.3968 16.1527 25.381L16.2367 25.3676C16.2436 25.3903 16.2488 25.4137 16.2526 25.4377C16.3063 25.3903 16.3692 25.3666 16.4412 25.3666C16.5025 25.3666 16.5498 25.3827 16.5832 25.4151C16.6173 25.4467 16.6343 25.4914 16.6343 25.5491V25.875H16.5423V25.5625C16.5423 25.5233 16.5309 25.4931 16.5082 25.4718C16.4855 25.4505 16.4533 25.4398 16.4117 25.4398C16.3563 25.4398 16.3063 25.456 16.2617 25.4883V25.875H16.1697ZM16.9655 25.8853C16.9291 25.8853 16.892 25.8808 16.8541 25.8719C16.8162 25.863 16.781 25.8496 16.7485 25.8317L16.7803 25.7719C16.8401 25.8021 16.9003 25.8172 16.9609 25.8172C17.0018 25.8172 17.0336 25.8104 17.0563 25.7966C17.0798 25.7822 17.0915 25.7626 17.0915 25.7378C17.0915 25.7 17.065 25.6753 17.012 25.6636L16.92 25.643C16.8716 25.6326 16.8356 25.6161 16.8121 25.5935C16.7894 25.5708 16.778 25.5429 16.778 25.5099C16.778 25.4666 16.7955 25.4319 16.8303 25.4058C16.8651 25.3796 16.9132 25.3666 16.9745 25.3666C17.0427 25.3666 17.1052 25.3824 17.162 25.414L17.1279 25.4707C17.0764 25.4467 17.0268 25.4346 16.9791 25.4346C16.9443 25.4346 16.9173 25.4408 16.8984 25.4532C16.8795 25.4656 16.87 25.4831 16.87 25.5058C16.87 25.5237 16.8761 25.5381 16.8882 25.5491C16.9011 25.5594 16.9227 25.5677 16.953 25.5739L17.0461 25.5945C17.0908 25.6041 17.1249 25.621 17.1483 25.645C17.1726 25.6691 17.1847 25.6983 17.1847 25.7327C17.1847 25.7781 17.1646 25.8148 17.1245 25.843C17.0851 25.8712 17.0321 25.8853 16.9655 25.8853ZM17.6347 25.445H17.4484V25.875H17.3564V25.445H17.2371V25.3769H17.3564V25.3181C17.3564 25.259 17.3743 25.2146 17.4098 25.1851C17.4454 25.1548 17.492 25.1397 17.5495 25.1397C17.5692 25.1397 17.5874 25.1411 17.604 25.1438C17.6207 25.1466 17.6362 25.1504 17.6506 25.1552L17.6301 25.2212C17.6188 25.2177 17.6071 25.215 17.5949 25.2129C17.5829 25.2102 17.5708 25.2088 17.5586 25.2088C17.5238 25.2088 17.4965 25.2177 17.4768 25.2356C17.4579 25.2535 17.4484 25.281 17.4484 25.3181V25.3769H17.6347V25.445ZM17.9711 25.8853C17.8841 25.8853 17.8155 25.8623 17.7655 25.8162C17.7164 25.7695 17.6917 25.7066 17.6917 25.6275C17.6917 25.5766 17.703 25.5316 17.7258 25.4924C17.7485 25.4532 17.7796 25.4226 17.8189 25.4006C17.8584 25.3779 17.9026 25.3666 17.9518 25.3666C18.026 25.3666 18.084 25.3886 18.1256 25.4326C18.1673 25.4766 18.1881 25.5367 18.1881 25.6131C18.1881 25.6192 18.1878 25.6251 18.1869 25.6306C18.1869 25.6361 18.1866 25.6405 18.1858 25.644H17.7848C17.7879 25.6976 17.8061 25.7395 17.8394 25.7698C17.8734 25.8001 17.9189 25.8152 17.9757 25.8152C18.0022 25.8152 18.0299 25.8114 18.0586 25.8038C18.0881 25.7963 18.1185 25.7853 18.1494 25.7708L18.1812 25.8286C18.1124 25.8664 18.0424 25.8853 17.9711 25.8853ZM17.9495 25.4367C17.9079 25.4367 17.8727 25.4494 17.8439 25.4749C17.8152 25.5003 17.7966 25.534 17.7882 25.5759H18.0972C18.0912 25.5306 18.0753 25.4962 18.0495 25.4728C18.0245 25.4487 17.9912 25.4367 17.9495 25.4367ZM18.3294 25.875V25.5089C18.3294 25.4876 18.3275 25.4649 18.3237 25.4408C18.3206 25.4168 18.3169 25.3968 18.3124 25.381L18.3964 25.3676C18.401 25.3821 18.4047 25.3968 18.4078 25.412C18.4108 25.4264 18.4131 25.4401 18.4146 25.4532C18.457 25.3961 18.5115 25.3676 18.5782 25.3676C18.6016 25.3676 18.6251 25.3707 18.6486 25.3769L18.6395 25.4573C18.6282 25.4539 18.6171 25.4515 18.6066 25.4501C18.5959 25.4487 18.5834 25.4481 18.5691 25.4481C18.5387 25.4481 18.5108 25.4539 18.485 25.4656C18.4601 25.4766 18.4388 25.492 18.4214 25.512V25.875H18.3294Z" fill="#3B3331"/>
<path fill-rule="evenodd" clip-rule="evenodd" d="M24.4795 22.5971C24.4795 22.5093 24.599 22.4683 24.6551 22.5285L25.139 22.8731C25.173 22.9089 25.173 22.9621 25.1317 23.004L24.6624 23.336C24.5992 23.4027 24.4795 23.3616 24.4795 23.2738V23.1645H23.78C23.7222 23.1645 23.6757 23.1219 23.6757 23.0694V22.8016C23.6757 22.7492 23.7222 22.7065 23.78 22.7065H24.4795V22.5971ZM24.5842 22.5961C24.5837 22.5955 24.5828 22.5958 24.5828 22.5971V22.7534C24.5828 22.7793 24.5597 22.8003 24.5312 22.8003H23.78C23.7794 22.8003 23.7789 22.8007 23.7789 22.8016V23.0694C23.7789 23.0703 23.7794 23.0708 23.78 23.0708H24.5312C24.5597 23.0708 24.5828 23.0918 24.5828 23.1176V23.2738C24.5828 23.2751 24.5837 23.2754 24.5915 23.2685L25.0609 22.9365V22.9364C25.0611 22.9362 25.0612 22.936 25.0616 22.9361L24.5842 22.5961ZM23.5482 24.3337C23.5482 24.4215 23.4288 24.4625 23.3727 24.4023L22.8888 24.0577C22.8547 24.0219 22.8547 23.9688 22.896 23.9268L23.3653 23.5948C23.4284 23.528 23.5482 23.5692 23.5482 23.657V23.7663H24.2478C24.3055 23.7663 24.3521 23.8089 24.3521 23.8614V24.1292C24.3521 24.1817 24.3055 24.2243 24.2478 24.2243H23.5482V24.3337ZM23.4435 24.3347C23.444 24.3353 23.445 24.335 23.445 24.3337V24.1774C23.445 24.1515 23.4681 24.1306 23.4966 24.1306H24.2478C24.2482 24.1306 24.2488 24.1301 24.2488 24.1292V23.8614C24.2488 23.8605 24.2482 23.86 24.2478 23.86H23.4966C23.4681 23.86 23.445 23.8391 23.445 23.8132V23.657C23.445 23.6557 23.444 23.6554 23.4363 23.6623L22.9669 23.9943L22.9668 23.9945C22.9668 23.9945 22.9666 23.9948 22.9662 23.9948L23.4435 24.3347Z" fill="#3B3331"/>
<path d="M22.5276 25.875V25.8059L22.9604 25.2542H22.5356V25.1779H23.0785V25.2469L22.648 25.7987H23.0876V25.875H22.5276ZM23.457 25.8853C23.3699 25.8853 23.3013 25.8623 23.2514 25.8162C23.2022 25.7694 23.1775 25.7065 23.1775 25.6275C23.1775 25.5766 23.1889 25.5316 23.2116 25.4924C23.2343 25.4532 23.2654 25.4226 23.3047 25.4006C23.3442 25.3779 23.3885 25.3666 23.4376 25.3666C23.5119 25.3666 23.5698 25.3886 23.6114 25.4326C23.6531 25.4766 23.6739 25.5367 23.6739 25.613C23.6739 25.6192 23.6736 25.6251 23.6728 25.6306C23.6728 25.6361 23.6725 25.6405 23.6716 25.644H23.2707C23.2738 25.6976 23.2919 25.7395 23.3252 25.7698C23.3593 25.8 23.4047 25.8152 23.4615 25.8152C23.488 25.8152 23.5157 25.8114 23.5444 25.8038C23.5739 25.7963 23.6043 25.7853 23.6353 25.7708L23.6671 25.8286C23.5982 25.8664 23.5282 25.8853 23.457 25.8853ZM23.4354 25.4367C23.3938 25.4367 23.3585 25.4494 23.3297 25.4749C23.301 25.5003 23.2824 25.534 23.2741 25.5759H23.583C23.577 25.5305 23.5611 25.4962 23.5353 25.4728C23.5103 25.4487 23.4771 25.4367 23.4354 25.4367ZM23.8471 25.8843C23.838 25.865 23.83 25.8403 23.8232 25.81C23.8171 25.7791 23.8141 25.7499 23.8141 25.7224V25.1479H23.9061V25.7059C23.9061 25.7347 23.9084 25.7643 23.913 25.7945C23.9175 25.8241 23.9235 25.8489 23.9311 25.8688L23.8471 25.8843ZM24.1187 25.8843C24.1097 25.865 24.1017 25.8403 24.0949 25.81C24.0889 25.7791 24.0858 25.7499 24.0858 25.7224V25.1479H24.1778V25.7059C24.1778 25.7347 24.1801 25.7643 24.1846 25.7945C24.1892 25.8241 24.1953 25.8489 24.2028 25.8688L24.1187 25.8843ZM24.5973 25.8853C24.5102 25.8853 24.4416 25.8623 24.3917 25.8162C24.3425 25.7694 24.3178 25.7065 24.3178 25.6275C24.3178 25.5766 24.3292 25.5316 24.3519 25.4924C24.3746 25.4532 24.4057 25.4226 24.4451 25.4006C24.4845 25.3779 24.5288 25.3666 24.578 25.3666C24.6522 25.3666 24.7101 25.3886 24.7517 25.4326C24.7935 25.4766 24.8142 25.5367 24.8142 25.613C24.8142 25.6192 24.8139 25.6251 24.8131 25.6306C24.8131 25.6361 24.8128 25.6405 24.8119 25.644H24.411C24.4141 25.6976 24.4322 25.7395 24.4655 25.7698C24.4996 25.8 24.545 25.8152 24.6018 25.8152C24.6283 25.8152 24.656 25.8114 24.6847 25.8038C24.7143 25.7963 24.7446 25.7853 24.7756 25.7708L24.8074 25.8286C24.7385 25.8664 24.6685 25.8853 24.5973 25.8853ZM24.5757 25.4367C24.5341 25.4367 24.4989 25.4494 24.47 25.4749C24.4413 25.5003 24.4228 25.534 24.4144 25.5759H24.7233C24.7174 25.5305 24.7015 25.4962 24.6756 25.4728C24.6506 25.4487 24.6174 25.4367 24.5757 25.4367ZM25.1941 25.6677C25.1419 25.6677 25.0945 25.6567 25.0521 25.6347C25.0104 25.612 24.9772 25.5818 24.9522 25.5439C24.9279 25.5054 24.9158 25.4625 24.9158 25.415C24.9158 25.3676 24.9279 25.325 24.9522 25.2872C24.9772 25.2487 25.0104 25.2184 25.0521 25.1964C25.0945 25.1737 25.1419 25.1624 25.1941 25.1624C25.2464 25.1624 25.2932 25.1737 25.335 25.1964C25.3773 25.2184 25.4106 25.2487 25.4349 25.2872C25.4599 25.325 25.4724 25.3676 25.4724 25.415C25.4724 25.4618 25.4599 25.5044 25.4349 25.5429C25.4106 25.5814 25.3773 25.612 25.335 25.6347C25.2932 25.6567 25.2464 25.6677 25.1941 25.6677ZM25.1941 25.6223C25.235 25.6223 25.2721 25.613 25.3054 25.5945C25.3395 25.5759 25.3663 25.5512 25.3861 25.5202C25.4065 25.4886 25.4167 25.4535 25.4167 25.415C25.4167 25.3765 25.4065 25.3418 25.3861 25.3109C25.3663 25.2793 25.3395 25.2542 25.3054 25.2356C25.2721 25.217 25.235 25.2078 25.1941 25.2078C25.1532 25.2078 25.1157 25.217 25.0817 25.2356C25.0483 25.2542 25.0218 25.2793 25.0021 25.3109C24.9824 25.3418 24.9726 25.3765 24.9726 25.415C24.9726 25.4535 24.9824 25.4886 25.0021 25.5202C25.0218 25.5512 25.0483 25.5759 25.0817 25.5945C25.1157 25.613 25.1532 25.6223 25.1941 25.6223ZM25.101 25.5316V25.2882H25.1827C25.2623 25.2882 25.302 25.314 25.302 25.3655C25.302 25.3979 25.285 25.4202 25.2509 25.4326L25.3066 25.5316H25.2486L25.2009 25.4419C25.1941 25.4425 25.1865 25.4429 25.1782 25.4429H25.1521V25.5316H25.101ZM25.1827 25.3294H25.1521V25.4016H25.1827C25.2259 25.4016 25.2475 25.3896 25.2475 25.3655C25.2475 25.3415 25.2259 25.3294 25.1827 25.3294Z" fill="#3B3331"/>
<path fill-rule="evenodd" clip-rule="evenodd" d="M31.4875 22.5951V23.3232H32.5334C32.5537 23.3236 32.5702 23.3402 32.5706 23.3608V24.4311C32.5702 24.4517 32.5537 24.4683 32.5334 24.4688H30.3362C30.3158 24.4683 30.2993 24.4517 30.2989 24.4311V23.3608C30.2993 23.3402 30.3158 23.3236 30.3362 23.3232H31.382V22.5892L31.2015 22.8077C31.1836 22.8292 31.1507 22.833 31.1279 22.8161C31.1052 22.7993 31.1011 22.7681 31.1189 22.7465L31.3798 22.4308C31.3923 22.4153 31.4117 22.4062 31.4323 22.4062C31.4529 22.4062 31.4724 22.4153 31.4845 22.4304L31.7457 22.7465C31.7636 22.7681 31.7595 22.7993 31.7368 22.8161C31.714 22.833 31.6811 22.8292 31.6632 22.8077L31.4875 22.5951ZM32.4895 24.3924V23.3996H30.3801V24.3924H32.4895ZM31.2233 24.0105H31.5651C31.5827 24.0105 31.597 24.0235 31.597 24.0395V24.0579C31.597 24.0739 31.5827 24.0869 31.5651 24.0869H31.2233C31.2056 24.0869 31.1914 24.0739 31.1914 24.0579V24.0395C31.1914 24.0235 31.2056 24.0105 31.2233 24.0105ZM30.6554 24.0105H30.9972C31.0148 24.0105 31.0291 24.0235 31.0291 24.0395V24.0579C31.0291 24.0739 31.0148 24.0869 30.9972 24.0869H30.6554C30.6377 24.0869 30.6235 24.0739 30.6235 24.0579V24.0395C30.6235 24.0235 30.6377 24.0105 30.6554 24.0105ZM30.664 23.8574C30.6416 23.8574 30.6235 23.8403 30.6235 23.8193C30.6235 23.7982 30.6416 23.7811 30.664 23.7811H32.1245C32.1469 23.7811 32.1649 23.7982 32.1649 23.8193C32.1649 23.8403 32.1469 23.8574 32.1245 23.8574H30.664Z" fill="#3B3331"/>
<path d="M29.7745 25.1717C29.9229 25.1717 30.0342 25.2033 30.1085 25.2666C30.1827 25.3298 30.2198 25.4165 30.2198 25.5264C30.2198 25.6371 30.1827 25.7238 30.1085 25.7863C30.0351 25.8489 29.9238 25.8802 29.7745 25.8802C29.7435 25.8802 29.7079 25.8795 29.6678 25.8781C29.6284 25.8774 29.5928 25.8757 29.561 25.8729V25.1789C29.6034 25.1762 29.6424 25.1744 29.678 25.1738C29.7143 25.1724 29.7466 25.1717 29.7745 25.1717ZM29.7893 25.249C29.7711 25.249 29.7514 25.2494 29.7302 25.2501C29.7098 25.2508 29.6855 25.2521 29.6576 25.2542V25.7987C29.6977 25.8014 29.7416 25.8028 29.7893 25.8028C29.8658 25.8028 29.9283 25.7911 29.9767 25.7678C30.026 25.7437 30.0619 25.711 30.0846 25.6698C30.1081 25.6279 30.1199 25.5797 30.1199 25.5254C30.1199 25.4718 30.1081 25.4244 30.0846 25.3831C30.0619 25.3412 30.026 25.3085 29.9767 25.2851C29.9283 25.2611 29.8658 25.249 29.7893 25.249ZM30.6067 25.8853C30.5196 25.8853 30.4511 25.8623 30.4011 25.8162C30.3519 25.7695 30.3273 25.7066 30.3273 25.6275C30.3273 25.5766 30.3387 25.5316 30.3614 25.4924C30.3841 25.4532 30.4151 25.4226 30.4545 25.4006C30.4939 25.3779 30.5382 25.3666 30.5874 25.3666C30.6616 25.3666 30.7195 25.3886 30.7612 25.4326C30.8028 25.4766 30.8237 25.5368 30.8237 25.6131C30.8237 25.6193 30.8233 25.6251 30.8225 25.6306C30.8225 25.6361 30.8221 25.6406 30.8214 25.644H30.4204C30.4234 25.6976 30.4416 25.7396 30.475 25.7698C30.509 25.8001 30.5545 25.8152 30.6113 25.8152C30.6377 25.8152 30.6654 25.8114 30.6942 25.8039C30.7237 25.7963 30.754 25.7853 30.7851 25.7709L30.8169 25.8286C30.7479 25.8664 30.6779 25.8853 30.6067 25.8853ZM30.5851 25.4367C30.5434 25.4367 30.5082 25.4495 30.4795 25.4749C30.4507 25.5003 30.4321 25.534 30.4239 25.5759H30.7328C30.7267 25.5306 30.7108 25.4962 30.6851 25.4728C30.6601 25.4488 30.6268 25.4367 30.5851 25.4367ZM30.9649 26.0967V25.5089C30.9649 25.4869 30.9634 25.4642 30.9604 25.4409C30.9573 25.4168 30.9528 25.3969 30.9468 25.381L31.032 25.3676C31.0395 25.3924 31.0452 25.4165 31.049 25.4398C31.0709 25.4165 31.097 25.3986 31.1274 25.3862C31.1583 25.3731 31.191 25.3666 31.2251 25.3666C31.2742 25.3666 31.3171 25.3773 31.3534 25.3986C31.3905 25.4192 31.4189 25.4488 31.4386 25.4873C31.459 25.5258 31.4693 25.5708 31.4693 25.6224C31.4693 25.6739 31.4582 25.7196 31.4363 25.7595C31.4151 25.7987 31.3848 25.8296 31.3455 25.8523C31.306 25.8743 31.2591 25.8853 31.2046 25.8853C31.1508 25.8853 31.1016 25.8733 31.0569 25.8492V26.0967H30.9649ZM31.2001 25.4367C31.172 25.4367 31.1451 25.4422 31.1194 25.4532C31.0944 25.4642 31.0736 25.479 31.0569 25.4976V25.7781C31.0774 25.7911 31.099 25.8008 31.1217 25.8069C31.1444 25.8125 31.1667 25.8152 31.1887 25.8152C31.2469 25.8152 31.2924 25.7973 31.325 25.7616C31.3583 25.7258 31.375 25.6794 31.375 25.6224C31.375 25.5632 31.3594 25.5175 31.3284 25.4852C31.2973 25.4529 31.2546 25.4367 31.2001 25.4367ZM31.8422 25.8853C31.7877 25.8853 31.74 25.8747 31.6991 25.8534C31.6582 25.8314 31.6264 25.8011 31.6037 25.7626C31.581 25.7234 31.5696 25.678 31.5696 25.6265C31.5696 25.5749 31.581 25.5295 31.6037 25.4904C31.6264 25.4512 31.6582 25.4209 31.6991 25.3996C31.74 25.3776 31.7877 25.3666 31.8422 25.3666C31.8968 25.3666 31.9445 25.3776 31.9854 25.3996C32.027 25.4209 32.0592 25.4512 32.0819 25.4904C32.1046 25.5295 32.116 25.5749 32.116 25.6265C32.116 25.678 32.1046 25.7234 32.0819 25.7626C32.0592 25.8011 32.027 25.8314 31.9854 25.8534C31.9445 25.8747 31.8968 25.8853 31.8422 25.8853ZM31.8422 25.8152C31.8982 25.8152 31.9422 25.798 31.974 25.7636C32.0058 25.7286 32.0217 25.6829 32.0217 25.6265C32.0217 25.5701 32.0058 25.5244 31.974 25.4893C31.9422 25.4543 31.8982 25.4367 31.8422 25.4367C31.7869 25.4367 31.7434 25.4543 31.7116 25.4893C31.6798 25.5244 31.6639 25.5701 31.6639 25.6265C31.6639 25.6829 31.6798 25.7286 31.7116 25.7636C31.7434 25.798 31.7869 25.8152 31.8422 25.8152ZM32.4184 25.8853C32.3821 25.8853 32.345 25.8809 32.3071 25.8719C32.2693 25.863 32.2341 25.8496 32.2015 25.8317L32.2333 25.7719C32.2932 25.8021 32.3534 25.8173 32.4139 25.8173C32.4548 25.8173 32.4866 25.8104 32.5093 25.7966C32.5329 25.7822 32.5445 25.7626 32.5445 25.7379C32.5445 25.7 32.5181 25.6753 32.465 25.6636L32.373 25.643C32.3246 25.6327 32.2886 25.6162 32.2651 25.5935C32.2424 25.5708 32.231 25.5429 32.231 25.5099C32.231 25.4666 32.2485 25.4319 32.2833 25.4058C32.3182 25.3797 32.3662 25.3666 32.4275 25.3666C32.4957 25.3666 32.5581 25.3824 32.6149 25.414L32.5809 25.4708C32.5294 25.4467 32.4798 25.4347 32.4321 25.4347C32.3973 25.4347 32.3704 25.4409 32.3514 25.4532C32.3325 25.4656 32.323 25.4831 32.323 25.5058C32.323 25.5237 32.3291 25.5381 32.3412 25.5491C32.3541 25.5594 32.3757 25.5677 32.4059 25.5739L32.4991 25.5945C32.5438 25.6041 32.5779 25.621 32.6013 25.645C32.6256 25.6691 32.6377 25.6983 32.6377 25.7327C32.6377 25.7781 32.6176 25.8149 32.5775 25.843C32.5381 25.8712 32.4851 25.8853 32.4184 25.8853ZM32.8129 25.2624C32.7947 25.2624 32.7795 25.2573 32.7675 25.247C32.7553 25.2367 32.7493 25.2239 32.7493 25.2088C32.7493 25.193 32.7553 25.1799 32.7675 25.1696C32.7795 25.1586 32.7947 25.1531 32.8129 25.1531C32.8318 25.1531 32.847 25.1586 32.8583 25.1696C32.8704 25.1799 32.8765 25.193 32.8765 25.2088C32.8765 25.2239 32.8704 25.2367 32.8583 25.247C32.847 25.2573 32.8318 25.2624 32.8129 25.2624ZM32.7675 25.875V25.3769H32.8595V25.875H32.7675ZM33.247 25.8853C33.1918 25.8853 33.1505 25.8723 33.1232 25.8461C33.0959 25.82 33.0823 25.7829 33.0823 25.7348V25.445H32.963V25.3769H33.0823C33.0839 25.3522 33.0861 25.3278 33.0891 25.3037C33.0922 25.2796 33.0952 25.2552 33.0982 25.2305H33.1743V25.3769H33.3595V25.445H33.1743V25.7193C33.1743 25.7516 33.1815 25.775 33.1959 25.7894C33.2103 25.8039 33.2338 25.8111 33.2663 25.8111C33.2822 25.8111 33.2985 25.8094 33.3152 25.8059C33.3326 25.8025 33.3501 25.7973 33.3674 25.7904L33.3935 25.8534C33.3716 25.863 33.3481 25.8705 33.3231 25.876C33.2981 25.8822 33.2728 25.8853 33.247 25.8853Z" fill="#3B3331"/>
<path fill-rule="evenodd" clip-rule="evenodd" d="M37.7853 22.7812C37.7568 22.7812 37.7337 22.8022 37.7337 22.8281C37.7337 22.854 37.7568 22.875 37.7853 22.875H39.9538C39.9823 22.875 40.0054 22.854 40.0054 22.8281C40.0054 22.8022 39.9823 22.7812 39.9538 22.7812H37.7853ZM37.7337 23.4375C37.7337 23.4116 37.7568 23.3906 37.7853 23.3906H39.9538C39.9823 23.3906 40.0054 23.4116 40.0054 23.4375C40.0054 23.4634 39.9823 23.4844 39.9538 23.4844H37.7853C37.7568 23.4844 37.7337 23.4634 37.7337 23.4375ZM37.7337 24.0469C37.7337 24.021 37.7568 24 37.7853 24H39.9538C39.9823 24 40.0054 24.021 40.0054 24.0469C40.0054 24.0728 39.9823 24.0938 39.9538 24.0938H37.7853C37.7568 24.0938 37.7337 24.0728 37.7337 24.0469Z" fill="#3B3331"/>
<path d="M37.5211 25.875L37.6051 25.1779H37.7096L37.9538 25.7162L38.1969 25.1779H38.3003L38.3855 25.875H38.2912L38.2242 25.314L37.9913 25.8337H37.9118L37.6824 25.3233L37.6165 25.875H37.5211ZM38.7735 25.8853C38.6865 25.8853 38.6179 25.8623 38.5679 25.8162C38.5188 25.7694 38.4941 25.7065 38.4941 25.6275C38.4941 25.5766 38.5055 25.5316 38.5282 25.4924C38.5509 25.4532 38.582 25.4226 38.6213 25.4006C38.6608 25.3779 38.7051 25.3666 38.7542 25.3666C38.8285 25.3666 38.8864 25.3886 38.928 25.4326C38.9697 25.4766 38.9905 25.5367 38.9905 25.613C38.9905 25.6192 38.9902 25.6251 38.9893 25.6306C38.9893 25.6361 38.989 25.6405 38.9882 25.644H38.5872C38.5903 25.6976 38.6085 25.7395 38.6418 25.7698C38.6758 25.8 38.7213 25.8152 38.7781 25.8152C38.8046 25.8152 38.8323 25.8114 38.861 25.8038C38.8905 25.7963 38.9209 25.7853 38.9519 25.7708L38.9837 25.8286C38.9148 25.8664 38.8448 25.8853 38.7735 25.8853ZM38.7519 25.4367C38.7103 25.4367 38.6751 25.4494 38.6463 25.4749C38.6176 25.5003 38.599 25.534 38.5907 25.5759H38.8996C38.8936 25.5305 38.8777 25.4962 38.8519 25.4728C38.8269 25.4487 38.7937 25.4367 38.7519 25.4367ZM39.1318 25.875V25.5089C39.1318 25.4876 39.1299 25.4649 39.1262 25.4408C39.1231 25.4168 39.1194 25.3968 39.1148 25.381L39.1989 25.3676C39.2057 25.3903 39.2109 25.4137 39.2148 25.4377C39.2685 25.3903 39.3313 25.3666 39.4033 25.3666C39.4647 25.3666 39.5119 25.3827 39.5453 25.415C39.5794 25.4467 39.5964 25.4914 39.5964 25.5491V25.875H39.5044V25.5625C39.5044 25.5233 39.4931 25.4931 39.4703 25.4718C39.4476 25.4505 39.4154 25.4398 39.3738 25.4398C39.3184 25.4398 39.2685 25.4559 39.2239 25.4883V25.875H39.1318ZM39.8469 25.3769V25.6852C39.8469 25.7265 39.8583 25.7581 39.881 25.7801C39.9045 25.8014 39.9367 25.8121 39.9776 25.8121C40.0306 25.8121 40.0783 25.7973 40.1207 25.7677V25.3769H40.2127V25.743C40.2127 25.7643 40.2142 25.787 40.2172 25.811C40.221 25.8344 40.2256 25.854 40.2309 25.8698L40.1457 25.8843C40.1388 25.8602 40.134 25.8385 40.1309 25.8193C40.1045 25.8406 40.0761 25.8571 40.0457 25.8688C40.0155 25.8798 39.9829 25.8853 39.948 25.8853C39.8875 25.8853 39.8401 25.8695 39.806 25.8379C39.772 25.8055 39.7549 25.7591 39.7549 25.6986V25.3769H39.8469Z" fill="#3B3331"/>
</g>
</g>
</g>
<defs>
<filter id="filter0_d_1435_28892" x="1.41304" y="15.5625" width="45.1739" height="13.25" filterUnits="userSpaceOnUse" color-interpolation-filters="sRGB">
<feFlood flood-opacity="0" result="BackgroundImageFix"/>
<feColorMatrix in="SourceAlpha" type="matrix" values="0 0 0 0 0 0 0 0 0 0 0 0 0 0 0 0 0 0 127 0" result="hardAlpha"/>
<feOffset dy="-2"/>
<feGaussianBlur stdDeviation="2"/>
<feComposite in2="hardAlpha" operator="out"/>
<feColorMatrix type="matrix" values="0 0 0 0 0 0 0 0 0 0 0 0 0 0 0 0 0 0 0.05 0"/>
<feBlend mode="normal" in2="BackgroundImageFix" result="effect1_dropShadow_1435_28892"/>
<feBlend mode="normal" in="SourceGraphic" in2="effect1_dropShadow_1435_28892" result="shape"/>
</filter>
<clipPath id="clip0_1435_28892">
<rect width="48" height="48" rx="5" fill="white"/>
</clipPath>
<clipPath id="clip1_1435_28892">
<rect width="38" height="6" fill="white" transform="translate(5 21)"/>
</clipPath>
</defs>
</svg>
