<svg width="48" height="48" viewBox="0 0 48 48" fill="none" xmlns="http://www.w3.org/2000/svg">
<g clip-path="url(#clip0_1356_188194)">
<rect width="48" height="48" rx="2" fill="#383838"/>
<g clip-path="url(#clip1_1356_188194)">
<path d="M43 17H4V30H43V17Z" fill="white"/>
<path d="M7.43436 22.0837H7.74231V24.5027H8.94875V24.8H7.43436V22.0837ZM9.41769 22.4132C9.35972 22.4132 9.31143 22.3931 9.27277 22.353C9.23413 22.3128 9.2148 22.2632 9.2148 22.2043C9.2148 22.1427 9.23413 22.0918 9.27277 22.0516C9.31143 22.0087 9.35972 21.9873 9.41769 21.9873C9.47808 21.9873 9.52638 22.0087 9.56261 22.0516C9.60127 22.0918 9.62057 22.1427 9.62057 22.2043C9.62057 22.2632 9.60127 22.3128 9.56261 22.353C9.52638 22.3931 9.47808 22.4132 9.41769 22.4132ZM9.27277 24.8V22.8592H9.56623V24.8H9.27277ZM10.6577 24.8402C10.5417 24.8402 10.4234 24.8228 10.3026 24.788C10.1819 24.7532 10.0696 24.7009 9.96569 24.6313L10.0671 24.3982C10.258 24.5161 10.45 24.575 10.6432 24.575C10.7736 24.575 10.8751 24.5482 10.9475 24.4947C11.0224 24.4384 11.0598 24.3621 11.0598 24.2656C11.0598 24.1183 10.9753 24.0219 10.8062 23.9763L10.5128 23.8959C10.3582 23.8558 10.2435 23.7915 10.1686 23.7031C10.0961 23.6147 10.0599 23.5062 10.0599 23.3776C10.0599 23.2088 10.1154 23.0736 10.2265 22.9718C10.3377 22.87 10.491 22.8191 10.6867 22.8191C10.904 22.8191 11.1033 22.8807 11.2844 23.0039L11.1758 23.2249C11.0115 23.1311 10.8533 23.0843 10.7012 23.0843C10.5901 23.0843 10.5043 23.1084 10.4439 23.1566C10.3835 23.2048 10.3533 23.2731 10.3533 23.3615C10.3533 23.4312 10.3727 23.4874 10.4113 23.5303C10.4524 23.5705 10.5212 23.6026 10.6178 23.6267L10.9149 23.7071C11.0574 23.7446 11.1661 23.8102 11.241 23.904C11.3183 23.9977 11.3569 24.1116 11.3569 24.2455C11.3569 24.4223 11.2929 24.5656 11.1649 24.6755C11.0393 24.7853 10.8702 24.8402 10.6577 24.8402ZM12.4336 24.8402C12.2573 24.8402 12.1257 24.7893 12.0387 24.6875C11.9518 24.5857 11.9083 24.4411 11.9083 24.2536V23.1244H11.5279V22.8592H11.9083C11.9131 22.7628 11.9204 22.6677 11.93 22.574C11.9397 22.4802 11.9494 22.3851 11.959 22.2887H12.2018V22.8592H12.7923V23.1244H12.2018V24.1933C12.2018 24.3192 12.2247 24.4103 12.2706 24.4665C12.3165 24.5228 12.3914 24.5509 12.4952 24.5509C12.5459 24.5509 12.5979 24.5442 12.651 24.5308C12.7066 24.5174 12.7621 24.4973 12.8177 24.4705L12.901 24.7157C12.831 24.7532 12.7561 24.7826 12.6764 24.804C12.5967 24.8282 12.5158 24.8402 12.4336 24.8402ZM14.1799 22.4132C14.1219 22.4132 14.0736 22.3931 14.035 22.353C13.9963 22.3128 13.977 22.2632 13.977 22.2043C13.977 22.1427 13.9963 22.0918 14.035 22.0516C14.0736 22.0087 14.1219 21.9873 14.1799 21.9873C14.2403 21.9873 14.2886 22.0087 14.3248 22.0516C14.3635 22.0918 14.3828 22.1427 14.3828 22.2043C14.3828 22.2632 14.3635 22.3128 14.3248 22.353C14.2886 22.3931 14.2403 22.4132 14.1799 22.4132ZM14.035 24.8V22.8592H14.3284V24.8H14.035ZM15.5648 24.8402C15.3885 24.8402 15.2568 24.7893 15.1699 24.6875C15.0829 24.5857 15.0395 24.4411 15.0395 24.2536V23.1244H14.6591V22.8592H15.0395C15.0443 22.7628 15.0515 22.6677 15.0612 22.574C15.0709 22.4802 15.0805 22.3851 15.0902 22.2887H15.3329V22.8592H15.9235V23.1244H15.3329V24.1933C15.3329 24.3192 15.3559 24.4103 15.4018 24.4665C15.4477 24.5228 15.5225 24.5509 15.6264 24.5509C15.6771 24.5509 15.729 24.5442 15.7822 24.5308C15.8377 24.5174 15.8933 24.4973 15.9488 24.4705L16.0322 24.7157C15.9621 24.7532 15.8872 24.7826 15.8075 24.804C15.7278 24.8282 15.6469 24.8402 15.5648 24.8402ZM17.1558 24.8402C16.878 24.8402 16.6594 24.7505 16.5 24.571C16.343 24.3888 16.2645 24.1437 16.2645 23.8357C16.2645 23.6374 16.3007 23.462 16.3732 23.3093C16.4457 23.1566 16.5447 23.0374 16.6703 22.9517C16.7959 22.8633 16.9372 22.8191 17.0942 22.8191C17.3309 22.8191 17.5156 22.9048 17.6485 23.0762C17.7813 23.2477 17.8477 23.4821 17.8477 23.7794C17.8477 23.8035 17.8465 23.8263 17.8441 23.8477C17.8441 23.8692 17.8429 23.8866 17.8405 23.9H16.5616C16.5712 24.1089 16.6292 24.2723 16.7355 24.3902C16.8442 24.5081 16.9891 24.567 17.1702 24.567C17.2548 24.567 17.3429 24.5523 17.4347 24.5228C17.5289 24.4933 17.6255 24.4505 17.7246 24.3942L17.826 24.6192C17.6062 24.7665 17.3828 24.8402 17.1558 24.8402ZM17.0869 23.0923C16.9541 23.0923 16.8418 23.1419 16.75 23.241C16.6582 23.3401 16.599 23.4714 16.5725 23.6348H17.5579C17.5386 23.458 17.4879 23.324 17.4057 23.2329C17.326 23.1392 17.2198 23.0923 17.0869 23.0923ZM18.2984 24.8V23.3736C18.2984 23.2905 18.2924 23.2021 18.2803 23.1084C18.2706 23.0146 18.2585 22.9369 18.2441 22.8753L18.5121 22.8231C18.5339 22.9115 18.5508 23.0026 18.5629 23.0963C18.7344 22.9115 18.9348 22.8191 19.1643 22.8191C19.4203 22.8191 19.599 22.9222 19.7005 23.1285C19.7826 23.0374 19.878 22.9637 19.9867 22.9075C20.0978 22.8485 20.221 22.8191 20.3562 22.8191C20.5519 22.8191 20.7028 22.882 20.8091 23.0079C20.9178 23.1311 20.9721 23.3053 20.9721 23.5303V24.8H20.6787V23.5825C20.6787 23.4298 20.6412 23.312 20.5664 23.2289C20.4939 23.1459 20.3925 23.1044 20.262 23.1044C20.1751 23.1044 20.0869 23.1231 19.9976 23.1606C19.9106 23.1981 19.8321 23.2504 19.7621 23.3173C19.7742 23.3843 19.7802 23.4553 19.7802 23.5303V24.8H19.4867V23.5825C19.4867 23.4298 19.4493 23.312 19.3744 23.2289C19.302 23.1459 19.2005 23.1044 19.0701 23.1044C18.8938 23.1044 18.7344 23.1673 18.5919 23.2932V24.8H18.2984Z" fill="#3B3331"/>
<path d="M43 29.7637H4V30H43V29.7637Z" fill="#E2DEDE"/>
</g>
</g>
<defs>
<clipPath id="clip0_1356_188194">
<rect width="48" height="48" rx="5" fill="white"/>
</clipPath>
<clipPath id="clip1_1356_188194">
<rect width="39" height="13" fill="white" transform="translate(4 17)"/>
</clipPath>
</defs>
</svg>
