<svg width="48" height="48" viewBox="0 0 48 48" fill="none" xmlns="http://www.w3.org/2000/svg">
<g clip-path="url(#clip0_1356_188193)">
<rect width="48" height="48" rx="2" fill="#383838"/>
<g clip-path="url(#clip1_1356_188193)">
<path d="M5.27208 22.7587V20.8938H5.50279V21.7159H6.49893V20.8938H6.72965V22.7587H6.49893V21.92H5.50279V22.7587H5.27208ZM7.23875 22.7587V22.5656H7.70289V21.1063H7.24146V20.9683L7.78432 20.8938H7.92546V22.5656H8.38146V22.7587H7.23875ZM9.42568 22.7587V20.8966C9.53425 20.8892 9.62925 20.8846 9.71068 20.8828C9.7921 20.8791 9.86629 20.8773 9.93325 20.8773C10.1974 20.8773 10.3965 20.9269 10.5304 21.0263C10.6661 21.1237 10.734 21.2699 10.734 21.4649C10.734 21.5844 10.7068 21.6883 10.6525 21.7766C10.5982 21.8649 10.5132 21.9338 10.3974 21.9835C10.2816 22.0313 10.1305 22.0552 9.9441 22.0552C9.9061 22.0552 9.86268 22.0552 9.81382 22.0552C9.76496 22.0534 9.71249 22.0506 9.65639 22.0469V22.7587H9.42568ZM9.96853 21.0759C9.92872 21.0759 9.88349 21.0768 9.83282 21.0787C9.78396 21.0787 9.72515 21.0814 9.65639 21.0869V21.8456C9.71791 21.8492 9.7722 21.852 9.81925 21.8538C9.8681 21.8557 9.90972 21.8566 9.9441 21.8566C10.1432 21.8566 10.2843 21.8235 10.3675 21.7573C10.4526 21.6892 10.4951 21.5927 10.4951 21.4676C10.4951 21.2065 10.3196 21.0759 9.96853 21.0759ZM10.9766 21.5366C11.0489 21.4906 11.1277 21.4566 11.2127 21.4345C11.2996 21.4106 11.3882 21.3987 11.4787 21.3987C11.6452 21.3987 11.7718 21.4419 11.8587 21.5283C11.9474 21.6148 11.9917 21.7352 11.9917 21.8897V22.4C11.9917 22.4663 11.9953 22.5315 12.0026 22.5959C12.0116 22.6584 12.0225 22.7099 12.0351 22.7504L11.8397 22.7835C11.8234 22.7283 11.8107 22.6676 11.8017 22.6014C11.6732 22.7246 11.5185 22.7863 11.3376 22.7863C11.2127 22.7863 11.1123 22.7522 11.0363 22.6842C10.9603 22.6161 10.9223 22.5242 10.9223 22.4083C10.9223 22.2961 10.9684 22.2033 11.0607 22.1297C11.1548 22.0561 11.2923 22.0092 11.4733 21.989L11.7746 21.9587V21.8952C11.7746 21.6892 11.6696 21.5863 11.4597 21.5863C11.3964 21.5863 11.3285 21.5964 11.2561 21.6166C11.1837 21.635 11.1159 21.6617 11.0526 21.6966L10.9766 21.5366ZM11.1476 22.3973C11.1476 22.4653 11.1711 22.5178 11.2181 22.5545C11.2652 22.5895 11.3276 22.6069 11.4054 22.6069C11.5411 22.6069 11.6642 22.5573 11.7746 22.458V22.1325L11.4923 22.1656C11.3747 22.1784 11.2878 22.2042 11.2317 22.2428C11.1756 22.2814 11.1476 22.3329 11.1476 22.3973ZM12.8819 22.7697C12.7643 22.7697 12.6621 22.7421 12.5752 22.6869C12.4883 22.6318 12.4205 22.5536 12.3716 22.4525C12.3246 22.3495 12.3011 22.229 12.3011 22.0911C12.3011 21.955 12.3282 21.8345 12.3825 21.7297C12.4368 21.6249 12.5137 21.544 12.6132 21.4869C12.7145 21.4281 12.8349 21.3987 12.9742 21.3987C13.0755 21.3987 13.1705 21.4088 13.2592 21.429C13.3497 21.4492 13.432 21.475 13.5062 21.5063V22.8497C13.5062 23.006 13.451 23.1311 13.3406 23.2249C13.2321 23.3205 13.0855 23.3683 12.9009 23.3683C12.805 23.3683 12.7109 23.3545 12.6186 23.3269C12.5263 23.2994 12.444 23.2607 12.3716 23.2111L12.4558 23.0483C12.5191 23.0906 12.5888 23.1228 12.6648 23.1449C12.7426 23.1688 12.8159 23.1807 12.8846 23.1807C13.0131 23.1807 13.1126 23.1513 13.1832 23.0925C13.2556 23.0355 13.2918 22.9564 13.2918 22.8552V22.5987C13.2393 22.6538 13.1769 22.6961 13.1045 22.7256C13.0339 22.755 12.9597 22.7697 12.8819 22.7697ZM12.5263 22.0911C12.5263 22.2492 12.5625 22.3697 12.6349 22.4525C12.7091 22.5352 12.8113 22.5766 12.9416 22.5766C13.0104 22.5766 13.0746 22.5619 13.1343 22.5325C13.1959 22.503 13.2465 22.4635 13.2863 22.4138V21.6359C13.2429 21.6212 13.195 21.6092 13.1425 21.6C13.09 21.5909 13.0357 21.5863 12.9796 21.5863C12.8349 21.5863 12.7227 21.6332 12.6431 21.7269C12.5653 21.8189 12.5263 21.9403 12.5263 22.0911ZM14.5115 22.7863C14.3034 22.7863 14.1396 22.7246 14.0202 22.6014C13.9026 22.4764 13.8438 22.3081 13.8438 22.0966C13.8438 21.9605 13.8709 21.84 13.9252 21.7352C13.9795 21.6304 14.0537 21.5486 14.1478 21.4897C14.2419 21.429 14.3477 21.3987 14.4653 21.3987C14.6427 21.3987 14.7811 21.4575 14.8806 21.5752C14.9802 21.6929 15.0299 21.8538 15.0299 22.058C15.0299 22.0745 15.029 22.0902 15.0272 22.1049C15.0272 22.1196 15.0263 22.1315 15.0245 22.1407H14.0663C14.0736 22.2842 14.117 22.3964 14.1966 22.4773C14.2781 22.5582 14.3866 22.5987 14.5223 22.5987C14.5857 22.5987 14.6517 22.5886 14.7205 22.5683C14.7911 22.5481 14.8634 22.5187 14.9376 22.48L15.0136 22.6345C14.849 22.7357 14.6816 22.7863 14.5115 22.7863ZM14.4599 21.5863C14.3604 21.5863 14.2762 21.6203 14.2075 21.6883C14.1387 21.7564 14.0944 21.8465 14.0745 21.9587H14.8128C14.7983 21.8373 14.7603 21.7453 14.6988 21.6828C14.6391 21.6184 14.5594 21.5863 14.4599 21.5863ZM15.9887 22.7587V20.8938H16.2194V21.7159H17.2155V20.8938H17.4463V22.7587H17.2155V21.92H16.2194V22.7587H15.9887ZM18.4901 22.7863C18.282 22.7863 18.1182 22.7246 17.9988 22.6014C17.8812 22.4764 17.8224 22.3081 17.8224 22.0966C17.8224 21.9605 17.8495 21.84 17.9038 21.7352C17.9581 21.6304 18.0323 21.5486 18.1264 21.4897C18.2205 21.429 18.3263 21.3987 18.4439 21.3987C18.6213 21.3987 18.7597 21.4575 18.8592 21.5752C18.9588 21.6929 19.0085 21.8538 19.0085 22.058C19.0085 22.0745 19.0076 22.0902 19.0058 22.1049C19.0058 22.1196 19.0049 22.1315 19.0031 22.1407H18.0449C18.0522 22.2842 18.0956 22.3964 18.1752 22.4773C18.2567 22.5582 18.3652 22.5987 18.5009 22.5987C18.5643 22.5987 18.6303 22.5886 18.6991 22.5683C18.7697 22.5481 18.842 22.5187 18.9162 22.48L18.9922 22.6345C18.8276 22.7357 18.6602 22.7863 18.4901 22.7863ZM18.4385 21.5863C18.339 21.5863 18.2548 21.6203 18.1861 21.6883C18.1173 21.7564 18.073 21.8465 18.0531 21.9587H18.7914C18.7769 21.8373 18.7389 21.7453 18.6774 21.6828C18.6177 21.6184 18.538 21.5863 18.4385 21.5863ZM19.2837 21.5366C19.3561 21.4906 19.4348 21.4566 19.5199 21.4345C19.6067 21.4106 19.6954 21.3987 19.7859 21.3987C19.9524 21.3987 20.079 21.4419 20.1659 21.5283C20.2546 21.6148 20.2989 21.7352 20.2989 21.8897V22.4C20.2989 22.4663 20.3025 22.5315 20.3097 22.5959C20.3188 22.6584 20.3296 22.7099 20.3423 22.7504L20.1469 22.7835C20.1306 22.7283 20.1179 22.6676 20.1089 22.6014C19.9804 22.7246 19.8257 22.7863 19.6447 22.7863C19.5199 22.7863 19.4195 22.7522 19.3435 22.6842C19.2675 22.6161 19.2295 22.5242 19.2295 22.4083C19.2295 22.2961 19.2756 22.2033 19.3679 22.1297C19.462 22.0561 19.5995 22.0092 19.7805 21.989L20.0817 21.9587V21.8952C20.0817 21.6892 19.9768 21.5863 19.7669 21.5863C19.7036 21.5863 19.6357 21.5964 19.5633 21.6166C19.4909 21.635 19.4231 21.6617 19.3597 21.6966L19.2837 21.5366ZM19.4547 22.3973C19.4547 22.4653 19.4783 22.5178 19.5253 22.5545C19.5724 22.5895 19.6348 22.6069 19.7126 22.6069C19.8483 22.6069 19.9714 22.5573 20.0817 22.458V22.1325L19.7995 22.1656C19.6818 22.1784 19.595 22.2042 19.5389 22.2428C19.4828 22.2814 19.4547 22.3329 19.4547 22.3973ZM20.6082 22.1021C20.6082 21.9623 20.6336 21.84 20.6842 21.7352C20.7367 21.6304 20.81 21.5486 20.9041 21.4897C21 21.429 21.1131 21.3987 21.2434 21.3987C21.3737 21.3987 21.4904 21.4309 21.5935 21.4952V20.8138H21.8134V22.4056C21.8134 22.4644 21.817 22.526 21.8242 22.5904C21.8315 22.6548 21.8423 22.7063 21.8568 22.7449L21.6559 22.7835C21.6451 22.7522 21.636 22.721 21.6288 22.6897C21.6234 22.6566 21.6188 22.6253 21.6152 22.5959C21.5627 22.6566 21.4994 22.7035 21.4252 22.7366C21.351 22.7697 21.2732 22.7863 21.1918 22.7863C21.0742 22.7863 20.971 22.7587 20.8824 22.7035C20.7955 22.6465 20.7277 22.5674 20.6788 22.4663C20.6317 22.3633 20.6082 22.2419 20.6082 22.1021ZM20.8335 22.0994C20.8335 22.2594 20.8697 22.3826 20.9421 22.469C21.0163 22.5555 21.1194 22.5987 21.2515 22.5987C21.3185 22.5987 21.3818 22.584 21.4415 22.5545C21.503 22.5251 21.5537 22.4846 21.5935 22.4332V21.6828C21.5428 21.6497 21.4904 21.6258 21.4361 21.6111C21.3818 21.5945 21.3293 21.5863 21.2787 21.5863C21.1393 21.5863 21.0298 21.6341 20.9502 21.7297C20.8724 21.8235 20.8335 21.9467 20.8335 22.0994ZM22.8186 22.7863C22.6106 22.7863 22.4468 22.7246 22.3274 22.6014C22.2097 22.4764 22.1509 22.3081 22.1509 22.0966C22.1509 21.9605 22.1781 21.84 22.2324 21.7352C22.2866 21.6304 22.3608 21.5486 22.4549 21.4897C22.549 21.429 22.6549 21.3987 22.7725 21.3987C22.9498 21.3987 23.0883 21.4575 23.1878 21.5752C23.2873 21.6929 23.3371 21.8538 23.3371 22.058C23.3371 22.0745 23.3362 22.0902 23.3344 22.1049C23.3344 22.1196 23.3335 22.1315 23.3316 22.1407H22.3735C22.3807 22.2842 22.4242 22.3964 22.5038 22.4773C22.5852 22.5582 22.6938 22.5987 22.8295 22.5987C22.8928 22.5987 22.9589 22.5886 23.0276 22.5683C23.0982 22.5481 23.1706 22.5187 23.2448 22.48L23.3208 22.6345C23.1561 22.7357 22.9887 22.7863 22.8186 22.7863ZM22.7671 21.5863C22.6676 21.5863 22.5834 21.6203 22.5146 21.6883C22.4459 21.7564 22.4016 21.8465 22.3816 21.9587H23.1199C23.1055 21.8373 23.0675 21.7453 23.0059 21.6828C22.9462 21.6184 22.8666 21.5863 22.7671 21.5863ZM23.6747 22.7587V21.7794C23.6747 21.7223 23.6702 21.6617 23.6612 21.5973C23.6539 21.5329 23.6449 21.4796 23.634 21.4373L23.8349 21.4014C23.8457 21.44 23.8548 21.4796 23.862 21.52C23.8693 21.5587 23.8747 21.5955 23.8783 21.6304C23.9796 21.4778 24.1099 21.4014 24.2692 21.4014C24.3253 21.4014 24.3814 21.4097 24.4374 21.4263L24.4157 21.6414C24.3886 21.6322 24.3624 21.6258 24.337 21.6221C24.3117 21.6184 24.2818 21.6166 24.2474 21.6166C24.1751 21.6166 24.1081 21.6322 24.0466 21.6635C23.9869 21.6929 23.9362 21.7343 23.8946 21.7876V22.7587H23.6747ZM25.7916 22.8C25.6848 22.8 25.5763 22.7853 25.4659 22.7559C25.3555 22.7246 25.2497 22.6741 25.1483 22.6042L25.2487 22.4138C25.3338 22.4764 25.4216 22.5223 25.512 22.5518C25.6025 22.5794 25.693 22.5932 25.7835 22.5932C25.9228 22.5932 26.0305 22.5637 26.1065 22.5049C26.1843 22.4442 26.2232 22.3623 26.2232 22.2594C26.2232 22.1803 26.1997 22.1132 26.1526 22.058C26.1056 22.0028 26.0323 21.9623 25.9327 21.9366L25.6667 21.8649C25.5274 21.8281 25.4207 21.7674 25.3465 21.6828C25.2741 21.5982 25.2379 21.4934 25.2379 21.3683C25.2379 21.212 25.2922 21.0869 25.4007 20.9932C25.5111 20.8994 25.6595 20.8525 25.8459 20.8525C25.9436 20.8525 26.0395 20.8653 26.1336 20.8911C26.2295 20.9168 26.3191 20.9573 26.4023 21.0125L26.3046 21.2C26.1598 21.1044 26.0106 21.0566 25.8567 21.0566C25.7391 21.0566 25.6468 21.0833 25.5799 21.1366C25.5129 21.1881 25.4795 21.2617 25.4795 21.3573C25.4795 21.5099 25.5699 21.6092 25.7509 21.6552L26.0196 21.7242C26.1716 21.7628 26.2838 21.8263 26.3562 21.9145C26.4286 22.0028 26.4647 22.1104 26.4647 22.2373C26.4647 22.4046 26.405 22.5407 26.2856 22.6456C26.168 22.7486 26.0033 22.8 25.7916 22.8ZM26.8184 22.7587V21.7794C26.8184 21.7223 26.8139 21.6617 26.8048 21.5973C26.7976 21.5329 26.7886 21.4796 26.7777 21.4373L26.9786 21.4014C26.9948 21.4621 27.0075 21.5246 27.0166 21.589C27.145 21.4621 27.2952 21.3987 27.4671 21.3987C27.6589 21.3987 27.7928 21.4695 27.8688 21.6111C27.9304 21.5486 28.0018 21.498 28.0833 21.4594C28.1665 21.4189 28.2588 21.3987 28.3601 21.3987C28.5067 21.3987 28.6198 21.4419 28.6994 21.5283C28.7808 21.6129 28.8216 21.7325 28.8216 21.8869V22.7587H28.6017V21.9228C28.6017 21.818 28.5737 21.7371 28.5176 21.68C28.4633 21.623 28.3873 21.5945 28.2896 21.5945C28.2244 21.5945 28.1584 21.6074 28.0914 21.6332C28.0263 21.6589 27.9675 21.6948 27.915 21.7407C27.924 21.7867 27.9286 21.8355 27.9286 21.8869V22.7587H27.7087V21.9228C27.7087 21.818 27.6807 21.7371 27.6246 21.68C27.5703 21.623 27.4943 21.5945 27.3966 21.5945C27.2645 21.5945 27.145 21.6378 27.0383 21.7242V22.7587H26.8184ZM29.1655 21.5366C29.2378 21.4906 29.3166 21.4566 29.4016 21.4345C29.4885 21.4106 29.5771 21.3987 29.6676 21.3987C29.8341 21.3987 29.9607 21.4419 30.0476 21.5283C30.1363 21.6148 30.1806 21.7352 30.1806 21.8897V22.4C30.1806 22.4663 30.1842 22.5315 30.1915 22.5959C30.2005 22.6584 30.2114 22.7099 30.224 22.7504L30.0286 22.7835C30.0123 22.7283 29.9997 22.6676 29.9906 22.6014C29.8621 22.7246 29.7074 22.7863 29.5265 22.7863C29.4016 22.7863 29.3012 22.7522 29.2252 22.6842C29.1492 22.6161 29.1112 22.5242 29.1112 22.4083C29.1112 22.2961 29.1573 22.2033 29.2496 22.1297C29.3437 22.0561 29.4812 22.0092 29.6622 21.989L29.9635 21.9587V21.8952C29.9635 21.6892 29.8585 21.5863 29.6486 21.5863C29.5853 21.5863 29.5174 21.5964 29.445 21.6166C29.3727 21.635 29.3048 21.6617 29.2415 21.6966L29.1655 21.5366ZM29.3365 22.3973C29.3365 22.4653 29.36 22.5178 29.407 22.5545C29.4541 22.5895 29.5165 22.6069 29.5943 22.6069C29.73 22.6069 29.8531 22.5573 29.9635 22.458V22.1325L29.6812 22.1656C29.5636 22.1784 29.4767 22.2042 29.4206 22.2428C29.3645 22.2814 29.3365 22.3329 29.3365 22.3973ZM30.5877 22.7587V21.7794C30.5877 21.7223 30.5831 21.6617 30.5741 21.5973C30.5668 21.5329 30.5578 21.4796 30.5469 21.4373L30.7478 21.4014C30.7587 21.44 30.7677 21.4796 30.7749 21.52C30.7822 21.5587 30.7876 21.5955 30.7912 21.6304C30.8926 21.4778 31.0228 21.4014 31.1821 21.4014C31.2382 21.4014 31.2943 21.4097 31.3504 21.4263L31.3287 21.6414C31.3015 21.6322 31.2753 21.6258 31.2499 21.6221C31.2246 21.6184 31.1948 21.6166 31.1604 21.6166C31.088 21.6166 31.021 21.6322 30.9595 21.6635C30.8998 21.6929 30.8491 21.7343 30.8075 21.7876V22.7587H30.5877ZM32.1419 22.7863C32.0099 22.7863 31.9112 22.7513 31.8461 22.6814C31.7809 22.6115 31.7484 22.5122 31.7484 22.3835V21.6083H31.4634V21.4263H31.7484C31.752 21.36 31.7574 21.2948 31.7647 21.2304C31.7719 21.166 31.7791 21.1007 31.7864 21.0345H31.9682V21.4263H32.4107V21.6083H31.9682V22.3421C31.9682 22.4286 31.9854 22.4911 32.0198 22.5297C32.0542 22.5683 32.1103 22.5876 32.1881 22.5876C32.2261 22.5876 32.265 22.583 32.3048 22.5738C32.3464 22.5646 32.388 22.5509 32.4297 22.5325L32.4921 22.7007C32.4396 22.7265 32.3835 22.7467 32.3238 22.7614C32.2641 22.778 32.2035 22.7863 32.1419 22.7863ZM32.7639 23.3518V21.7794C32.7639 21.7205 32.7603 21.6598 32.753 21.5973C32.7458 21.5329 32.7349 21.4796 32.7205 21.4373L32.924 21.4014C32.9421 21.4676 32.9557 21.532 32.9647 21.5945C33.0172 21.532 33.0796 21.4842 33.152 21.4511C33.2262 21.4161 33.304 21.3987 33.3855 21.3987C33.5031 21.3987 33.6053 21.4272 33.6922 21.4842C33.7808 21.5394 33.8487 21.6184 33.8957 21.7214C33.9446 21.8244 33.969 21.9449 33.969 22.0828C33.969 22.2207 33.9428 22.343 33.8903 22.4497C33.8396 22.5545 33.7673 22.6373 33.6732 22.698C33.5791 22.7568 33.4669 22.7863 33.3366 22.7863C33.2081 22.7863 33.0905 22.7541 32.9837 22.6897V23.3518H32.7639ZM33.3257 21.5863C33.2588 21.5863 33.1945 21.601 33.133 21.6304C33.0733 21.6598 33.0235 21.6994 32.9837 21.749V22.4994C33.0326 22.5343 33.0842 22.56 33.1385 22.5766C33.1927 22.5913 33.2461 22.5987 33.2986 22.5987C33.4379 22.5987 33.5465 22.5509 33.6243 22.4552C33.7039 22.3596 33.7437 22.2355 33.7437 22.0828C33.7437 21.9246 33.7066 21.8023 33.6325 21.7159C33.5583 21.6295 33.456 21.5863 33.3257 21.5863ZM34.3039 22.7587V20.8138H34.5237V21.5669C34.6486 21.4548 34.7915 21.3987 34.9526 21.3987C35.0992 21.3987 35.2123 21.4419 35.2919 21.5283C35.3733 21.6129 35.414 21.7325 35.414 21.8869V22.7587H35.1942V21.9228C35.1942 21.818 35.167 21.7371 35.1127 21.68C35.0584 21.623 34.9815 21.5945 34.882 21.5945C34.7499 21.5945 34.6305 21.6378 34.5237 21.7242V22.7587H34.3039ZM36.3738 22.7863C36.2435 22.7863 36.1295 22.7578 36.0318 22.7007C35.9341 22.6419 35.8581 22.561 35.8038 22.458C35.7495 22.3532 35.7224 22.2318 35.7224 22.0938C35.7224 21.9559 35.7495 21.8345 35.8038 21.7297C35.8581 21.6249 35.9341 21.544 36.0318 21.4869C36.1295 21.4281 36.2435 21.3987 36.3738 21.3987C36.5041 21.3987 36.6181 21.4281 36.7158 21.4869C36.8153 21.544 36.8922 21.6249 36.9465 21.7297C37.0008 21.8345 37.0279 21.9559 37.0279 22.0938C37.0279 22.2318 37.0008 22.3532 36.9465 22.458C36.8922 22.561 36.8153 22.6419 36.7158 22.7007C36.6181 22.7578 36.5041 22.7863 36.3738 22.7863ZM36.3738 22.5987C36.5077 22.5987 36.6126 22.5527 36.6886 22.4607C36.7646 22.3669 36.8026 22.2446 36.8026 22.0938C36.8026 21.943 36.7646 21.8207 36.6886 21.7269C36.6126 21.6332 36.5077 21.5863 36.3738 21.5863C36.2417 21.5863 36.1376 21.6332 36.0616 21.7269C35.9856 21.8207 35.9476 21.943 35.9476 22.0938C35.9476 22.2446 35.9856 22.3669 36.0616 22.4607C36.1376 22.5527 36.2417 22.5987 36.3738 22.5987ZM37.3654 22.7587V21.7794C37.3654 21.7223 37.3609 21.6617 37.3518 21.5973C37.3446 21.5329 37.3356 21.4796 37.3247 21.4373L37.5256 21.4014C37.5418 21.4621 37.5545 21.5246 37.5636 21.589C37.692 21.4621 37.8422 21.3987 38.0141 21.3987C38.1607 21.3987 38.2738 21.4419 38.3534 21.5283C38.4348 21.6129 38.4756 21.7325 38.4756 21.8869V22.7587H38.2557V21.9228C38.2557 21.818 38.2285 21.7371 38.1743 21.68C38.12 21.623 38.0431 21.5945 37.9436 21.5945C37.8115 21.5945 37.692 21.6378 37.5853 21.7242V22.7587H37.3654ZM39.4516 22.7863C39.2435 22.7863 39.0798 22.7246 38.9603 22.6014C38.8427 22.4764 38.7839 22.3081 38.7839 22.0966C38.7839 21.9605 38.811 21.84 38.8653 21.7352C38.9196 21.6304 38.9938 21.5486 39.0879 21.4897C39.182 21.429 39.2878 21.3987 39.4055 21.3987C39.5828 21.3987 39.7212 21.4575 39.8208 21.5752C39.9203 21.6929 39.97 21.8538 39.97 22.058C39.97 22.0745 39.9691 22.0902 39.9673 22.1049C39.9673 22.1196 39.9664 22.1315 39.9646 22.1407H39.0065C39.0137 22.2842 39.0571 22.3964 39.1367 22.4773C39.2182 22.5582 39.3268 22.5987 39.4625 22.5987C39.5258 22.5987 39.5918 22.5886 39.6606 22.5683C39.7312 22.5481 39.8036 22.5187 39.8778 22.48L39.9538 22.6345C39.7891 22.7357 39.6217 22.7863 39.4516 22.7863ZM39.4 21.5863C39.3005 21.5863 39.2164 21.6203 39.1476 21.6883C39.0788 21.7564 39.0345 21.8465 39.0146 21.9587H39.7529C39.7384 21.8373 39.7004 21.7453 39.6389 21.6828C39.5792 21.6184 39.4996 21.5863 39.4 21.5863Z" fill="#3B3331"/>
<path fill-rule="evenodd" clip-rule="evenodd" d="M42.7738 21.7471C42.7738 22.2295 42.3889 22.6207 41.9143 22.6207C41.4396 22.6207 41.0548 22.2295 41.0548 21.7471C41.0548 21.2647 41.4396 20.8735 41.9143 20.8735C42.3889 20.8735 42.7738 21.2647 42.7738 21.7471ZM42.6833 21.7471C42.6833 21.3155 42.339 20.9655 41.9143 20.9655C41.4896 20.9655 41.1452 21.3155 41.1452 21.7471C41.1452 22.1787 41.4896 22.5287 41.9143 22.5287C42.339 22.5287 42.6833 22.1787 42.6833 21.7471ZM41.9339 21.3674C41.9107 21.3674 41.8914 21.3601 41.8759 21.3454C41.8605 21.3306 41.8529 21.3125 41.8529 21.2909C41.8529 21.2684 41.8605 21.2495 41.8759 21.2343C41.8914 21.2191 41.9107 21.2115 41.9339 21.2115C41.958 21.2115 41.9775 21.2191 41.9925 21.2343C42.0075 21.2495 42.015 21.2684 42.015 21.2909C42.015 21.3125 42.0075 21.3306 41.9925 21.3454C41.9775 21.3601 41.958 21.3674 41.9339 21.3674ZM41.8759 22.2414V21.5307H41.9933V22.2414H41.8759Z" fill="#3B3331"/>
<path d="M10.5323 25.9771V25.0446H10.6477V25.9771H10.5323ZM10.8857 25.9771V25.4874C10.8857 25.4589 10.8834 25.4285 10.8789 25.3964C10.8753 25.3642 10.8708 25.3375 10.8653 25.3164L10.9658 25.2984C10.9739 25.3288 10.9802 25.36 10.9848 25.3922C11.049 25.3288 11.1241 25.2971 11.2101 25.2971C11.2833 25.2971 11.3399 25.3187 11.3797 25.3619C11.4204 25.4042 11.4408 25.4639 11.4408 25.5412V25.9771H11.3308V25.5591C11.3308 25.5067 11.3173 25.4662 11.2901 25.4377C11.263 25.4092 11.2245 25.395 11.1748 25.395C11.1087 25.395 11.049 25.4166 10.9956 25.4598V25.9771H10.8857ZM11.8908 25.9908C11.8247 25.9908 11.7754 25.9734 11.7429 25.9384C11.7103 25.9035 11.694 25.8538 11.694 25.7895V25.4019H11.5515V25.3108H11.694C11.6958 25.2777 11.6985 25.2451 11.7021 25.2129C11.7058 25.1807 11.7094 25.1481 11.713 25.115H11.8039V25.3108H12.0251V25.4019H11.8039V25.7688C11.8039 25.812 11.8125 25.8433 11.8297 25.8626C11.8469 25.8819 11.875 25.8915 11.9139 25.8915C11.9329 25.8915 11.9523 25.8892 11.9722 25.8846C11.993 25.88 12.0138 25.8731 12.0346 25.8639L12.0659 25.9481C12.0396 25.961 12.0116 25.9711 11.9817 25.9784C11.9519 25.9867 11.9216 25.9908 11.8908 25.9908ZM12.2018 25.9771V25.4874C12.2018 25.4589 12.1995 25.4285 12.195 25.3964C12.1914 25.3642 12.1868 25.3375 12.1814 25.3164L12.2818 25.2984C12.2873 25.3177 12.2918 25.3375 12.2954 25.3577C12.299 25.3771 12.3017 25.3954 12.3035 25.4129C12.3542 25.3366 12.4194 25.2984 12.499 25.2984C12.527 25.2984 12.5551 25.3026 12.5831 25.3108L12.5723 25.4184C12.5587 25.4138 12.5456 25.4106 12.5329 25.4088C12.5202 25.4069 12.5053 25.406 12.4881 25.406C12.4519 25.406 12.4184 25.4138 12.3877 25.4295C12.3578 25.4442 12.3325 25.4649 12.3117 25.4915V25.9771H12.2018ZM12.9783 25.9908C12.9131 25.9908 12.8561 25.9766 12.8073 25.9481C12.7584 25.9187 12.7204 25.8782 12.6933 25.8267C12.6661 25.7743 12.6526 25.7136 12.6526 25.6446C12.6526 25.5757 12.6661 25.515 12.6933 25.4626C12.7204 25.4102 12.7584 25.3697 12.8073 25.3412C12.8561 25.3118 12.9131 25.2971 12.9783 25.2971C13.0434 25.2971 13.1004 25.3118 13.1493 25.3412C13.199 25.3697 13.2375 25.4102 13.2646 25.4626C13.2918 25.515 13.3053 25.5757 13.3053 25.6446C13.3053 25.7136 13.2918 25.7743 13.2646 25.8267C13.2375 25.8782 13.199 25.9187 13.1493 25.9481C13.1004 25.9766 13.0434 25.9908 12.9783 25.9908ZM12.9783 25.8971C13.0452 25.8971 13.0977 25.8741 13.1357 25.8281C13.1737 25.7812 13.1927 25.72 13.1927 25.6446C13.1927 25.5692 13.1737 25.5081 13.1357 25.4612C13.0977 25.4143 13.0452 25.3908 12.9783 25.3908C12.9122 25.3908 12.8602 25.4143 12.8222 25.4612C12.7842 25.5081 12.7652 25.5692 12.7652 25.6446C12.7652 25.72 12.7842 25.7812 12.8222 25.8281C12.8602 25.8741 12.9122 25.8971 12.9783 25.8971ZM13.4252 25.6488C13.4252 25.5789 13.4379 25.5177 13.4632 25.4653C13.4895 25.4129 13.5261 25.372 13.5732 25.3426C13.6211 25.3122 13.6777 25.2971 13.7428 25.2971C13.8079 25.2971 13.8663 25.3131 13.9179 25.3453V25.0046H14.0278V25.8005C14.0278 25.8299 14.0296 25.8607 14.0332 25.8929C14.0368 25.9251 14.0423 25.9508 14.0495 25.9702L13.9491 25.9895C13.9437 25.9738 13.9391 25.9582 13.9355 25.9426C13.9328 25.926 13.9305 25.9104 13.9287 25.8957C13.9025 25.926 13.8708 25.9495 13.8337 25.966C13.7966 25.9826 13.7577 25.9908 13.717 25.9908C13.6582 25.9908 13.6066 25.9771 13.5623 25.9495C13.5189 25.921 13.4849 25.8814 13.4605 25.8308C13.437 25.7794 13.4252 25.7187 13.4252 25.6488ZM13.5379 25.6474C13.5379 25.7274 13.556 25.789 13.5922 25.8322C13.6292 25.8754 13.6808 25.8971 13.7469 25.8971C13.7803 25.8971 13.812 25.8897 13.8419 25.875C13.8726 25.8603 13.898 25.84 13.9179 25.8143V25.4391C13.8925 25.4226 13.8663 25.4106 13.8392 25.4033C13.812 25.395 13.7858 25.3908 13.7604 25.3908C13.6908 25.3908 13.636 25.4148 13.5962 25.4626C13.5573 25.5095 13.5379 25.5711 13.5379 25.6474ZM14.3418 25.3108V25.7233C14.3418 25.7784 14.3553 25.8207 14.3825 25.8502C14.4105 25.8787 14.449 25.8929 14.4978 25.8929C14.5612 25.8929 14.6182 25.8731 14.6688 25.8336V25.3108H14.7788V25.8005C14.7788 25.829 14.7806 25.8594 14.7842 25.8915C14.7887 25.9228 14.7941 25.949 14.8005 25.9702L14.6987 25.9895C14.6905 25.9573 14.6847 25.9283 14.681 25.9026C14.6494 25.9311 14.6154 25.9531 14.5793 25.9688C14.5431 25.9835 14.5042 25.9908 14.4625 25.9908C14.3902 25.9908 14.3336 25.9697 14.2929 25.9274C14.2522 25.8842 14.2318 25.8221 14.2318 25.7412V25.3108H14.3418ZM15.2765 25.9908C15.2113 25.9908 15.1539 25.9771 15.1041 25.9495C15.0553 25.921 15.0168 25.881 14.9887 25.8295C14.9607 25.7771 14.9467 25.7154 14.9467 25.6446C14.9467 25.5738 14.9602 25.5127 14.9874 25.4612C15.0145 25.4088 15.053 25.3683 15.1028 25.3398C15.1525 25.3113 15.2109 25.2971 15.2778 25.2971C15.3529 25.2971 15.423 25.3154 15.4882 25.3522L15.4502 25.435C15.3905 25.4056 15.3348 25.3908 15.2832 25.3908C15.2154 25.3908 15.1611 25.4138 15.1204 25.4598C15.0797 25.5058 15.0593 25.5674 15.0593 25.6446C15.0593 25.721 15.0792 25.7821 15.119 25.8281C15.1597 25.8741 15.214 25.8971 15.2819 25.8971C15.3344 25.8971 15.3905 25.8823 15.4502 25.8529L15.4882 25.9343C15.4239 25.972 15.3534 25.9908 15.2765 25.9908ZM15.8734 25.9908C15.8074 25.9908 15.7581 25.9734 15.7255 25.9384C15.6929 25.9035 15.6766 25.8538 15.6766 25.7895V25.4019H15.5341V25.3108H15.6766C15.6784 25.2777 15.6812 25.2451 15.6848 25.2129C15.6884 25.1807 15.692 25.1481 15.6956 25.115H15.7866V25.3108H16.0078V25.4019H15.7866V25.7688C15.7866 25.812 15.7952 25.8433 15.8124 25.8626C15.8295 25.8819 15.8576 25.8915 15.8965 25.8915C15.9155 25.8915 15.935 25.8892 15.9549 25.8846C15.9757 25.88 15.9965 25.8731 16.0173 25.8639L16.0485 25.9481C16.0223 25.961 15.9942 25.9711 15.9644 25.9784C15.9345 25.9867 15.9042 25.9908 15.8734 25.9908ZM16.4613 25.9908C16.3961 25.9908 16.3391 25.9766 16.2903 25.9481C16.2414 25.9187 16.2034 25.8782 16.1762 25.8267C16.1491 25.7743 16.1355 25.7136 16.1355 25.6446C16.1355 25.5757 16.1491 25.515 16.1762 25.4626C16.2034 25.4102 16.2414 25.3697 16.2903 25.3412C16.3391 25.3118 16.3961 25.2971 16.4613 25.2971C16.5264 25.2971 16.5834 25.3118 16.6323 25.3412C16.682 25.3697 16.7205 25.4102 16.7476 25.4626C16.7747 25.515 16.7883 25.5757 16.7883 25.6446C16.7883 25.7136 16.7747 25.7743 16.7476 25.8267C16.7205 25.8782 16.682 25.9187 16.6323 25.9481C16.5834 25.9766 16.5264 25.9908 16.4613 25.9908ZM16.4613 25.8971C16.5282 25.8971 16.5807 25.8741 16.6187 25.8281C16.6567 25.7812 16.6757 25.72 16.6757 25.6446C16.6757 25.5692 16.6567 25.5081 16.6187 25.4612C16.5807 25.4143 16.5282 25.3908 16.4613 25.3908C16.3952 25.3908 16.3432 25.4143 16.3052 25.4612C16.2672 25.5081 16.2482 25.5692 16.2482 25.6446C16.2482 25.72 16.2672 25.7812 16.3052 25.8281C16.3432 25.8741 16.3952 25.8971 16.4613 25.8971ZM16.9571 25.9771V25.4874C16.9571 25.4589 16.9548 25.4285 16.9503 25.3964C16.9467 25.3642 16.9421 25.3375 16.9367 25.3164L17.0371 25.2984C17.0426 25.3177 17.0471 25.3375 17.0507 25.3577C17.0543 25.3771 17.057 25.3954 17.0588 25.4129C17.1095 25.3366 17.1747 25.2984 17.2543 25.2984C17.2823 25.2984 17.3104 25.3026 17.3384 25.3108L17.3276 25.4184C17.314 25.4138 17.3009 25.4106 17.2882 25.4088C17.2755 25.4069 17.2606 25.406 17.2434 25.406C17.2072 25.406 17.1738 25.4138 17.143 25.4295C17.1131 25.4442 17.0878 25.4649 17.067 25.4915V25.9771H16.9571ZM17.5109 26.2874C17.4928 26.2874 17.4747 26.2851 17.4566 26.2805C17.4394 26.2768 17.4245 26.2718 17.4118 26.2653L17.4322 26.1715C17.4439 26.178 17.4557 26.1821 17.4674 26.1839C17.4792 26.1867 17.4914 26.1881 17.5041 26.1881C17.524 26.1881 17.5434 26.1784 17.5624 26.1591C17.5823 26.1398 17.6013 26.1039 17.6194 26.0515L17.6384 25.9977L17.3738 25.3108H17.4932L17.6995 25.8708L17.9072 25.3108H18.0212L17.7266 26.0639C17.7031 26.1219 17.6814 26.1669 17.6615 26.1991C17.6416 26.2322 17.6199 26.2552 17.5964 26.2681C17.5728 26.281 17.5443 26.2874 17.5109 26.2874ZM18.7171 25.9908C18.652 25.9908 18.5945 25.9771 18.5447 25.9495C18.4959 25.921 18.4574 25.881 18.4294 25.8295C18.4013 25.7771 18.3873 25.7154 18.3873 25.6446C18.3873 25.5738 18.4009 25.5127 18.428 25.4612C18.4552 25.4088 18.4936 25.3683 18.5434 25.3398C18.5931 25.3113 18.6515 25.2971 18.7185 25.2971C18.7935 25.2971 18.8637 25.3154 18.9288 25.3522L18.8908 25.435C18.8311 25.4056 18.7754 25.3908 18.7239 25.3908C18.656 25.3908 18.6017 25.4138 18.561 25.4598C18.5203 25.5058 18.5 25.5674 18.5 25.6446C18.5 25.721 18.5199 25.7821 18.5597 25.8281C18.6004 25.8741 18.6547 25.8971 18.7225 25.8971C18.775 25.8971 18.8311 25.8823 18.8908 25.8529L18.9288 25.9343C18.8646 25.972 18.794 25.9908 18.7171 25.9908ZM19.3438 25.9908C19.2787 25.9908 19.2217 25.9766 19.1728 25.9481C19.124 25.9187 19.086 25.8782 19.0588 25.8267C19.0317 25.7743 19.0181 25.7136 19.0181 25.6446C19.0181 25.5757 19.0317 25.515 19.0588 25.4626C19.086 25.4102 19.124 25.3697 19.1728 25.3412C19.2217 25.3118 19.2787 25.2971 19.3438 25.2971C19.409 25.2971 19.466 25.3118 19.5148 25.3412C19.5646 25.3697 19.603 25.4102 19.6302 25.4626C19.6573 25.515 19.6709 25.5757 19.6709 25.6446C19.6709 25.7136 19.6573 25.7743 19.6302 25.8267C19.603 25.8782 19.5646 25.9187 19.5148 25.9481C19.466 25.9766 19.409 25.9908 19.3438 25.9908ZM19.3438 25.8971C19.4108 25.8971 19.4633 25.8741 19.5012 25.8281C19.5392 25.7812 19.5583 25.72 19.5583 25.6446C19.5583 25.5692 19.5392 25.5081 19.5012 25.4612C19.4633 25.4143 19.4108 25.3908 19.3438 25.3908C19.2778 25.3908 19.2257 25.4143 19.1877 25.4612C19.1497 25.5081 19.1308 25.5692 19.1308 25.6446C19.1308 25.72 19.1497 25.7812 19.1877 25.8281C19.2257 25.8741 19.2778 25.8971 19.3438 25.8971ZM19.8396 26.2736V25.4874C19.8396 25.458 19.8378 25.4276 19.8342 25.3964C19.8306 25.3642 19.8252 25.3375 19.8179 25.3164L19.9197 25.2984C19.9288 25.3315 19.9355 25.3637 19.9401 25.395C19.9663 25.3637 19.9975 25.3398 20.0337 25.3233C20.0708 25.3058 20.1097 25.2971 20.1504 25.2971C20.2092 25.2971 20.2603 25.3113 20.3038 25.3398C20.3481 25.3674 20.382 25.4069 20.4056 25.4584C20.43 25.5099 20.4422 25.5702 20.4422 25.6391C20.4422 25.7081 20.4291 25.7692 20.4028 25.8226C20.3775 25.875 20.3413 25.9164 20.2943 25.9467C20.2472 25.9761 20.1911 25.9908 20.126 25.9908C20.0618 25.9908 20.0029 25.9748 19.9496 25.9426V26.2736H19.8396ZM20.1206 25.3908C20.0871 25.3908 20.055 25.3982 20.0242 25.4129C19.9943 25.4276 19.9695 25.4474 19.9496 25.4722V25.8474C19.974 25.8649 19.9998 25.8777 20.0269 25.886C20.0541 25.8934 20.0808 25.8971 20.107 25.8971C20.1767 25.8971 20.2309 25.8731 20.2698 25.8253C20.3097 25.7775 20.3296 25.7154 20.3296 25.6391C20.3296 25.56 20.311 25.4989 20.2739 25.4557C20.2368 25.4125 20.1857 25.3908 20.1206 25.3908ZM20.6452 26.2874C20.6271 26.2874 20.609 26.2851 20.5909 26.2805C20.5738 26.2768 20.5588 26.2718 20.5462 26.2653L20.5665 26.1715C20.5783 26.178 20.59 26.1821 20.6018 26.1839C20.6136 26.1867 20.6258 26.1881 20.6384 26.1881C20.6583 26.1881 20.6778 26.1784 20.6968 26.1591C20.7167 26.1398 20.7357 26.1039 20.7538 26.0515L20.7728 25.9977L20.5082 25.3108H20.6276L20.8339 25.8708L21.0415 25.3108H21.1555L20.861 26.0639C20.8375 26.1219 20.8158 26.1669 20.7959 26.1991C20.776 26.2322 20.7543 26.2552 20.7307 26.2681C20.7072 26.281 20.6787 26.2874 20.6452 26.2874ZM21.6085 25.9895C21.5977 25.9637 21.5882 25.9306 21.58 25.8902C21.5728 25.8488 21.5692 25.8097 21.5692 25.7729V25.0046H21.6791V25.7508C21.6791 25.7895 21.6818 25.829 21.6872 25.8695C21.6927 25.909 21.6999 25.9421 21.709 25.9688L21.6085 25.9895ZM22.1721 25.9908C22.107 25.9908 22.05 25.9766 22.0011 25.9481C21.9523 25.9187 21.9143 25.8782 21.8871 25.8267C21.86 25.7743 21.8464 25.7136 21.8464 25.6446C21.8464 25.5757 21.86 25.515 21.8871 25.4626C21.9143 25.4102 21.9523 25.3697 22.0011 25.3412C22.05 25.3118 22.107 25.2971 22.1721 25.2971C22.2373 25.2971 22.2943 25.3118 22.3431 25.3412C22.3929 25.3697 22.4313 25.4102 22.4585 25.4626C22.4856 25.515 22.4992 25.5757 22.4992 25.6446C22.4992 25.7136 22.4856 25.7743 22.4585 25.8267C22.4313 25.8782 22.3929 25.9187 22.3431 25.9481C22.2943 25.9766 22.2373 25.9908 22.1721 25.9908ZM22.1721 25.8971C22.2391 25.8971 22.2915 25.8741 22.3295 25.8281C22.3675 25.7812 22.3865 25.72 22.3865 25.6446C22.3865 25.5692 22.3675 25.5081 22.3295 25.4612C22.2915 25.4143 22.2391 25.3908 22.1721 25.3908C22.1061 25.3908 22.054 25.4143 22.016 25.4612C21.978 25.5081 21.959 25.5692 21.959 25.6446C21.959 25.72 21.978 25.7812 22.016 25.8281C22.054 25.8741 22.1061 25.8971 22.1721 25.8971ZM22.6679 25.9771V25.4874C22.6679 25.4589 22.6657 25.4285 22.6611 25.3964C22.6575 25.3642 22.653 25.3375 22.6476 25.3164L22.748 25.2984C22.7534 25.3177 22.7579 25.3375 22.7616 25.3577C22.7652 25.3771 22.7679 25.3954 22.7697 25.4129C22.8204 25.3366 22.8855 25.2984 22.9651 25.2984C22.9932 25.2984 23.0212 25.3026 23.0493 25.3108L23.0384 25.4184C23.0248 25.4138 23.0117 25.4106 22.9991 25.4088C22.9864 25.4069 22.9715 25.406 22.9543 25.406C22.9181 25.406 22.8846 25.4138 22.8538 25.4295C22.824 25.4442 22.7987 25.4649 22.7778 25.4915V25.9771H22.6679ZM23.4526 25.9908C23.3486 25.9908 23.2667 25.96 23.207 25.8984C23.1482 25.8359 23.1188 25.7518 23.1188 25.646C23.1188 25.578 23.1323 25.5177 23.1595 25.4653C23.1866 25.4129 23.2237 25.372 23.2708 25.3426C23.3178 25.3122 23.3707 25.2971 23.4295 25.2971C23.5182 25.2971 23.5874 25.3265 23.6372 25.3853C23.687 25.4442 23.7118 25.5246 23.7118 25.6267C23.7118 25.635 23.7114 25.6428 23.7105 25.6502C23.7105 25.6575 23.71 25.6635 23.7091 25.6681H23.23C23.2337 25.7398 23.2554 25.7959 23.2952 25.8364C23.3359 25.8768 23.3902 25.8971 23.458 25.8971C23.4897 25.8971 23.5227 25.892 23.5571 25.8819C23.5924 25.8718 23.6286 25.8571 23.6657 25.8377L23.7037 25.915C23.6214 25.9656 23.5377 25.9908 23.4526 25.9908ZM23.4268 25.3908C23.3771 25.3908 23.335 25.4079 23.3006 25.4419C23.2662 25.4759 23.2441 25.521 23.2341 25.5771H23.6033C23.596 25.5164 23.577 25.4704 23.5463 25.4391C23.5164 25.4069 23.4766 25.3908 23.4268 25.3908ZM23.8806 25.9771V25.4874C23.8806 25.4589 23.8783 25.4285 23.8738 25.3964C23.8702 25.3642 23.8656 25.3375 23.8602 25.3164L23.9606 25.2984C23.9688 25.3288 23.9751 25.36 23.9796 25.3922C24.0439 25.3288 24.119 25.2971 24.2049 25.2971C24.3008 25.2971 24.3678 25.3325 24.4058 25.4033C24.4365 25.372 24.4723 25.3467 24.513 25.3274C24.5546 25.3072 24.6008 25.2971 24.6514 25.2971C24.7247 25.2971 24.7813 25.3187 24.8211 25.3619C24.8618 25.4042 24.8821 25.4639 24.8821 25.5412V25.9771H24.7722V25.5591C24.7722 25.5067 24.7582 25.4662 24.7301 25.4377C24.703 25.4092 24.665 25.395 24.6161 25.395C24.5836 25.395 24.5505 25.4014 24.5171 25.4143C24.4845 25.4272 24.4551 25.4451 24.4289 25.4681C24.4334 25.4911 24.4356 25.5154 24.4356 25.5412V25.9771H24.3257V25.5591C24.3257 25.5067 24.3117 25.4662 24.2836 25.4377C24.2565 25.4092 24.2185 25.395 24.1696 25.395C24.1036 25.395 24.0439 25.4166 23.9905 25.4598V25.9771H23.8806ZM25.4285 25.1577C25.4068 25.1577 25.3887 25.1508 25.3742 25.1371C25.3598 25.1233 25.3525 25.1062 25.3525 25.086C25.3525 25.0649 25.3598 25.0474 25.3742 25.0336C25.3887 25.0189 25.4068 25.0115 25.4285 25.0115C25.4511 25.0115 25.4692 25.0189 25.4828 25.0336C25.4973 25.0474 25.5045 25.0649 25.5045 25.086C25.5045 25.1062 25.4973 25.1233 25.4828 25.1371C25.4692 25.1508 25.4511 25.1577 25.4285 25.1577ZM25.3742 25.9771V25.3108H25.4842V25.9771H25.3742ZM25.7003 26.2736V25.4874C25.7003 25.458 25.6985 25.4276 25.6949 25.3964C25.6913 25.3642 25.6858 25.3375 25.6786 25.3164L25.7804 25.2984C25.7894 25.3315 25.7962 25.3637 25.8007 25.395C25.827 25.3637 25.8582 25.3398 25.8944 25.3233C25.9315 25.3058 25.9704 25.2971 26.0111 25.2971C26.0699 25.2971 26.121 25.3113 26.1645 25.3398C26.2088 25.3674 26.2427 25.4069 26.2662 25.4584C26.2907 25.5099 26.3029 25.5702 26.3029 25.6391C26.3029 25.7081 26.2898 25.7692 26.2635 25.8226C26.2382 25.875 26.202 25.9164 26.155 25.9467C26.1079 25.9761 26.0518 25.9908 25.9867 25.9908C25.9224 25.9908 25.8636 25.9748 25.8102 25.9426V26.2736H25.7003ZM25.9812 25.3908C25.9478 25.3908 25.9156 25.3982 25.8849 25.4129C25.855 25.4276 25.8302 25.4474 25.8102 25.4722V25.8474C25.8347 25.8649 25.8605 25.8777 25.8876 25.886C25.9147 25.8934 25.9414 25.8971 25.9677 25.8971C26.0373 25.8971 26.0916 25.8731 26.1305 25.8253C26.1703 25.7775 26.1902 25.7154 26.1902 25.6391C26.1902 25.56 26.1717 25.4989 26.1346 25.4557C26.0975 25.4125 26.0464 25.3908 25.9812 25.3908ZM26.6643 25.9908C26.6209 25.9908 26.5766 25.9849 26.5313 25.9729C26.4861 25.961 26.444 25.943 26.4051 25.9191L26.4431 25.8391C26.5146 25.8796 26.5865 25.8998 26.6589 25.8998C26.7078 25.8998 26.7458 25.8906 26.7729 25.8722C26.801 25.8529 26.815 25.8267 26.815 25.7936C26.815 25.743 26.7833 25.7099 26.72 25.6943L26.6101 25.6667C26.5522 25.6529 26.5092 25.6308 26.4811 25.6005C26.454 25.5702 26.4404 25.5329 26.4404 25.4888C26.4404 25.4308 26.4612 25.3844 26.5028 25.3495C26.5445 25.3145 26.6019 25.2971 26.6752 25.2971C26.7566 25.2971 26.8313 25.3182 26.8991 25.3605L26.8584 25.4364C26.7969 25.4042 26.7376 25.3881 26.6806 25.3881C26.639 25.3881 26.6069 25.3964 26.5843 25.4129C26.5617 25.4295 26.5503 25.4529 26.5503 25.4833C26.5503 25.5072 26.5576 25.5265 26.5721 25.5412C26.5874 25.555 26.6132 25.566 26.6494 25.5743L26.7607 25.6019C26.8141 25.6148 26.8548 25.6373 26.8828 25.6695C26.9118 25.7017 26.9263 25.7407 26.9263 25.7867C26.9263 25.8474 26.9023 25.8966 26.8543 25.9343C26.8073 25.972 26.744 25.9908 26.6643 25.9908ZM27.179 25.3108V25.7233C27.179 25.7784 27.1925 25.8207 27.2197 25.8502C27.2477 25.8787 27.2862 25.8929 27.335 25.8929C27.3984 25.8929 27.4554 25.8731 27.506 25.8336V25.3108H27.616V25.8005C27.616 25.829 27.6178 25.8594 27.6214 25.8915C27.6259 25.9228 27.6313 25.949 27.6377 25.9702L27.5359 25.9895C27.5278 25.9573 27.5219 25.9283 27.5183 25.9026C27.4866 25.9311 27.4527 25.9531 27.4165 25.9688C27.3803 25.9835 27.3414 25.9908 27.2998 25.9908C27.2274 25.9908 27.1708 25.9697 27.1301 25.9274C27.0894 25.8842 27.069 25.8221 27.069 25.7412V25.3108H27.179ZM27.8328 25.9771V25.4874C27.8328 25.4589 27.8305 25.4285 27.826 25.3964C27.8223 25.3642 27.8178 25.3375 27.8124 25.3164L27.9128 25.2984C27.921 25.3288 27.9273 25.36 27.9318 25.3922C27.9961 25.3288 28.0712 25.2971 28.1571 25.2971C28.253 25.2971 28.32 25.3325 28.358 25.4033C28.3887 25.372 28.4245 25.3467 28.4652 25.3274C28.5068 25.3072 28.5529 25.2971 28.6036 25.2971C28.6769 25.2971 28.7334 25.3187 28.7732 25.3619C28.814 25.4042 28.8343 25.4639 28.8343 25.5412V25.9771H28.7244V25.5591C28.7244 25.5067 28.7104 25.4662 28.6823 25.4377C28.6552 25.4092 28.6172 25.395 28.5683 25.395C28.5358 25.395 28.5027 25.4014 28.4693 25.4143C28.4367 25.4272 28.4073 25.4451 28.381 25.4681C28.3856 25.4911 28.3878 25.5154 28.3878 25.5412V25.9771H28.2779V25.5591C28.2779 25.5067 28.2639 25.4662 28.2358 25.4377C28.2087 25.4092 28.1707 25.395 28.1218 25.395C28.0558 25.395 27.9961 25.4166 27.9427 25.4598V25.9771H27.8328ZM29.2789 25.6488C29.2789 25.5789 29.2916 25.5177 29.3169 25.4653C29.3432 25.4129 29.3798 25.372 29.4268 25.3426C29.4748 25.3122 29.5313 25.2971 29.5965 25.2971C29.6616 25.2971 29.72 25.3131 29.7716 25.3453V25.0046H29.8815V25.8005C29.8815 25.8299 29.8833 25.8607 29.8869 25.8929C29.8905 25.9251 29.896 25.9508 29.9032 25.9702L29.8028 25.9895C29.7973 25.9738 29.7928 25.9582 29.7892 25.9426C29.7865 25.926 29.7842 25.9104 29.7824 25.8957C29.7562 25.926 29.7245 25.9495 29.6874 25.966C29.6503 25.9826 29.6114 25.9908 29.5707 25.9908C29.5119 25.9908 29.4603 25.9771 29.416 25.9495C29.3726 25.921 29.3386 25.8814 29.3142 25.8308C29.2907 25.7794 29.2789 25.7187 29.2789 25.6488ZM29.3916 25.6474C29.3916 25.7274 29.4097 25.789 29.4459 25.8322C29.4829 25.8754 29.5345 25.8971 29.6006 25.8971C29.634 25.8971 29.6657 25.8897 29.6956 25.875C29.7263 25.8603 29.7517 25.84 29.7716 25.8143V25.4391C29.7462 25.4226 29.72 25.4106 29.6929 25.4033C29.6657 25.395 29.6395 25.3908 29.6141 25.3908C29.5445 25.3908 29.4897 25.4148 29.4499 25.4626C29.411 25.5095 29.3916 25.5711 29.3916 25.6474ZM30.3759 25.9908C30.3108 25.9908 30.2538 25.9766 30.2049 25.9481C30.1561 25.9187 30.1181 25.8782 30.0909 25.8267C30.0638 25.7743 30.0502 25.7136 30.0502 25.6446C30.0502 25.5757 30.0638 25.515 30.0909 25.4626C30.1181 25.4102 30.1561 25.3697 30.2049 25.3412C30.2538 25.3118 30.3108 25.2971 30.3759 25.2971C30.4411 25.2971 30.4981 25.3118 30.5469 25.3412C30.5967 25.3697 30.6352 25.4102 30.6623 25.4626C30.6894 25.515 30.703 25.5757 30.703 25.6446C30.703 25.7136 30.6894 25.7743 30.6623 25.8267C30.6352 25.8782 30.5967 25.9187 30.5469 25.9481C30.4981 25.9766 30.4411 25.9908 30.3759 25.9908ZM30.3759 25.8971C30.4429 25.8971 30.4954 25.8741 30.5334 25.8281C30.5714 25.7812 30.5904 25.72 30.5904 25.6446C30.5904 25.5692 30.5714 25.5081 30.5334 25.4612C30.4954 25.4143 30.4429 25.3908 30.3759 25.3908C30.3099 25.3908 30.2579 25.4143 30.2199 25.4612C30.1819 25.5081 30.1629 25.5692 30.1629 25.6446C30.1629 25.72 30.1819 25.7812 30.2199 25.8281C30.2579 25.8741 30.3099 25.8971 30.3759 25.8971ZM30.9098 25.9895C30.8989 25.9637 30.8894 25.9306 30.8813 25.8902C30.874 25.8488 30.8704 25.8097 30.8704 25.7729V25.0046H30.9803V25.7508C30.9803 25.7895 30.983 25.829 30.9885 25.8695C30.9939 25.909 31.0011 25.9421 31.0102 25.9688L30.9098 25.9895ZM31.4733 25.9908C31.4082 25.9908 31.3512 25.9766 31.3023 25.9481C31.2535 25.9187 31.2155 25.8782 31.1883 25.8267C31.1612 25.7743 31.1476 25.7136 31.1476 25.6446C31.1476 25.5757 31.1612 25.515 31.1883 25.4626C31.2155 25.4102 31.2535 25.3697 31.3023 25.3412C31.3512 25.3118 31.4082 25.2971 31.4733 25.2971C31.5385 25.2971 31.5955 25.3118 31.6443 25.3412C31.6941 25.3697 31.7325 25.4102 31.7597 25.4626C31.7868 25.515 31.8004 25.5757 31.8004 25.6446C31.8004 25.7136 31.7868 25.7743 31.7597 25.8267C31.7325 25.8782 31.6941 25.9187 31.6443 25.9481C31.5955 25.9766 31.5385 25.9908 31.4733 25.9908ZM31.4733 25.8971C31.5403 25.8971 31.5928 25.8741 31.6308 25.8281C31.6688 25.7812 31.6878 25.72 31.6878 25.6446C31.6878 25.5692 31.6688 25.5081 31.6308 25.4612C31.5928 25.4143 31.5403 25.3908 31.4733 25.3908C31.4073 25.3908 31.3553 25.4143 31.3173 25.4612C31.2793 25.5081 31.2603 25.5692 31.2603 25.6446C31.2603 25.72 31.2793 25.7812 31.3173 25.8281C31.3553 25.8741 31.4073 25.8971 31.4733 25.8971ZM31.9691 25.9771V25.4874C31.9691 25.4589 31.9669 25.4285 31.9624 25.3964C31.9587 25.3642 31.9542 25.3375 31.9488 25.3164L32.0492 25.2984C32.0546 25.3177 32.0592 25.3375 32.0628 25.3577C32.0664 25.3771 32.0691 25.3954 32.0709 25.4129C32.1216 25.3366 32.1867 25.2984 32.2664 25.2984C32.2944 25.2984 32.3225 25.3026 32.3505 25.3108L32.3396 25.4184C32.3261 25.4138 32.313 25.4106 32.3003 25.4088C32.2876 25.4069 32.2727 25.406 32.2555 25.406C32.2193 25.406 32.1858 25.4138 32.1551 25.4295C32.1252 25.4442 32.0999 25.4649 32.0791 25.4915V25.9771H31.9691ZM32.9584 25.9908C32.915 25.9908 32.8706 25.9849 32.8254 25.9729C32.7802 25.961 32.7381 25.943 32.6992 25.9191L32.7372 25.8391C32.8087 25.8796 32.8806 25.8998 32.953 25.8998C33.0018 25.8998 33.0398 25.8906 33.067 25.8722C33.095 25.8529 33.109 25.8267 33.109 25.7936C33.109 25.743 33.0774 25.7099 33.0141 25.6943L32.9041 25.6667C32.8462 25.6529 32.8032 25.6308 32.7752 25.6005C32.7481 25.5702 32.7345 25.5329 32.7345 25.4888C32.7345 25.4308 32.7553 25.3844 32.7969 25.3495C32.8385 25.3145 32.896 25.2971 32.9693 25.2971C33.0507 25.2971 33.1253 25.3182 33.1932 25.3605L33.1525 25.4364C33.091 25.4042 33.0317 25.3881 32.9747 25.3881C32.9331 25.3881 32.901 25.3964 32.8783 25.4129C32.8557 25.4295 32.8444 25.4529 32.8444 25.4833C32.8444 25.5072 32.8516 25.5265 32.8661 25.5412C32.8815 25.555 32.9073 25.566 32.9435 25.5743L33.0548 25.6019C33.1081 25.6148 33.1489 25.6373 33.1769 25.6695C33.2059 25.7017 33.2203 25.7407 33.2203 25.7867C33.2203 25.8474 33.1964 25.8966 33.1484 25.9343C33.1014 25.972 33.038 25.9908 32.9584 25.9908ZM33.4296 25.1577C33.4079 25.1577 33.3898 25.1508 33.3753 25.1371C33.3608 25.1233 33.3536 25.1062 33.3536 25.086C33.3536 25.0649 33.3608 25.0474 33.3753 25.0336C33.3898 25.0189 33.4079 25.0115 33.4296 25.0115C33.4522 25.0115 33.4703 25.0189 33.4839 25.0336C33.4984 25.0474 33.5056 25.0649 33.5056 25.086C33.5056 25.1062 33.4984 25.1233 33.4839 25.1371C33.4703 25.1508 33.4522 25.1577 33.4296 25.1577ZM33.3753 25.9771V25.3108H33.4853V25.9771H33.3753ZM33.9483 25.9908C33.8823 25.9908 33.833 25.9734 33.8004 25.9384C33.7678 25.9035 33.7515 25.8538 33.7515 25.7895V25.4019H33.609V25.3108H33.7515C33.7533 25.2777 33.756 25.2451 33.7597 25.2129C33.7633 25.1807 33.7669 25.1481 33.7705 25.115H33.8615V25.3108H34.0827V25.4019H33.8615V25.7688C33.8615 25.812 33.87 25.8433 33.8872 25.8626C33.9044 25.8819 33.9325 25.8915 33.9714 25.8915C33.9904 25.8915 34.0098 25.8892 34.0297 25.8846C34.0505 25.88 34.0714 25.8731 34.0922 25.8639L34.1234 25.9481C34.0971 25.961 34.0691 25.9711 34.0392 25.9784C34.0094 25.9867 33.9791 25.9908 33.9483 25.9908ZM34.5183 25.366C34.5545 25.343 34.5939 25.326 34.6364 25.315C34.6798 25.303 34.7241 25.2971 34.7694 25.2971C34.8526 25.2971 34.916 25.3187 34.9594 25.3619C35.0037 25.4051 35.0259 25.4653 35.0259 25.5426V25.7977C35.0259 25.8308 35.0277 25.8635 35.0313 25.8957C35.0358 25.9269 35.0413 25.9527 35.0476 25.9729L34.9499 25.9895C34.9417 25.9619 34.9354 25.9315 34.9309 25.8984C34.8666 25.96 34.7893 25.9908 34.6988 25.9908C34.6364 25.9908 34.5862 25.9738 34.5482 25.9398C34.5102 25.9058 34.4912 25.8598 34.4912 25.8019C34.4912 25.7458 34.5142 25.6994 34.5604 25.6626C34.6074 25.6258 34.6762 25.6023 34.7667 25.5922L34.9173 25.5771V25.5453C34.9173 25.4423 34.8648 25.3908 34.7599 25.3908C34.7282 25.3908 34.6943 25.3959 34.6581 25.406C34.6219 25.4152 34.588 25.4285 34.5563 25.446L34.5183 25.366ZM34.6038 25.7964C34.6038 25.8304 34.6156 25.8566 34.6391 25.875C34.6626 25.8925 34.6938 25.9012 34.7327 25.9012C34.8006 25.9012 34.8621 25.8764 34.9173 25.8267V25.6639L34.7762 25.6805C34.7174 25.6869 34.6739 25.6998 34.6459 25.7191C34.6178 25.7384 34.6038 25.7642 34.6038 25.7964ZM35.2295 25.9771V25.4874C35.2295 25.4589 35.2272 25.4285 35.2227 25.3964C35.219 25.3642 35.2145 25.3375 35.2091 25.3164L35.3095 25.2984C35.3177 25.3288 35.324 25.36 35.3285 25.3922C35.3928 25.3288 35.4679 25.2971 35.5538 25.2971C35.6497 25.2971 35.7167 25.3325 35.7547 25.4033C35.7854 25.372 35.8212 25.3467 35.8619 25.3274C35.9035 25.3072 35.9496 25.2971 36.0003 25.2971C36.0736 25.2971 36.1301 25.3187 36.17 25.3619C36.2107 25.4042 36.231 25.4639 36.231 25.5412V25.9771H36.1211V25.5591C36.1211 25.5067 36.1071 25.4662 36.079 25.4377C36.0519 25.4092 36.0139 25.395 35.965 25.395C35.9325 25.395 35.8994 25.4014 35.8659 25.4143C35.8334 25.4272 35.804 25.4451 35.7777 25.4681C35.7823 25.4911 35.7845 25.5154 35.7845 25.5412V25.9771H35.6746V25.5591C35.6746 25.5067 35.6606 25.4662 35.6325 25.4377C35.6054 25.4092 35.5674 25.395 35.5185 25.395C35.4525 25.395 35.3928 25.4166 35.3394 25.4598V25.9771H35.2295ZM36.7191 25.9908C36.6151 25.9908 36.5332 25.96 36.4735 25.8984C36.4147 25.8359 36.3853 25.7518 36.3853 25.646C36.3853 25.578 36.3989 25.5177 36.426 25.4653C36.4531 25.4129 36.4902 25.372 36.5373 25.3426C36.5843 25.3122 36.6373 25.2971 36.6961 25.2971C36.7847 25.2971 36.854 25.3265 36.9037 25.3853C36.9535 25.4442 36.9784 25.5246 36.9784 25.6267C36.9784 25.635 36.9779 25.6428 36.977 25.6502C36.977 25.6575 36.9765 25.6635 36.9756 25.6681H36.4966C36.5002 25.7398 36.5219 25.7959 36.5617 25.8364C36.6024 25.8768 36.6567 25.8971 36.7246 25.8971C36.7562 25.8971 36.7893 25.892 36.8236 25.8819C36.8589 25.8718 36.8951 25.8571 36.9322 25.8377L36.9702 25.915C36.8879 25.9656 36.8042 25.9908 36.7191 25.9908ZM36.6934 25.3908C36.6436 25.3908 36.6015 25.4079 36.5671 25.4419C36.5328 25.4759 36.5106 25.521 36.5006 25.5771H36.8698C36.8625 25.5164 36.8435 25.4704 36.8128 25.4391C36.7829 25.4069 36.7431 25.3908 36.6934 25.3908ZM37.3942 25.9908C37.3281 25.9908 37.2788 25.9734 37.2463 25.9384C37.2137 25.9035 37.1974 25.8538 37.1974 25.7895V25.4019H37.0549V25.3108H37.1974C37.1992 25.2777 37.2019 25.2451 37.2055 25.2129C37.2092 25.1807 37.2128 25.1481 37.2164 25.115H37.3073V25.3108H37.5285V25.4019H37.3073V25.7688C37.3073 25.812 37.3159 25.8433 37.3331 25.8626C37.3503 25.8819 37.3783 25.8915 37.4173 25.8915C37.4363 25.8915 37.4557 25.8892 37.4756 25.8846C37.4964 25.88 37.5172 25.8731 37.538 25.8639L37.5693 25.9481C37.543 25.961 37.515 25.9711 37.4851 25.9784C37.4553 25.9867 37.4249 25.9908 37.3942 25.9908Z" fill="#3B3331"/>
<path d="M28.3428 27.816H19.6571V27.9999H28.3428V27.816Z" fill="#787070"/>
</g>
</g>
<defs>
<clipPath id="clip0_1356_188193">
<rect width="48" height="48" rx="5" fill="white"/>
</clipPath>
<clipPath id="clip1_1356_188193">
<rect width="38" height="8" fill="white" transform="translate(5 20)"/>
</clipPath>
</defs>
</svg>
