<svg width="48" height="48" viewBox="0 0 48 48" fill="none" xmlns="http://www.w3.org/2000/svg">
<g clip-path="url(#clip0_1356_188195)">
<rect width="48" height="48" rx="2" fill="#383838"/>
<g clip-path="url(#clip1_1356_188195)">
<path d="M43 11H4V37H43V11Z" fill="white"/>
<path d="M43 11H4V17.5H43V11Z" fill="white"/>
<path d="M6.00287 13.5419H6.16717V14.7513H6.81084V14.9H6.00287V13.5419ZM7.06103 13.7066C7.0301 13.7066 7.00434 13.6966 6.98371 13.6765C6.9631 13.6564 6.95279 13.6316 6.95279 13.6021C6.95279 13.5713 6.9631 13.5459 6.98371 13.5258C7.00434 13.5044 7.0301 13.4937 7.06103 13.4937C7.09325 13.4937 7.11902 13.5044 7.13835 13.5258C7.15897 13.5459 7.16928 13.5713 7.16928 13.6021C7.16928 13.6316 7.15897 13.6564 7.13835 13.6765C7.11902 13.6966 7.09325 13.7066 7.06103 13.7066ZM6.98371 14.9V13.9296H7.14028V14.9H6.98371ZM7.7226 14.9201C7.66074 14.9201 7.5976 14.9114 7.53317 14.894C7.46875 14.8766 7.40882 14.8505 7.35341 14.8156L7.40753 14.6991C7.50934 14.758 7.61178 14.7875 7.71487 14.7875C7.78445 14.7875 7.83857 14.7741 7.87723 14.7473C7.91719 14.7192 7.93716 14.681 7.93716 14.6328C7.93716 14.5591 7.89206 14.5109 7.80185 14.4882L7.64528 14.448C7.56281 14.4279 7.50161 14.3957 7.46165 14.3515C7.42299 14.3073 7.40366 14.2531 7.40366 14.1888C7.40366 14.1044 7.4333 14.0368 7.49258 13.9859C7.55186 13.935 7.63368 13.9095 7.73806 13.9095C7.85404 13.9095 7.96035 13.9403 8.057 14.002L7.99901 14.1125C7.91139 14.0656 7.82698 14.0421 7.74579 14.0421C7.68652 14.0421 7.64078 14.0542 7.60855 14.0783C7.57634 14.1024 7.56023 14.1366 7.56023 14.1808C7.56023 14.2156 7.57054 14.2437 7.59116 14.2651C7.61307 14.2852 7.64979 14.3013 7.70134 14.3134L7.85984 14.3535C7.93587 14.3723 7.99386 14.4051 8.0338 14.452C8.07504 14.4989 8.09566 14.5558 8.09566 14.6228C8.09566 14.7112 8.06151 14.7828 7.99321 14.8377C7.92621 14.8927 7.83601 14.9201 7.7226 14.9201ZM8.67012 14.9201C8.57605 14.9201 8.50582 14.8947 8.45943 14.8438C8.41303 14.7929 8.38984 14.7205 8.38984 14.6268V14.0622H8.18688V13.9296H8.38984C8.39242 13.8814 8.39629 13.8339 8.40144 13.787C8.4066 13.7401 8.41175 13.6926 8.4169 13.6443H8.54641V13.9296H8.86148V14.0622H8.54641V14.5966C8.54641 14.6596 8.55865 14.7051 8.58313 14.7333C8.60763 14.7614 8.64757 14.7755 8.70298 14.7755C8.73004 14.7755 8.75775 14.7721 8.78609 14.7654C8.81574 14.7587 8.84538 14.7487 8.87501 14.7353L8.91947 14.8578C8.8821 14.8766 8.84215 14.8913 8.79962 14.902C8.7571 14.9141 8.71394 14.9201 8.67012 14.9201ZM9.6018 13.7066C9.57087 13.7066 9.5451 13.6966 9.52448 13.6765C9.50386 13.6564 9.49355 13.6316 9.49355 13.6021C9.49355 13.5713 9.50386 13.5459 9.52448 13.5258C9.5451 13.5044 9.57087 13.4937 9.6018 13.4937C9.63402 13.4937 9.65978 13.5044 9.67911 13.5258C9.69974 13.5459 9.71004 13.5713 9.71004 13.6021C9.71004 13.6316 9.69974 13.6564 9.67911 13.6765C9.65978 13.6966 9.63402 13.7066 9.6018 13.7066ZM9.52448 14.9V13.9296H9.68105V14.9H9.52448ZM10.3407 14.9201C10.2466 14.9201 10.1764 14.8947 10.13 14.8438C10.0836 14.7929 10.0604 14.7205 10.0604 14.6268V14.0622H9.85744V13.9296H10.0604C10.063 13.8814 10.0669 13.8339 10.072 13.787C10.0772 13.7401 10.0823 13.6926 10.0875 13.6443H10.217V13.9296H10.532V14.0622H10.217V14.5966C10.217 14.6596 10.2292 14.7051 10.2537 14.7333C10.2782 14.7614 10.3181 14.7755 10.3735 14.7755C10.4006 14.7755 10.4283 14.7721 10.4567 14.7654C10.4863 14.7587 10.5159 14.7487 10.5456 14.7353L10.59 14.8578C10.5527 14.8766 10.5127 14.8913 10.4702 14.902C10.4277 14.9141 10.3845 14.9201 10.3407 14.9201ZM11.1895 14.9201C11.0413 14.9201 10.9247 14.8752 10.8396 14.7855C10.7559 14.6944 10.714 14.5719 10.714 14.4178C10.714 14.3187 10.7333 14.231 10.772 14.1546C10.8106 14.0783 10.8635 14.0187 10.9305 13.9758C10.9975 13.9316 11.0729 13.9095 11.1566 13.9095C11.2829 13.9095 11.3815 13.9524 11.4524 14.0381C11.5233 14.1238 11.5587 14.241 11.5587 14.3897C11.5587 14.4018 11.558 14.4131 11.5568 14.4239C11.5568 14.4346 11.5561 14.4433 11.5548 14.45H10.8725C10.8777 14.5545 10.9086 14.6362 10.9653 14.6951C11.0233 14.754 11.1006 14.7835 11.1972 14.7835C11.2423 14.7835 11.2894 14.7761 11.3383 14.7614C11.3886 14.7467 11.4401 14.7252 11.493 14.6971L11.5471 14.8096C11.4298 14.8833 11.3106 14.9201 11.1895 14.9201ZM11.1528 14.0462C11.0819 14.0462 11.022 14.0709 10.973 14.1205C10.924 14.17 10.8925 14.2357 10.8783 14.3174H11.4041C11.3937 14.229 11.3667 14.162 11.3229 14.1165C11.2804 14.0696 11.2236 14.0462 11.1528 14.0462ZM11.7991 14.9V14.1868C11.7991 14.1453 11.7959 14.1011 11.7895 14.0542C11.7843 14.0073 11.7779 13.9685 11.7701 13.9377L11.9132 13.9115C11.9248 13.9557 11.9338 14.0013 11.9402 14.0482C12.0317 13.9557 12.1387 13.9095 12.2611 13.9095C12.3977 13.9095 12.4931 13.9611 12.5472 14.0642C12.591 14.0187 12.6419 13.9819 12.6999 13.9537C12.7592 13.9243 12.8249 13.9095 12.897 13.9095C13.0014 13.9095 13.082 13.941 13.1387 14.004C13.1967 14.0656 13.2256 14.1526 13.2256 14.2651V14.9H13.0691V14.2913C13.0691 14.2149 13.0491 14.156 13.0092 14.1145C12.9705 14.0729 12.9164 14.0522 12.8468 14.0522C12.8004 14.0522 12.7534 14.0616 12.7057 14.0803C12.6593 14.0991 12.6174 14.1252 12.58 14.1587C12.5865 14.1921 12.5897 14.2276 12.5897 14.2651V14.9H12.4331V14.2913C12.4331 14.2149 12.4132 14.156 12.3732 14.1145C12.3346 14.0729 12.2804 14.0522 12.2109 14.0522C12.1168 14.0522 12.0317 14.0837 11.9557 14.1466V14.9H11.7991Z" fill="#3B3331"/>
<path d="M43 17.3818H4V17.5H43V17.3818Z" fill="#E2DEDE"/>
<path d="M43 17.5H4V24H43V17.5Z" fill="white"/>
<path d="M6.00287 20.0419H6.16717V21.2513H6.81084V21.4H6.00287V20.0419ZM7.06103 20.2066C7.0301 20.2066 7.00434 20.1966 6.98371 20.1765C6.9631 20.1564 6.95279 20.1316 6.95279 20.1021C6.95279 20.0713 6.9631 20.0459 6.98371 20.0258C7.00434 20.0044 7.0301 19.9937 7.06103 19.9937C7.09325 19.9937 7.11902 20.0044 7.13835 20.0258C7.15897 20.0459 7.16928 20.0713 7.16928 20.1021C7.16928 20.1316 7.15897 20.1564 7.13835 20.1765C7.11902 20.1966 7.09325 20.2066 7.06103 20.2066ZM6.98371 21.4V20.4296H7.14028V21.4H6.98371ZM7.7226 21.4201C7.66074 21.4201 7.5976 21.4114 7.53317 21.394C7.46875 21.3766 7.40882 21.3505 7.35341 21.3156L7.40753 21.1991C7.50934 21.258 7.61178 21.2875 7.71487 21.2875C7.78445 21.2875 7.83857 21.2741 7.87723 21.2473C7.91719 21.2192 7.93716 21.181 7.93716 21.1328C7.93716 21.0591 7.89206 21.0109 7.80185 20.9882L7.64528 20.948C7.56281 20.9279 7.50161 20.8957 7.46165 20.8515C7.42299 20.8073 7.40366 20.7531 7.40366 20.6888C7.40366 20.6044 7.4333 20.5368 7.49258 20.4859C7.55186 20.435 7.63368 20.4095 7.73806 20.4095C7.85404 20.4095 7.96035 20.4403 8.057 20.502L7.99901 20.6125C7.91139 20.5656 7.82698 20.5421 7.74579 20.5421C7.68652 20.5421 7.64078 20.5542 7.60855 20.5783C7.57634 20.6024 7.56023 20.6366 7.56023 20.6808C7.56023 20.7156 7.57054 20.7437 7.59116 20.7651C7.61307 20.7852 7.64979 20.8013 7.70134 20.8134L7.85984 20.8535C7.93587 20.8723 7.99386 20.9051 8.0338 20.952C8.07504 20.9989 8.09566 21.0558 8.09566 21.1228C8.09566 21.2112 8.06151 21.2828 7.99321 21.3377C7.92621 21.3927 7.83601 21.4201 7.7226 21.4201ZM8.67012 21.4201C8.57605 21.4201 8.50582 21.3947 8.45943 21.3438C8.41303 21.2929 8.38984 21.2205 8.38984 21.1268V20.5622H8.18688V20.4296H8.38984C8.39242 20.3814 8.39629 20.3339 8.40144 20.287C8.4066 20.2401 8.41175 20.1926 8.4169 20.1443H8.54641V20.4296H8.86148V20.5622H8.54641V21.0966C8.54641 21.1596 8.55865 21.2051 8.58313 21.2333C8.60763 21.2614 8.64757 21.2755 8.70298 21.2755C8.73004 21.2755 8.75775 21.2721 8.78609 21.2654C8.81574 21.2587 8.84538 21.2487 8.87501 21.2353L8.91947 21.3578C8.8821 21.3766 8.84215 21.3913 8.79962 21.402C8.7571 21.4141 8.71394 21.4201 8.67012 21.4201ZM9.6018 20.2066C9.57087 20.2066 9.5451 20.1966 9.52448 20.1765C9.50386 20.1564 9.49355 20.1316 9.49355 20.1021C9.49355 20.0713 9.50386 20.0459 9.52448 20.0258C9.5451 20.0044 9.57087 19.9937 9.6018 19.9937C9.63402 19.9937 9.65978 20.0044 9.67911 20.0258C9.69974 20.0459 9.71004 20.0713 9.71004 20.1021C9.71004 20.1316 9.69974 20.1564 9.67911 20.1765C9.65978 20.1966 9.63402 20.2066 9.6018 20.2066ZM9.52448 21.4V20.4296H9.68105V21.4H9.52448ZM10.3407 21.4201C10.2466 21.4201 10.1764 21.3947 10.13 21.3438C10.0836 21.2929 10.0604 21.2205 10.0604 21.1268V20.5622H9.85744V20.4296H10.0604C10.063 20.3814 10.0669 20.3339 10.072 20.287C10.0772 20.2401 10.0823 20.1926 10.0875 20.1443H10.217V20.4296H10.532V20.5622H10.217V21.0966C10.217 21.1596 10.2292 21.2051 10.2537 21.2333C10.2782 21.2614 10.3181 21.2755 10.3735 21.2755C10.4006 21.2755 10.4283 21.2721 10.4567 21.2654C10.4863 21.2587 10.5159 21.2487 10.5456 21.2353L10.59 21.3578C10.5527 21.3766 10.5127 21.3913 10.4702 21.402C10.4277 21.4141 10.3845 21.4201 10.3407 21.4201ZM11.1895 21.4201C11.0413 21.4201 10.9247 21.3752 10.8396 21.2855C10.7559 21.1944 10.714 21.0719 10.714 20.9178C10.714 20.8187 10.7333 20.731 10.772 20.6546C10.8106 20.5783 10.8635 20.5187 10.9305 20.4758C10.9975 20.4316 11.0729 20.4095 11.1566 20.4095C11.2829 20.4095 11.3815 20.4524 11.4524 20.5381C11.5233 20.6238 11.5587 20.741 11.5587 20.8897C11.5587 20.9018 11.558 20.9131 11.5568 20.9239C11.5568 20.9346 11.5561 20.9433 11.5548 20.95H10.8725C10.8777 21.0545 10.9086 21.1362 10.9653 21.1951C11.0233 21.254 11.1006 21.2835 11.1972 21.2835C11.2423 21.2835 11.2894 21.2761 11.3383 21.2614C11.3886 21.2467 11.4401 21.2252 11.493 21.1971L11.5471 21.3096C11.4298 21.3833 11.3106 21.4201 11.1895 21.4201ZM11.1528 20.5462C11.0819 20.5462 11.022 20.5709 10.973 20.6205C10.924 20.67 10.8925 20.7357 10.8783 20.8174H11.4041C11.3937 20.729 11.3667 20.662 11.3229 20.6165C11.2804 20.5696 11.2236 20.5462 11.1528 20.5462ZM11.7991 21.4V20.6868C11.7991 20.6453 11.7959 20.6011 11.7895 20.5542C11.7843 20.5073 11.7779 20.4685 11.7701 20.4377L11.9132 20.4115C11.9248 20.4557 11.9338 20.5013 11.9402 20.5482C12.0317 20.4557 12.1387 20.4095 12.2611 20.4095C12.3977 20.4095 12.4931 20.4611 12.5472 20.5642C12.591 20.5187 12.6419 20.4819 12.6999 20.4537C12.7592 20.4243 12.8249 20.4095 12.897 20.4095C13.0014 20.4095 13.082 20.441 13.1387 20.504C13.1967 20.5656 13.2256 20.6526 13.2256 20.7651V21.4H13.0691V20.7913C13.0691 20.7149 13.0491 20.656 13.0092 20.6145C12.9705 20.5729 12.9164 20.5522 12.8468 20.5522C12.8004 20.5522 12.7534 20.5616 12.7057 20.5803C12.6593 20.5991 12.6174 20.6252 12.58 20.6587C12.5865 20.6921 12.5897 20.7276 12.5897 20.7651V21.4H12.4331V20.7913C12.4331 20.7149 12.4132 20.656 12.3732 20.6145C12.3346 20.5729 12.2804 20.5522 12.2109 20.5522C12.1168 20.5522 12.0317 20.5837 11.9557 20.6466V21.4H11.7991Z" fill="#3B3331"/>
<path d="M43 23.8818H4V24H43V23.8818Z" fill="#E2DEDE"/>
<path d="M43 24H4V30.5H43V24Z" fill="white"/>
<path d="M6.00287 26.5419H6.16717V27.7513H6.81084V27.9H6.00287V26.5419ZM7.06103 26.7066C7.0301 26.7066 7.00434 26.6966 6.98371 26.6765C6.9631 26.6564 6.95279 26.6316 6.95279 26.6021C6.95279 26.5713 6.9631 26.5459 6.98371 26.5258C7.00434 26.5044 7.0301 26.4937 7.06103 26.4937C7.09325 26.4937 7.11902 26.5044 7.13835 26.5258C7.15897 26.5459 7.16928 26.5713 7.16928 26.6021C7.16928 26.6316 7.15897 26.6564 7.13835 26.6765C7.11902 26.6966 7.09325 26.7066 7.06103 26.7066ZM6.98371 27.9V26.9296H7.14028V27.9H6.98371ZM7.7226 27.9201C7.66074 27.9201 7.5976 27.9114 7.53317 27.894C7.46875 27.8766 7.40882 27.8505 7.35341 27.8156L7.40753 27.6991C7.50934 27.7581 7.61178 27.7875 7.71487 27.7875C7.78445 27.7875 7.83857 27.7742 7.87723 27.7473C7.91719 27.7192 7.93716 27.681 7.93716 27.6328C7.93716 27.5592 7.89206 27.511 7.80185 27.4882L7.64528 27.448C7.56281 27.4279 7.50161 27.3957 7.46165 27.3515C7.42299 27.3073 7.40366 27.2531 7.40366 27.1888C7.40366 27.1044 7.4333 27.0368 7.49258 26.9859C7.55186 26.9349 7.63368 26.9095 7.73806 26.9095C7.85404 26.9095 7.96035 26.9404 8.057 27.002L7.99901 27.1125C7.91139 27.0655 7.82698 27.0421 7.74579 27.0421C7.68652 27.0421 7.64078 27.0542 7.60855 27.0783C7.57634 27.1024 7.56023 27.1366 7.56023 27.1808C7.56023 27.2156 7.57054 27.2438 7.59116 27.2651C7.61307 27.2852 7.64979 27.3013 7.70134 27.3134L7.85984 27.3535C7.93587 27.3723 7.99386 27.4051 8.0338 27.452C8.07504 27.4989 8.09566 27.5558 8.09566 27.6228C8.09566 27.7112 8.06151 27.7828 7.99321 27.8377C7.92621 27.8927 7.83601 27.9201 7.7226 27.9201ZM8.67012 27.9201C8.57605 27.9201 8.50582 27.8947 8.45943 27.8438C8.41303 27.7928 8.38984 27.7205 8.38984 27.6268V27.0622H8.18688V26.9296H8.38984C8.39242 26.8814 8.39629 26.8339 8.40144 26.787C8.4066 26.7401 8.41175 26.6926 8.4169 26.6443H8.54641V26.9296H8.86148V27.0622H8.54641V27.5966C8.54641 27.6596 8.55865 27.7051 8.58313 27.7333C8.60763 27.7614 8.64757 27.7755 8.70298 27.7755C8.73004 27.7755 8.75775 27.7721 8.78609 27.7654C8.81574 27.7587 8.84538 27.7486 8.87501 27.7353L8.91947 27.8578C8.8821 27.8766 8.84215 27.8913 8.79962 27.902C8.7571 27.9141 8.71394 27.9201 8.67012 27.9201ZM9.6018 26.7066C9.57087 26.7066 9.5451 26.6966 9.52448 26.6765C9.50386 26.6564 9.49355 26.6316 9.49355 26.6021C9.49355 26.5713 9.50386 26.5459 9.52448 26.5258C9.5451 26.5044 9.57087 26.4937 9.6018 26.4937C9.63402 26.4937 9.65978 26.5044 9.67911 26.5258C9.69974 26.5459 9.71004 26.5713 9.71004 26.6021C9.71004 26.6316 9.69974 26.6564 9.67911 26.6765C9.65978 26.6966 9.63402 26.7066 9.6018 26.7066ZM9.52448 27.9V26.9296H9.68105V27.9H9.52448ZM10.3407 27.9201C10.2466 27.9201 10.1764 27.8947 10.13 27.8438C10.0836 27.7928 10.0604 27.7205 10.0604 27.6268V27.0622H9.85744V26.9296H10.0604C10.063 26.8814 10.0669 26.8339 10.072 26.787C10.0772 26.7401 10.0823 26.6926 10.0875 26.6443H10.217V26.9296H10.532V27.0622H10.217V27.5966C10.217 27.6596 10.2292 27.7051 10.2537 27.7333C10.2782 27.7614 10.3181 27.7755 10.3735 27.7755C10.4006 27.7755 10.4283 27.7721 10.4567 27.7654C10.4863 27.7587 10.5159 27.7486 10.5456 27.7353L10.59 27.8578C10.5527 27.8766 10.5127 27.8913 10.4702 27.902C10.4277 27.9141 10.3845 27.9201 10.3407 27.9201ZM11.1895 27.9201C11.0413 27.9201 10.9247 27.8752 10.8396 27.7855C10.7559 27.6944 10.714 27.5718 10.714 27.4178C10.714 27.3187 10.7333 27.231 10.772 27.1546C10.8106 27.0783 10.8635 27.0187 10.9305 26.9758C10.9975 26.9316 11.0729 26.9095 11.1566 26.9095C11.2829 26.9095 11.3815 26.9524 11.4524 27.0381C11.5233 27.1238 11.5587 27.241 11.5587 27.3897C11.5587 27.4018 11.558 27.4131 11.5568 27.4239C11.5568 27.4346 11.5561 27.4432 11.5548 27.45H10.8725C10.8777 27.5545 10.9086 27.6361 10.9653 27.6951C11.0233 27.7541 11.1006 27.7835 11.1972 27.7835C11.2423 27.7835 11.2894 27.7762 11.3383 27.7614C11.3886 27.7466 11.4401 27.7252 11.493 27.6971L11.5471 27.8096C11.4298 27.8832 11.3106 27.9201 11.1895 27.9201ZM11.1528 27.0462C11.0819 27.0462 11.022 27.071 10.973 27.1205C10.924 27.17 10.8925 27.2357 10.8783 27.3174H11.4041C11.3937 27.229 11.3667 27.162 11.3229 27.1165C11.2804 27.0696 11.2236 27.0462 11.1528 27.0462ZM11.7991 27.9V27.1868C11.7991 27.1453 11.7959 27.1011 11.7895 27.0542C11.7843 27.0073 11.7779 26.9685 11.7701 26.9377L11.9132 26.9115C11.9248 26.9557 11.9338 27.0012 11.9402 27.0482C12.0317 26.9557 12.1387 26.9095 12.2611 26.9095C12.3977 26.9095 12.4931 26.9611 12.5472 27.0642C12.591 27.0187 12.6419 26.9819 12.6999 26.9537C12.7592 26.9243 12.8249 26.9095 12.897 26.9095C13.0014 26.9095 13.082 26.941 13.1387 27.004C13.1967 27.0655 13.2256 27.1526 13.2256 27.2651V27.9H13.0691V27.2913C13.0691 27.2149 13.0491 27.1559 13.0092 27.1145C12.9705 27.073 12.9164 27.0522 12.8468 27.0522C12.8004 27.0522 12.7534 27.0615 12.7057 27.0803C12.6593 27.0991 12.6174 27.1252 12.58 27.1587C12.5865 27.1921 12.5897 27.2277 12.5897 27.2651V27.9H12.4331V27.2913C12.4331 27.2149 12.4132 27.1559 12.3732 27.1145C12.3346 27.073 12.2804 27.0522 12.2109 27.0522C12.1168 27.0522 12.0317 27.0836 11.9557 27.1466V27.9H11.7991Z" fill="#3B3331"/>
<path d="M43 30.3818H4V30.5H43V30.3818Z" fill="#E2DEDE"/>
<path d="M43 30.5H4V37H43V30.5Z" fill="white"/>
<path d="M6.00287 33.0419H6.16717V34.2513H6.81084V34.4H6.00287V33.0419ZM7.06103 33.2066C7.0301 33.2066 7.00434 33.1966 6.98371 33.1765C6.9631 33.1564 6.95279 33.1316 6.95279 33.1021C6.95279 33.0713 6.9631 33.0459 6.98371 33.0258C7.00434 33.0044 7.0301 32.9937 7.06103 32.9937C7.09325 32.9937 7.11902 33.0044 7.13835 33.0258C7.15897 33.0459 7.16928 33.0713 7.16928 33.1021C7.16928 33.1316 7.15897 33.1564 7.13835 33.1765C7.11902 33.1966 7.09325 33.2066 7.06103 33.2066ZM6.98371 34.4V33.4296H7.14028V34.4H6.98371ZM7.7226 34.4201C7.66074 34.4201 7.5976 34.4114 7.53317 34.394C7.46875 34.3766 7.40882 34.3505 7.35341 34.3156L7.40753 34.1991C7.50934 34.2581 7.61178 34.2875 7.71487 34.2875C7.78445 34.2875 7.83857 34.2742 7.87723 34.2473C7.91719 34.2192 7.93716 34.181 7.93716 34.1328C7.93716 34.0592 7.89206 34.011 7.80185 33.9882L7.64528 33.948C7.56281 33.9279 7.50161 33.8957 7.46165 33.8515C7.42299 33.8073 7.40366 33.7531 7.40366 33.6888C7.40366 33.6044 7.4333 33.5368 7.49258 33.4859C7.55186 33.4349 7.63368 33.4095 7.73806 33.4095C7.85404 33.4095 7.96035 33.4404 8.057 33.502L7.99901 33.6125C7.91139 33.5655 7.82698 33.5421 7.74579 33.5421C7.68652 33.5421 7.64078 33.5542 7.60855 33.5783C7.57634 33.6024 7.56023 33.6366 7.56023 33.6808C7.56023 33.7156 7.57054 33.7438 7.59116 33.7651C7.61307 33.7852 7.64979 33.8013 7.70134 33.8134L7.85984 33.8535C7.93587 33.8723 7.99386 33.9051 8.0338 33.952C8.07504 33.9989 8.09566 34.0558 8.09566 34.1228C8.09566 34.2112 8.06151 34.2828 7.99321 34.3377C7.92621 34.3927 7.83601 34.4201 7.7226 34.4201ZM8.67012 34.4201C8.57605 34.4201 8.50582 34.3947 8.45943 34.3438C8.41303 34.2928 8.38984 34.2205 8.38984 34.1268V33.5622H8.18688V33.4296H8.38984C8.39242 33.3814 8.39629 33.3339 8.40144 33.287C8.4066 33.2401 8.41175 33.1926 8.4169 33.1443H8.54641V33.4296H8.86148V33.5622H8.54641V34.0966C8.54641 34.1596 8.55865 34.2051 8.58313 34.2333C8.60763 34.2614 8.64757 34.2755 8.70298 34.2755C8.73004 34.2755 8.75775 34.2721 8.78609 34.2654C8.81574 34.2587 8.84538 34.2486 8.87501 34.2353L8.91947 34.3578C8.8821 34.3766 8.84215 34.3913 8.79962 34.402C8.7571 34.4141 8.71394 34.4201 8.67012 34.4201ZM9.6018 33.2066C9.57087 33.2066 9.5451 33.1966 9.52448 33.1765C9.50386 33.1564 9.49355 33.1316 9.49355 33.1021C9.49355 33.0713 9.50386 33.0459 9.52448 33.0258C9.5451 33.0044 9.57087 32.9937 9.6018 32.9937C9.63402 32.9937 9.65978 33.0044 9.67911 33.0258C9.69974 33.0459 9.71004 33.0713 9.71004 33.1021C9.71004 33.1316 9.69974 33.1564 9.67911 33.1765C9.65978 33.1966 9.63402 33.2066 9.6018 33.2066ZM9.52448 34.4V33.4296H9.68105V34.4H9.52448ZM10.3407 34.4201C10.2466 34.4201 10.1764 34.3947 10.13 34.3438C10.0836 34.2928 10.0604 34.2205 10.0604 34.1268V33.5622H9.85744V33.4296H10.0604C10.063 33.3814 10.0669 33.3339 10.072 33.287C10.0772 33.2401 10.0823 33.1926 10.0875 33.1443H10.217V33.4296H10.532V33.5622H10.217V34.0966C10.217 34.1596 10.2292 34.2051 10.2537 34.2333C10.2782 34.2614 10.3181 34.2755 10.3735 34.2755C10.4006 34.2755 10.4283 34.2721 10.4567 34.2654C10.4863 34.2587 10.5159 34.2486 10.5456 34.2353L10.59 34.3578C10.5527 34.3766 10.5127 34.3913 10.4702 34.402C10.4277 34.4141 10.3845 34.4201 10.3407 34.4201ZM11.1895 34.4201C11.0413 34.4201 10.9247 34.3752 10.8396 34.2855C10.7559 34.1944 10.714 34.0718 10.714 33.9178C10.714 33.8187 10.7333 33.731 10.772 33.6546C10.8106 33.5783 10.8635 33.5187 10.9305 33.4758C10.9975 33.4316 11.0729 33.4095 11.1566 33.4095C11.2829 33.4095 11.3815 33.4524 11.4524 33.5381C11.5233 33.6238 11.5587 33.741 11.5587 33.8897C11.5587 33.9018 11.558 33.9131 11.5568 33.9239C11.5568 33.9346 11.5561 33.9432 11.5548 33.95H10.8725C10.8777 34.0545 10.9086 34.1361 10.9653 34.1951C11.0233 34.2541 11.1006 34.2835 11.1972 34.2835C11.2423 34.2835 11.2894 34.2762 11.3383 34.2614C11.3886 34.2466 11.4401 34.2252 11.493 34.1971L11.5471 34.3096C11.4298 34.3832 11.3106 34.4201 11.1895 34.4201ZM11.1528 33.5462C11.0819 33.5462 11.022 33.571 10.973 33.6205C10.924 33.67 10.8925 33.7357 10.8783 33.8174H11.4041C11.3937 33.729 11.3667 33.662 11.3229 33.6165C11.2804 33.5696 11.2236 33.5462 11.1528 33.5462ZM11.7991 34.4V33.6868C11.7991 33.6453 11.7959 33.6011 11.7895 33.5542C11.7843 33.5073 11.7779 33.4685 11.7701 33.4377L11.9132 33.4115C11.9248 33.4557 11.9338 33.5012 11.9402 33.5482C12.0317 33.4557 12.1387 33.4095 12.2611 33.4095C12.3977 33.4095 12.4931 33.4611 12.5472 33.5642C12.591 33.5187 12.6419 33.4819 12.6999 33.4537C12.7592 33.4243 12.8249 33.4095 12.897 33.4095C13.0014 33.4095 13.082 33.441 13.1387 33.504C13.1967 33.5655 13.2256 33.6526 13.2256 33.7651V34.4H13.0691V33.7913C13.0691 33.7149 13.0491 33.6559 13.0092 33.6145C12.9705 33.573 12.9164 33.5522 12.8468 33.5522C12.8004 33.5522 12.7534 33.5615 12.7057 33.5803C12.6593 33.5991 12.6174 33.6252 12.58 33.6587C12.5865 33.6921 12.5897 33.7277 12.5897 33.7651V34.4H12.4331V33.7913C12.4331 33.7149 12.4132 33.6559 12.3732 33.6145C12.3346 33.573 12.2804 33.5522 12.2109 33.5522C12.1168 33.5522 12.0317 33.5836 11.9557 33.6466V34.4H11.7991Z" fill="#3B3331"/>
<path d="M43 36.8818H4V37H43V36.8818Z" fill="#E2DEDE"/>
</g>
</g>
<defs>
<clipPath id="clip0_1356_188195">
<rect width="48" height="48" rx="5" fill="white"/>
</clipPath>
<clipPath id="clip1_1356_188195">
<rect width="39" height="26" fill="white" transform="translate(4 11)"/>
</clipPath>
</defs>
</svg>
