<svg width="48" height="48" viewBox="0 0 48 48" fill="none" xmlns="http://www.w3.org/2000/svg">
<g clip-path="url(#clip0_1356_188196)">
<rect width="48" height="48" rx="2" fill="#383838"/>
<g clip-path="url(#clip1_1356_188196)">
<path d="M43 21H5V26.4286H43V21Z" fill="#D71E28"/>
<path fill-rule="evenodd" clip-rule="evenodd" d="M18.351 24.0313H18.545V24.7142H16.9253V24.4656H17.1544V22.9627H16.7827L16.3111 24.7142H15.9365L15.5538 23.2627L15.1603 24.7142H14.7857L14.3114 22.9627H14.0957V22.7142H14.9743V22.9627H14.721L15.0363 24.1684L15.4136 22.7142H15.8017L16.1871 24.1713L16.497 22.9627H16.2329V22.7142H18.5182V23.3627H18.3241L18.3052 23.2856C18.2459 23.0456 18.1839 22.9627 18.0033 22.9627H17.556V23.5656H18.0977C18.1182 23.6079 18.1284 23.6551 18.1273 23.7027C18.1287 23.7522 18.1185 23.8013 18.0977 23.8456H17.556V24.4656H18.0222C18.1974 24.4656 18.2755 24.3856 18.3294 24.1313L18.351 24.0313ZM20.0541 24.1313C20.0002 24.3856 19.9247 24.4656 19.7468 24.4656H19.3722V22.9627H19.6283V22.7142H18.7416V22.9627H18.9707V24.4656H18.7416V24.7142H20.2697V24.0313H20.0756L20.0541 24.1313ZM21.7518 24.1313C21.6979 24.3856 21.6224 24.4656 21.4446 24.4656H21.07V22.9627H21.326V22.7142H20.4393V22.9627H20.6684V24.4656H20.4393V24.7142H21.9674V24.0313H21.7734L21.7518 24.1313ZM23.172 23.5427L22.8297 23.4599C22.6303 23.4113 22.5467 23.3284 22.5467 23.1884C22.5467 23.0199 22.6734 22.9142 22.9213 22.9142C23.1693 22.9142 23.3148 23.0084 23.3714 23.2313L23.3956 23.3284H23.5897V22.8342C23.3779 22.7187 23.1433 22.658 22.9051 22.657C22.4443 22.657 22.1478 22.8913 22.1478 23.2684C22.1478 23.5599 22.3203 23.7742 22.6518 23.8513L22.9941 23.9313C23.2124 23.9827 23.2932 24.0742 23.2932 24.2256C23.2932 24.4113 23.1612 24.5142 22.8971 24.5142C22.5979 24.5142 22.4443 24.3884 22.3769 24.1484L22.3419 24.0256H22.1478V24.5856C22.3944 24.7158 22.6674 24.7796 22.9429 24.7713C23.3956 24.7713 23.6921 24.5313 23.6921 24.157C23.6921 23.8427 23.5115 23.6256 23.172 23.5427ZM25.7697 22.9627C25.9503 22.9627 26.0123 23.0456 26.0715 23.2856L26.0904 23.3627H26.2845V22.7142H24.6593V22.9627H24.8884V24.4656H24.6593V24.7142H25.5595V24.4656H25.29V23.8827H25.8452C25.866 23.8384 25.8762 23.7894 25.8748 23.7399C25.8759 23.6922 25.8656 23.6451 25.8452 23.6027H25.29V22.9627H25.7697ZM29.8767 24.7227C29.8069 24.7323 29.7367 24.7371 29.6665 24.737C29.405 24.737 29.2784 24.6227 29.2487 24.357L29.2379 24.257C29.2056 23.9684 29.1167 23.857 28.8202 23.857H28.672V24.4656H28.928V24.7142H27.233V24.4656H27.454L27.33 24.1084H26.6293L26.5053 24.4656H26.7317V24.7142H26.0175V24.4656H26.2062L26.8664 22.7142H27.2249L27.8986 24.4656H28.2704V22.9627H28.0413V22.7142H29.1248C29.5101 22.7142 29.7608 22.917 29.7608 23.2427C29.7589 23.3792 29.7058 23.5093 29.6132 23.6042C29.5207 23.6991 29.3963 23.751 29.2676 23.7484V23.757C29.3658 23.7557 29.4606 23.7965 29.5301 23.8702C29.5996 23.9439 29.638 24.0442 29.6368 24.1484L29.6476 24.2542C29.6638 24.4199 29.6961 24.4942 29.8201 24.4942C29.8391 24.494 29.8579 24.492 29.8767 24.4884C29.909 24.5628 29.909 24.6484 29.8767 24.7227ZM27.2438 23.8656L26.9796 23.1084L26.7155 23.8656H27.2438ZM29.3538 23.2827C29.3538 23.0742 29.2326 22.9627 28.99 22.9627H28.672V23.6056H28.99C29.2299 23.6056 29.3538 23.4884 29.3538 23.2827ZM30.9929 23.9427H31.3135V24.4484C31.2127 24.4924 31.1047 24.5147 30.9955 24.5142C30.6074 24.5142 30.4054 24.2199 30.4054 23.7113C30.4054 23.2027 30.6076 22.9084 30.9741 22.9084C31.1887 22.8967 31.3833 23.0417 31.4457 23.2599L31.4754 23.3399H31.6694V22.8284C31.4477 22.7107 31.203 22.65 30.9552 22.6513C30.3623 22.6513 29.9634 23.0713 29.9634 23.7142C29.9634 24.3599 30.3515 24.7713 30.9552 24.7713C31.2188 24.7639 31.4771 24.6915 31.7097 24.5599V23.6684H30.9929C30.9721 23.7097 30.9618 23.756 30.9632 23.8027C30.9616 23.8513 30.9718 23.8996 30.9929 23.9427ZM33.9633 23.7113C33.9633 24.2983 33.5144 24.7742 32.9607 24.7742C32.407 24.7742 31.9582 24.2983 31.9582 23.7113C31.9582 23.1243 32.407 22.6484 32.9607 22.6484C33.5144 22.6484 33.9633 23.1243 33.9633 23.7113ZM33.5213 23.7113C33.5213 23.2056 33.3246 22.9113 32.9607 22.9113C32.5969 22.9113 32.4002 23.2056 32.4002 23.7113C32.4002 24.2199 32.5942 24.5113 32.9607 24.5113C33.3273 24.5113 33.5213 24.2199 33.5213 23.7113Z" fill="white"/>
<path fill-rule="evenodd" clip-rule="evenodd" d="M36.6667 24.8571V24.5714H40.7092V24.8571H36.6667ZM36.6667 23.8571V23.5714H40.7092V23.8571H36.6667ZM36.6667 22.8571V22.5714H40.7092V22.8571H36.6667Z" fill="white"/>
<path d="M43 26.4286H5V27H43V26.4286Z" fill="#FFCD41"/>
</g>
</g>
<defs>
<clipPath id="clip0_1356_188196">
<rect width="48" height="48" rx="5" fill="white"/>
</clipPath>
<clipPath id="clip1_1356_188196">
<rect width="38" height="6" fill="white" transform="translate(5 21)"/>
</clipPath>
</defs>
</svg>
