<svg width="48" height="48" viewBox="0 0 48 48" fill="none" xmlns="http://www.w3.org/2000/svg">
<g clip-path="url(#clip0_1356_188190)">
<rect width="48" height="48" rx="2" fill="#383838"/>
<g clip-path="url(#clip1_1356_188190)">
<path d="M5.55093 15.3205V13.7519C5.63804 13.7472 5.71281 13.7441 5.77523 13.7426C5.83911 13.741 5.89791 13.7403 5.95162 13.7403C6.15052 13.7403 6.30078 13.7797 6.4024 13.8586C6.50547 13.9375 6.55701 14.0566 6.55701 14.216C6.55701 14.3103 6.53668 14.3938 6.49603 14.4666C6.45684 14.5377 6.39224 14.5934 6.30222 14.6336C6.21221 14.6739 6.09244 14.694 5.94291 14.694C5.90807 14.694 5.86742 14.694 5.82096 14.694C5.77596 14.6924 5.7266 14.6893 5.67288 14.6847V15.3205H5.55093ZM5.96033 13.8516C5.92259 13.8516 5.88194 13.8524 5.83838 13.854C5.79483 13.8555 5.73966 13.8578 5.67288 13.8609V14.5733C5.7266 14.5764 5.77596 14.5787 5.82096 14.5803C5.86597 14.5818 5.90516 14.5826 5.93856 14.5826C6.11712 14.5826 6.24416 14.5509 6.31964 14.4874C6.39513 14.424 6.43288 14.3343 6.43288 14.2183C6.43288 14.0961 6.39296 14.0048 6.31311 13.9445C6.23327 13.8826 6.11567 13.8516 5.96033 13.8516ZM7.21686 15.3437C7.11087 15.3437 7.01941 15.3205 6.94247 15.2741C6.86698 15.2277 6.80818 15.1619 6.76608 15.0768C6.72543 14.9918 6.70511 14.8912 6.70511 14.7752C6.70511 14.6638 6.72616 14.5648 6.76826 14.4782C6.81036 14.39 6.8677 14.3211 6.9403 14.2716C7.01288 14.2206 7.09563 14.1951 7.18855 14.1951C7.32356 14.1951 7.42881 14.2438 7.50431 14.3413C7.58124 14.4372 7.61972 14.5694 7.61972 14.7381V14.7775H6.8227C6.82415 14.9183 6.85972 15.0304 6.92941 15.114C7.00054 15.1975 7.09709 15.2393 7.21904 15.2393C7.32501 15.2393 7.4397 15.2029 7.5631 15.1302L7.60666 15.2207C7.48325 15.3027 7.35332 15.3437 7.21686 15.3437ZM7.18202 14.2972C7.08765 14.2972 7.00852 14.3328 6.94465 14.4039C6.88077 14.4735 6.8423 14.5663 6.82924 14.6824H7.50431C7.4956 14.5571 7.46293 14.4619 7.40631 14.3969C7.35114 14.3304 7.27637 14.2972 7.18202 14.2972ZM7.9106 15.3205V14.5014C7.9106 14.4565 7.90698 14.407 7.89971 14.3529C7.89391 14.2987 7.88665 14.2546 7.87794 14.2206L7.98247 14.1974C7.99989 14.267 8.01078 14.3312 8.01513 14.39C8.05579 14.3281 8.1037 14.2801 8.15886 14.2461C8.21403 14.2121 8.27355 14.1951 8.33742 14.1951C8.36211 14.1951 8.38679 14.1974 8.41146 14.202C8.43759 14.2051 8.46301 14.2105 8.48768 14.2183L8.47244 14.3436C8.44921 14.3358 8.42599 14.3297 8.40275 14.325C8.37953 14.3204 8.3534 14.3181 8.32436 14.3181C8.26484 14.3181 8.20894 14.3343 8.15668 14.3668C8.10441 14.3977 8.06159 14.4395 8.0282 14.4921V15.3205H7.9106ZM8.99553 15.3437C8.93311 15.3437 8.86705 15.3352 8.79736 15.3182C8.72914 15.2996 8.66308 15.271 8.5992 15.2323L8.64275 15.1372C8.70083 15.1712 8.75963 15.1967 8.81914 15.2137C8.88012 15.2308 8.93819 15.2393 8.99335 15.2393C9.08046 15.2393 9.1487 15.2199 9.19805 15.1813C9.24887 15.1426 9.27427 15.09 9.27427 15.0235C9.27427 14.9755 9.25976 14.9345 9.23072 14.9005C9.20169 14.8649 9.16031 14.8402 9.10659 14.8262L8.9106 14.7752C8.82205 14.752 8.75745 14.7179 8.71679 14.6731C8.67615 14.6267 8.65582 14.5679 8.65582 14.4967C8.65582 14.4039 8.68703 14.3304 8.74946 14.2763C8.81189 14.2221 8.89899 14.1951 9.01077 14.1951C9.13127 14.1951 9.24233 14.2276 9.34395 14.2925L9.29822 14.3807C9.20531 14.3266 9.1095 14.2995 9.01077 14.2995C8.93384 14.2995 8.87431 14.3165 8.83221 14.3505C8.79156 14.383 8.77123 14.4302 8.77123 14.4921C8.77123 14.5385 8.7843 14.5756 8.81043 14.6035C8.83802 14.6298 8.88375 14.6507 8.94762 14.6661L9.14143 14.7172C9.22274 14.7388 9.28516 14.776 9.32871 14.8285C9.37226 14.8811 9.39404 14.9446 9.39404 15.0188C9.39404 15.1163 9.35775 15.1952 9.28516 15.2555C9.21258 15.3143 9.11603 15.3437 8.99553 15.3437ZM10.0961 15.3437C9.99451 15.3437 9.90595 15.3197 9.83046 15.2718C9.75496 15.2238 9.69617 15.1573 9.65407 15.0722C9.61197 14.9856 9.59092 14.885 9.59092 14.7705C9.59092 14.6561 9.61197 14.5555 9.65407 14.4689C9.69617 14.3822 9.75496 14.315 9.83046 14.267C9.90595 14.219 9.99451 14.1951 10.0961 14.1951C10.1978 14.1951 10.2863 14.219 10.3618 14.267C10.4373 14.315 10.4961 14.3822 10.5382 14.4689C10.5803 14.5555 10.6014 14.6561 10.6014 14.7705C10.6014 14.885 10.5803 14.9856 10.5382 15.0722C10.4961 15.1573 10.4373 15.2238 10.3618 15.2718C10.2863 15.3197 10.1978 15.3437 10.0961 15.3437ZM10.0961 15.2369C10.2152 15.2369 10.3088 15.1936 10.3771 15.107C10.4467 15.0204 10.4816 14.9082 10.4816 14.7705C10.4816 14.6313 10.4467 14.5184 10.3771 14.4318C10.3088 14.3451 10.2152 14.3018 10.0961 14.3018C9.97854 14.3018 9.8849 14.3451 9.81522 14.4318C9.74553 14.5184 9.71069 14.6313 9.71069 14.7705C9.71069 14.8618 9.72594 14.943 9.75642 15.0142C9.78836 15.0838 9.83336 15.1387 9.89144 15.1789C9.9495 15.2176 10.0177 15.2369 10.0961 15.2369ZM10.8985 15.3205V14.5014C10.8985 14.4565 10.8949 14.407 10.8876 14.3529C10.8818 14.2987 10.8745 14.2546 10.8658 14.2206L10.9704 14.1974C10.9849 14.2515 10.995 14.3041 11.0008 14.3552C11.0531 14.3026 11.1112 14.2631 11.1751 14.2368C11.2389 14.209 11.305 14.1951 11.3732 14.1951C11.4894 14.1951 11.5794 14.2307 11.6432 14.3018C11.7071 14.3714 11.7391 14.4704 11.7391 14.5988V15.3205H11.6215V14.6127C11.6215 14.5153 11.5975 14.4395 11.5496 14.3853C11.5017 14.3312 11.4342 14.3041 11.3471 14.3041C11.289 14.3041 11.2302 14.3165 11.1707 14.3413C11.1126 14.366 11.0611 14.3993 11.0161 14.441V15.3205H10.8985ZM12.0436 14.2995C12.0988 14.2655 12.1598 14.2399 12.2265 14.2229C12.2948 14.2043 12.3608 14.1951 12.4247 14.1951C12.5481 14.1951 12.6432 14.2291 12.71 14.2972C12.7768 14.3637 12.8102 14.4557 12.8102 14.5733V15.0304C12.8102 15.0846 12.813 15.1387 12.8189 15.1929C12.8247 15.247 12.8326 15.2888 12.8428 15.3182L12.7383 15.339C12.7238 15.288 12.7136 15.2354 12.7078 15.1813C12.657 15.2338 12.5996 15.2741 12.5358 15.3019C12.4719 15.3298 12.4029 15.3437 12.3289 15.3437C12.2273 15.3437 12.146 15.3166 12.085 15.2625C12.024 15.2083 11.9935 15.1333 11.9935 15.0374C11.9935 14.9446 12.0291 14.8695 12.1002 14.8123C12.1728 14.7551 12.2795 14.7179 12.4204 14.7009L12.6926 14.6708V14.5826C12.6926 14.4913 12.6693 14.4217 12.6229 14.3737C12.5764 14.3242 12.5082 14.2995 12.4182 14.2995C12.3645 14.2995 12.3078 14.308 12.2483 14.325C12.1902 14.342 12.1358 14.3652 12.085 14.3946L12.0436 14.2995ZM12.1111 15.0327C12.1111 15.0993 12.1329 15.1503 12.1765 15.1859C12.22 15.2215 12.2795 15.2393 12.355 15.2393C12.4189 15.2393 12.4792 15.2269 12.5358 15.2021C12.5924 15.1758 12.6447 15.1387 12.6926 15.0908V14.7682L12.4312 14.8007C12.3224 14.8131 12.2418 14.8394 12.1895 14.8796C12.1373 14.9198 12.1111 14.9709 12.1111 15.0327ZM13.2134 15.339C13.1989 15.3004 13.1865 15.2509 13.1763 15.1905C13.1676 15.1302 13.1633 15.0745 13.1633 15.0235V13.6846H13.2809V15.0095C13.2809 15.0683 13.2845 15.1256 13.2918 15.1813C13.299 15.2369 13.3092 15.2818 13.3222 15.3158L13.2134 15.339ZM14.8279 15.3553C14.674 15.3553 14.5397 15.3236 14.425 15.2602C14.3118 15.1967 14.224 15.1055 14.1615 14.9863C14.0991 14.8672 14.0679 14.7241 14.0679 14.5571C14.0679 14.3822 14.1006 14.2322 14.1659 14.1069C14.2312 13.9816 14.322 13.8857 14.4381 13.8192C14.5557 13.7511 14.69 13.7171 14.841 13.7171C14.9252 13.7171 15.0043 13.7287 15.0783 13.7519C15.1524 13.7735 15.2206 13.8052 15.283 13.847L15.2242 13.9491C15.1139 13.8718 14.9869 13.8331 14.8431 13.8331C14.7168 13.8331 14.6043 13.8625 14.5056 13.9213C14.4083 13.9785 14.3314 14.0613 14.2748 14.1695C14.2196 14.2778 14.192 14.407 14.192 14.5571C14.192 14.7009 14.2189 14.8239 14.2726 14.926C14.3278 15.0266 14.4033 15.1039 14.4991 15.1581C14.5963 15.2122 14.7081 15.2393 14.8344 15.2393C14.968 15.2393 15.0863 15.2083 15.1894 15.1464V14.6429H14.8257V14.5315H15.3113V15.2045C15.1821 15.305 15.021 15.3553 14.8279 15.3553ZM15.7664 14.2183V14.9144C15.7664 15.0165 15.7911 15.0954 15.8404 15.1511C15.8912 15.2068 15.9602 15.2346 16.0473 15.2346C16.1024 15.2346 16.1576 15.223 16.2128 15.1998C16.2694 15.1766 16.3195 15.1457 16.3631 15.107V14.2183H16.4785V15.0351C16.4785 15.0799 16.4813 15.1294 16.4872 15.1836C16.4944 15.2377 16.5031 15.2818 16.5133 15.3158L16.4045 15.339C16.3914 15.288 16.3819 15.24 16.3761 15.1952C16.3253 15.2431 16.2701 15.2803 16.2106 15.3066C16.1511 15.3313 16.0872 15.3437 16.019 15.3437C15.9042 15.3437 15.8143 15.3089 15.749 15.2393C15.6836 15.1681 15.651 15.0652 15.651 14.9306V14.2183H15.7664ZM16.9097 13.9166C16.8835 13.9166 16.8618 13.9081 16.8443 13.8911C16.8269 13.8725 16.8182 13.8509 16.8182 13.8261C16.8182 13.7998 16.8269 13.7782 16.8443 13.7611C16.8618 13.7426 16.8835 13.7333 16.9097 13.7333C16.9372 13.7333 16.959 13.7426 16.975 13.7611C16.9924 13.7782 17.0011 13.7998 17.0011 13.8261C17.0011 13.8509 16.9924 13.8725 16.975 13.8911C16.959 13.9081 16.9372 13.9166 16.9097 13.9166ZM16.8509 15.3205V14.2183H16.9685V15.3205H16.8509ZM17.2616 14.7775C17.2616 14.663 17.2819 14.5617 17.3225 14.4735C17.3633 14.3853 17.4213 14.3173 17.4968 14.2693C17.5737 14.2198 17.6644 14.1951 17.769 14.1951C17.8837 14.1951 17.9846 14.2276 18.0717 14.2925V13.6846H18.1893V15.0351C18.1893 15.083 18.1922 15.1341 18.198 15.1882C18.2038 15.2424 18.2126 15.2849 18.2241 15.3158L18.1174 15.339C18.1087 15.3112 18.1015 15.2834 18.0956 15.2555C18.0898 15.2277 18.0855 15.2006 18.0826 15.1743C18.0405 15.2284 17.9883 15.2702 17.9258 15.2996C17.8648 15.329 17.801 15.3437 17.7341 15.3437C17.5876 15.3437 17.4722 15.2926 17.3879 15.1905C17.3037 15.0884 17.2616 14.9508 17.2616 14.7775ZM17.3813 14.7775C17.3813 14.9229 17.414 15.0358 17.4793 15.1163C17.5462 15.1967 17.6391 15.2369 17.7581 15.2369C17.8206 15.2369 17.88 15.2215 17.9366 15.1905C17.9933 15.1581 18.0383 15.1171 18.0717 15.0676V14.3993C18.0238 14.3652 17.9744 14.3405 17.9236 14.325C17.8728 14.3095 17.8249 14.3018 17.7799 14.3018C17.6551 14.3018 17.5571 14.3459 17.4859 14.4341C17.4162 14.5207 17.3813 14.6352 17.3813 14.7775ZM18.5127 14.2995C18.5679 14.2655 18.6289 14.2399 18.6957 14.2229C18.7639 14.2043 18.83 14.1951 18.8938 14.1951C19.0173 14.1951 19.1124 14.2291 19.1791 14.2972C19.246 14.3637 19.2793 14.4557 19.2793 14.5733V15.0304C19.2793 15.0846 19.2822 15.1387 19.288 15.1929C19.2939 15.247 19.3018 15.2888 19.3119 15.3182L19.2074 15.339C19.1929 15.288 19.1828 15.2354 19.1769 15.1813C19.1262 15.2338 19.0688 15.2741 19.0049 15.3019C18.9411 15.3298 18.8721 15.3437 18.798 15.3437C18.6964 15.3437 18.6151 15.3166 18.5541 15.2625C18.4931 15.2083 18.4627 15.1333 18.4627 15.0374C18.4627 14.9446 18.4983 14.8695 18.5694 14.8123C18.642 14.7551 18.7487 14.7179 18.8895 14.7009L19.1617 14.6708V14.5826C19.1617 14.4913 19.1385 14.4217 19.092 14.3737C19.0456 14.3242 18.9773 14.2995 18.8873 14.2995C18.8336 14.2995 18.777 14.308 18.7174 14.325C18.6594 14.342 18.605 14.3652 18.5541 14.3946L18.5127 14.2995ZM18.5803 15.0327C18.5803 15.0993 18.602 15.1503 18.6456 15.1859C18.6891 15.2215 18.7487 15.2393 18.8241 15.2393C18.8881 15.2393 18.9483 15.2269 19.0049 15.2021C19.0615 15.1758 19.1138 15.1387 19.1617 15.0908V14.7682L18.9004 14.8007C18.7915 14.8131 18.7109 14.8394 18.6586 14.8796C18.6064 14.9198 18.5803 14.9709 18.5803 15.0327ZM19.6347 15.3205V14.5014C19.6347 14.4565 19.631 14.407 19.6238 14.3529C19.6179 14.2987 19.6107 14.2546 19.602 14.2206L19.7065 14.1974C19.721 14.2515 19.7311 14.3041 19.737 14.3552C19.7893 14.3026 19.8473 14.2631 19.9112 14.2368C19.975 14.209 20.0411 14.1951 20.1094 14.1951C20.2255 14.1951 20.3155 14.2307 20.3794 14.3018C20.4432 14.3714 20.4752 14.4704 20.4752 14.5988V15.3205H20.3576V14.6127C20.3576 14.5153 20.3337 14.4395 20.2858 14.3853C20.2379 14.3312 20.1704 14.3041 20.0833 14.3041C20.0251 14.3041 19.9663 14.3165 19.9069 14.3413C19.8487 14.366 19.7972 14.3993 19.7523 14.441V15.3205H19.6347ZM21.2567 15.3437C21.1579 15.3437 21.0701 15.3205 20.9932 15.2741C20.9176 15.2277 20.8582 15.1619 20.8146 15.0768C20.7711 14.9918 20.7493 14.8897 20.7493 14.7705C20.7493 14.6545 20.7703 14.5532 20.8125 14.4666C20.856 14.3799 20.9155 14.3134 20.991 14.267C21.0679 14.219 21.1579 14.1951 21.261 14.1951C21.3743 14.1951 21.4832 14.2237 21.5877 14.2809L21.5463 14.3784C21.4476 14.3273 21.3539 14.3018 21.2654 14.3018C21.1463 14.3018 21.0505 14.3451 20.978 14.4318C20.9053 14.5168 20.8691 14.6298 20.8691 14.7705C20.8691 14.9113 20.9046 15.0242 20.9758 15.1093C21.0483 15.1944 21.1435 15.2369 21.261 15.2369C21.3046 15.2369 21.3503 15.2308 21.3982 15.2184C21.4476 15.206 21.4969 15.1867 21.5463 15.1604L21.5877 15.2555C21.5383 15.2834 21.4853 15.305 21.4287 15.3205C21.3735 15.3359 21.3161 15.3437 21.2567 15.3437ZM22.2627 15.3437C22.1566 15.3437 22.0651 15.3205 21.9883 15.2741C21.9127 15.2277 21.8539 15.1619 21.8119 15.0768C21.7712 14.9918 21.7509 14.8912 21.7509 14.7752C21.7509 14.6638 21.7719 14.5648 21.8141 14.4782C21.8561 14.39 21.9135 14.3211 21.9861 14.2716C22.0586 14.2206 22.1414 14.1951 22.2343 14.1951C22.3694 14.1951 22.4745 14.2438 22.5501 14.3413C22.627 14.4372 22.6655 14.5694 22.6655 14.7381V14.7775H21.8685C21.8699 14.9183 21.9055 15.0304 21.9752 15.114C22.0463 15.1975 22.1429 15.2393 22.2648 15.2393C22.3708 15.2393 22.4854 15.2029 22.6089 15.1302L22.6525 15.2207C22.529 15.3027 22.3991 15.3437 22.2627 15.3437ZM22.2278 14.2972C22.1334 14.2972 22.0543 14.3328 21.9905 14.4039C21.9265 14.4735 21.8881 14.5663 21.875 14.6824H22.5501C22.5414 14.5571 22.5087 14.4619 22.4521 14.3969C22.3969 14.3304 22.3221 14.2972 22.2278 14.2972Z" fill="#141414"/>
<g filter="url(#filter0_d_1356_188190)">
<path d="M41.5845 17.757H6.41549C5.81414 17.757 5.32666 18.2764 5.32666 18.9172V32.3757C5.32666 33.0165 5.81414 33.536 6.41549 33.536H41.5845C42.1859 33.536 42.6734 33.0165 42.6734 32.3757V18.9172C42.6734 18.2764 42.1859 17.757 41.5845 17.757Z" fill="white"/>
<path d="M11.3696 21.9337C11.3696 20.6842 10.4191 19.6713 9.24644 19.6713C8.07382 19.6713 7.12323 20.6842 7.12323 21.9337C7.12323 23.1832 8.07382 24.1961 9.24644 24.1961C10.4191 24.1961 11.3696 23.1832 11.3696 21.9337Z" fill="#FF2AEC" fill-opacity="0.15"/>
<path d="M11.3696 21.9337C11.3696 20.6842 10.4191 19.6713 9.24644 19.6713C8.07382 19.6713 7.12323 20.6842 7.12323 21.9337C7.12323 23.1832 8.07382 24.1961 9.24644 24.1961C10.4191 24.1961 11.3696 23.1832 11.3696 21.9337Z" stroke="#FF2AEC" stroke-dasharray="5 3"/>
<path d="M7.85318 21.4158H8.53609V21.5848H8.0361V21.8966H8.44006V22.0639H8.0361V22.5139H7.85318V21.4158ZM8.7017 22.5139V21.4191C8.82161 21.4093 8.91765 21.4045 8.9898 21.4045C9.14834 21.4045 9.26825 21.4353 9.34955 21.4971C9.43084 21.5577 9.4715 21.6476 9.4715 21.7667C9.4715 21.8793 9.43389 21.9681 9.3587 22.0331C9.28451 22.097 9.16866 22.1289 9.01115 22.1289C8.99387 22.1289 8.97456 22.1289 8.95322 22.1289C8.93188 22.1278 8.90901 22.1267 8.88462 22.1257V22.5139H8.7017ZM9.02791 21.5702C9.00962 21.5702 8.98828 21.5707 8.96389 21.5718C8.94051 21.5729 8.91409 21.5745 8.88462 21.5767V21.96C8.91307 21.9611 8.93798 21.9622 8.95932 21.9632C8.98066 21.9632 8.99895 21.9632 9.01419 21.9632C9.1087 21.9632 9.17679 21.947 9.21846 21.9145C9.26012 21.8809 9.28096 21.8322 9.28096 21.7683C9.28096 21.6362 9.19661 21.5702 9.02791 21.5702ZM10.0892 22.5382C9.98756 22.5382 9.89814 22.5139 9.82089 22.4651C9.74366 22.4164 9.6832 22.3493 9.6395 22.2637C9.5958 22.1771 9.57395 22.0775 9.57395 21.9649C9.57395 21.8522 9.5958 21.7532 9.6395 21.6676C9.6832 21.581 9.74366 21.5133 9.82089 21.4646C9.89814 21.4158 9.98756 21.3915 10.0892 21.3915C10.1908 21.3915 10.2802 21.4158 10.3575 21.4646C10.4357 21.5133 10.4967 21.581 10.5404 21.6676C10.5841 21.7532 10.6059 21.8522 10.6059 21.9649C10.6059 22.0775 10.5841 22.1771 10.5404 22.2637C10.4967 22.3493 10.4357 22.4164 10.3575 22.4651C10.2802 22.5139 10.1908 22.5382 10.0892 22.5382ZM10.0892 22.3612C10.1542 22.3612 10.2111 22.3444 10.2599 22.3108C10.3097 22.2773 10.3483 22.2307 10.3758 22.1711C10.4032 22.1116 10.4169 22.0428 10.4169 21.9649C10.4169 21.8869 10.4032 21.8181 10.3758 21.7586C10.3483 21.699 10.3097 21.6524 10.2599 21.6189C10.2111 21.5853 10.1542 21.5685 10.0892 21.5685C10.0241 21.5685 9.96723 21.5853 9.91845 21.6189C9.86967 21.6524 9.83156 21.699 9.80413 21.7586C9.77669 21.8181 9.76297 21.8869 9.76297 21.9649C9.76297 22.0428 9.77669 22.1116 9.80413 22.1711C9.83156 22.2307 9.86967 22.2773 9.91845 22.3108C9.96723 22.3444 10.0241 22.3612 10.0892 22.3612Z" fill="#3B3331"/>
<path d="M13.3067 20.1772H14.0384V20.3582H13.5027V20.6924H13.9355V20.8716H13.5027V21.3537H13.3067V20.1772ZM14.2158 21.3537V20.1772H14.4118V21.3537H14.2158ZM14.6927 21.3537V20.1807C14.7613 20.1761 14.8228 20.1726 14.8772 20.1703C14.9317 20.1668 14.9796 20.165 15.021 20.165C15.1201 20.165 15.2072 20.1778 15.2823 20.2033C15.3574 20.2289 15.4162 20.2689 15.4587 20.3234C15.5011 20.3768 15.5224 20.447 15.5224 20.534C15.5224 20.6129 15.5039 20.6802 15.4668 20.7359C15.4309 20.7916 15.3792 20.8328 15.3117 20.8594L15.5501 21.3537H15.3297L15.1239 20.9012C15.1054 20.9035 15.0863 20.9053 15.0667 20.9064C15.0482 20.9064 15.0286 20.9064 15.0079 20.9064C14.9883 20.9064 14.9687 20.9064 14.9491 20.9064C14.9306 20.9053 14.9105 20.9041 14.8887 20.9029V21.3537H14.6927ZM15.0422 20.3426C15.0172 20.3426 14.9921 20.3431 14.9671 20.3443C14.942 20.3455 14.9159 20.3466 14.8887 20.3478V20.7237C14.9409 20.7272 14.9845 20.7289 15.0193 20.7289C15.125 20.7289 15.2012 20.7138 15.248 20.6837C15.2948 20.6523 15.3182 20.603 15.3182 20.5357C15.3182 20.465 15.2937 20.4151 15.2447 20.3861C15.1968 20.3571 15.1293 20.3426 15.0422 20.3426ZM16.0798 21.3798C16.0079 21.3798 15.9372 21.3694 15.8675 21.3485C15.7978 21.3264 15.7335 21.2939 15.6747 21.251L15.7482 21.0822C15.7994 21.1205 15.8517 21.1489 15.905 21.1675C15.9595 21.186 16.0139 21.1953 16.0684 21.1953C16.1391 21.1953 16.1936 21.1808 16.2317 21.1518C16.2709 21.1228 16.2905 21.0822 16.2905 21.03C16.2905 20.9905 16.278 20.9569 16.2529 20.9291C16.229 20.9 16.1914 20.8786 16.1402 20.8647L15.9981 20.8264C15.9089 20.802 15.8408 20.7608 15.794 20.7028C15.7482 20.6448 15.7254 20.5752 15.7254 20.494C15.7254 20.4267 15.7412 20.3675 15.7727 20.3165C15.8043 20.2642 15.849 20.2236 15.9067 20.1946C15.9644 20.1656 16.0324 20.1511 16.1108 20.1511C16.2404 20.1511 16.3585 20.1865 16.4652 20.2573L16.3885 20.4226C16.2959 20.3634 16.2077 20.3339 16.1239 20.3339C16.0629 20.3339 16.0156 20.3466 15.9818 20.3721C15.9481 20.3977 15.9312 20.4336 15.9312 20.48C15.9312 20.523 15.9432 20.5572 15.9671 20.5827C15.9911 20.6071 16.0286 20.6262 16.0798 20.6402L16.2235 20.6802C16.315 20.7057 16.383 20.7469 16.4277 20.8037C16.4734 20.8594 16.4963 20.9285 16.4963 21.0108C16.4963 21.0839 16.4794 21.1483 16.4456 21.204C16.413 21.2586 16.3651 21.3015 16.3019 21.3328C16.2399 21.3641 16.1658 21.3798 16.0798 21.3798ZM17.4978 20.1772V20.3582H17.1434V21.3537H16.9474V20.3582H16.593V20.1772H17.4978ZM18.3026 20.1772H18.5378L18.9461 21.3537H18.7371L18.6423 21.07H18.185L18.0887 21.3537H17.8927L18.3026 20.1772ZM18.2438 20.8908H18.5819L18.4137 20.3878L18.2438 20.8908ZM19.8425 20.1772H20.0335V21.3537H19.8572L19.3019 20.5323V21.3537H19.1108V20.1772H19.2872L19.8425 20.9882V20.1772ZM20.6188 20.165C20.8376 20.165 21.0021 20.2178 21.112 20.3234C21.222 20.4278 21.277 20.5752 21.277 20.7655C21.277 20.9557 21.2225 21.1031 21.1137 21.2075C21.0048 21.3119 20.8398 21.3641 20.6188 21.3641C20.5752 21.3641 20.5251 21.363 20.4685 21.3607C20.413 21.3583 20.3613 21.3543 20.3134 21.3485V20.1807C20.37 20.1761 20.425 20.1726 20.4783 20.1703C20.5317 20.1668 20.5785 20.165 20.6188 20.165ZM20.6563 20.3513C20.6357 20.3513 20.6133 20.3524 20.5894 20.3547C20.5654 20.3559 20.5388 20.3576 20.5094 20.36V21.171C20.5616 21.1756 20.6106 21.1779 20.6563 21.1779C20.7968 21.1779 20.9013 21.1396 20.9699 21.0631C21.0396 20.9865 21.0745 20.8861 21.0745 20.762C21.0745 20.639 21.0396 20.5398 20.9699 20.4644C20.9013 20.389 20.7968 20.3513 20.6563 20.3513ZM21.8253 20.1772H22.0213V21.1727H22.5309V21.3537H21.8253V20.1772ZM22.9901 20.1772H23.2253L23.6336 21.3537H23.4246L23.3299 21.07H22.8725L22.7762 21.3537H22.5802L22.9901 20.1772ZM22.9313 20.8908H23.2694L23.1012 20.3878L22.9313 20.8908ZM24.1167 21.3798C24.0449 21.3798 23.9741 21.3694 23.9044 21.3485C23.8347 21.3264 23.7705 21.2939 23.7117 21.251L23.7852 21.0822C23.8364 21.1205 23.8886 21.1489 23.942 21.1675C23.9964 21.186 24.0509 21.1953 24.1053 21.1953C24.1761 21.1953 24.2305 21.1808 24.2686 21.1518C24.3078 21.1228 24.3274 21.0822 24.3274 21.03C24.3274 20.9905 24.3149 20.9569 24.2899 20.9291C24.2659 20.9 24.2283 20.8786 24.1772 20.8647L24.0351 20.8264C23.9458 20.802 23.8777 20.7608 23.8309 20.7028C23.7852 20.6448 23.7623 20.5752 23.7623 20.494C23.7623 20.4267 23.7781 20.3675 23.8097 20.3165C23.8413 20.2642 23.8859 20.2236 23.9436 20.1946C24.0013 20.1656 24.0694 20.1511 24.1478 20.1511C24.2773 20.1511 24.3955 20.1865 24.5022 20.2573L24.4254 20.4226C24.3329 20.3634 24.2447 20.3339 24.1608 20.3339C24.0999 20.3339 24.0525 20.3466 24.0188 20.3721C23.985 20.3977 23.9681 20.4336 23.9681 20.48C23.9681 20.523 23.9801 20.5572 24.0041 20.5827C24.028 20.6071 24.0656 20.6262 24.1167 20.6402L24.2605 20.6802C24.3519 20.7057 24.42 20.7469 24.4646 20.8037C24.5104 20.8594 24.5332 20.9285 24.5332 21.0108C24.5332 21.0839 24.5163 21.1483 24.4826 21.204C24.4499 21.2586 24.402 21.3015 24.3389 21.3328C24.2768 21.3641 24.2028 21.3798 24.1167 21.3798ZM25.5347 20.1772V20.3582H25.1803V21.3537H24.9843V20.3582H24.6299V20.1772H25.5347ZM26.7773 20.1772H26.9684V21.3537H26.792L26.2367 20.5323V21.3537H26.0456V20.1772H26.222L26.7773 20.9882V20.1772ZM27.5422 20.1772H27.7774L28.1857 21.3537H27.9766L27.8819 21.07H27.4246L27.3282 21.3537H27.1322L27.5422 20.1772ZM27.4834 20.8908H27.8215L27.6532 20.3878L27.4834 20.8908ZM28.3111 21.3537L28.432 20.1772H28.6361L28.9562 21.0074L29.2747 20.1772H29.4772L29.5997 21.3537H29.4087L29.3237 20.4992L29.0232 21.2945H28.8779L28.5855 20.5236L28.5022 21.3537H28.3111ZM29.8416 20.1772H30.5814V20.3582H30.0376V20.6645H30.4785V20.8455H30.0376V21.1727H30.5961V21.3537H29.8416V20.1772Z" fill="#141414"/>
<path d="M13.3214 24.4862V23.3115C13.3867 23.3068 13.4438 23.3039 13.4928 23.3028C13.5418 23.3005 13.5865 23.2993 13.6268 23.2993C13.7857 23.2993 13.9055 23.3306 13.9861 23.3933C14.0677 23.4548 14.1086 23.547 14.1086 23.67C14.1086 23.7454 14.0922 23.811 14.0596 23.8667C14.0269 23.9223 13.9757 23.9659 13.906 23.9972C13.8364 24.0273 13.7454 24.0424 13.6333 24.0424C13.6104 24.0424 13.5843 24.0424 13.5549 24.0424C13.5255 24.0413 13.4939 24.0395 13.4602 24.0372V24.4862H13.3214ZM13.648 23.4246C13.624 23.4246 13.5968 23.4252 13.5663 23.4263C13.5369 23.4263 13.5016 23.4281 13.4602 23.4316V23.9102C13.4972 23.9125 13.5299 23.9142 13.5582 23.9154C13.5876 23.9165 13.6126 23.9171 13.6333 23.9171C13.7531 23.9171 13.838 23.8962 13.8881 23.8545C13.9393 23.8115 13.9648 23.7506 13.9648 23.6717C13.9648 23.507 13.8592 23.4246 13.648 23.4246ZM14.2921 24.4862V23.8684C14.2921 23.8324 14.2894 23.7941 14.2839 23.7535C14.2796 23.7129 14.2741 23.6793 14.2676 23.6526L14.3885 23.63C14.395 23.6543 14.4004 23.6793 14.4048 23.7048C14.4092 23.7292 14.4124 23.7524 14.4146 23.7744C14.4756 23.6781 14.554 23.63 14.6498 23.63C14.6835 23.63 14.7173 23.6352 14.751 23.6456L14.738 23.7814C14.7216 23.7756 14.7059 23.7715 14.6906 23.7692C14.6754 23.7669 14.6574 23.7657 14.6367 23.7657C14.5932 23.7657 14.5529 23.7756 14.5159 23.7953C14.4799 23.8139 14.4494 23.84 14.4244 23.8736V24.4862H14.2921ZM15.2364 24.5036C15.1112 24.5036 15.0126 24.4647 14.9408 24.387C14.87 24.3081 14.8346 24.202 14.8346 24.0685C14.8346 23.9827 14.8509 23.9067 14.8836 23.8405C14.9163 23.7744 14.9609 23.7228 15.0175 23.6857C15.0742 23.6474 15.1378 23.6282 15.2086 23.6282C15.3153 23.6282 15.3986 23.6654 15.4585 23.7396C15.5184 23.8139 15.5483 23.9154 15.5483 24.0442C15.5483 24.0546 15.5478 24.0645 15.5467 24.0738C15.5467 24.083 15.5462 24.0906 15.5451 24.0964H14.9685C14.9729 24.1869 14.999 24.2576 15.0469 24.3087C15.0959 24.3597 15.1613 24.3853 15.2429 24.3853C15.281 24.3853 15.3208 24.3789 15.3621 24.3661C15.4046 24.3534 15.4482 24.3348 15.4928 24.3104L15.5385 24.4079C15.4395 24.4717 15.3387 24.5036 15.2364 24.5036ZM15.2054 23.7466C15.1455 23.7466 15.0948 23.768 15.0535 23.811C15.0121 23.8539 14.9854 23.9107 14.9734 23.9815H15.4177C15.409 23.9049 15.3861 23.8469 15.3491 23.8075C15.3131 23.7669 15.2652 23.7466 15.2054 23.7466ZM15.7515 24.4862V23.8684C15.7515 23.8324 15.7488 23.7941 15.7433 23.7535C15.739 23.7129 15.7335 23.6793 15.727 23.6526L15.8478 23.63C15.8576 23.6683 15.8653 23.7077 15.8707 23.7483C15.948 23.6683 16.0384 23.6282 16.1418 23.6282C16.2573 23.6282 16.3378 23.6729 16.3836 23.7622C16.4206 23.7228 16.4636 23.6909 16.5126 23.6665C16.5627 23.641 16.6182 23.6282 16.6792 23.6282C16.7674 23.6282 16.8354 23.6555 16.8833 23.71C16.9323 23.7634 16.9568 23.8388 16.9568 23.9363V24.4862H16.8245V23.9589C16.8245 23.8928 16.8077 23.8417 16.7739 23.8057C16.7412 23.7698 16.6955 23.7518 16.6367 23.7518C16.5975 23.7518 16.5578 23.7599 16.5175 23.7762C16.4783 23.7924 16.4429 23.815 16.4113 23.844C16.4168 23.873 16.4195 23.9038 16.4195 23.9363V24.4862H16.2872V23.9589C16.2872 23.8928 16.2703 23.8417 16.2366 23.8057C16.2039 23.7698 16.1582 23.7518 16.0994 23.7518C16.0199 23.7518 15.948 23.7791 15.8838 23.8336V24.4862H15.7515ZM17.265 23.4525C17.2388 23.4525 17.2171 23.4438 17.1996 23.4263C17.1822 23.4089 17.1735 23.3875 17.1735 23.362C17.1735 23.3353 17.1822 23.3132 17.1996 23.2958C17.2171 23.2773 17.2388 23.268 17.265 23.268C17.2922 23.268 17.314 23.2773 17.3303 23.2958C17.3477 23.3132 17.3564 23.3353 17.3564 23.362C17.3564 23.3875 17.3477 23.4089 17.3303 23.4263C17.314 23.4438 17.2922 23.4525 17.265 23.4525ZM17.1996 24.4862V23.6456H17.3319V24.4862H17.1996ZM17.935 24.5036C17.8098 24.5036 17.7113 24.4647 17.6394 24.387C17.5686 24.3081 17.5333 24.202 17.5333 24.0685C17.5333 23.9827 17.5496 23.9067 17.5822 23.8405C17.6149 23.7744 17.6596 23.7228 17.7162 23.6857C17.7728 23.6474 17.8365 23.6282 17.9073 23.6282C18.014 23.6282 18.0973 23.6654 18.1571 23.7396C18.217 23.8139 18.247 23.9154 18.247 24.0442C18.247 24.0546 18.2464 24.0645 18.2453 24.0738C18.2453 24.083 18.2448 24.0906 18.2437 24.0964H17.6672C17.6715 24.1869 17.6977 24.2576 17.7456 24.3087C17.7946 24.3597 17.8599 24.3853 17.9416 24.3853C17.9797 24.3853 18.0194 24.3789 18.0608 24.3661C18.1033 24.3534 18.1468 24.3348 18.1914 24.3104L18.2372 24.4079C18.1381 24.4717 18.0374 24.5036 17.935 24.5036ZM17.904 23.7466C17.8441 23.7466 17.7935 23.768 17.7521 23.811C17.7107 23.8539 17.6841 23.9107 17.6721 23.9815H18.1163C18.1076 23.9049 18.0847 23.8469 18.0477 23.8075C18.0118 23.7669 17.9639 23.7466 17.904 23.7466ZM18.4502 24.4862V23.8684C18.4502 23.8324 18.4474 23.7941 18.442 23.7535C18.4376 23.7129 18.4322 23.6793 18.4257 23.6526L18.5465 23.63C18.553 23.6543 18.5585 23.6793 18.5628 23.7048C18.5672 23.7292 18.5705 23.7524 18.5726 23.7744C18.6336 23.6781 18.712 23.63 18.8078 23.63C18.8416 23.63 18.8753 23.6352 18.9091 23.6456L18.896 23.7814C18.8797 23.7756 18.8639 23.7715 18.8487 23.7692C18.8334 23.7669 18.8155 23.7657 18.7948 23.7657C18.7512 23.7657 18.7109 23.7756 18.6739 23.7953C18.638 23.8139 18.6075 23.84 18.5824 23.8736V24.4862H18.4502ZM19.7338 24.4949C19.6859 24.4949 19.6369 24.4938 19.5868 24.4914C19.5367 24.4903 19.4855 24.4874 19.4333 24.4827V23.3115C19.4931 23.3068 19.5465 23.3039 19.5933 23.3028C19.6401 23.3005 19.681 23.2993 19.7158 23.2993C19.8769 23.2993 19.9956 23.326 20.0718 23.3794C20.1492 23.4327 20.1878 23.5093 20.1878 23.6091C20.1878 23.6775 20.1715 23.7344 20.1388 23.7796C20.1061 23.8237 20.0626 23.8545 20.0082 23.8719C20.0691 23.8881 20.1208 23.9212 20.1633 23.9711C20.2058 24.021 20.227 24.0883 20.227 24.173C20.227 24.282 20.1873 24.3632 20.1078 24.4166C20.0294 24.4688 19.9047 24.4949 19.7338 24.4949ZM19.7321 23.4263C19.7125 23.4263 19.6902 23.4269 19.6652 23.4281C19.6401 23.4281 19.6086 23.4298 19.5704 23.4333V23.8266H19.7648C19.8661 23.8266 19.9385 23.8098 19.982 23.7762C20.0267 23.7413 20.049 23.6909 20.049 23.6247C20.049 23.5609 20.0239 23.5122 19.9739 23.4786C19.9249 23.4438 19.8443 23.4263 19.7321 23.4263ZM19.7583 23.9519H19.5704V24.3609C19.602 24.3632 19.6314 24.365 19.6586 24.3661C19.6869 24.3673 19.7142 24.3679 19.7403 24.3679C19.8612 24.3679 19.9483 24.3516 20.0016 24.3191C20.0561 24.2867 20.0833 24.235 20.0833 24.1642C20.0833 24.0958 20.0588 24.0436 20.0098 24.0076C19.9608 23.9705 19.8769 23.9519 19.7583 23.9519ZM20.4031 23.7152C20.4466 23.6862 20.494 23.6648 20.5452 23.6509C20.5974 23.6358 20.6508 23.6282 20.7052 23.6282C20.8054 23.6282 20.8816 23.6555 20.9339 23.71C20.9872 23.7646 21.0139 23.8405 21.0139 23.938V24.26C21.0139 24.3017 21.0161 24.3429 21.0204 24.3835C21.0259 24.423 21.0324 24.4555 21.04 24.481L20.9224 24.5019C20.9126 24.4671 20.905 24.4288 20.8996 24.387C20.8223 24.4647 20.7292 24.5036 20.6203 24.5036C20.5452 24.5036 20.4847 24.4821 20.439 24.4392C20.3933 24.3963 20.3704 24.3383 20.3704 24.2652C20.3704 24.1944 20.3982 24.1358 20.4537 24.0894C20.5103 24.043 20.5931 24.0134 20.702 24.0007L20.8832 23.9815V23.9415C20.8832 23.8115 20.8201 23.7466 20.6938 23.7466C20.6557 23.7466 20.6148 23.753 20.5713 23.7657C20.5277 23.7773 20.4869 23.7941 20.4488 23.8162L20.4031 23.7152ZM20.506 24.2582C20.506 24.3012 20.5201 24.3342 20.5484 24.3574C20.5767 24.3795 20.6143 24.3905 20.6611 24.3905C20.7428 24.3905 20.8168 24.3592 20.8832 24.2965V24.0912L20.7134 24.112C20.6426 24.1202 20.5903 24.1364 20.5566 24.1608C20.5228 24.1851 20.506 24.2176 20.506 24.2582ZM21.2589 24.4862V23.8684C21.2589 23.8324 21.2562 23.7941 21.2507 23.7535C21.2464 23.7129 21.2409 23.6793 21.2344 23.6526L21.3552 23.63C21.365 23.6683 21.3727 23.7077 21.3781 23.7483C21.4554 23.6683 21.5458 23.6282 21.6492 23.6282C21.7374 23.6282 21.8055 23.6555 21.8534 23.71C21.9024 23.7634 21.9269 23.8388 21.9269 23.9363V24.4862H21.7946V23.9589C21.7946 23.8928 21.7783 23.8417 21.7456 23.8057C21.7129 23.7698 21.6667 23.7518 21.6068 23.7518C21.5273 23.7518 21.4554 23.7791 21.3912 23.8336V24.4862H21.2589ZM22.1696 24.4862V23.2593H22.3019V24.0128L22.671 23.6456H22.8425L22.524 23.9554L22.8735 24.4862H22.7134L22.4309 24.0476L22.3019 24.173V24.4862H22.1696ZM23.3372 24.5036C23.212 24.5036 23.1135 24.4647 23.0416 24.387C22.9708 24.3081 22.9355 24.202 22.9355 24.0685C22.9355 23.9827 22.9518 23.9067 22.9845 23.8405C23.0171 23.7744 23.0618 23.7228 23.1184 23.6857C23.175 23.6474 23.2387 23.6282 23.3095 23.6282C23.4162 23.6282 23.4995 23.6654 23.5594 23.7396C23.6192 23.8139 23.6492 23.9154 23.6492 24.0442C23.6492 24.0546 23.6486 24.0645 23.6475 24.0738C23.6475 24.083 23.647 24.0906 23.6459 24.0964H23.0694C23.0737 24.1869 23.0999 24.2576 23.1478 24.3087C23.1968 24.3597 23.2621 24.3853 23.3437 24.3853C23.3819 24.3853 23.4216 24.3789 23.463 24.3661C23.5055 24.3534 23.549 24.3348 23.5937 24.3104L23.6394 24.4079C23.5403 24.4717 23.4396 24.5036 23.3372 24.5036ZM23.3062 23.7466C23.2463 23.7466 23.1957 23.768 23.1543 23.811C23.1129 23.8539 23.0863 23.9107 23.0743 23.9815H23.5185C23.5098 23.9049 23.4869 23.8469 23.4499 23.8075C23.414 23.7669 23.3661 23.7466 23.3062 23.7466ZM23.8522 24.4862V23.8684C23.8522 23.8324 23.8495 23.7941 23.8441 23.7535C23.8397 23.7129 23.8343 23.6793 23.8278 23.6526L23.9486 23.63C23.9551 23.6543 23.9606 23.6793 23.9649 23.7048C23.9693 23.7292 23.9726 23.7524 23.9747 23.7744C24.0357 23.6781 24.1141 23.63 24.2099 23.63C24.2437 23.63 24.2774 23.6352 24.3112 23.6456L24.2981 23.7814C24.2818 23.7756 24.266 23.7715 24.2508 23.7692C24.2355 23.7669 24.2175 23.7657 24.1969 23.7657C24.1533 23.7657 24.113 23.7756 24.076 23.7953C24.0401 23.8139 24.0096 23.84 23.9845 23.8736V24.4862H23.8522Z" fill="#141414"/>
<path d="M13.5418 27.1548L13.207 25.9783H13.3557L13.6202 26.9512L13.8816 26.0166H14.0269L14.2882 26.9581L14.5561 25.9783H14.6933L14.3568 27.1548H14.2115L13.9469 26.1976L13.6839 27.1548H13.5418ZM15.1216 27.1722C14.9963 27.1722 14.8978 27.1333 14.8259 27.0556C14.7552 26.9767 14.7198 26.8705 14.7198 26.7371C14.7198 26.6513 14.7361 26.5753 14.7688 26.5091C14.8014 26.443 14.8461 26.3914 14.9027 26.3542C14.9593 26.3159 15.023 26.2968 15.0938 26.2968C15.2005 26.2968 15.2838 26.3339 15.3437 26.4082C15.4036 26.4824 15.4335 26.584 15.4335 26.7127C15.4335 26.7232 15.433 26.733 15.4319 26.7423C15.4319 26.7516 15.4313 26.7592 15.4302 26.765H14.8537C14.8581 26.8555 14.8842 26.9262 14.9321 26.9773C14.9811 27.0283 15.0464 27.0539 15.1281 27.0539C15.1662 27.0539 15.2059 27.0475 15.2473 27.0347C15.2898 27.0219 15.3333 27.0034 15.378 26.979L15.4237 27.0765C15.3246 27.1403 15.2239 27.1722 15.1216 27.1722ZM15.0905 26.4151C15.0306 26.4151 14.98 26.4366 14.9386 26.4795C14.8973 26.5225 14.8706 26.5793 14.8586 26.6501H15.3028C15.2941 26.5735 15.2713 26.5155 15.2342 26.4761C15.1983 26.4355 15.1504 26.4151 15.0905 26.4151ZM15.6824 27.1705C15.6693 27.138 15.6579 27.0962 15.6481 27.0451C15.6394 26.9929 15.635 26.9436 15.635 26.8972V25.9279H15.7673V26.8694C15.7673 26.9181 15.7706 26.968 15.7771 27.019C15.7837 27.0689 15.7924 27.1107 15.8033 27.1443L15.6824 27.1705ZM16.0731 27.1705C16.0601 27.138 16.0486 27.0962 16.0388 27.0451C16.0301 26.9929 16.0258 26.9436 16.0258 26.8972V25.9279H16.1581V26.8694C16.1581 26.9181 16.1613 26.968 16.1679 27.019C16.1744 27.0689 16.1831 27.1107 16.194 27.1443L16.0731 27.1705ZM16.6501 27.1722C16.5979 27.1722 16.5445 27.1647 16.4901 27.1496C16.4356 27.1345 16.385 27.1119 16.3382 27.0817L16.3839 26.9808C16.4699 27.0318 16.5565 27.0573 16.6436 27.0573C16.7024 27.0573 16.7481 27.0457 16.7808 27.0225C16.8145 26.9982 16.8314 26.9651 16.8314 26.9233C16.8314 26.8595 16.7933 26.8177 16.7171 26.798L16.5848 26.7632C16.5151 26.7458 16.4634 26.718 16.4296 26.6797C16.397 26.6414 16.3806 26.5944 16.3806 26.5387C16.3806 26.4656 16.4057 26.407 16.4558 26.3629C16.5058 26.3189 16.575 26.2968 16.6632 26.2968C16.7612 26.2968 16.851 26.3235 16.9327 26.3769L16.8837 26.4726C16.8096 26.432 16.7383 26.4117 16.6697 26.4117C16.6196 26.4117 16.581 26.4221 16.5538 26.443C16.5265 26.4639 16.5129 26.4935 16.5129 26.5318C16.5129 26.5619 16.5216 26.5863 16.5391 26.6048C16.5576 26.6222 16.5886 26.6362 16.6321 26.6466L16.7661 26.6814C16.8303 26.6977 16.8793 26.7261 16.9131 26.7667C16.9479 26.8073 16.9653 26.8566 16.9653 26.9146C16.9653 26.9912 16.9365 27.0533 16.8788 27.1008C16.8221 27.1484 16.7459 27.1722 16.6501 27.1722ZM17.5273 25.9783H18.2345V26.1071H17.6661V26.5074H18.1316V26.6362H17.6661V27.1548H17.5273V25.9783ZM18.3025 26.3838C18.3461 26.3548 18.3934 26.3334 18.4446 26.3194C18.4969 26.3043 18.5502 26.2968 18.6047 26.2968C18.7048 26.2968 18.7811 26.3241 18.8333 26.3786C18.8867 26.4331 18.9133 26.5091 18.9133 26.6066V26.9285C18.9133 26.9703 18.9155 27.0115 18.9199 27.0521C18.9253 27.0916 18.9319 27.124 18.9395 27.1496L18.8219 27.1705C18.8121 27.1356 18.8045 27.0974 18.799 27.0556C18.7217 27.1333 18.6286 27.1722 18.5197 27.1722C18.4446 27.1722 18.3842 27.1507 18.3384 27.1078C18.2927 27.0649 18.2699 27.0069 18.2699 26.9338C18.2699 26.863 18.2976 26.8044 18.3531 26.758C18.4098 26.7116 18.4925 26.682 18.6014 26.6692L18.7827 26.6501V26.6101C18.7827 26.4801 18.7195 26.4151 18.5932 26.4151C18.5551 26.4151 18.5143 26.4215 18.4707 26.4343C18.4272 26.4459 18.3864 26.4627 18.3482 26.4848L18.3025 26.3838ZM18.4054 26.9268C18.4054 26.9697 18.4196 27.0028 18.4479 27.026C18.4762 27.048 18.5137 27.0591 18.5606 27.0591C18.6422 27.0591 18.7163 27.0277 18.7827 26.9651V26.7597L18.6128 26.7806C18.5421 26.7887 18.4898 26.805 18.456 26.8293C18.4223 26.8537 18.4054 26.8862 18.4054 26.9268ZM19.1583 27.1548V26.537C19.1583 26.501 19.1556 26.4627 19.1502 26.4221C19.1458 26.3815 19.1404 26.3479 19.1338 26.3212L19.2547 26.2985C19.2612 26.3229 19.2667 26.3479 19.271 26.3734C19.2754 26.3977 19.2786 26.4209 19.2808 26.443C19.3418 26.3467 19.4202 26.2985 19.516 26.2985C19.5498 26.2985 19.5835 26.3038 19.6173 26.3142L19.6042 26.45C19.5879 26.4442 19.5721 26.4401 19.5568 26.4378C19.5416 26.4355 19.5236 26.4343 19.5029 26.4343C19.4594 26.4343 19.4191 26.4442 19.3821 26.4639C19.3462 26.4824 19.3157 26.5085 19.2906 26.5422V27.1548H19.1583ZM20.0503 27.1618C19.9795 27.1618 19.918 27.1443 19.8657 27.1095C19.8135 27.0747 19.7726 27.0254 19.7432 26.9616C19.7149 26.8966 19.7008 26.8206 19.7008 26.7336C19.7008 26.6478 19.7171 26.5718 19.7498 26.5056C19.7824 26.4395 19.8287 26.3885 19.8886 26.3525C19.9496 26.3154 20.022 26.2968 20.1058 26.2968C20.1668 26.2968 20.224 26.3032 20.2773 26.3159C20.3318 26.3287 20.3813 26.345 20.4259 26.3647V27.2122C20.4259 27.3108 20.3927 27.3897 20.3263 27.4489C20.261 27.5092 20.1728 27.5394 20.0617 27.5394C20.004 27.5394 19.9474 27.5307 19.8919 27.5133C19.8363 27.4959 19.7868 27.4715 19.7432 27.4402L19.7939 27.3375C19.832 27.3642 19.8739 27.3845 19.9196 27.3984C19.9665 27.4135 20.0106 27.4211 20.0519 27.4211C20.1292 27.4211 20.1891 27.4025 20.2316 27.3654C20.2751 27.3294 20.2969 27.2795 20.2969 27.2157V27.0539C20.2653 27.0887 20.2278 27.1153 20.1842 27.1339C20.1418 27.1525 20.0971 27.1618 20.0503 27.1618ZM19.8363 26.7336C19.8363 26.8334 19.8581 26.9094 19.9017 26.9616C19.9463 27.0138 20.0078 27.0399 20.0862 27.0399C20.1276 27.0399 20.1663 27.0306 20.2022 27.0121C20.2392 26.9935 20.2697 26.9686 20.2937 26.9372V26.4465C20.2675 26.4372 20.2387 26.4297 20.2071 26.4239C20.1755 26.418 20.1428 26.4151 20.1091 26.4151C20.022 26.4151 19.9545 26.4447 19.9066 26.5039C19.8598 26.5619 19.8363 26.6385 19.8363 26.7336ZM21.0211 27.1722C20.9427 27.1722 20.8741 27.1542 20.8153 27.1182C20.7565 27.0811 20.7108 27.0301 20.6781 26.9651C20.6454 26.899 20.6291 26.8224 20.6291 26.7354C20.6291 26.6484 20.6454 26.5718 20.6781 26.5056C20.7108 26.4395 20.7565 26.3885 20.8153 26.3525C20.8741 26.3154 20.9427 26.2968 21.0211 26.2968C21.0995 26.2968 21.1681 26.3154 21.2269 26.3525C21.2868 26.3885 21.333 26.4395 21.3657 26.5056C21.3984 26.5718 21.4147 26.6484 21.4147 26.7354C21.4147 26.8224 21.3984 26.899 21.3657 26.9651C21.333 27.0301 21.2868 27.0811 21.2269 27.1182C21.1681 27.1542 21.0995 27.1722 21.0211 27.1722ZM21.0211 27.0539C21.1017 27.0539 21.1648 27.0248 21.2105 26.9668C21.2563 26.9077 21.2791 26.8305 21.2791 26.7354C21.2791 26.6402 21.2563 26.5631 21.2105 26.5039C21.1648 26.4447 21.1017 26.4151 21.0211 26.4151C20.9416 26.4151 20.879 26.4447 20.8333 26.5039C20.7875 26.5631 20.7647 26.6402 20.7647 26.7354C20.7647 26.8305 20.7875 26.9077 20.8333 26.9668C20.879 27.0248 20.9416 27.0539 21.0211 27.0539ZM22.2921 27.1635C22.2442 27.1635 22.1952 27.1623 22.1451 27.16C22.095 27.1589 22.0438 27.156 21.9916 27.1513V25.9801C22.0514 25.9754 22.1048 25.9725 22.1516 25.9714C22.1984 25.969 22.2393 25.9679 22.2741 25.9679C22.4353 25.9679 22.5539 25.9946 22.6302 26.0479C22.7075 26.1013 22.7461 26.1779 22.7461 26.2777C22.7461 26.3461 22.7298 26.403 22.6971 26.4482C22.6645 26.4923 22.6209 26.523 22.5665 26.5405C22.6274 26.5567 22.6792 26.5898 22.7216 26.6397C22.7641 26.6895 22.7853 26.7568 22.7853 26.8415C22.7853 26.9506 22.7456 27.0318 22.6661 27.0852C22.5877 27.1374 22.463 27.1635 22.2921 27.1635ZM22.2904 26.0949C22.2708 26.0949 22.2485 26.0955 22.2235 26.0967C22.1984 26.0967 22.1669 26.0984 22.1288 26.1019V26.4952H22.3231C22.4244 26.4952 22.4968 26.4784 22.5403 26.4447C22.585 26.4099 22.6073 26.3595 22.6073 26.2933C22.6073 26.2295 22.5823 26.1808 22.5322 26.1471C22.4832 26.1123 22.4026 26.0949 22.2904 26.0949ZM22.3166 26.6205H22.1288V27.0295C22.1603 27.0318 22.1897 27.0335 22.2169 27.0347C22.2453 27.0359 22.2725 27.0364 22.2986 27.0364C22.4195 27.0364 22.5066 27.0202 22.5599 26.9877C22.6144 26.9552 22.6416 26.9036 22.6416 26.8328C22.6416 26.7644 22.6171 26.7122 22.5681 26.6762C22.5191 26.6391 22.4353 26.6205 22.3166 26.6205ZM22.9614 26.3838C23.0049 26.3548 23.0523 26.3334 23.1035 26.3194C23.1557 26.3043 23.2091 26.2968 23.2635 26.2968C23.3637 26.2968 23.4399 26.3241 23.4922 26.3786C23.5455 26.4331 23.5722 26.5091 23.5722 26.6066V26.9285C23.5722 26.9703 23.5744 27.0115 23.5787 27.0521C23.5842 27.0916 23.5907 27.124 23.5983 27.1496L23.4808 27.1705C23.471 27.1356 23.4633 27.0974 23.4579 27.0556C23.3806 27.1333 23.2875 27.1722 23.1786 27.1722C23.1035 27.1722 23.043 27.1507 22.9973 27.1078C22.9516 27.0649 22.9287 27.0069 22.9287 26.9338C22.9287 26.863 22.9565 26.8044 23.012 26.758C23.0686 26.7116 23.1514 26.682 23.2603 26.6692L23.4416 26.6501V26.6101C23.4416 26.4801 23.3784 26.4151 23.2521 26.4151C23.214 26.4151 23.1732 26.4215 23.1296 26.4343C23.0861 26.4459 23.0452 26.4627 23.0071 26.4848L22.9614 26.3838ZM23.0643 26.9268C23.0643 26.9697 23.0784 27.0028 23.1067 27.026C23.135 27.048 23.1726 27.0591 23.2194 27.0591C23.3011 27.0591 23.3751 27.0277 23.4416 26.9651V26.7597L23.2717 26.7806C23.2009 26.7887 23.1487 26.805 23.1149 26.8293C23.0812 26.8537 23.0643 26.8862 23.0643 26.9268ZM23.8172 27.1548V26.537C23.8172 26.501 23.8145 26.4627 23.809 26.4221C23.8047 26.3815 23.7992 26.3479 23.7927 26.3212L23.9136 26.2985C23.9234 26.3368 23.931 26.3763 23.9364 26.4169C24.0137 26.3368 24.1041 26.2968 24.2075 26.2968C24.2957 26.2968 24.3638 26.3241 24.4117 26.3786C24.4607 26.432 24.4852 26.5074 24.4852 26.6048V27.1548H24.3529V26.6275C24.3529 26.5613 24.3366 26.5103 24.3039 26.4743C24.2712 26.4384 24.225 26.4204 24.1651 26.4204C24.0856 26.4204 24.0137 26.4476 23.9495 26.5022V27.1548H23.8172ZM24.7279 27.1548V25.9279H24.8602V26.6814L25.2293 26.3142H25.4008L25.0823 26.624L25.4318 27.1548H25.2718L24.9892 26.7162L24.8602 26.8415V27.1548H24.7279ZM25.6253 26.9668C25.6536 26.9668 25.6776 26.9773 25.6972 26.9982C25.7168 27.0179 25.7266 27.0492 25.7266 27.0921C25.7266 27.1385 25.7124 27.189 25.6841 27.2435C25.6558 27.2981 25.6073 27.3578 25.5387 27.4228L25.493 27.3723C25.5583 27.3062 25.5986 27.236 25.6139 27.1618C25.5888 27.1606 25.5687 27.1513 25.5534 27.1339C25.5382 27.1153 25.5306 27.0927 25.5306 27.066C25.5306 27.0359 25.5393 27.0121 25.5567 26.9947C25.5752 26.9761 25.5981 26.9668 25.6253 26.9668ZM27.0651 25.9783H27.2039V27.1548H27.0781L26.4575 26.2324V27.1548H26.3187V25.9783H26.4461L27.0651 26.8937V25.9783ZM27.541 27.1705C27.5138 27.1705 27.4909 27.1612 27.4724 27.1426C27.455 27.124 27.4463 27.1003 27.4463 27.0713C27.4463 27.0411 27.455 27.0167 27.4724 26.9982C27.4909 26.9796 27.5138 26.9703 27.541 26.9703C27.5682 26.9703 27.59 26.9796 27.6063 26.9982C27.6237 27.0167 27.6324 27.0411 27.6324 27.0713C27.6324 27.1003 27.6237 27.124 27.6063 27.1426C27.5889 27.1612 27.5671 27.1705 27.541 27.1705ZM28.1775 25.9783H28.3376L28.754 27.1548H28.6054L28.4976 26.838H28.0077L27.8982 27.1548H27.7594L28.1775 25.9783ZM28.0517 26.7127H28.4535L28.2543 26.1297L28.0517 26.7127ZM28.9749 27.1705C28.9476 27.1705 28.9248 27.1612 28.9063 27.1426C28.8888 27.124 28.8801 27.1003 28.8801 27.0713C28.8801 27.0411 28.8888 27.0167 28.9063 26.9982C28.9248 26.9796 28.9476 26.9703 28.9749 26.9703C29.0021 26.9703 29.0238 26.9796 29.0402 26.9982C29.0576 27.0167 29.0663 27.0411 29.0663 27.0713C29.0663 27.1003 29.0576 27.124 29.0402 27.1426C29.0228 27.1612 29.001 27.1705 28.9749 27.1705Z" fill="#141414"/>
<path fill-rule="evenodd" clip-rule="evenodd" d="M13.6811 31.3689C13.7422 31.3892 13.7732 31.3962 13.834 31.3838C13.8928 31.3717 13.952 31.3302 14.0319 31.245C14.1587 31.1099 14.2754 30.931 14.3196 30.8603L14.3455 30.8162C14.3911 30.7372 14.4861 30.5728 14.5396 30.3959C14.602 30.1895 14.6101 30.0632 14.5645 30.0099C14.5083 29.9442 14.3597 29.8071 14.3037 29.7917C14.2398 29.7743 14.2178 29.7917 14.2017 29.8276C14.1737 29.8894 14.1414 30.0357 14.1606 30.1531C14.1711 30.2165 14.1965 30.2199 14.2316 30.2247C14.2486 30.2271 14.2662 30.2294 14.2815 30.2398C14.2999 30.2521 14.3251 30.2688 14.3329 30.3056C14.3419 30.3479 14.3246 30.4025 14.2768 30.4825L14.0153 30.9203C13.9674 31.0003 13.9283 31.0401 13.8885 31.0493C13.8541 31.0573 13.8291 31.04 13.8142 31.0297C13.7956 31.017 13.7861 31.001 13.777 30.9857C13.7581 30.9538 13.7445 30.9308 13.686 30.9474C13.5771 30.9788 13.4701 31.0736 13.4379 31.1272C13.4106 31.1724 13.4586 31.2258 13.4642 31.2317C13.5059 31.2761 13.6215 31.3492 13.6811 31.3689ZM13.7805 31.4672C13.7418 31.4672 13.7072 31.4585 13.6595 31.4427C13.5893 31.4195 13.4625 31.3391 13.4129 31.2863C13.3687 31.2393 13.3328 31.1585 13.3768 31.0854C13.422 31.0102 13.5459 30.9076 13.6672 30.8728C13.7772 30.8413 13.817 30.9083 13.8383 30.9444C13.8423 30.951 13.8477 30.9602 13.8503 30.9625C13.865 30.9727 13.8689 30.9746 13.8732 30.9738C13.8797 30.9721 13.905 30.9609 13.9541 30.8786L14.2156 30.441C14.2647 30.3589 14.2636 30.3296 14.2622 30.3227C14.2611 30.318 14.2577 30.3152 14.2465 30.3077C14.2399 30.3037 14.2298 30.3025 14.2224 30.3014C14.1827 30.296 14.1088 30.286 14.0891 30.1664C14.0669 30.0309 14.1034 29.867 14.1363 29.7941C14.1876 29.6802 14.2886 29.7077 14.3218 29.7169C14.4101 29.741 14.5803 29.9136 14.6181 29.9578C14.6855 30.0365 14.6827 30.1747 14.6087 30.4195C14.5554 30.596 14.4642 30.758 14.4149 30.8437L14.415 30.8438L14.3586 30.9389L14.3579 30.938C14.3021 31.0244 14.197 31.1786 14.0833 31.2998C13.9923 31.3967 13.9218 31.4445 13.8477 31.4597C13.8224 31.4648 13.8009 31.4672 13.7805 31.4672Z" fill="#3B3331"/>
<path d="M15.9215 31.2155V31.0415H16.1861V30.2305H15.9264V30.1087L16.253 30.039H16.3755V31.0415H16.6352V31.2155H15.9215ZM17.3324 30.6064V30.7735H16.8538V30.6064H17.3324ZM17.9247 31.2416C17.83 31.2416 17.7505 31.2161 17.6862 31.165C17.6231 31.114 17.5752 31.0426 17.5425 30.951C17.5109 30.8582 17.4952 30.7497 17.4952 30.6255C17.4952 30.5026 17.5109 30.3952 17.5425 30.3036C17.5752 30.2119 17.6231 30.1406 17.6862 30.0895C17.7505 30.0385 17.83 30.0129 17.9247 30.0129C18.0194 30.0129 18.0984 30.0385 18.1615 30.0895C18.2258 30.1406 18.2737 30.2119 18.3052 30.3036C18.3379 30.3952 18.3542 30.5026 18.3542 30.6255C18.3542 30.7497 18.3379 30.8582 18.3052 30.951C18.2737 31.0426 18.2258 31.114 18.1615 31.165C18.0984 31.2161 18.0194 31.2416 17.9247 31.2416ZM17.9247 31.0606C18.0031 31.0606 18.0613 31.0223 18.0995 30.9458C18.1387 30.8692 18.1583 30.7624 18.1583 30.6255C18.1583 30.4898 18.1387 30.3842 18.0995 30.3088C18.0613 30.2322 18.0031 30.1939 17.9247 30.1939C17.8474 30.1939 17.7891 30.2322 17.7499 30.3088C17.7107 30.3854 17.6911 30.491 17.6911 30.6255C17.6911 30.7613 17.7107 30.868 17.7499 30.9458C17.7891 31.0223 17.8474 31.0606 17.9247 31.0606ZM18.8881 31.2416C18.7934 31.2416 18.7139 31.2161 18.6496 31.165C18.5865 31.114 18.5386 31.0426 18.5059 30.951C18.4743 30.8582 18.4585 30.7497 18.4585 30.6255C18.4585 30.5026 18.4743 30.3952 18.5059 30.3036C18.5386 30.2119 18.5865 30.1406 18.6496 30.0895C18.7139 30.0385 18.7934 30.0129 18.8881 30.0129C18.9828 30.0129 19.0618 30.0385 19.1249 30.0895C19.1892 30.1406 19.2371 30.2119 19.2686 30.3036C19.3013 30.3952 19.3176 30.5026 19.3176 30.6255C19.3176 30.7497 19.3013 30.8582 19.2686 30.951C19.2371 31.0426 19.1892 31.114 19.1249 31.165C19.0618 31.2161 18.9828 31.2416 18.8881 31.2416ZM18.8881 31.0606C18.9665 31.0606 19.0247 31.0223 19.0628 30.9458C19.102 30.8692 19.1216 30.7624 19.1216 30.6255C19.1216 30.4898 19.102 30.3842 19.0628 30.3088C19.0247 30.2322 18.9665 30.1939 18.8881 30.1939C18.8108 30.1939 18.7525 30.2322 18.7133 30.3088C18.6741 30.3854 18.6545 30.491 18.6545 30.6255C18.6545 30.7613 18.6741 30.868 18.7133 30.9458C18.7525 31.0223 18.8108 31.0606 18.8881 31.0606ZM19.8515 31.2416C19.7568 31.2416 19.6773 31.2161 19.613 31.165C19.5499 31.114 19.502 31.0426 19.4693 30.951C19.4377 30.8582 19.4219 30.7497 19.4219 30.6255C19.4219 30.5026 19.4377 30.3952 19.4693 30.3036C19.502 30.2119 19.5499 30.1406 19.613 30.0895C19.6773 30.0385 19.7568 30.0129 19.8515 30.0129C19.9462 30.0129 20.0252 30.0385 20.0883 30.0895C20.1525 30.1406 20.2005 30.2119 20.232 30.3036C20.2647 30.3952 20.281 30.5026 20.281 30.6255C20.281 30.7497 20.2647 30.8582 20.232 30.951C20.2005 31.0426 20.1525 31.114 20.0883 31.165C20.0252 31.2161 19.9462 31.2416 19.8515 31.2416ZM19.8515 31.0606C19.9299 31.0606 19.9881 31.0223 20.0262 30.9458C20.0654 30.8692 20.085 30.7624 20.085 30.6255C20.085 30.4898 20.0654 30.3842 20.0262 30.3088C19.9881 30.2322 19.9299 30.1939 19.8515 30.1939C19.7742 30.1939 19.7159 30.2322 19.6767 30.3088C19.6375 30.3854 19.6179 30.491 19.6179 30.6255C19.6179 30.7613 19.6375 30.868 19.6767 30.9458C19.7159 31.0223 19.7742 31.0606 19.8515 31.0606ZM20.9226 30.6064V30.7735H20.444V30.6064H20.9226ZM21.515 31.2416C21.4203 31.2416 21.3408 31.2161 21.2765 31.165C21.2134 31.114 21.1655 31.0426 21.1328 30.951C21.1012 30.8582 21.0854 30.7497 21.0854 30.6255C21.0854 30.5026 21.1012 30.3952 21.1328 30.3036C21.1655 30.2119 21.2134 30.1406 21.2765 30.0895C21.3408 30.0385 21.4203 30.0129 21.515 30.0129C21.6097 30.0129 21.6887 30.0385 21.7518 30.0895C21.8161 30.1406 21.864 30.2119 21.8955 30.3036C21.9282 30.3952 21.9445 30.5026 21.9445 30.6255C21.9445 30.7497 21.9282 30.8582 21.8955 30.951C21.864 31.0426 21.8161 31.114 21.7518 31.165C21.6887 31.2161 21.6097 31.2416 21.515 31.2416ZM21.515 31.0606C21.5934 31.0606 21.6516 31.0223 21.6897 30.9458C21.7289 30.8692 21.7485 30.7624 21.7485 30.6255C21.7485 30.4898 21.7289 30.3842 21.6897 30.3088C21.6516 30.2322 21.5934 30.1939 21.515 30.1939C21.4377 30.1939 21.3794 30.2322 21.3402 30.3088C21.301 30.3854 21.2814 30.491 21.2814 30.6255C21.2814 30.7613 21.301 30.868 21.3402 30.9458C21.3794 31.0223 21.4377 31.0606 21.515 31.0606ZM22.4784 31.2416C22.3837 31.2416 22.3042 31.2161 22.2399 31.165C22.1768 31.114 22.1289 31.0426 22.0962 30.951C22.0646 30.8582 22.0488 30.7497 22.0488 30.6255C22.0488 30.5026 22.0646 30.3952 22.0962 30.3036C22.1289 30.2119 22.1768 30.1406 22.2399 30.0895C22.3042 30.0385 22.3837 30.0129 22.4784 30.0129C22.5731 30.0129 22.6521 30.0385 22.7152 30.0895C22.7794 30.1406 22.8274 30.2119 22.8589 30.3036C22.8916 30.3952 22.9079 30.5026 22.9079 30.6255C22.9079 30.7497 22.8916 30.8582 22.8589 30.951C22.8274 31.0426 22.7794 31.114 22.7152 31.165C22.6521 31.2161 22.5731 31.2416 22.4784 31.2416ZM22.4784 31.0606C22.5568 31.0606 22.615 31.0223 22.6531 30.9458C22.6923 30.8692 22.7119 30.7624 22.7119 30.6255C22.7119 30.4898 22.6923 30.3842 22.6531 30.3088C22.615 30.2322 22.5568 30.1939 22.4784 30.1939C22.4011 30.1939 22.3428 30.2322 22.3036 30.3088C22.2644 30.3854 22.2448 30.491 22.2448 30.6255C22.2448 30.7613 22.2644 30.868 22.3036 30.9458C22.3428 31.0223 22.4011 31.0606 22.4784 31.0606ZM23.4417 31.2416C23.3469 31.2416 23.2675 31.2161 23.2032 31.165C23.1401 31.114 23.0922 31.0426 23.0595 30.951C23.0279 30.8582 23.0121 30.7497 23.0121 30.6255C23.0121 30.5026 23.0279 30.3952 23.0595 30.3036C23.0922 30.2119 23.1401 30.1406 23.2032 30.0895C23.2675 30.0385 23.3469 30.0129 23.4417 30.0129C23.5364 30.0129 23.6153 30.0385 23.6785 30.0895C23.7427 30.1406 23.7906 30.2119 23.8222 30.3036C23.8549 30.3952 23.8712 30.5026 23.8712 30.6255C23.8712 30.7497 23.8549 30.8582 23.8222 30.951C23.7906 31.0426 23.7427 31.114 23.6785 31.165C23.6153 31.2161 23.5364 31.2416 23.4417 31.2416ZM23.4417 31.0606C23.5201 31.0606 23.5783 31.0223 23.6164 30.9458C23.6556 30.8692 23.6752 30.7624 23.6752 30.6255C23.6752 30.4898 23.6556 30.3842 23.6164 30.3088C23.5783 30.2322 23.5201 30.1939 23.4417 30.1939C23.3644 30.1939 23.3061 30.2322 23.2669 30.3088C23.2277 30.3854 23.2081 30.491 23.2081 30.6255C23.2081 30.7613 23.2277 30.868 23.2669 30.9458C23.3061 31.0223 23.3644 31.0606 23.4417 31.0606ZM24.5129 30.6064V30.7735H24.0343V30.6064H24.5129ZM25.1053 31.2416C25.0106 31.2416 24.9311 31.2161 24.8668 31.165C24.8037 31.114 24.7558 31.0426 24.7231 30.951C24.6915 30.8582 24.6757 30.7497 24.6757 30.6255C24.6757 30.5026 24.6915 30.3952 24.7231 30.3036C24.7558 30.2119 24.8037 30.1406 24.8668 30.0895C24.9311 30.0385 25.0106 30.0129 25.1053 30.0129C25.2 30.0129 25.279 30.0385 25.3421 30.0895C25.4063 30.1406 25.4543 30.2119 25.4858 30.3036C25.5185 30.3952 25.5348 30.5026 25.5348 30.6255C25.5348 30.7497 25.5185 30.8582 25.4858 30.951C25.4543 31.0426 25.4063 31.114 25.3421 31.165C25.279 31.2161 25.2 31.2416 25.1053 31.2416ZM25.1053 31.0606C25.1837 31.0606 25.2419 31.0223 25.28 30.9458C25.3192 30.8692 25.3388 30.7624 25.3388 30.6255C25.3388 30.4898 25.3192 30.3842 25.28 30.3088C25.2419 30.2322 25.1837 30.1939 25.1053 30.1939C25.028 30.1939 24.9697 30.2322 24.9305 30.3088C24.8913 30.3854 24.8717 30.491 24.8717 30.6255C24.8717 30.7613 24.8913 30.868 24.9305 30.9458C24.9697 31.0223 25.028 31.0606 25.1053 31.0606ZM26.0686 31.2416C25.9738 31.2416 25.8944 31.2161 25.8301 31.165C25.767 31.114 25.7191 31.0426 25.6864 30.951C25.6548 30.8582 25.639 30.7497 25.639 30.6255C25.639 30.5026 25.6548 30.3952 25.6864 30.3036C25.7191 30.2119 25.767 30.1406 25.8301 30.0895C25.8944 30.0385 25.9738 30.0129 26.0686 30.0129C26.1633 30.0129 26.2422 30.0385 26.3054 30.0895C26.3696 30.1406 26.4175 30.2119 26.4491 30.3036C26.4818 30.3952 26.4981 30.5026 26.4981 30.6255C26.4981 30.7497 26.4818 30.8582 26.4491 30.951C26.4175 31.0426 26.3696 31.114 26.3054 31.165C26.2422 31.2161 26.1633 31.2416 26.0686 31.2416ZM26.0686 31.0606C26.147 31.0606 26.2052 31.0223 26.2433 30.9458C26.2825 30.8692 26.3021 30.7624 26.3021 30.6255C26.3021 30.4898 26.2825 30.3842 26.2433 30.3088C26.2052 30.2322 26.147 30.1939 26.0686 30.1939C25.9913 30.1939 25.933 30.2322 25.8938 30.3088C25.8546 30.3854 25.835 30.491 25.835 30.6255C25.835 30.7613 25.8546 30.868 25.8938 30.9458C25.933 31.0223 25.9913 31.0606 26.0686 31.0606ZM27.032 31.2416C26.9372 31.2416 26.8577 31.2161 26.7935 31.165C26.7304 31.114 26.6824 31.0426 26.6498 30.951C26.6182 30.8582 26.6024 30.7497 26.6024 30.6255C26.6024 30.5026 26.6182 30.3952 26.6498 30.3036C26.6824 30.2119 26.7304 30.1406 26.7935 30.0895C26.8577 30.0385 26.9372 30.0129 27.032 30.0129C27.1267 30.0129 27.2056 30.0385 27.2688 30.0895C27.333 30.1406 27.3809 30.2119 27.4125 30.3036C27.4452 30.3952 27.4615 30.5026 27.4615 30.6255C27.4615 30.7497 27.4452 30.8582 27.4125 30.951C27.3809 31.0426 27.333 31.114 27.2688 31.165C27.2056 31.2161 27.1267 31.2416 27.032 31.2416ZM27.032 31.0606C27.1104 31.0606 27.1686 31.0223 27.2067 30.9458C27.2459 30.8692 27.2655 30.7624 27.2655 30.6255C27.2655 30.4898 27.2459 30.3842 27.2067 30.3088C27.1686 30.2322 27.1104 30.1939 27.032 30.1939C26.9547 30.1939 26.8964 30.2322 26.8572 30.3088C26.818 30.3854 26.7984 30.491 26.7984 30.6255C26.7984 30.7613 26.818 30.868 26.8572 30.9458C26.8964 31.0223 26.9547 31.0606 27.032 31.0606ZM27.9954 31.2416C27.9006 31.2416 27.8211 31.2161 27.7569 31.165C27.6937 31.114 27.6458 31.0426 27.6132 30.951C27.5816 30.8582 27.5658 30.7497 27.5658 30.6255C27.5658 30.5026 27.5816 30.3952 27.6132 30.3036C27.6458 30.2119 27.6937 30.1406 27.7569 30.0895C27.8211 30.0385 27.9006 30.0129 27.9954 30.0129C28.0901 30.0129 28.169 30.0385 28.2322 30.0895C28.2964 30.1406 28.3443 30.2119 28.3759 30.3036C28.4086 30.3952 28.4249 30.5026 28.4249 30.6255C28.4249 30.7497 28.4086 30.8582 28.3759 30.951C28.3443 31.0426 28.2964 31.114 28.2322 31.165C28.169 31.2161 28.0901 31.2416 27.9954 31.2416ZM27.9954 31.0606C28.0737 31.0606 28.132 31.0223 28.1701 30.9458C28.2093 30.8692 28.2289 30.7624 28.2289 30.6255C28.2289 30.4898 28.2093 30.3842 28.1701 30.3088C28.132 30.2322 28.0737 30.1939 27.9954 30.1939C27.918 30.1939 27.8598 30.2322 27.8206 30.3088C27.7814 30.3854 27.7618 30.491 27.7618 30.6255C27.7618 30.7613 27.7814 30.868 27.8206 30.9458C27.8598 31.0223 27.918 31.0606 27.9954 31.0606Z" fill="#5A469B"/>
</g>
</g>
</g>
<defs>
<filter id="filter0_d_1356_188190" x="2.32666" y="15.757" width="43.3467" height="21.7791" filterUnits="userSpaceOnUse" color-interpolation-filters="sRGB">
<feFlood flood-opacity="0" result="BackgroundImageFix"/>
<feColorMatrix in="SourceAlpha" type="matrix" values="0 0 0 0 0 0 0 0 0 0 0 0 0 0 0 0 0 0 127 0" result="hardAlpha"/>
<feOffset dy="1"/>
<feGaussianBlur stdDeviation="1.5"/>
<feColorMatrix type="matrix" values="0 0 0 0 0 0 0 0 0 0 0 0 0 0 0 0 0 0 0.1 0"/>
<feBlend mode="normal" in2="BackgroundImageFix" result="effect1_dropShadow_1356_188190"/>
<feBlend mode="normal" in="SourceGraphic" in2="effect1_dropShadow_1356_188190" result="shape"/>
</filter>
<clipPath id="clip0_1356_188190">
<rect width="48" height="48" rx="5" fill="white"/>
</clipPath>
<clipPath id="clip1_1356_188190">
<rect width="38" height="21" fill="white" transform="translate(5 13)"/>
</clipPath>
</defs>
</svg>
