<svg width="48" height="48" viewBox="0 0 48 48" fill="none" xmlns="http://www.w3.org/2000/svg">
<g clip-path="url(#clip0_1356_188197)">
<rect width="48" height="48" rx="2" fill="#383838"/>
<g clip-path="url(#clip1_1356_188197)">
<g filter="url(#filter0_d_1356_188197)">
<path d="M41.5845 19.2128H6.41547C5.81413 19.2128 5.32664 19.6891 5.32664 20.2766V27.5106C5.32664 28.0982 5.81413 28.5745 6.41547 28.5745H41.5845C42.1859 28.5745 42.6734 28.0982 42.6734 27.5106V20.2766C42.6734 19.6891 42.1859 19.2128 41.5845 19.2128Z" fill="white"/>
<path d="M41.5845 19.266H6.41547C5.8442 19.266 5.38109 19.7185 5.38109 20.2766V27.5107C5.38109 28.0688 5.8442 28.5213 6.41547 28.5213H41.5845C42.1558 28.5213 42.6189 28.0688 42.6189 27.5107V20.2766C42.6189 19.7185 42.1558 19.266 41.5845 19.266Z" stroke="#E2DEDE"/>
<path fill-rule="evenodd" clip-rule="evenodd" d="M8.37536 21.1809C8.94659 21.1809 9.40974 21.6334 9.40974 22.1915C9.40974 22.7497 8.94659 23.2022 8.37536 23.2022C7.80413 23.2022 7.34097 22.7497 7.34097 22.1915C7.34097 21.6334 7.80413 21.1809 8.37536 21.1809ZM8.37536 21.2873C7.86426 21.2873 7.44986 21.6922 7.44986 22.1915C7.44986 22.6909 7.86426 23.0958 8.37536 23.0958C8.88645 23.0958 9.30086 22.6909 9.30086 22.1915C9.30086 21.6922 8.88645 21.2873 8.37536 21.2873ZM8.92032 21.7796L8.93109 21.7886C8.96163 21.8191 8.96163 21.8678 8.93109 21.8983L8.23509 22.5929C8.22041 22.6075 8.20107 22.6151 8.1816 22.6154L8.16994 22.6148C8.15351 22.6152 8.13696 22.6105 8.12304 22.6007L8.11315 22.5923L7.82009 22.2999C7.79261 22.2724 7.78986 22.2302 7.81185 22.1998L7.82124 22.1891C7.84855 22.1629 7.89072 22.1607 7.92054 22.1822L7.92998 22.1902L8.17436 22.434L8.8212 21.7886C8.84794 21.7619 8.89006 21.7588 8.92032 21.7796Z" fill="#007545"/>
<path d="M10.651 22.2978L10.7477 21.4348H10.8679L11.1488 22.1012L11.4284 21.4348H11.5473L11.6453 22.2978H11.5369L11.4598 21.6034L11.1919 22.2468H11.1005L10.8365 21.6148L10.7607 22.2978H10.651ZM12.0918 22.3106C11.9916 22.3106 11.9128 22.2821 11.8553 22.2251C11.7986 22.1672 11.7703 22.0893 11.7703 21.9914C11.7703 21.9285 11.7834 21.8727 11.8095 21.8242C11.8357 21.7757 11.8714 21.7378 11.9167 21.7106C11.962 21.6825 12.0129 21.6685 12.0695 21.6685C12.1549 21.6685 12.2215 21.6957 12.2695 21.7502C12.3174 21.8046 12.3413 21.8791 12.3413 21.9736C12.3413 21.9812 12.3409 21.9885 12.34 21.9953C12.34 22.0021 12.3396 22.0076 12.3387 22.0119H11.8775C11.881 22.0783 11.9019 22.1302 11.9402 22.1676C11.9794 22.2051 12.0317 22.2238 12.097 22.2238C12.1275 22.2238 12.1593 22.2191 12.1924 22.2097C12.2263 22.2004 12.2612 22.1868 12.2969 22.1689L12.3335 22.2404C12.2542 22.2872 12.1736 22.3106 12.0918 22.3106ZM12.0669 21.7553C12.019 21.7553 11.9785 21.771 11.9454 21.8025C11.9123 21.834 11.891 21.8757 11.8814 21.9276H12.2368C12.2298 21.8714 12.2115 21.8289 12.1819 21.8C12.1532 21.7702 12.1148 21.7553 12.0669 21.7553ZM12.6894 22.3106C12.6476 22.3106 12.6049 22.3051 12.5613 22.294C12.5178 22.2829 12.4773 22.2663 12.4398 22.2442L12.4764 22.1702C12.5452 22.2076 12.6145 22.2263 12.6842 22.2263C12.7312 22.2263 12.7678 22.2178 12.7939 22.2008C12.8209 22.1829 12.8344 22.1587 12.8344 22.128C12.8344 22.0812 12.8039 22.0506 12.743 22.0361L12.6371 22.0106C12.5814 21.9978 12.54 21.9774 12.513 21.9493C12.4869 21.9212 12.4738 21.8868 12.4738 21.8459C12.4738 21.7923 12.4938 21.7493 12.5339 21.717C12.574 21.6846 12.6293 21.6685 12.6998 21.6685C12.7782 21.6685 12.8501 21.688 12.9154 21.7272L12.8762 21.7974C12.817 21.7676 12.7599 21.7527 12.7051 21.7527C12.665 21.7527 12.6341 21.7604 12.6123 21.7757C12.5905 21.791 12.5796 21.8127 12.5796 21.8408C12.5796 21.8629 12.5866 21.8808 12.6005 21.8944C12.6153 21.9072 12.6402 21.9174 12.675 21.9251L12.7822 21.9506C12.8335 21.9625 12.8727 21.9834 12.8997 22.0131C12.9276 22.0429 12.9416 22.0791 12.9416 22.1217C12.9416 22.1778 12.9185 22.2234 12.8723 22.2583C12.827 22.2931 12.766 22.3106 12.6894 22.3106ZM13.2776 22.3106C13.2358 22.3106 13.1931 22.3051 13.1496 22.294C13.106 22.2829 13.0655 22.2663 13.0281 22.2442L13.0646 22.1702C13.1334 22.2076 13.2027 22.2263 13.2724 22.2263C13.3194 22.2263 13.356 22.2178 13.3821 22.2008C13.4091 22.1829 13.4226 22.1587 13.4226 22.128C13.4226 22.0812 13.3922 22.0506 13.3312 22.0361L13.2253 22.0106C13.1696 21.9978 13.1282 21.9774 13.1012 21.9493C13.0751 21.9212 13.062 21.8868 13.062 21.8459C13.062 21.7923 13.0821 21.7493 13.1221 21.717C13.1622 21.6846 13.2175 21.6685 13.2881 21.6685C13.3665 21.6685 13.4383 21.688 13.5037 21.7272L13.4645 21.7974C13.4052 21.7676 13.3482 21.7527 13.2933 21.7527C13.2532 21.7527 13.2223 21.7604 13.2005 21.7757C13.1787 21.791 13.1679 21.8127 13.1679 21.8408C13.1679 21.8629 13.1748 21.8808 13.1888 21.8944C13.2036 21.9072 13.2284 21.9174 13.2632 21.9251L13.3704 21.9506C13.4218 21.9625 13.461 21.9834 13.488 22.0131C13.5158 22.0429 13.5298 22.0791 13.5298 22.1217C13.5298 22.1778 13.5067 22.2234 13.4605 22.2583C13.4152 22.2931 13.3543 22.3106 13.2776 22.3106ZM13.6502 21.7323C13.6851 21.711 13.723 21.6953 13.7639 21.6851C13.8057 21.674 13.8484 21.6685 13.892 21.6685C13.9721 21.6685 14.0331 21.6885 14.0749 21.7285C14.1176 21.7685 14.1389 21.8242 14.1389 21.8957V22.1319C14.1389 22.1625 14.1406 22.1927 14.1441 22.2225C14.1485 22.2514 14.1537 22.2753 14.1598 22.294L14.0657 22.3093C14.0579 22.2838 14.0518 22.2557 14.0474 22.2251C13.9856 22.2821 13.9111 22.3106 13.824 22.3106C13.7639 22.3106 13.7156 22.2948 13.679 22.2634C13.6424 22.2319 13.6241 22.1893 13.6241 22.1357C13.6241 22.0838 13.6463 22.0408 13.6907 22.0068C13.736 21.9727 13.8022 21.951 13.8893 21.9417L14.0344 21.9276V21.8983C14.0344 21.8029 13.9839 21.7553 13.8828 21.7553C13.8523 21.7553 13.8197 21.76 13.7848 21.7693C13.75 21.7778 13.7173 21.7902 13.6868 21.8063L13.6502 21.7323ZM13.7326 22.1306C13.7326 22.1621 13.7439 22.1863 13.7665 22.2034C13.7892 22.2195 13.8192 22.2276 13.8567 22.2276C13.922 22.2276 13.9812 22.2046 14.0344 22.1587V22.008L13.8985 22.0234C13.8419 22.0293 13.8001 22.0412 13.7731 22.0591C13.7461 22.077 13.7326 22.1008 13.7326 22.1306ZM14.5674 22.3029C14.5108 22.3029 14.4616 22.2902 14.4198 22.2646C14.378 22.2391 14.3453 22.2029 14.3218 22.1561C14.2991 22.1085 14.2878 22.0527 14.2878 21.9889C14.2878 21.9259 14.3009 21.8702 14.327 21.8217C14.3532 21.7731 14.3902 21.7357 14.4381 21.7093C14.4869 21.6821 14.5448 21.6685 14.6119 21.6685C14.6606 21.6685 14.7064 21.6731 14.749 21.6825C14.7926 21.6919 14.8322 21.7038 14.8679 21.7183V22.34C14.8679 22.4123 14.8414 22.4702 14.7882 22.5136C14.736 22.5578 14.6654 22.58 14.5766 22.58C14.5304 22.58 14.4851 22.5736 14.4407 22.5608C14.3963 22.548 14.3566 22.5302 14.3218 22.5072L14.3623 22.4319C14.3928 22.4514 14.4263 22.4663 14.4629 22.4766C14.5004 22.4876 14.5356 22.4931 14.5687 22.4931C14.6306 22.4931 14.6785 22.4795 14.7125 22.4523C14.7473 22.4259 14.7647 22.3893 14.7647 22.3425V22.2238C14.7395 22.2493 14.7094 22.2689 14.6746 22.2825C14.6406 22.2961 14.6049 22.3029 14.5674 22.3029ZM14.3963 21.9889C14.3963 22.0621 14.4137 22.1178 14.4485 22.1561C14.4842 22.1944 14.5335 22.2136 14.5962 22.2136C14.6293 22.2136 14.6602 22.2068 14.6889 22.1931C14.7186 22.1795 14.743 22.1612 14.7621 22.1383V21.7783C14.7412 21.7714 14.7181 21.7659 14.6929 21.7617C14.6676 21.7574 14.6415 21.7553 14.6145 21.7553C14.5448 21.7553 14.4908 21.777 14.4525 21.8204C14.415 21.8629 14.3963 21.9191 14.3963 21.9889ZM15.3519 22.3106C15.2517 22.3106 15.1729 22.2821 15.1154 22.2251C15.0588 22.1672 15.0304 22.0893 15.0304 21.9914C15.0304 21.9285 15.0435 21.8727 15.0696 21.8242C15.0958 21.7757 15.1315 21.7378 15.1768 21.7106C15.2221 21.6825 15.273 21.6685 15.3297 21.6685C15.415 21.6685 15.4817 21.6957 15.5296 21.7502C15.5775 21.8046 15.6014 21.8791 15.6014 21.9736C15.6014 21.9812 15.601 21.9885 15.6001 21.9953C15.6001 22.0021 15.5997 22.0076 15.5988 22.0119H15.1376C15.1411 22.0783 15.162 22.1302 15.2003 22.1676C15.2395 22.2051 15.2918 22.2238 15.3571 22.2238C15.3876 22.2238 15.4194 22.2191 15.4525 22.2097C15.4864 22.2004 15.5213 22.1868 15.557 22.1689L15.5936 22.2404C15.5143 22.2872 15.4337 22.3106 15.3519 22.3106ZM15.327 21.7553C15.2791 21.7553 15.2386 21.771 15.2055 21.8025C15.1724 21.834 15.1511 21.8757 15.1415 21.9276H15.4969C15.4899 21.8714 15.4716 21.8289 15.442 21.8C15.4133 21.7702 15.3749 21.7553 15.327 21.7553ZM16.2812 22.3106C16.2176 22.3106 16.1701 22.2944 16.1388 22.2621C16.1074 22.2297 16.0917 22.1838 16.0917 22.1242V21.7655H15.9546V21.6812H16.0917C16.0935 21.6506 16.0961 21.6204 16.0996 21.5906C16.1031 21.5608 16.1066 21.5306 16.11 21.5H16.1976V21.6812H16.4106V21.7655H16.1976V22.1051C16.1976 22.1451 16.2059 22.174 16.2224 22.1919C16.239 22.2097 16.266 22.2187 16.3034 22.2187C16.3217 22.2187 16.3404 22.2166 16.3596 22.2123C16.3796 22.208 16.3997 22.2017 16.4197 22.1931L16.4497 22.271C16.4245 22.2829 16.3975 22.2923 16.3687 22.2991C16.34 22.3068 16.3108 22.3106 16.2812 22.3106ZM16.8549 22.3106C16.7547 22.3106 16.6759 22.2821 16.6184 22.2251C16.5618 22.1672 16.5335 22.0893 16.5335 21.9914C16.5335 21.9285 16.5465 21.8727 16.5727 21.8242C16.5988 21.7757 16.6345 21.7378 16.6798 21.7106C16.7251 21.6825 16.7761 21.6685 16.8327 21.6685C16.9181 21.6685 16.9847 21.6957 17.0326 21.7502C17.0805 21.8046 17.1045 21.8791 17.1045 21.9736C17.1045 21.9812 17.104 21.9885 17.1032 21.9953C17.1032 22.0021 17.1027 22.0076 17.1018 22.0119H16.6406C16.6441 22.0783 16.665 22.1302 16.7033 22.1676C16.7425 22.2051 16.7948 22.2238 16.8601 22.2238C16.8906 22.2238 16.9224 22.2191 16.9555 22.2097C16.9895 22.2004 17.0243 22.1868 17.06 22.1689L17.0966 22.2404C17.0174 22.2872 16.9368 22.3106 16.8549 22.3106ZM16.8301 21.7553C16.7822 21.7553 16.7417 21.771 16.7086 21.8025C16.6755 21.834 16.6541 21.8757 16.6445 21.9276H16.9999C16.993 21.8714 16.9747 21.8289 16.9451 21.8C16.9163 21.7702 16.878 21.7553 16.8301 21.7553ZM17.1899 22.2978L17.4134 21.9838L17.1952 21.6812H17.3141L17.4774 21.9123L17.642 21.6812H17.757L17.5388 21.9851L17.7648 22.2978H17.6446L17.4748 22.0578L17.3049 22.2978H17.1899ZM18.1351 22.3106C18.0716 22.3106 18.0241 22.2944 17.9927 22.2621C17.9614 22.2297 17.9457 22.1838 17.9457 22.1242V21.7655H17.8085V21.6812H17.9457C17.9474 21.6506 17.95 21.6204 17.9535 21.5906C17.957 21.5608 17.9605 21.5306 17.964 21.5H18.0515V21.6812H18.2645V21.7655H18.0515V22.1051C18.0515 22.1451 18.0598 22.174 18.0763 22.1919C18.0929 22.2097 18.1199 22.2187 18.1574 22.2187C18.1756 22.2187 18.1944 22.2166 18.2135 22.2123C18.2336 22.208 18.2536 22.2017 18.2736 22.1931L18.3037 22.271C18.2784 22.2829 18.2514 22.2923 18.2227 22.2991C18.1939 22.3068 18.1648 22.3106 18.1351 22.3106ZM18.9465 22.3029C18.8899 22.3029 18.8407 22.2902 18.7989 22.2646C18.7571 22.2391 18.7244 22.2029 18.7009 22.1561C18.6782 22.1085 18.6669 22.0527 18.6669 21.9889C18.6669 21.9259 18.68 21.8702 18.7061 21.8217C18.7323 21.7731 18.7693 21.7357 18.8172 21.7093C18.866 21.6821 18.9239 21.6685 18.991 21.6685C19.0397 21.6685 19.0855 21.6731 19.1282 21.6825C19.1717 21.6919 19.2113 21.7038 19.2471 21.7183V22.34C19.2471 22.4123 19.2205 22.4702 19.1673 22.5136C19.1151 22.5578 19.0445 22.58 18.9557 22.58C18.9095 22.58 18.8642 22.5736 18.8198 22.5608C18.7754 22.548 18.7357 22.5302 18.7009 22.5072L18.7414 22.4319C18.7719 22.4514 18.8054 22.4663 18.842 22.4766C18.8795 22.4876 18.9147 22.4931 18.9478 22.4931C19.0097 22.4931 19.0576 22.4795 19.0916 22.4523C19.1264 22.4259 19.1438 22.3893 19.1438 22.3425V22.2238C19.1186 22.2493 19.0885 22.2689 19.0537 22.2825C19.0197 22.2961 18.984 22.3029 18.9465 22.3029ZM18.7754 21.9889C18.7754 22.0621 18.7928 22.1178 18.8276 22.1561C18.8633 22.1944 18.9126 22.2136 18.9753 22.2136C19.0084 22.2136 19.0393 22.2068 19.068 22.1931C19.0977 22.1795 19.1221 22.1612 19.1412 22.1383V21.7783C19.1203 21.7714 19.0972 21.7659 19.072 21.7617C19.0467 21.7574 19.0206 21.7553 18.9936 21.7553C18.9239 21.7553 18.8699 21.777 18.8316 21.8204C18.7941 21.8629 18.7754 21.9191 18.7754 21.9889ZM19.7232 22.3106C19.6605 22.3106 19.6056 22.2974 19.5586 22.271C19.5115 22.2438 19.4749 22.2063 19.4488 22.1587C19.4227 22.1102 19.4096 22.054 19.4096 21.9902C19.4096 21.9263 19.4227 21.8702 19.4488 21.8217C19.4749 21.7731 19.5115 21.7357 19.5586 21.7093C19.6056 21.6821 19.6605 21.6685 19.7232 21.6685C19.7859 21.6685 19.8408 21.6821 19.8878 21.7093C19.9357 21.7357 19.9728 21.7731 19.9989 21.8217C20.025 21.8702 20.0381 21.9263 20.0381 21.9902C20.0381 22.054 20.025 22.1102 19.9989 22.1587C19.9728 22.2063 19.9357 22.2438 19.8878 22.271C19.8408 22.2974 19.7859 22.3106 19.7232 22.3106ZM19.7232 22.2238C19.7877 22.2238 19.8382 22.2025 19.8748 22.16C19.9113 22.1166 19.9296 22.06 19.9296 21.9902C19.9296 21.9204 19.9113 21.8638 19.8748 21.8204C19.8382 21.777 19.7877 21.7553 19.7232 21.7553C19.6596 21.7553 19.6095 21.777 19.5729 21.8204C19.5364 21.8638 19.5181 21.9204 19.5181 21.9902C19.5181 22.06 19.5364 22.1166 19.5729 22.16C19.6095 22.2025 19.6596 22.2238 19.7232 22.2238ZM20.4749 22.3106C20.3747 22.3106 20.2959 22.2821 20.2384 22.2251C20.1818 22.1672 20.1535 22.0893 20.1535 21.9914C20.1535 21.9285 20.1666 21.8727 20.1927 21.8242C20.2188 21.7757 20.2545 21.7378 20.2998 21.7106C20.3451 21.6825 20.3961 21.6685 20.4527 21.6685C20.5381 21.6685 20.6047 21.6957 20.6526 21.7502C20.7005 21.8046 20.7245 21.8791 20.7245 21.9736C20.7245 21.9812 20.724 21.9885 20.7232 21.9953C20.7232 22.0021 20.7227 22.0076 20.7219 22.0119H20.2606C20.2641 22.0783 20.285 22.1302 20.3234 22.1676C20.3626 22.2051 20.4148 22.2238 20.4801 22.2238C20.5106 22.2238 20.5424 22.2191 20.5755 22.2097C20.6095 22.2004 20.6443 22.1868 20.6801 22.1689L20.7166 22.2404C20.6374 22.2872 20.5568 22.3106 20.4749 22.3106ZM20.4501 21.7553C20.4022 21.7553 20.3617 21.771 20.3286 21.8025C20.2955 21.834 20.2741 21.8757 20.2646 21.9276H20.62C20.613 21.8714 20.5947 21.8289 20.5651 21.8C20.5363 21.7702 20.498 21.7553 20.4501 21.7553ZM21.0725 22.3106C21.0307 22.3106 20.988 22.3051 20.9444 22.294C20.9009 22.2829 20.8604 22.2663 20.8229 22.2442L20.8595 22.1702C20.9283 22.2076 20.9976 22.2263 21.0672 22.2263C21.1143 22.2263 21.1509 22.2178 21.177 22.2008C21.204 22.1829 21.2175 22.1587 21.2175 22.128C21.2175 22.0812 21.187 22.0506 21.126 22.0361L21.0202 22.0106C20.9645 21.9978 20.9231 21.9774 20.8961 21.9493C20.8699 21.9212 20.8569 21.8868 20.8569 21.8459C20.8569 21.7923 20.8769 21.7493 20.917 21.717C20.9571 21.6846 21.0124 21.6685 21.0829 21.6685C21.1613 21.6685 21.2332 21.688 21.2985 21.7272L21.2593 21.7974C21.2001 21.7676 21.143 21.7527 21.0881 21.7527C21.0481 21.7527 21.0172 21.7604 20.9954 21.7757C20.9736 21.791 20.9627 21.8127 20.9627 21.8408C20.9627 21.8629 20.9697 21.8808 20.9836 21.8944C20.9984 21.9072 21.0233 21.9174 21.0581 21.9251L21.1652 21.9506C21.2166 21.9625 21.2558 21.9834 21.2828 22.0131C21.3107 22.0429 21.3246 22.0791 21.3246 22.1217C21.3246 22.1778 21.3016 22.2234 21.2554 22.2583C21.2101 22.2931 21.1491 22.3106 21.0725 22.3106ZM21.7533 22.2978V21.3978H21.8591V21.7463C21.9192 21.6944 21.9881 21.6685 22.0656 21.6685C22.1361 21.6685 22.1906 21.6885 22.2289 21.7285C22.2681 21.7676 22.2877 21.8229 22.2877 21.8944V22.2978H22.1819V21.911C22.1819 21.8625 22.1688 21.8251 22.1427 21.7987C22.1165 21.7723 22.0795 21.7591 22.0316 21.7591C21.968 21.7591 21.9105 21.7791 21.8591 21.8191V22.2978H21.7533ZM22.7575 22.3106C22.6574 22.3106 22.5785 22.2821 22.521 22.2251C22.4644 22.1672 22.4361 22.0893 22.4361 21.9914C22.4361 21.9285 22.4492 21.8727 22.4753 21.8242C22.5014 21.7757 22.5372 21.7378 22.5824 21.7106C22.6277 21.6825 22.6787 21.6685 22.7353 21.6685C22.8207 21.6685 22.8873 21.6957 22.9352 21.7502C22.9831 21.8046 23.0071 21.8791 23.0071 21.9736C23.0071 21.9812 23.0067 21.9885 23.0058 21.9953C23.0058 22.0021 23.0053 22.0076 23.0045 22.0119H22.5433C22.5467 22.0783 22.5676 22.1302 22.606 22.1676C22.6452 22.2051 22.6974 22.2238 22.7628 22.2238C22.7932 22.2238 22.825 22.2191 22.8581 22.2097C22.8921 22.2004 22.927 22.1868 22.9627 22.1689L22.9993 22.2404C22.92 22.2872 22.8394 22.3106 22.7575 22.3106ZM22.7327 21.7553C22.6848 21.7553 22.6443 21.771 22.6112 21.8025C22.5781 21.834 22.5568 21.8757 22.5472 21.9276H22.9026C22.8956 21.8714 22.8773 21.8289 22.8477 21.8C22.8189 21.7702 22.7806 21.7553 22.7327 21.7553ZM23.1697 22.2978V21.8446C23.1697 21.8183 23.1675 21.7902 23.1631 21.7604C23.1596 21.7306 23.1553 21.7059 23.1501 21.6863L23.2467 21.6697C23.252 21.6876 23.2563 21.7059 23.2598 21.7246C23.2633 21.7425 23.2659 21.7595 23.2676 21.7757C23.3164 21.7051 23.3791 21.6697 23.4558 21.6697C23.4828 21.6697 23.5098 21.6736 23.5368 21.6812L23.5264 21.7808C23.5133 21.7766 23.5007 21.7736 23.4885 21.7719C23.4763 21.7702 23.4619 21.7693 23.4453 21.7693C23.4105 21.7693 23.3783 21.7766 23.3487 21.791C23.3199 21.8046 23.2955 21.8238 23.2755 21.8485V22.2978H23.1697ZM23.9251 22.3106C23.8249 22.3106 23.7461 22.2821 23.6886 22.2251C23.632 22.1672 23.6037 22.0893 23.6037 21.9914C23.6037 21.9285 23.6167 21.8727 23.6429 21.8242C23.669 21.7757 23.7047 21.7378 23.75 21.7106C23.7953 21.6825 23.8462 21.6685 23.9029 21.6685C23.9882 21.6685 24.0549 21.6957 24.1028 21.7502C24.1507 21.8046 24.1746 21.8791 24.1746 21.9736C24.1746 21.9812 24.1742 21.9885 24.1733 21.9953C24.1733 22.0021 24.1729 22.0076 24.172 22.0119H23.7108C23.7143 22.0783 23.7352 22.1302 23.7735 22.1676C23.8127 22.2051 23.865 22.2238 23.9303 22.2238C23.9608 22.2238 23.9926 22.2191 24.0257 22.2097C24.0597 22.2004 24.0945 22.1868 24.1302 22.1689L24.1668 22.2404C24.0875 22.2872 24.007 22.3106 23.9251 22.3106ZM23.9003 21.7553C23.8523 21.7553 23.8118 21.771 23.7787 21.8025C23.7456 21.834 23.7243 21.8757 23.7147 21.9276H24.0701C24.0631 21.8714 24.0449 21.8289 24.0152 21.8C23.9865 21.7702 23.9482 21.7553 23.9003 21.7553ZM24.6532 22.3093C24.6427 22.2855 24.6336 22.2548 24.6257 22.2174C24.6188 22.1791 24.6153 22.1429 24.6153 22.1089V21.3978H24.7211V22.0885C24.7211 22.1242 24.7237 22.1608 24.729 22.1983C24.7342 22.2348 24.7412 22.2655 24.7499 22.2902L24.6532 22.3093ZM25.1957 22.3106C25.133 22.3106 25.0781 22.2974 25.0311 22.271C24.9841 22.2438 24.9475 22.2063 24.9214 22.1587C24.8952 22.1102 24.8822 22.054 24.8822 21.9902C24.8822 21.9263 24.8952 21.8702 24.9214 21.8217C24.9475 21.7731 24.9841 21.7357 25.0311 21.7093C25.0781 21.6821 25.133 21.6685 25.1957 21.6685C25.2585 21.6685 25.3133 21.6821 25.3604 21.7093C25.4083 21.7357 25.4453 21.7731 25.4714 21.8217C25.4976 21.8702 25.5106 21.9263 25.5106 21.9902C25.5106 22.054 25.4976 22.1102 25.4714 22.1587C25.4453 22.2063 25.4083 22.2438 25.3604 22.271C25.3133 22.2974 25.2585 22.3106 25.1957 22.3106ZM25.1957 22.2238C25.2602 22.2238 25.3107 22.2025 25.3473 22.16C25.3839 22.1166 25.4022 22.06 25.4022 21.9902C25.4022 21.9204 25.3839 21.8638 25.3473 21.8204C25.3107 21.777 25.2602 21.7553 25.1957 21.7553C25.1322 21.7553 25.0821 21.777 25.0455 21.8204C25.0089 21.8638 24.9906 21.9204 24.9906 21.9902C24.9906 22.06 25.0089 22.1166 25.0455 22.16C25.0821 22.2025 25.1322 22.2238 25.1957 22.2238ZM25.6731 22.2978V21.8446C25.6731 21.8183 25.6709 21.7902 25.6665 21.7604C25.6631 21.7306 25.6587 21.7059 25.6535 21.6863L25.7502 21.6697C25.7554 21.6876 25.7598 21.7059 25.7632 21.7246C25.7667 21.7425 25.7693 21.7595 25.7711 21.7757C25.8199 21.7051 25.8826 21.6697 25.9592 21.6697C25.9862 21.6697 26.0132 21.6736 26.0402 21.6812L26.0298 21.7808C26.0167 21.7766 26.0041 21.7736 25.9919 21.7719C25.9797 21.7702 25.9653 21.7693 25.9488 21.7693C25.9139 21.7693 25.8817 21.7766 25.8521 21.791C25.8233 21.8046 25.7989 21.8238 25.7789 21.8485V22.2978H25.6731ZM26.4285 22.3106C26.3283 22.3106 26.2495 22.2821 26.192 22.2251C26.1354 22.1672 26.1071 22.0893 26.1071 21.9914C26.1071 21.9285 26.1202 21.8727 26.1463 21.8242C26.1724 21.7757 26.2081 21.7378 26.2534 21.7106C26.2987 21.6825 26.3497 21.6685 26.4063 21.6685C26.4917 21.6685 26.5583 21.6957 26.6062 21.7502C26.6541 21.8046 26.6781 21.8791 26.6781 21.9736C26.6781 21.9812 26.6776 21.9885 26.6768 21.9953C26.6768 22.0021 26.6763 22.0076 26.6755 22.0119H26.2142C26.2177 22.0783 26.2386 22.1302 26.2769 22.1676C26.3161 22.2051 26.3684 22.2238 26.4337 22.2238C26.4642 22.2238 26.496 22.2191 26.5291 22.2097C26.5631 22.2004 26.5979 22.1868 26.6336 22.1689L26.6702 22.2404C26.591 22.2872 26.5104 22.3106 26.4285 22.3106ZM26.4037 21.7553C26.3558 21.7553 26.3153 21.771 26.2822 21.8025C26.2491 21.834 26.2277 21.8757 26.2181 21.9276H26.5735C26.5666 21.8714 26.5483 21.8289 26.5187 21.8C26.4899 21.7702 26.4516 21.7553 26.4037 21.7553ZM26.8406 22.2978V21.8446C26.8406 21.8183 26.8384 21.7902 26.8341 21.7604C26.8306 21.7306 26.8263 21.7059 26.821 21.6863L26.9177 21.6697C26.9256 21.6978 26.9317 21.7268 26.936 21.7566C26.9979 21.6978 27.0702 21.6685 27.1529 21.6685C27.2452 21.6685 27.3097 21.7012 27.3463 21.7668C27.3759 21.7378 27.4103 21.7144 27.4495 21.6966C27.4896 21.6778 27.534 21.6685 27.5828 21.6685C27.6533 21.6685 27.7078 21.6885 27.7461 21.7285C27.7853 21.7676 27.8049 21.8229 27.8049 21.8944V22.2978H27.6991V21.911C27.6991 21.8625 27.6856 21.8251 27.6586 21.7987C27.6324 21.7723 27.5958 21.7591 27.5488 21.7591C27.5174 21.7591 27.4856 21.7651 27.4534 21.777C27.4221 21.7889 27.3937 21.8055 27.3685 21.8268C27.3728 21.848 27.375 21.8706 27.375 21.8944V22.2978H27.2692V21.911C27.2692 21.8625 27.2557 21.8251 27.2287 21.7987C27.2026 21.7723 27.166 21.7591 27.1189 21.7591C27.0553 21.7591 26.9979 21.7791 26.9465 21.8191V22.2978H26.8406ZM28.3309 21.5395C28.31 21.5395 28.2926 21.5331 28.2786 21.5204C28.2647 21.5076 28.2577 21.4919 28.2577 21.4731C28.2577 21.4536 28.2647 21.4374 28.2786 21.4246C28.2926 21.411 28.31 21.4042 28.3309 21.4042C28.3527 21.4042 28.3701 21.411 28.3832 21.4246C28.3971 21.4374 28.4041 21.4536 28.4041 21.4731C28.4041 21.4919 28.3971 21.5076 28.3832 21.5204C28.3701 21.5331 28.3527 21.5395 28.3309 21.5395ZM28.2786 22.2978V21.6812H28.3845V22.2978H28.2786ZM28.5925 22.5723V21.8446C28.5925 21.8174 28.5908 21.7893 28.5873 21.7604C28.5838 21.7306 28.5786 21.7059 28.5716 21.6863L28.6696 21.6697C28.6783 21.7004 28.6849 21.7302 28.6892 21.7591C28.7145 21.7302 28.7445 21.708 28.7794 21.6927C28.8151 21.6766 28.8526 21.6685 28.8918 21.6685C28.9484 21.6685 28.9976 21.6817 29.0394 21.708C29.0821 21.7336 29.1147 21.7702 29.1374 21.8178C29.1609 21.8655 29.1727 21.9212 29.1727 21.9851C29.1727 22.0489 29.16 22.1055 29.1348 22.1548C29.1104 22.2034 29.0756 22.2417 29.0303 22.2697C28.985 22.297 28.931 22.3106 28.8682 22.3106C28.8064 22.3106 28.7498 22.2957 28.6984 22.2659V22.5723H28.5925ZM28.863 21.7553C28.8308 21.7553 28.7999 21.7621 28.7702 21.7757C28.7415 21.7893 28.7175 21.8076 28.6984 21.8306V22.1778C28.7219 22.194 28.7467 22.2059 28.7729 22.2136C28.799 22.2204 28.8247 22.2238 28.8499 22.2238C28.917 22.2238 28.9693 22.2017 29.0067 22.1574C29.0451 22.1131 29.0642 22.0557 29.0642 21.9851C29.0642 21.9119 29.0464 21.8553 29.0107 21.8153C28.9749 21.7753 28.9257 21.7553 28.863 21.7553ZM29.5207 22.3106C29.4789 22.3106 29.4362 22.3051 29.3926 22.294C29.3491 22.2829 29.3086 22.2663 29.2711 22.2442L29.3077 22.1702C29.3765 22.2076 29.4457 22.2263 29.5154 22.2263C29.5625 22.2263 29.5991 22.2178 29.6252 22.2008C29.6522 22.1829 29.6657 22.1587 29.6657 22.128C29.6657 22.0812 29.6352 22.0506 29.5742 22.0361L29.4684 22.0106C29.4127 21.9978 29.3713 21.9774 29.3443 21.9493C29.3181 21.9212 29.3051 21.8868 29.3051 21.8459C29.3051 21.7923 29.3251 21.7493 29.3652 21.717C29.4052 21.6846 29.4606 21.6685 29.5311 21.6685C29.6095 21.6685 29.6814 21.688 29.7467 21.7272L29.7075 21.7974C29.6483 21.7676 29.5912 21.7527 29.5363 21.7527C29.4963 21.7527 29.4653 21.7604 29.4436 21.7757C29.4218 21.791 29.4109 21.8127 29.4109 21.8408C29.4109 21.8629 29.4179 21.8808 29.4318 21.8944C29.4466 21.9072 29.4714 21.9174 29.5063 21.9251L29.6134 21.9506C29.6648 21.9625 29.704 21.9834 29.731 22.0131C29.7589 22.0429 29.7728 22.0791 29.7728 22.1217C29.7728 22.1778 29.7498 22.2234 29.7036 22.2583C29.6583 22.2931 29.5973 22.3106 29.5207 22.3106ZM30.0161 21.6812V22.0629C30.0161 22.114 30.0291 22.1531 30.0553 22.1804C30.0823 22.2068 30.1193 22.22 30.1663 22.22C30.2273 22.22 30.2822 22.2017 30.331 22.1651V21.6812H30.4368V22.1344C30.4368 22.1608 30.4385 22.1889 30.442 22.2187C30.4464 22.2476 30.4516 22.2719 30.4577 22.2914L30.3597 22.3093C30.3519 22.2795 30.3462 22.2527 30.3427 22.2289C30.3122 22.2553 30.2796 22.2757 30.2447 22.2902C30.2099 22.3038 30.1724 22.3106 30.1324 22.3106C30.0627 22.3106 30.0082 22.291 29.969 22.2519C29.9298 22.2119 29.9102 22.1544 29.9102 22.0795V21.6812H30.0161ZM30.6455 22.2978V21.8446C30.6455 21.8183 30.6433 21.7902 30.639 21.7604C30.6355 21.7306 30.6312 21.7059 30.6259 21.6863L30.7226 21.6697C30.7305 21.6978 30.7366 21.7268 30.7409 21.7566C30.8028 21.6978 30.875 21.6685 30.9578 21.6685C31.0501 21.6685 31.1146 21.7012 31.1512 21.7668C31.1808 21.7378 31.2152 21.7144 31.2544 21.6966C31.2945 21.6778 31.3389 21.6685 31.3877 21.6685C31.4582 21.6685 31.5127 21.6885 31.551 21.7285C31.5902 21.7676 31.6098 21.8229 31.6098 21.8944V22.2978H31.504V21.911C31.504 21.8625 31.4905 21.8251 31.4635 21.7987C31.4373 21.7723 31.4007 21.7591 31.3537 21.7591C31.3223 21.7591 31.2905 21.7651 31.2583 21.777C31.227 21.7889 31.1987 21.8055 31.1734 21.8268C31.1777 21.848 31.1799 21.8706 31.1799 21.8944V22.2978H31.0741V21.911C31.0741 21.8625 31.0606 21.8251 31.0336 21.7987C31.0075 21.7723 30.9709 21.7591 30.9238 21.7591C30.8602 21.7591 30.8028 21.7791 30.7514 21.8191V22.2978H30.6455ZM32.0378 21.994C32.0378 21.9293 32.05 21.8727 32.0744 21.8242C32.0997 21.7757 32.1349 21.7378 32.1802 21.7106C32.2264 21.6825 32.2808 21.6685 32.3435 21.6685C32.4063 21.6685 32.4625 21.6834 32.5121 21.7131V21.3978H32.6179V22.1344C32.6179 22.1617 32.6197 22.1902 32.6232 22.22C32.6266 22.2497 32.6319 22.2736 32.6388 22.2914L32.5422 22.3093C32.5369 22.2948 32.5326 22.2804 32.5291 22.2659C32.5265 22.2506 32.5243 22.2361 32.5226 22.2225C32.4973 22.2506 32.4668 22.2723 32.4311 22.2876C32.3954 22.3029 32.3579 22.3106 32.3187 22.3106C32.2621 22.3106 32.2125 22.2978 32.1698 22.2723C32.128 22.2459 32.0953 22.2093 32.0718 22.1625C32.0491 22.1148 32.0378 22.0587 32.0378 21.994ZM32.1463 21.9927C32.1463 22.0668 32.1637 22.1238 32.1985 22.1638C32.2342 22.2038 32.2839 22.2238 32.3475 22.2238C32.3797 22.2238 32.4102 22.217 32.4389 22.2034C32.4685 22.1897 32.4929 22.171 32.5121 22.1472V21.8C32.4877 21.7846 32.4625 21.7736 32.4363 21.7668C32.4102 21.7591 32.3849 21.7553 32.3605 21.7553C32.2935 21.7553 32.2408 21.7774 32.2024 21.8217C32.165 21.8651 32.1463 21.9221 32.1463 21.9927ZM33.094 22.3106C33.0313 22.3106 32.9764 22.2974 32.9293 22.271C32.8823 22.2438 32.8457 22.2063 32.8196 22.1587C32.7935 22.1102 32.7804 22.054 32.7804 21.9902C32.7804 21.9263 32.7935 21.8702 32.8196 21.8217C32.8457 21.7731 32.8823 21.7357 32.9293 21.7093C32.9764 21.6821 33.0313 21.6685 33.094 21.6685C33.1567 21.6685 33.2116 21.6821 33.2586 21.7093C33.3065 21.7357 33.3435 21.7731 33.3697 21.8217C33.3958 21.8702 33.4089 21.9263 33.4089 21.9902C33.4089 22.054 33.3958 22.1102 33.3697 22.1587C33.3435 22.2063 33.3065 22.2438 33.2586 22.271C33.2116 22.2974 33.1567 22.3106 33.094 22.3106ZM33.094 22.2238C33.1584 22.2238 33.2089 22.2025 33.2455 22.16C33.2821 22.1166 33.3004 22.06 33.3004 21.9902C33.3004 21.9204 33.2821 21.8638 33.2455 21.8204C33.2089 21.777 33.1584 21.7553 33.094 21.7553C33.0304 21.7553 32.9803 21.777 32.9437 21.8204C32.9071 21.8638 32.8888 21.9204 32.8888 21.9902C32.8888 22.06 32.9071 22.1166 32.9437 22.16C32.9803 22.2025 33.0304 22.2238 33.094 22.2238ZM33.6079 22.3093C33.5974 22.2855 33.5883 22.2548 33.5805 22.2174C33.5735 22.1791 33.57 22.1429 33.57 22.1089V21.3978H33.6758V22.0885C33.6758 22.1242 33.6785 22.1608 33.6837 22.1983C33.6889 22.2348 33.6959 22.2655 33.7046 22.2902L33.6079 22.3093ZM34.1505 22.3106C34.0877 22.3106 34.0329 22.2974 33.9858 22.271C33.9388 22.2438 33.9022 22.2063 33.8761 22.1587C33.8499 22.1102 33.8369 22.054 33.8369 21.9902C33.8369 21.9263 33.8499 21.8702 33.8761 21.8217C33.9022 21.7731 33.9388 21.7357 33.9858 21.7093C34.0329 21.6821 34.0877 21.6685 34.1505 21.6685C34.2132 21.6685 34.268 21.6821 34.3151 21.7093C34.363 21.7357 34.4 21.7731 34.4261 21.8217C34.4523 21.8702 34.4653 21.9263 34.4653 21.9902C34.4653 22.054 34.4523 22.1102 34.4261 22.1587C34.4 22.2063 34.363 22.2438 34.3151 22.271C34.268 22.2974 34.2132 22.3106 34.1505 22.3106ZM34.1505 22.2238C34.2149 22.2238 34.2654 22.2025 34.302 22.16C34.3386 22.1166 34.3569 22.06 34.3569 21.9902C34.3569 21.9204 34.3386 21.8638 34.302 21.8204C34.2654 21.777 34.2149 21.7553 34.1505 21.7553C34.0869 21.7553 34.0368 21.777 34.0002 21.8204C33.9636 21.8638 33.9453 21.9204 33.9453 21.9902C33.9453 22.06 33.9636 22.1166 34.0002 22.16C34.0368 22.2025 34.0869 22.2238 34.1505 22.2238ZM34.6278 22.2978V21.8446C34.6278 21.8183 34.6256 21.7902 34.6213 21.7604C34.6178 21.7306 34.6134 21.7059 34.6082 21.6863L34.7049 21.6697C34.7101 21.6876 34.7145 21.7059 34.718 21.7246C34.7214 21.7425 34.724 21.7595 34.7258 21.7757C34.7746 21.7051 34.8373 21.6697 34.9139 21.6697C34.9409 21.6697 34.9679 21.6736 34.9949 21.6812L34.9845 21.7808C34.9714 21.7766 34.9588 21.7736 34.9466 21.7719C34.9344 21.7702 34.92 21.7693 34.9035 21.7693C34.8686 21.7693 34.8364 21.7766 34.8068 21.791C34.7781 21.8046 34.7537 21.8238 34.7336 21.8485V22.2978H34.6278ZM35.5802 22.3106C35.5384 22.3106 35.4957 22.3051 35.4521 22.294C35.4086 22.2829 35.3681 22.2663 35.3306 22.2442L35.3672 22.1702C35.436 22.2076 35.5053 22.2263 35.575 22.2263C35.622 22.2263 35.6586 22.2178 35.6847 22.2008C35.7117 22.1829 35.7252 22.1587 35.7252 22.128C35.7252 22.0812 35.6947 22.0506 35.6338 22.0361L35.5279 22.0106C35.4722 21.9978 35.4308 21.9774 35.4038 21.9493C35.3777 21.9212 35.3646 21.8868 35.3646 21.8459C35.3646 21.7923 35.3846 21.7493 35.4247 21.717C35.4648 21.6846 35.5201 21.6685 35.5906 21.6685C35.669 21.6685 35.7409 21.688 35.8062 21.7272L35.767 21.7974C35.7078 21.7676 35.6507 21.7527 35.5959 21.7527C35.5558 21.7527 35.5249 21.7604 35.5031 21.7757C35.4813 21.791 35.4704 21.8127 35.4704 21.8408C35.4704 21.8629 35.4774 21.8808 35.4913 21.8944C35.5062 21.9072 35.531 21.9174 35.5658 21.9251L35.673 21.9506C35.7244 21.9625 35.7635 21.9834 35.7906 22.0131C35.8184 22.0429 35.8324 22.0791 35.8324 22.1217C35.8324 22.1778 35.8093 22.2234 35.7631 22.2583C35.7178 22.2931 35.6568 22.3106 35.5802 22.3106ZM36.0339 21.5395C36.013 21.5395 35.9956 21.5331 35.9816 21.5204C35.9677 21.5076 35.9607 21.4919 35.9607 21.4731C35.9607 21.4536 35.9677 21.4374 35.9816 21.4246C35.9956 21.411 36.013 21.4042 36.0339 21.4042C36.0557 21.4042 36.0731 21.411 36.0862 21.4246C36.1001 21.4374 36.1071 21.4536 36.1071 21.4731C36.1071 21.4919 36.1001 21.5076 36.0862 21.5204C36.0731 21.5331 36.0557 21.5395 36.0339 21.5395ZM35.9816 22.2978V21.6812H36.0875V22.2978H35.9816ZM36.5333 22.3106C36.4698 22.3106 36.4223 22.2944 36.3909 22.2621C36.3596 22.2297 36.3439 22.1838 36.3439 22.1242V21.7655H36.2067V21.6812H36.3439C36.3456 21.6506 36.3482 21.6204 36.3517 21.5906C36.3552 21.5608 36.3587 21.5306 36.3622 21.5H36.4497V21.6812H36.6627V21.7655H36.4497V22.1051C36.4497 22.1451 36.458 22.174 36.4746 22.1919C36.4911 22.2097 36.5181 22.2187 36.5556 22.2187C36.5739 22.2187 36.5926 22.2166 36.6117 22.2123C36.6318 22.208 36.6518 22.2017 36.6718 22.1931L36.7019 22.271C36.6766 22.2829 36.6496 22.2923 36.6209 22.2991C36.5921 22.3068 36.563 22.3106 36.5333 22.3106ZM37.0821 21.7323C37.117 21.711 37.1549 21.6953 37.1958 21.6851C37.2376 21.674 37.2803 21.6685 37.3238 21.6685C37.404 21.6685 37.4649 21.6885 37.5068 21.7285C37.5494 21.7685 37.5708 21.8242 37.5708 21.8957V22.1319C37.5708 22.1625 37.5725 22.1927 37.576 22.2225C37.5804 22.2514 37.5856 22.2753 37.5917 22.294L37.4976 22.3093C37.4898 22.2838 37.4837 22.2557 37.4793 22.2251C37.4175 22.2821 37.343 22.3106 37.2559 22.3106C37.1958 22.3106 37.1474 22.2948 37.1109 22.2634C37.0743 22.2319 37.056 22.1893 37.056 22.1357C37.056 22.0838 37.0782 22.0408 37.1226 22.0068C37.1679 21.9727 37.2341 21.951 37.3212 21.9417L37.4663 21.9276V21.8983C37.4663 21.8029 37.4157 21.7553 37.3147 21.7553C37.2842 21.7553 37.2515 21.76 37.2167 21.7693C37.1819 21.7778 37.1492 21.7902 37.1187 21.8063L37.0821 21.7323ZM37.1644 22.1306C37.1644 22.1621 37.1758 22.1863 37.1984 22.2034C37.2211 22.2195 37.2511 22.2276 37.2886 22.2276C37.3539 22.2276 37.4131 22.2046 37.4663 22.1587V22.008L37.3304 22.0234C37.2737 22.0293 37.2319 22.0412 37.2049 22.0591C37.1779 22.077 37.1644 22.1008 37.1644 22.1306ZM37.7668 22.2978V21.8446C37.7668 21.8183 37.7646 21.7902 37.7602 21.7604C37.7568 21.7306 37.7524 21.7059 37.7472 21.6863L37.8439 21.6697C37.8517 21.6978 37.8578 21.7268 37.8622 21.7566C37.924 21.6978 37.9963 21.6685 38.079 21.6685C38.1714 21.6685 38.2358 21.7012 38.2724 21.7668C38.302 21.7378 38.3364 21.7144 38.3756 21.6966C38.4157 21.6778 38.4601 21.6685 38.5089 21.6685C38.5795 21.6685 38.6339 21.6885 38.6722 21.7285C38.7114 21.7676 38.731 21.8229 38.731 21.8944V22.2978H38.6252V21.911C38.6252 21.8625 38.6117 21.8251 38.5847 21.7987C38.5586 21.7723 38.522 21.7591 38.4749 21.7591C38.4436 21.7591 38.4118 21.7651 38.3796 21.777C38.3482 21.7889 38.3199 21.8055 38.2946 21.8268C38.299 21.848 38.3012 21.8706 38.3012 21.8944V22.2978H38.1953V21.911C38.1953 21.8625 38.1818 21.8251 38.1548 21.7987C38.1287 21.7723 38.0921 21.7591 38.0451 21.7591C37.9815 21.7591 37.924 21.7791 37.8726 21.8191V22.2978H37.7668ZM39.201 22.3106C39.1008 22.3106 39.022 22.2821 38.9645 22.2251C38.9079 22.1672 38.8796 22.0893 38.8796 21.9914C38.8796 21.9285 38.8926 21.8727 38.9187 21.8242C38.9449 21.7757 38.9806 21.7378 39.0259 21.7106C39.0712 21.6825 39.1221 21.6685 39.1788 21.6685C39.2641 21.6685 39.3308 21.6957 39.3787 21.7502C39.4266 21.8046 39.4505 21.8791 39.4505 21.9736C39.4505 21.9812 39.4501 21.9885 39.4492 21.9953C39.4492 22.0021 39.4488 22.0076 39.4479 22.0119H38.9867C38.9902 22.0783 39.0111 22.1302 39.0494 22.1676C39.0886 22.2051 39.1409 22.2238 39.2062 22.2238C39.2367 22.2238 39.2685 22.2191 39.3016 22.2097C39.3356 22.2004 39.3704 22.1868 39.4061 22.1689L39.4427 22.2404C39.3634 22.2872 39.2829 22.3106 39.201 22.3106ZM39.1761 21.7553C39.1282 21.7553 39.0877 21.771 39.0546 21.8025C39.0215 21.834 39.0002 21.8757 38.9906 21.9276H39.346C39.339 21.8714 39.3207 21.8289 39.2911 21.8C39.2624 21.7702 39.2241 21.7553 39.1761 21.7553ZM39.8509 22.3106C39.7873 22.3106 39.7398 22.2944 39.7085 22.2621C39.6771 22.2297 39.6614 22.1838 39.6614 22.1242V21.7655H39.5242V21.6812H39.6614C39.6632 21.6506 39.6658 21.6204 39.6693 21.5906C39.6728 21.5608 39.6762 21.5306 39.6797 21.5H39.7673V21.6812H39.9802V21.7655H39.7673V22.1051C39.7673 22.1451 39.7755 22.174 39.7921 22.1919C39.8086 22.2097 39.8356 22.2187 39.8731 22.2187C39.8914 22.2187 39.9101 22.2166 39.9293 22.2123C39.9493 22.208 39.9694 22.2017 39.9894 22.1931L40.0194 22.271C39.9942 22.2829 39.9672 22.2923 39.9384 22.2991C39.9097 22.3068 39.8805 22.3106 39.8509 22.3106ZM40.1855 22.16C40.2081 22.16 40.2273 22.1676 40.243 22.1829C40.2587 22.1974 40.2665 22.2204 40.2665 22.2519C40.2665 22.2859 40.2552 22.3229 40.2325 22.3629C40.2099 22.4029 40.1711 22.4468 40.1162 22.4944L40.0797 22.4574C40.1319 22.4089 40.1641 22.3574 40.1763 22.3029C40.1563 22.3021 40.1402 22.2953 40.128 22.2825C40.1158 22.2689 40.1097 22.2523 40.1097 22.2327C40.1097 22.2106 40.1167 22.1931 40.1306 22.1804C40.1454 22.1668 40.1637 22.16 40.1855 22.16ZM10.928 24.0127C10.8653 24.0127 10.81 24 10.7621 23.9744C10.715 23.948 10.678 23.911 10.651 23.8634C10.624 23.8148 10.6105 23.7578 10.6105 23.6923C10.6105 23.6268 10.6236 23.5702 10.6497 23.5225C10.6758 23.474 10.7128 23.4366 10.7607 23.4102C10.8087 23.3838 10.8648 23.3706 10.9293 23.3706C11.0016 23.3706 11.0691 23.3876 11.1318 23.4217L11.0952 23.4983C11.0377 23.471 10.9842 23.4574 10.9345 23.4574C10.8692 23.4574 10.8169 23.4787 10.7777 23.5212C10.7385 23.5638 10.7189 23.6208 10.7189 23.6923C10.7189 23.7629 10.7381 23.8195 10.7764 23.8621C10.8156 23.9046 10.8679 23.9259 10.9332 23.9259C10.9837 23.9259 11.0377 23.9123 11.0952 23.8851L11.1318 23.9604C11.07 23.9953 11.002 24.0127 10.928 24.0127ZM11.5314 24.0127C11.4687 24.0127 11.4138 23.9995 11.3668 23.9731C11.3198 23.9459 11.2832 23.9085 11.257 23.8608C11.2309 23.8123 11.2178 23.7561 11.2178 23.6923C11.2178 23.6285 11.2309 23.5723 11.257 23.5238C11.2832 23.4753 11.3198 23.4378 11.3668 23.4114C11.4138 23.3842 11.4687 23.3706 11.5314 23.3706C11.5941 23.3706 11.649 23.3842 11.6961 23.4114C11.744 23.4378 11.781 23.4753 11.8071 23.5238C11.8333 23.5723 11.8463 23.6285 11.8463 23.6923C11.8463 23.7561 11.8333 23.8123 11.8071 23.8608C11.781 23.9085 11.744 23.9459 11.6961 23.9731C11.649 23.9995 11.5941 24.0127 11.5314 24.0127ZM11.5314 23.9259C11.5959 23.9259 11.6464 23.9046 11.683 23.8621C11.7196 23.8187 11.7379 23.7621 11.7379 23.6923C11.7379 23.6225 11.7196 23.5659 11.683 23.5225C11.6464 23.4791 11.5959 23.4574 11.5314 23.4574C11.4678 23.4574 11.4178 23.4791 11.3812 23.5225C11.3446 23.5659 11.3263 23.6225 11.3263 23.6923C11.3263 23.7621 11.3446 23.8187 11.3812 23.8621C11.4178 23.9046 11.4678 23.9259 11.5314 23.9259ZM12.0088 24V23.5468C12.0088 23.5204 12.0066 23.4923 12.0022 23.4625C11.9988 23.4327 11.9944 23.408 11.9892 23.3885L12.0859 23.3719C12.0937 23.4 12.0998 23.4289 12.1042 23.4587C12.166 23.4 12.2383 23.3706 12.3211 23.3706C12.3916 23.3706 12.4461 23.3906 12.4844 23.4306C12.5236 23.4697 12.5432 23.5251 12.5432 23.5966V24H12.4373V23.6131C12.4373 23.5646 12.4243 23.5272 12.3981 23.5008C12.372 23.4744 12.335 23.4612 12.2871 23.4612C12.2235 23.4612 12.166 23.4812 12.1146 23.5212V24H12.0088ZM12.9242 24.0127C12.8824 24.0127 12.8397 24.0072 12.7961 23.9961C12.7526 23.9851 12.7121 23.9685 12.6746 23.9463L12.7112 23.8723C12.78 23.9097 12.8493 23.9285 12.9189 23.9285C12.966 23.9285 13.0026 23.92 13.0287 23.9029C13.0557 23.8851 13.0692 23.8608 13.0692 23.8302C13.0692 23.7834 13.0387 23.7527 12.9777 23.7383L12.8719 23.7127C12.8162 23.7 12.7748 23.6795 12.7478 23.6514C12.7216 23.6234 12.7086 23.5889 12.7086 23.548C12.7086 23.4944 12.7286 23.4514 12.7687 23.4191C12.8088 23.3868 12.8641 23.3706 12.9346 23.3706C13.013 23.3706 13.0849 23.3902 13.1502 23.4293L13.111 23.4995C13.0518 23.4697 12.9947 23.4548 12.9398 23.4548C12.8998 23.4548 12.8689 23.4625 12.8471 23.4778C12.8253 23.4931 12.8144 23.5148 12.8144 23.5429C12.8144 23.5651 12.8214 23.5829 12.8353 23.5966C12.8501 23.6093 12.875 23.6195 12.9098 23.6272L13.0169 23.6527C13.0683 23.6646 13.1075 23.6855 13.1345 23.7153C13.1624 23.7451 13.1763 23.7812 13.1763 23.8238C13.1763 23.88 13.1533 23.9255 13.1071 23.9604C13.0618 23.9953 13.0008 24.0127 12.9242 24.0127ZM13.6012 24.0127C13.5011 24.0127 13.4222 23.9842 13.3647 23.9272C13.3081 23.8693 13.2798 23.7914 13.2798 23.6936C13.2798 23.6306 13.2929 23.5748 13.319 23.5263C13.3451 23.4778 13.3809 23.44 13.4261 23.4127C13.4714 23.3846 13.5224 23.3706 13.579 23.3706C13.6644 23.3706 13.731 23.3978 13.7789 23.4523C13.8268 23.5068 13.8508 23.5812 13.8508 23.6757C13.8508 23.6834 13.8504 23.6906 13.8495 23.6974C13.8495 23.7042 13.849 23.7097 13.8482 23.714H13.387C13.3904 23.7804 13.4113 23.8323 13.4497 23.8697C13.4889 23.9072 13.5411 23.9259 13.6065 23.9259C13.6369 23.9259 13.6687 23.9212 13.7018 23.9119C13.7358 23.9025 13.7707 23.8889 13.8064 23.871L13.8429 23.9425C13.7637 23.9893 13.6831 24.0127 13.6012 24.0127ZM13.5764 23.4574C13.5285 23.4574 13.488 23.4731 13.4549 23.5046C13.4218 23.5361 13.4005 23.5778 13.3909 23.6297H13.7463C13.7393 23.5736 13.721 23.531 13.6914 23.5021C13.6626 23.4723 13.6243 23.4574 13.5764 23.4574ZM14.2838 24.0127C14.2211 24.0127 14.1658 24 14.1178 23.9744C14.0708 23.948 14.0338 23.911 14.0068 23.8634C13.9798 23.8148 13.9663 23.7578 13.9663 23.6923C13.9663 23.6268 13.9793 23.5702 14.0055 23.5225C14.0316 23.474 14.0686 23.4366 14.1165 23.4102C14.1644 23.3838 14.2206 23.3706 14.2851 23.3706C14.3574 23.3706 14.4249 23.3876 14.4876 23.4217L14.451 23.4983C14.3935 23.471 14.34 23.4574 14.2903 23.4574C14.225 23.4574 14.1727 23.4787 14.1335 23.5212C14.0943 23.5638 14.0747 23.6208 14.0747 23.6923C14.0747 23.7629 14.0939 23.8195 14.1322 23.8621C14.1714 23.9046 14.2237 23.9259 14.289 23.9259C14.3395 23.9259 14.3935 23.9123 14.451 23.8851L14.4876 23.9604C14.4258 23.9953 14.3578 24.0127 14.2838 24.0127ZM14.8585 24.0127C14.7949 24.0127 14.7474 23.9966 14.7161 23.9642C14.6847 23.9319 14.669 23.8859 14.669 23.8263V23.4676H14.5318V23.3834H14.669C14.6708 23.3527 14.6734 23.3225 14.6769 23.2927C14.6803 23.2629 14.6838 23.2327 14.6873 23.2021H14.7749V23.3834H14.9878V23.4676H14.7749V23.8072C14.7749 23.8472 14.7831 23.8761 14.7997 23.894C14.8162 23.9119 14.8432 23.9208 14.8807 23.9208C14.899 23.9208 14.9177 23.9187 14.9369 23.9144C14.9569 23.9102 14.9769 23.9038 14.997 23.8953L15.027 23.9731C15.0018 23.9851 14.9748 23.9944 14.946 24.0012C14.9173 24.0089 14.8881 24.0127 14.8585 24.0127ZM15.4322 24.0127C15.3321 24.0127 15.2532 23.9842 15.1957 23.9272C15.1391 23.8693 15.1108 23.7914 15.1108 23.6936C15.1108 23.6306 15.1239 23.5748 15.15 23.5263C15.1762 23.4778 15.2119 23.44 15.2572 23.4127C15.3025 23.3846 15.3534 23.3706 15.41 23.3706C15.4954 23.3706 15.562 23.3978 15.6099 23.4523C15.6578 23.5068 15.6818 23.5812 15.6818 23.6757C15.6818 23.6834 15.6814 23.6906 15.6805 23.6974C15.6805 23.7042 15.6801 23.7097 15.6792 23.714H15.218C15.2214 23.7804 15.2424 23.8323 15.2807 23.8697C15.3199 23.9072 15.3721 23.9259 15.4375 23.9259C15.468 23.9259 15.4997 23.9212 15.5329 23.9119C15.5668 23.9025 15.6017 23.8889 15.6374 23.871L15.674 23.9425C15.5947 23.9893 15.5141 24.0127 15.4322 24.0127ZM15.4074 23.4574C15.3595 23.4574 15.319 23.4731 15.2859 23.5046C15.2528 23.5361 15.2315 23.5778 15.2219 23.6297H15.5773C15.5703 23.5736 15.552 23.531 15.5224 23.5021C15.4937 23.4723 15.4553 23.4574 15.4074 23.4574ZM16.0822 24.0127C16.0186 24.0127 15.9711 23.9966 15.9397 23.9642C15.9084 23.9319 15.8927 23.8859 15.8927 23.8263V23.4676H15.7555V23.3834H15.8927C15.8944 23.3527 15.8971 23.3225 15.9005 23.2927C15.904 23.2629 15.9075 23.2327 15.911 23.2021H15.9985V23.3834H16.2115V23.4676H15.9985V23.8072C15.9985 23.8472 16.0068 23.8761 16.0234 23.894C16.0399 23.9119 16.0669 23.9208 16.1044 23.9208C16.1227 23.9208 16.1414 23.9187 16.1606 23.9144C16.1806 23.9102 16.2006 23.9038 16.2207 23.8953L16.2507 23.9731C16.2255 23.9851 16.1984 23.9944 16.1697 24.0012C16.141 24.0089 16.1118 24.0127 16.0822 24.0127ZM16.4742 23.3834V23.7651C16.4742 23.8161 16.4873 23.8553 16.5134 23.8825C16.5404 23.9089 16.5775 23.9221 16.6245 23.9221C16.6855 23.9221 16.7404 23.9038 16.7891 23.8672V23.3834H16.895V23.8366C16.895 23.8629 16.8967 23.891 16.9002 23.9208C16.9046 23.9497 16.9098 23.974 16.9159 23.9936L16.8179 24.0114C16.81 23.9817 16.8044 23.9548 16.8009 23.931C16.7704 23.9574 16.7377 23.9778 16.7029 23.9923C16.6681 24.0059 16.6306 24.0127 16.5905 24.0127C16.5208 24.0127 16.4664 23.9931 16.4272 23.954C16.388 23.914 16.3684 23.8566 16.3684 23.7817V23.3834H16.4742ZM17.1037 24V23.5468C17.1037 23.5204 17.1015 23.4923 17.0972 23.4625C17.0937 23.4327 17.0893 23.408 17.0841 23.3885L17.1808 23.3719C17.186 23.3897 17.1904 23.408 17.1939 23.4268C17.1973 23.4446 17.2 23.4617 17.2017 23.4778C17.2505 23.4072 17.3132 23.3719 17.3898 23.3719C17.4168 23.3719 17.4438 23.3757 17.4709 23.3834L17.4604 23.4829C17.4473 23.4787 17.4347 23.4757 17.4225 23.474C17.4103 23.4723 17.3959 23.4714 17.3794 23.4714C17.3445 23.4714 17.3123 23.4787 17.2827 23.4931C17.254 23.5068 17.2296 23.5259 17.2095 23.5506V24H17.1037ZM17.8235 23.6961C17.8235 23.6314 17.8357 23.5748 17.8601 23.5263C17.8854 23.4778 17.9206 23.44 17.9659 23.4127C18.0121 23.3846 18.0665 23.3706 18.1293 23.3706C18.192 23.3706 18.2482 23.3855 18.2978 23.4153V23.1H18.4036V23.8366C18.4036 23.8638 18.4054 23.8923 18.4089 23.9221C18.4124 23.9519 18.4176 23.9757 18.4246 23.9936L18.3279 24.0114C18.3226 23.997 18.3183 23.9825 18.3148 23.968C18.3122 23.9527 18.31 23.9383 18.3083 23.9246C18.283 23.9527 18.2525 23.9744 18.2168 23.9897C18.1811 24.0051 18.1436 24.0127 18.1044 24.0127C18.0478 24.0127 17.9982 24 17.9555 23.9744C17.9137 23.948 17.881 23.9114 17.8575 23.8646C17.8348 23.817 17.8235 23.7608 17.8235 23.6961ZM17.932 23.6948C17.932 23.7689 17.9494 23.8259 17.9842 23.8659C18.0199 23.9059 18.0696 23.9259 18.1332 23.9259C18.1654 23.9259 18.1959 23.9191 18.2246 23.9055C18.2543 23.8919 18.2786 23.8731 18.2978 23.8493V23.5021C18.2734 23.4868 18.2482 23.4757 18.222 23.4689C18.1959 23.4612 18.1706 23.4574 18.1462 23.4574C18.0792 23.4574 18.0265 23.4795 17.9882 23.5238C17.9507 23.5672 17.932 23.6242 17.932 23.6948ZM18.8797 24.0127C18.817 24.0127 18.7621 23.9995 18.7151 23.9731C18.668 23.9459 18.6314 23.9085 18.6053 23.8608C18.5792 23.8123 18.5661 23.7561 18.5661 23.6923C18.5661 23.6285 18.5792 23.5723 18.6053 23.5238C18.6314 23.4753 18.668 23.4378 18.7151 23.4114C18.7621 23.3842 18.817 23.3706 18.8797 23.3706C18.9424 23.3706 18.9973 23.3842 19.0443 23.4114C19.0922 23.4378 19.1292 23.4753 19.1554 23.5238C19.1815 23.5723 19.1946 23.6285 19.1946 23.6923C19.1946 23.7561 19.1815 23.8123 19.1554 23.8608C19.1292 23.9085 19.0922 23.9459 19.0443 23.9731C18.9973 23.9995 18.9424 24.0127 18.8797 24.0127ZM18.8797 23.9259C18.9441 23.9259 18.9947 23.9046 19.0312 23.8621C19.0678 23.8187 19.0861 23.7621 19.0861 23.6923C19.0861 23.6225 19.0678 23.5659 19.0312 23.5225C18.9947 23.4791 18.9441 23.4574 18.8797 23.4574C18.8161 23.4574 18.766 23.4791 18.7294 23.5225C18.6928 23.5659 18.6745 23.6225 18.6745 23.6923C18.6745 23.7621 18.6928 23.8187 18.7294 23.8621C18.766 23.9046 18.8161 23.9259 18.8797 23.9259ZM19.3936 24.0114C19.3832 23.9876 19.374 23.957 19.3662 23.9195C19.3592 23.8812 19.3557 23.8451 19.3557 23.811V23.1H19.4615V23.7906C19.4615 23.8263 19.4642 23.8629 19.4694 23.9004C19.4746 23.937 19.4816 23.9676 19.4903 23.9923L19.3936 24.0114ZM19.9363 24.0127C19.8736 24.0127 19.8187 23.9995 19.7716 23.9731C19.7246 23.9459 19.688 23.9085 19.6619 23.8608C19.6358 23.8123 19.6227 23.7561 19.6227 23.6923C19.6227 23.6285 19.6358 23.5723 19.6619 23.5238C19.688 23.4753 19.7246 23.4378 19.7716 23.4114C19.8187 23.3842 19.8736 23.3706 19.9363 23.3706C19.999 23.3706 20.0539 23.3842 20.1009 23.4114C20.1488 23.4378 20.1858 23.4753 20.212 23.5238C20.2381 23.5723 20.2512 23.6285 20.2512 23.6923C20.2512 23.7561 20.2381 23.8123 20.212 23.8608C20.1858 23.9085 20.1488 23.9459 20.1009 23.9731C20.0539 23.9995 19.999 24.0127 19.9363 24.0127ZM19.9363 23.9259C20.0007 23.9259 20.0513 23.9046 20.0878 23.8621C20.1244 23.8187 20.1427 23.7621 20.1427 23.6923C20.1427 23.6225 20.1244 23.5659 20.0878 23.5225C20.0513 23.4791 20.0007 23.4574 19.9363 23.4574C19.8727 23.4574 19.8226 23.4791 19.786 23.5225C19.7494 23.5659 19.7311 23.6225 19.7311 23.6923C19.7311 23.7621 19.7494 23.8187 19.786 23.8621C19.8226 23.9046 19.8727 23.9259 19.9363 23.9259ZM20.4136 24V23.5468C20.4136 23.5204 20.4114 23.4923 20.4071 23.4625C20.4036 23.4327 20.3992 23.408 20.394 23.3885L20.4907 23.3719C20.4959 23.3897 20.5003 23.408 20.5038 23.4268C20.5073 23.4446 20.5099 23.4617 20.5116 23.4778C20.5604 23.4072 20.6231 23.3719 20.6998 23.3719C20.7268 23.3719 20.7538 23.3757 20.7808 23.3834L20.7703 23.4829C20.7573 23.4787 20.7446 23.4757 20.7324 23.474C20.7202 23.4723 20.7059 23.4714 20.6893 23.4714C20.6545 23.4714 20.6222 23.4787 20.5926 23.4931C20.5639 23.5068 20.5395 23.5259 20.5195 23.5506V24H20.4136ZM21.169 24.0127C21.0689 24.0127 20.99 23.9842 20.9326 23.9272C20.8759 23.8693 20.8476 23.7914 20.8476 23.6936C20.8476 23.6306 20.8607 23.5748 20.8868 23.5263C20.913 23.4778 20.9487 23.44 20.994 23.4127C21.0393 23.3846 21.0902 23.3706 21.1468 23.3706C21.2322 23.3706 21.2988 23.3978 21.3467 23.4523C21.3947 23.5068 21.4186 23.5812 21.4186 23.6757C21.4186 23.6834 21.4182 23.6906 21.4173 23.6974C21.4173 23.7042 21.4169 23.7097 21.416 23.714H20.9548C20.9582 23.7804 20.9792 23.8323 21.0175 23.8697C21.0567 23.9072 21.1089 23.9259 21.1743 23.9259C21.2048 23.9259 21.2366 23.9212 21.2697 23.9119C21.3036 23.9025 21.3385 23.8889 21.3742 23.871L21.4108 23.9425C21.3315 23.9893 21.2509 24.0127 21.169 24.0127ZM21.1442 23.4574C21.0963 23.4574 21.0558 23.4731 21.0227 23.5046C20.9896 23.5361 20.9683 23.5778 20.9587 23.6297H21.3141C21.3071 23.5736 21.2888 23.531 21.2592 23.5021C21.2305 23.4723 21.1921 23.4574 21.1442 23.4574ZM21.8305 23.4344C21.8653 23.4131 21.9032 23.3974 21.9442 23.3872C21.986 23.3761 22.0287 23.3706 22.0722 23.3706C22.1524 23.3706 22.2133 23.3906 22.2551 23.4306C22.2978 23.4706 22.3192 23.5263 22.3192 23.5978V23.834C22.3192 23.8646 22.3209 23.8948 22.3244 23.9246C22.3288 23.9536 22.334 23.9774 22.3401 23.9961L22.246 24.0114C22.2382 23.9859 22.2321 23.9578 22.2277 23.9272C22.1659 23.9842 22.0914 24.0127 22.0043 24.0127C21.9442 24.0127 21.8958 23.997 21.8593 23.9655C21.8227 23.934 21.8044 23.8914 21.8044 23.8378C21.8044 23.7859 21.8266 23.7429 21.871 23.7089C21.9163 23.6748 21.9825 23.6531 22.0696 23.6438L22.2146 23.6297V23.6004C22.2146 23.5051 22.1641 23.4574 22.0631 23.4574C22.0326 23.4574 21.9999 23.4621 21.9651 23.4714C21.9302 23.48 21.8976 23.4923 21.8671 23.5085L21.8305 23.4344ZM21.9128 23.8327C21.9128 23.8642 21.9241 23.8885 21.9468 23.9055C21.9694 23.9217 21.9995 23.9297 22.0369 23.9297C22.1023 23.9297 22.1615 23.9068 22.2146 23.8608V23.7102L22.0788 23.7255C22.0221 23.7314 21.9803 23.7434 21.9533 23.7612C21.9263 23.7791 21.9128 23.8029 21.9128 23.8327ZM22.468 23.6961C22.468 23.6314 22.4802 23.5748 22.5046 23.5263C22.5299 23.4778 22.5651 23.44 22.6104 23.4127C22.6566 23.3846 22.711 23.3706 22.7738 23.3706C22.8365 23.3706 22.8927 23.3855 22.9423 23.4153V23.1H23.0481V23.8366C23.0481 23.8638 23.0499 23.8923 23.0534 23.9221C23.0569 23.9519 23.0621 23.9757 23.069 23.9936L22.9724 24.0114C22.9671 23.997 22.9628 23.9825 22.9593 23.968C22.9567 23.9527 22.9545 23.9383 22.9528 23.9246C22.9275 23.9527 22.897 23.9744 22.8613 23.9897C22.8256 24.0051 22.7881 24.0127 22.7489 24.0127C22.6923 24.0127 22.6427 24 22.6 23.9744C22.5582 23.948 22.5255 23.9114 22.502 23.8646C22.4793 23.817 22.468 23.7608 22.468 23.6961ZM22.5765 23.6948C22.5765 23.7689 22.5939 23.8259 22.6287 23.8659C22.6644 23.9059 22.7141 23.9259 22.7777 23.9259C22.8099 23.9259 22.8404 23.9191 22.8691 23.9055C22.8988 23.8919 22.9231 23.8731 22.9423 23.8493V23.5021C22.9179 23.4868 22.8927 23.4757 22.8665 23.4689C22.8404 23.4612 22.8151 23.4574 22.7907 23.4574C22.7237 23.4574 22.671 23.4795 22.6326 23.5238C22.5952 23.5672 22.5765 23.6242 22.5765 23.6948ZM23.5071 23.4344C23.5419 23.4131 23.5798 23.3974 23.6208 23.3872C23.6626 23.3761 23.7052 23.3706 23.7488 23.3706C23.8289 23.3706 23.8899 23.3906 23.9317 23.4306C23.9744 23.4706 23.9957 23.5263 23.9957 23.5978V23.834C23.9957 23.8646 23.9975 23.8948 24.001 23.9246C24.0053 23.9536 24.0106 23.9774 24.0166 23.9961L23.9226 24.0114C23.9147 23.9859 23.9086 23.9578 23.9043 23.9272C23.8424 23.9842 23.768 24.0127 23.6809 24.0127C23.6208 24.0127 23.5724 23.997 23.5358 23.9655C23.4992 23.934 23.4809 23.8914 23.4809 23.8378C23.4809 23.7859 23.5032 23.7429 23.5476 23.7089C23.5929 23.6748 23.6591 23.6531 23.7462 23.6438L23.8912 23.6297V23.6004C23.8912 23.5051 23.8407 23.4574 23.7397 23.4574C23.7092 23.4574 23.6765 23.4621 23.6417 23.4714C23.6068 23.48 23.5742 23.4923 23.5437 23.5085L23.5071 23.4344ZM23.5894 23.8327C23.5894 23.8642 23.6007 23.8885 23.6234 23.9055C23.646 23.9217 23.6761 23.9297 23.7135 23.9297C23.7789 23.9297 23.8381 23.9068 23.8912 23.8608V23.7102L23.7553 23.7255C23.6987 23.7314 23.6569 23.7434 23.6299 23.7612C23.6029 23.7791 23.5894 23.8029 23.5894 23.8327ZM24.1447 23.6961C24.1447 23.6314 24.1569 23.5748 24.1813 23.5263C24.2065 23.4778 24.2418 23.44 24.2871 23.4127C24.3333 23.3846 24.3877 23.3706 24.4504 23.3706C24.5132 23.3706 24.5693 23.3855 24.619 23.4153V23.1H24.7248V23.8366C24.7248 23.8638 24.7266 23.8923 24.73 23.9221C24.7335 23.9519 24.7388 23.9757 24.7457 23.9936L24.649 24.0114C24.6438 23.997 24.6395 23.9825 24.636 23.968C24.6334 23.9527 24.6312 23.9383 24.6294 23.9246C24.6042 23.9527 24.5737 23.9744 24.538 23.9897C24.5023 24.0051 24.4648 24.0127 24.4256 24.0127C24.369 24.0127 24.3193 24 24.2767 23.9744C24.2348 23.948 24.2022 23.9114 24.1787 23.8646C24.156 23.817 24.1447 23.7608 24.1447 23.6961ZM24.2531 23.6948C24.2531 23.7689 24.2706 23.8259 24.3054 23.8659C24.3411 23.9059 24.3908 23.9259 24.4544 23.9259C24.4866 23.9259 24.5171 23.9191 24.5458 23.9055C24.5754 23.8919 24.5998 23.8731 24.619 23.8493V23.5021C24.5946 23.4868 24.5693 23.4757 24.5432 23.4689C24.5171 23.4612 24.4918 23.4574 24.4674 23.4574C24.4004 23.4574 24.3477 23.4795 24.3093 23.5238C24.2719 23.5672 24.2531 23.6242 24.2531 23.6948ZM24.9853 23.2417C24.9644 23.2417 24.9469 23.2353 24.933 23.2225C24.9191 23.2097 24.9121 23.194 24.9121 23.1753C24.9121 23.1557 24.9191 23.1395 24.933 23.1268C24.9469 23.1131 24.9644 23.1063 24.9853 23.1063C25.007 23.1063 25.0245 23.1131 25.0375 23.1268C25.0515 23.1395 25.0584 23.1557 25.0584 23.1753C25.0584 23.194 25.0515 23.2097 25.0375 23.2225C25.0245 23.2353 25.007 23.2417 24.9853 23.2417ZM24.933 24V23.3834H25.0388V24H24.933ZM25.2469 24.2744V23.5468C25.2469 23.5195 25.2452 23.4914 25.2417 23.4625C25.2382 23.4327 25.233 23.408 25.226 23.3885L25.324 23.3719C25.3327 23.4025 25.3392 23.4323 25.3436 23.4612C25.3689 23.4323 25.3989 23.4102 25.4338 23.3948C25.4695 23.3787 25.5069 23.3706 25.5461 23.3706C25.6027 23.3706 25.652 23.3838 25.6938 23.4102C25.7364 23.4357 25.7691 23.4723 25.7918 23.52C25.8153 23.5676 25.827 23.6234 25.827 23.6872C25.827 23.751 25.8144 23.8076 25.7891 23.857C25.7648 23.9055 25.7299 23.9438 25.6846 23.9719C25.6393 23.9991 25.5853 24.0127 25.5226 24.0127C25.4608 24.0127 25.4041 23.9978 25.3527 23.968V24.2744H25.2469ZM25.5174 23.4574C25.4851 23.4574 25.4542 23.4642 25.4246 23.4778C25.3959 23.4914 25.3719 23.5097 25.3527 23.5327V23.88C25.3763 23.8961 25.4011 23.908 25.4272 23.9157C25.4534 23.9225 25.4791 23.9259 25.5043 23.9259C25.5714 23.9259 25.6236 23.9038 25.6611 23.8595C25.6994 23.8153 25.7186 23.7578 25.7186 23.6872C25.7186 23.614 25.7007 23.5574 25.665 23.5174C25.6293 23.4774 25.5801 23.4574 25.5174 23.4574ZM26.0406 23.2417C26.0197 23.2417 26.0022 23.2353 25.9883 23.2225C25.9744 23.2097 25.9674 23.194 25.9674 23.1753C25.9674 23.1557 25.9744 23.1395 25.9883 23.1268C26.0022 23.1131 26.0197 23.1063 26.0406 23.1063C26.0623 23.1063 26.0798 23.1131 26.0928 23.1268C26.1068 23.1395 26.1137 23.1557 26.1137 23.1753C26.1137 23.194 26.1068 23.2097 26.0928 23.2225C26.0798 23.2353 26.0623 23.2417 26.0406 23.2417ZM25.9883 24V23.3834H26.0941V24H25.9883ZM26.4877 24.0127C26.4459 24.0127 26.4032 24.0072 26.3597 23.9961C26.3161 23.9851 26.2756 23.9685 26.2382 23.9463L26.2748 23.8723C26.3436 23.9097 26.4128 23.9285 26.4825 23.9285C26.5295 23.9285 26.5661 23.92 26.5923 23.9029C26.6193 23.8851 26.6328 23.8608 26.6328 23.8302C26.6328 23.7834 26.6023 23.7527 26.5413 23.7383L26.4355 23.7127C26.3797 23.7 26.3384 23.6795 26.3113 23.6514C26.2852 23.6234 26.2722 23.5889 26.2722 23.548C26.2722 23.4944 26.2922 23.4514 26.3323 23.4191C26.3723 23.3868 26.4276 23.3706 26.4982 23.3706C26.5766 23.3706 26.6484 23.3902 26.7138 23.4293L26.6746 23.4995C26.6153 23.4697 26.5583 23.4548 26.5034 23.4548C26.4633 23.4548 26.4324 23.4625 26.4106 23.4778C26.3889 23.4931 26.378 23.5148 26.378 23.5429C26.378 23.5651 26.385 23.5829 26.3989 23.5966C26.4137 23.6093 26.4385 23.6195 26.4734 23.6272L26.5805 23.6527C26.6319 23.6646 26.6711 23.6855 26.6981 23.7153C26.726 23.7451 26.7399 23.7812 26.7399 23.8238C26.7399 23.88 26.7168 23.9255 26.6707 23.9604C26.6254 23.9953 26.5644 24.0127 26.4877 24.0127ZM26.9413 23.2417C26.9204 23.2417 26.903 23.2353 26.8891 23.2225C26.8751 23.2097 26.8682 23.194 26.8682 23.1753C26.8682 23.1557 26.8751 23.1395 26.8891 23.1268C26.903 23.1131 26.9204 23.1063 26.9413 23.1063C26.9631 23.1063 26.9805 23.1131 26.9936 23.1268C27.0075 23.1395 27.0145 23.1557 27.0145 23.1753C27.0145 23.194 27.0075 23.2097 26.9936 23.2225C26.9805 23.2353 26.9631 23.2417 26.9413 23.2417ZM26.8891 24V23.3834H26.9949V24H26.8891ZM27.4735 24.0127C27.4107 24.0127 27.3554 24 27.3075 23.9744C27.2605 23.948 27.2235 23.911 27.1965 23.8634C27.1695 23.8148 27.156 23.7578 27.156 23.6923C27.156 23.6268 27.169 23.5702 27.1951 23.5225C27.2213 23.474 27.2583 23.4366 27.3062 23.4102C27.3541 23.3838 27.4103 23.3706 27.4748 23.3706C27.5471 23.3706 27.6146 23.3876 27.6773 23.4217L27.6407 23.4983C27.5832 23.471 27.5296 23.4574 27.48 23.4574C27.4147 23.4574 27.3624 23.4787 27.3232 23.5212C27.284 23.5638 27.2644 23.6208 27.2644 23.6923C27.2644 23.7629 27.2836 23.8195 27.3219 23.8621C27.3611 23.9046 27.4133 23.9259 27.4787 23.9259C27.5292 23.9259 27.5832 23.9123 27.6407 23.8851L27.6773 23.9604C27.6154 23.9953 27.5475 24.0127 27.4735 24.0127ZM27.8613 23.2417C27.8404 23.2417 27.823 23.2353 27.809 23.2225C27.7951 23.2097 27.7881 23.194 27.7881 23.1753C27.7881 23.1557 27.7951 23.1395 27.809 23.1268C27.823 23.1131 27.8404 23.1063 27.8613 23.1063C27.8831 23.1063 27.9005 23.1131 27.9136 23.1268C27.9275 23.1395 27.9345 23.1557 27.9345 23.1753C27.9345 23.194 27.9275 23.2097 27.9136 23.2225C27.9005 23.2353 27.8831 23.2417 27.8613 23.2417ZM27.809 24V23.3834H27.9149V24H27.809ZM28.1229 24V23.5468C28.1229 23.5204 28.1208 23.4923 28.1164 23.4625C28.1129 23.4327 28.1086 23.408 28.1033 23.3885L28.2 23.3719C28.2079 23.4 28.214 23.4289 28.2183 23.4587C28.2802 23.4 28.3525 23.3706 28.4352 23.3706C28.5058 23.3706 28.5602 23.3906 28.5985 23.4306C28.6377 23.4697 28.6573 23.5251 28.6573 23.5966V24H28.5515V23.6131C28.5515 23.5646 28.5384 23.5272 28.5123 23.5008C28.4862 23.4744 28.4491 23.4612 28.4012 23.4612C28.3377 23.4612 28.2802 23.4812 28.2288 23.5212V24H28.1229ZM29.0854 24.0051C29.0287 24.0051 28.9795 23.9923 28.9377 23.9668C28.8959 23.9412 28.8632 23.9051 28.8397 23.8583C28.8171 23.8106 28.8057 23.7548 28.8057 23.691C28.8057 23.628 28.8188 23.5723 28.8449 23.5238C28.8711 23.4753 28.9081 23.4378 28.956 23.4114C29.0048 23.3842 29.0627 23.3706 29.1298 23.3706C29.1786 23.3706 29.2243 23.3753 29.267 23.3846C29.3105 23.394 29.3502 23.4059 29.3859 23.4204V24.0421C29.3859 24.1144 29.3593 24.1723 29.3062 24.2157C29.2539 24.26 29.1833 24.2821 29.0945 24.2821C29.0483 24.2821 29.003 24.2757 28.9586 24.2629C28.9142 24.2502 28.8746 24.2323 28.8397 24.2093L28.8802 24.134C28.9107 24.1536 28.9442 24.1685 28.9808 24.1787C29.0183 24.1897 29.0536 24.1953 29.0867 24.1953C29.1485 24.1953 29.1964 24.1817 29.2304 24.1544C29.2652 24.128 29.2826 24.0914 29.2826 24.0446V23.9259C29.2574 23.9514 29.2273 23.971 29.1925 23.9846C29.1585 23.9983 29.1228 24.0051 29.0854 24.0051ZM28.9142 23.691C28.9142 23.7642 28.9316 23.82 28.9664 23.8583C29.0022 23.8966 29.0514 23.9157 29.1141 23.9157C29.1472 23.9157 29.1781 23.9089 29.2069 23.8953C29.2365 23.8817 29.2609 23.8634 29.28 23.8404V23.4804C29.2591 23.4736 29.236 23.468 29.2108 23.4638C29.1855 23.4595 29.1594 23.4574 29.1324 23.4574C29.0627 23.4574 29.0087 23.4791 28.9704 23.5225C28.9329 23.5651 28.9142 23.6212 28.9142 23.691ZM30.1492 24.0127C30.0491 24.0127 29.9702 23.9842 29.9127 23.9272C29.8561 23.8693 29.8278 23.7914 29.8278 23.6936C29.8278 23.6306 29.8409 23.5748 29.867 23.5263C29.8931 23.4778 29.9289 23.44 29.9742 23.4127C30.0195 23.3846 30.0704 23.3706 30.127 23.3706C30.2124 23.3706 30.279 23.3978 30.3269 23.4523C30.3748 23.5068 30.3988 23.5812 30.3988 23.6757C30.3988 23.6834 30.3984 23.6906 30.3975 23.6974C30.3975 23.7042 30.3971 23.7097 30.3962 23.714H29.935C29.9384 23.7804 29.9593 23.8323 29.9977 23.8697C30.0369 23.9072 30.0891 23.9259 30.1545 23.9259C30.185 23.9259 30.2167 23.9212 30.2498 23.9119C30.2838 23.9025 30.3187 23.8889 30.3544 23.871L30.391 23.9425C30.3117 23.9893 30.2311 24.0127 30.1492 24.0127ZM30.1244 23.4574C30.0765 23.4574 30.036 23.4731 30.0029 23.5046C29.9698 23.5361 29.9485 23.5778 29.9389 23.6297H30.2943C30.2873 23.5736 30.269 23.531 30.2394 23.5021C30.2106 23.4723 30.1723 23.4574 30.1244 23.4574ZM30.5979 24.0114C30.5875 23.9876 30.5783 23.957 30.5705 23.9195C30.5635 23.8812 30.5601 23.8451 30.5601 23.811V23.1H30.6659V23.7906C30.6659 23.8263 30.6685 23.8629 30.6737 23.9004C30.679 23.937 30.6859 23.9676 30.6946 23.9923L30.5979 24.0114ZM30.9249 23.2417C30.904 23.2417 30.8866 23.2353 30.8727 23.2225C30.8587 23.2097 30.8517 23.194 30.8517 23.1753C30.8517 23.1557 30.8587 23.1395 30.8727 23.1268C30.8866 23.1131 30.904 23.1063 30.9249 23.1063C30.9467 23.1063 30.9641 23.1131 30.9772 23.1268C30.9911 23.1395 30.9981 23.1557 30.9981 23.1753C30.9981 23.194 30.9911 23.2097 30.9772 23.2225C30.9641 23.2353 30.9467 23.2417 30.9249 23.2417ZM30.8727 24V23.3834H30.9785V24H30.8727ZM31.4244 24.0127C31.3608 24.0127 31.3133 23.9966 31.2819 23.9642C31.2506 23.9319 31.2349 23.8859 31.2349 23.8263V23.4676H31.0977V23.3834H31.2349C31.2367 23.3527 31.2393 23.3225 31.2427 23.2927C31.2462 23.2629 31.2497 23.2327 31.2532 23.2021H31.3407V23.3834H31.5537V23.4676H31.3407V23.8072C31.3407 23.8472 31.349 23.8761 31.3656 23.894C31.3821 23.9119 31.4091 23.9208 31.4466 23.9208C31.4649 23.9208 31.4836 23.9187 31.5028 23.9144C31.5228 23.9102 31.5428 23.9038 31.5629 23.8953L31.5929 23.9731C31.5677 23.9851 31.5406 23.9944 31.5119 24.0012C31.4832 24.0089 31.454 24.0127 31.4244 24.0127ZM32.0398 24.0114C32.0293 23.9876 32.0202 23.957 32.0123 23.9195C32.0054 23.8812 32.0019 23.8451 32.0019 23.811V23.1H32.1077V23.7906C32.1077 23.8263 32.1103 23.8629 32.1155 23.9004C32.1208 23.937 32.1277 23.9676 32.1365 23.9923L32.0398 24.0114ZM32.2857 23.4344C32.3206 23.4131 32.3585 23.3974 32.3994 23.3872C32.4412 23.3761 32.4839 23.3706 32.5275 23.3706C32.6076 23.3706 32.6686 23.3906 32.7104 23.4306C32.7531 23.4706 32.7744 23.5263 32.7744 23.5978V23.834C32.7744 23.8646 32.7761 23.8948 32.7796 23.9246C32.784 23.9536 32.7892 23.9774 32.7953 23.9961L32.7012 24.0114C32.6934 23.9859 32.6873 23.9578 32.6829 23.9272C32.6211 23.9842 32.5466 24.0127 32.4595 24.0127C32.3994 24.0127 32.3511 23.997 32.3145 23.9655C32.2779 23.934 32.2596 23.8914 32.2596 23.8378C32.2596 23.7859 32.2818 23.7429 32.3262 23.7089C32.3715 23.6748 32.4377 23.6531 32.5248 23.6438L32.6699 23.6297V23.6004C32.6699 23.5051 32.6193 23.4574 32.5183 23.4574C32.4878 23.4574 32.4552 23.4621 32.4203 23.4714C32.3855 23.48 32.3528 23.4923 32.3223 23.5085L32.2857 23.4344ZM32.368 23.8327C32.368 23.8642 32.3794 23.8885 32.402 23.9055C32.4247 23.9217 32.4547 23.9297 32.4922 23.9297C32.5575 23.9297 32.6167 23.9068 32.6699 23.8608V23.7102L32.534 23.7255C32.4774 23.7314 32.4356 23.7434 32.4086 23.7612C32.3815 23.7791 32.368 23.8029 32.368 23.8327ZM32.9704 23.9629V23.1H33.0762V23.4446C33.1015 23.4208 33.1307 23.4025 33.1638 23.3897C33.1977 23.377 33.233 23.3706 33.2696 23.3706C33.3262 23.3706 33.3754 23.3838 33.4172 23.4102C33.4599 23.4357 33.4926 23.4723 33.5152 23.52C33.5388 23.5676 33.5505 23.6234 33.5505 23.6872C33.5505 23.751 33.5374 23.8076 33.5113 23.857C33.4852 23.9055 33.4477 23.9438 33.3989 23.9719C33.3502 23.9991 33.2918 24.0127 33.2239 24.0127C33.1768 24.0127 33.1315 24.008 33.088 23.9987C33.0453 23.9893 33.0061 23.9774 32.9704 23.9629ZM33.2422 23.4574C33.2091 23.4574 33.1777 23.4642 33.1481 23.4778C33.1193 23.4914 33.0954 23.5097 33.0762 23.5327V23.9029C33.0971 23.9089 33.1198 23.9144 33.1442 23.9195C33.1694 23.9238 33.1956 23.9259 33.2226 23.9259C33.2922 23.9259 33.3462 23.9042 33.3846 23.8608C33.4238 23.8166 33.4434 23.7587 33.4434 23.6872C33.4434 23.6131 33.4251 23.5566 33.3885 23.5174C33.3528 23.4774 33.304 23.4574 33.2422 23.4574ZM33.9795 24.0127C33.9168 24.0127 33.8619 23.9995 33.8149 23.9731C33.7678 23.9459 33.7313 23.9085 33.7051 23.8608C33.679 23.8123 33.6659 23.7561 33.6659 23.6923C33.6659 23.6285 33.679 23.5723 33.7051 23.5238C33.7313 23.4753 33.7678 23.4378 33.8149 23.4114C33.8619 23.3842 33.9168 23.3706 33.9795 23.3706C34.0422 23.3706 34.0971 23.3842 34.1441 23.4114C34.192 23.4378 34.2291 23.4753 34.2552 23.5238C34.2813 23.5723 34.2944 23.6285 34.2944 23.6923C34.2944 23.7561 34.2813 23.8123 34.2552 23.8608C34.2291 23.9085 34.192 23.9459 34.1441 23.9731C34.0971 23.9995 34.0422 24.0127 33.9795 24.0127ZM33.9795 23.9259C34.044 23.9259 34.0945 23.9046 34.1311 23.8621C34.1677 23.8187 34.1859 23.7621 34.1859 23.6923C34.1859 23.6225 34.1677 23.5659 34.1311 23.5225C34.0945 23.4791 34.044 23.4574 33.9795 23.4574C33.9159 23.4574 33.8658 23.4791 33.8293 23.5225C33.7927 23.5659 33.7744 23.6225 33.7744 23.6923C33.7744 23.7621 33.7927 23.8187 33.8293 23.8621C33.8658 23.9046 33.9159 23.9259 33.9795 23.9259ZM34.4569 24V23.5468C34.4569 23.5204 34.4547 23.4923 34.4503 23.4625C34.4468 23.4327 34.4425 23.408 34.4373 23.3885L34.5339 23.3719C34.5392 23.3897 34.5435 23.408 34.547 23.4268C34.5505 23.4446 34.5531 23.4617 34.5548 23.4778C34.6036 23.4072 34.6663 23.3719 34.743 23.3719C34.77 23.3719 34.797 23.3757 34.824 23.3834L34.8135 23.4829C34.8005 23.4787 34.7879 23.4757 34.7757 23.474C34.7635 23.4723 34.7491 23.4714 34.7325 23.4714C34.6977 23.4714 34.6655 23.4787 34.6359 23.4931C34.6071 23.5068 34.5827 23.5259 34.5627 23.5506V24H34.4569ZM35.2123 24.0127C35.1121 24.0127 35.0333 23.9842 34.9758 23.9272C34.9192 23.8693 34.8909 23.7914 34.8909 23.6936C34.8909 23.6306 34.9039 23.5748 34.9301 23.5263C34.9562 23.4778 34.9919 23.44 35.0372 23.4127C35.0825 23.3846 35.1334 23.3706 35.1901 23.3706C35.2754 23.3706 35.3421 23.3978 35.39 23.4523C35.4379 23.5068 35.4618 23.5812 35.4618 23.6757C35.4618 23.6834 35.4614 23.6906 35.4605 23.6974C35.4605 23.7042 35.4601 23.7097 35.4592 23.714H34.998C35.0015 23.7804 35.0224 23.8323 35.0607 23.8697C35.0999 23.9072 35.1522 23.9259 35.2175 23.9259C35.248 23.9259 35.2798 23.9212 35.3129 23.9119C35.3469 23.9025 35.3817 23.8889 35.4174 23.871L35.454 23.9425C35.3747 23.9893 35.2942 24.0127 35.2123 24.0127ZM35.1875 23.4574C35.1395 23.4574 35.099 23.4731 35.0659 23.5046C35.0328 23.5361 35.0115 23.5778 35.0019 23.6297H35.3573C35.3503 23.5736 35.332 23.531 35.3024 23.5021C35.2737 23.4723 35.2354 23.4574 35.1875 23.4574ZM36.1782 24.0127C36.078 24.0127 35.9992 23.9842 35.9417 23.9272C35.8851 23.8693 35.8568 23.7914 35.8568 23.6936C35.8568 23.6306 35.8698 23.5748 35.896 23.5263C35.9221 23.4778 35.9578 23.44 36.0031 23.4127C36.0484 23.3846 36.0993 23.3706 36.156 23.3706C36.2413 23.3706 36.308 23.3978 36.3559 23.4523C36.4038 23.5068 36.4277 23.5812 36.4277 23.6757C36.4277 23.6834 36.4273 23.6906 36.4264 23.6974C36.4264 23.7042 36.426 23.7097 36.4251 23.714H35.9639C35.9674 23.7804 35.9883 23.8323 36.0266 23.8697C36.0658 23.9072 36.1181 23.9259 36.1834 23.9259C36.2139 23.9259 36.2457 23.9212 36.2788 23.9119C36.3128 23.9025 36.3476 23.8889 36.3833 23.871L36.4199 23.9425C36.3406 23.9893 36.2601 24.0127 36.1782 24.0127ZM36.1533 23.4574C36.1054 23.4574 36.0649 23.4731 36.0318 23.5046C35.9987 23.5361 35.9774 23.5778 35.9678 23.6297H36.3232C36.3162 23.5736 36.2979 23.531 36.2683 23.5021C36.2396 23.4723 36.2013 23.4574 36.1533 23.4574ZM36.8281 24.0127C36.7645 24.0127 36.717 23.9966 36.6857 23.9642C36.6543 23.9319 36.6386 23.8859 36.6386 23.8263V23.4676H36.5014V23.3834H36.6386C36.6404 23.3527 36.643 23.3225 36.6465 23.2927C36.65 23.2629 36.6534 23.2327 36.6569 23.2021H36.7445V23.3834H36.9574V23.4676H36.7445V23.8072C36.7445 23.8472 36.7527 23.8761 36.7693 23.894C36.7858 23.9119 36.8128 23.9208 36.8503 23.9208C36.8686 23.9208 36.8873 23.9187 36.9065 23.9144C36.9265 23.9102 36.9466 23.9038 36.9666 23.8953L36.9966 23.9731C36.9714 23.9851 36.9444 23.9944 36.9156 24.0012C36.8869 24.0089 36.8577 24.0127 36.8281 24.0127ZM37.1679 24.0114C37.1461 24.0114 37.1278 24.0046 37.113 23.991C37.0991 23.9774 37.0921 23.96 37.0921 23.9387C37.0921 23.9166 37.0991 23.8987 37.113 23.8851C37.1278 23.8714 37.1461 23.8646 37.1679 23.8646C37.1897 23.8646 37.2071 23.8714 37.2202 23.8851C37.2341 23.8987 37.2411 23.9166 37.2411 23.9387C37.2411 23.96 37.2341 23.9774 37.2202 23.991C37.2062 24.0046 37.1888 24.0114 37.1679 24.0114Z" fill="#141414"/>
<path d="M11.0587 26.5723C10.9672 26.5723 10.8875 26.554 10.8195 26.5175C10.7525 26.4809 10.7002 26.4289 10.6628 26.3617C10.6262 26.2936 10.6079 26.2132 10.6079 26.1204C10.6079 26.0277 10.6266 25.9477 10.6641 25.8804C10.7015 25.8132 10.7538 25.7617 10.8209 25.726C10.8888 25.6894 10.9685 25.6711 11.06 25.6711C11.1575 25.6711 11.2472 25.6932 11.3291 25.7375L11.2664 25.8626C11.2316 25.843 11.2002 25.8294 11.1723 25.8217C11.1445 25.814 11.1118 25.8102 11.0743 25.8102C10.9811 25.8102 10.9071 25.8379 10.8522 25.8932C10.7973 25.9485 10.7699 26.0243 10.7699 26.1204C10.7699 26.2166 10.7973 26.2928 10.8522 26.3489C10.9071 26.4043 10.9807 26.4319 11.073 26.4319C11.1096 26.4319 11.1427 26.4281 11.1723 26.4204C11.2019 26.4119 11.2329 26.3983 11.2651 26.3796L11.3278 26.5047C11.2877 26.5268 11.2459 26.5434 11.2024 26.5545C11.1597 26.5664 11.1118 26.5723 11.0587 26.5723ZM12.1132 25.6902V25.823H11.8297V26.5532H11.6729V25.823H11.3893V25.6902H12.1132ZM12.3934 25.6902H12.5816L12.9082 26.5532H12.741L12.6652 26.3451H12.2994L12.2223 26.5532H12.0655L12.3934 25.6902ZM12.3464 26.2136H12.6169L12.4823 25.8447L12.3464 26.2136ZM13.948 25.6902V25.823H13.6645V26.5532H13.5077V25.823H13.2242V25.6902H13.948ZM14.2573 26.566C14.151 26.566 14.0678 26.5366 14.0077 26.4779C13.9476 26.4192 13.9176 26.3396 13.9176 26.2392C13.9176 26.1753 13.9311 26.1192 13.9581 26.0706C13.9859 26.0213 14.023 25.9826 14.0691 25.9545C14.1162 25.9264 14.1693 25.9123 14.2285 25.9123C14.3191 25.9123 14.3897 25.9404 14.4402 25.9966C14.4916 26.0519 14.5173 26.1277 14.5173 26.2238C14.5173 26.2358 14.5173 26.2451 14.5173 26.2519C14.5173 26.2587 14.5168 26.2655 14.516 26.2723H14.0691C14.0752 26.3294 14.0953 26.3732 14.1292 26.4038C14.1641 26.4336 14.2102 26.4485 14.2677 26.4485C14.3252 26.4485 14.3888 26.4306 14.4585 26.3949L14.5081 26.4932C14.4245 26.5417 14.3409 26.566 14.2573 26.566ZM14.2285 26.0234C14.1893 26.0234 14.1558 26.0362 14.1279 26.0617C14.1 26.0872 14.0818 26.1226 14.073 26.1677H14.3723C14.3583 26.0715 14.3104 26.0234 14.2285 26.0234ZM14.5894 26.5532L14.8102 26.2315L14.5946 25.9251H14.7619L14.9004 26.1319L15.0389 25.9251H15.2009L14.984 26.2353L15.2074 26.5532H15.0389L14.8952 26.3375L14.7514 26.5532H14.5894ZM15.5874 26.566C15.5169 26.566 15.4633 26.5472 15.4267 26.5098C15.3901 26.4723 15.3718 26.4187 15.3718 26.3489V26.0438H15.2412V25.9251H15.3718C15.3745 25.8928 15.3779 25.8613 15.3823 25.8306C15.3875 25.8 15.3932 25.7694 15.3993 25.7387H15.5208V25.9251H15.7233V26.0438H15.5208V26.3247C15.5208 26.3647 15.5286 26.3936 15.5443 26.4115C15.56 26.4294 15.5857 26.4383 15.6214 26.4383C15.6379 26.4383 15.6549 26.4366 15.6724 26.4332C15.6898 26.4298 15.7081 26.4238 15.7272 26.4153L15.7664 26.5226C15.7412 26.5362 15.7129 26.5468 15.6815 26.5545C15.651 26.5621 15.6197 26.566 15.5874 26.566ZM16.1515 26.5532V25.6532H16.3005V25.9877C16.3571 25.9375 16.4233 25.9123 16.4991 25.9123C16.5705 25.9123 16.6258 25.9328 16.665 25.9736C16.7042 26.0136 16.7238 26.0702 16.7238 26.1434V26.5532H16.5749V26.1702C16.5749 26.1277 16.5631 26.0953 16.5396 26.0732C16.5169 26.0502 16.4847 26.0387 16.4429 26.0387C16.3898 26.0387 16.3423 26.054 16.3005 26.0847V26.5532H16.1515ZM17.192 26.566C17.0857 26.566 17.0025 26.5366 16.9424 26.4779C16.8823 26.4192 16.8523 26.3396 16.8523 26.2392C16.8523 26.1753 16.8658 26.1192 16.8928 26.0706C16.9207 26.0213 16.9577 25.9826 17.0039 25.9545C17.0509 25.9264 17.104 25.9123 17.1633 25.9123C17.2539 25.9123 17.3244 25.9404 17.3749 25.9966C17.4263 26.0519 17.452 26.1277 17.452 26.2238C17.452 26.2358 17.452 26.2451 17.452 26.2519C17.452 26.2587 17.4516 26.2655 17.4507 26.2723H17.0039C17.01 26.3294 17.03 26.3732 17.064 26.4038C17.0988 26.4336 17.145 26.4485 17.2025 26.4485C17.2599 26.4485 17.3235 26.4306 17.3932 26.3949L17.4429 26.4932C17.3592 26.5417 17.2756 26.566 17.192 26.566ZM17.1633 26.0234C17.1241 26.0234 17.0905 26.0362 17.0627 26.0617C17.0348 26.0872 17.0165 26.1226 17.0078 26.1677H17.307C17.293 26.0715 17.2451 26.0234 17.1633 26.0234ZM17.596 26.5532V26.0962C17.596 26.0689 17.5942 26.0409 17.5907 26.0119C17.5872 25.9821 17.5825 25.9566 17.5764 25.9353L17.7149 25.9123C17.7192 25.9311 17.7231 25.9494 17.7266 25.9672C17.731 25.9851 17.734 26.0017 17.7358 26.017C17.7602 25.9813 17.7872 25.9553 17.8168 25.9392C17.8464 25.923 17.8808 25.9149 17.92 25.9149C17.9426 25.9149 17.9657 25.9179 17.9892 25.9238L17.9762 26.0617C17.9649 26.0583 17.954 26.0562 17.9435 26.0553C17.9331 26.0545 17.9204 26.054 17.9056 26.054C17.8377 26.054 17.7841 26.0745 17.7449 26.1153V26.5532H17.596ZM18.3799 26.566C18.2736 26.566 18.1905 26.5366 18.1304 26.4779C18.0703 26.4192 18.0402 26.3396 18.0402 26.2392C18.0402 26.1753 18.0537 26.1192 18.0807 26.0706C18.1086 26.0213 18.1456 25.9826 18.1918 25.9545C18.2388 25.9264 18.2919 25.9123 18.3512 25.9123C18.4418 25.9123 18.5123 25.9404 18.5628 25.9966C18.6142 26.0519 18.6399 26.1277 18.6399 26.2238C18.6399 26.2358 18.6399 26.2451 18.6399 26.2519C18.6399 26.2587 18.6395 26.2655 18.6386 26.2723H18.1918C18.1979 26.3294 18.2179 26.3732 18.2519 26.4038C18.2867 26.4336 18.3329 26.4485 18.3904 26.4485C18.4479 26.4485 18.5114 26.4306 18.5811 26.3949L18.6308 26.4932C18.5472 26.5417 18.4635 26.566 18.3799 26.566ZM18.3512 26.0234C18.312 26.0234 18.2784 26.0362 18.2506 26.0617C18.2227 26.0872 18.2044 26.1226 18.1957 26.1677H18.4949C18.481 26.0715 18.433 26.0234 18.3512 26.0234Z" fill="#5A469B"/>
</g>
</g>
</g>
<defs>
<filter id="filter0_d_1356_188197" x="1.88109" y="16.766" width="44.2378" height="16.2554" filterUnits="userSpaceOnUse" color-interpolation-filters="sRGB">
<feFlood flood-opacity="0" result="BackgroundImageFix"/>
<feColorMatrix in="SourceAlpha" type="matrix" values="0 0 0 0 0 0 0 0 0 0 0 0 0 0 0 0 0 0 127 0" result="hardAlpha"/>
<feOffset dy="1"/>
<feGaussianBlur stdDeviation="1.5"/>
<feColorMatrix type="matrix" values="0 0 0 0 0 0 0 0 0 0 0 0 0 0 0 0 0 0 0.1 0"/>
<feBlend mode="normal" in2="BackgroundImageFix" result="effect1_dropShadow_1356_188197"/>
<feBlend mode="normal" in="SourceGraphic" in2="effect1_dropShadow_1356_188197" result="shape"/>
</filter>
<clipPath id="clip0_1356_188197">
<rect width="48" height="48" rx="5" fill="white"/>
</clipPath>
<clipPath id="clip1_1356_188197">
<rect width="38" height="10" fill="white" transform="translate(5 19)"/>
</clipPath>
</defs>
</svg>
