<svg width="48" height="48" viewBox="0 0 48 48" fill="none" xmlns="http://www.w3.org/2000/svg">
<g clip-path="url(#clip0_1356_188189)">
<rect width="48" height="48" rx="2" fill="#383838"/>
<path d="M35.1469 16H13.5706C9.38948 16 6 19.3895 6 23.5706C6 27.7518 9.38948 31.1412 13.5706 31.1412H35.1469C39.328 31.1412 42.7175 27.7518 42.7175 23.5706C42.7175 19.3895 39.328 16 35.1469 16Z" fill="#5F577E"/>
<path d="M13.4592 25.8419V21.5047C13.9654 21.4661 14.3708 21.4467 14.6754 21.4467C15.3447 21.4467 15.8509 21.569 16.1941 21.8135C16.5373 22.0538 16.7089 22.4098 16.7089 22.8818C16.7089 23.3279 16.5502 23.6797 16.2327 23.9371C15.9195 24.1902 15.4305 24.3168 14.7655 24.3168C14.6926 24.3168 14.6111 24.3168 14.521 24.3168C14.4309 24.3125 14.3344 24.3082 14.2314 24.3039V25.8419H13.4592ZM14.8363 22.1031C14.7591 22.1031 14.669 22.1053 14.5661 22.1096C14.4674 22.1138 14.3558 22.1203 14.2314 22.1289V23.6475C14.3515 23.6518 14.4567 23.6561 14.5467 23.6604C14.6368 23.6604 14.7141 23.6604 14.7784 23.6604C15.1774 23.6604 15.4648 23.596 15.6407 23.4673C15.8166 23.3344 15.9045 23.1413 15.9045 22.8882C15.9045 22.3648 15.5485 22.1031 14.8363 22.1031ZM17.3344 25.8419V23.5381C17.3344 23.4008 17.3259 23.2593 17.3087 23.1134C17.2916 22.9633 17.268 22.8346 17.2379 22.7273L17.92 22.6115C17.9415 22.7059 17.9608 22.7981 17.9779 22.8882C17.9994 22.9783 18.0144 23.0619 18.023 23.1392C18.1431 22.959 18.2761 22.8281 18.422 22.7466C18.5678 22.6651 18.7373 22.6244 18.9303 22.6244C19.0419 22.6244 19.1556 22.6394 19.2714 22.6694L19.207 23.3644C19.1513 23.3472 19.0976 23.3365 19.0462 23.3322C18.9947 23.3279 18.9325 23.3258 18.8595 23.3258C18.5249 23.3258 18.2611 23.4287 18.068 23.6347V25.8419H17.3344ZM20.1456 22.1031C20.0084 22.1031 19.8947 22.0645 19.8046 21.9873C19.7188 21.9058 19.6759 21.7985 19.6759 21.6655C19.6759 21.5326 19.7188 21.4253 19.8046 21.3438C19.8947 21.258 20.0084 21.2151 20.1456 21.2151C20.2829 21.2151 20.3945 21.258 20.4803 21.3438C20.5661 21.4253 20.609 21.5326 20.609 21.6655C20.609 21.7985 20.5661 21.9058 20.4803 21.9873C20.3945 22.0645 20.2829 22.1031 20.1456 22.1031ZM19.7788 25.8419V22.6758H20.5124V25.8419H19.7788ZM21.4318 25.8419V23.5381C21.4318 23.4008 21.4232 23.2593 21.406 23.1134C21.3888 22.9633 21.3653 22.8346 21.3352 22.7273L22.0174 22.6115C22.0345 22.6844 22.0517 22.7595 22.0688 22.8367C22.086 22.9097 22.0989 22.9783 22.1075 23.0426C22.3991 22.7552 22.7445 22.6115 23.1435 22.6115C23.5896 22.6115 23.9049 22.7702 24.0894 23.0877C24.2396 22.9418 24.409 22.826 24.5978 22.7402C24.7909 22.6544 25.0011 22.6115 25.2284 22.6115C25.5802 22.6115 25.8526 22.7144 26.0457 22.9204C26.2387 23.122 26.3353 23.4073 26.3353 23.7762V25.8419H25.6081V23.9114C25.6081 23.6969 25.5502 23.5339 25.4344 23.4223C25.3185 23.3065 25.1577 23.2486 24.9517 23.2486C24.6857 23.2486 24.4455 23.3322 24.231 23.4995C24.2439 23.5853 24.2503 23.6775 24.2503 23.7762V25.8419H23.5167V23.9114C23.5167 23.6969 23.4588 23.5339 23.343 23.4223C23.2314 23.3065 23.0727 23.2486 22.8668 23.2486C22.6051 23.2486 22.3713 23.3258 22.1654 23.4802V25.8419H21.4318ZM27.0462 22.9719C27.2264 22.8517 27.4237 22.7617 27.6382 22.7016C27.8528 22.6415 28.078 22.6115 28.3139 22.6115C28.7387 22.6115 29.0647 22.723 29.2922 22.9461C29.5193 23.1649 29.6332 23.4738 29.6332 23.8728V24.9667C29.6332 25.1297 29.6415 25.2863 29.659 25.4365C29.676 25.5823 29.7017 25.7067 29.7362 25.8097L29.0862 25.9062C29.0476 25.7861 29.0173 25.6488 28.9962 25.4944C28.6957 25.7689 28.3375 25.9062 27.9214 25.9062C27.6254 25.9062 27.3873 25.8226 27.2071 25.6553C27.0269 25.4879 26.9368 25.267 26.9368 24.9924C26.9368 24.7136 27.0505 24.4862 27.2779 24.3103C27.5095 24.1302 27.8506 24.0186 28.3011 23.9757L28.9189 23.9178V23.8663C28.9189 23.4245 28.6936 23.2035 28.2431 23.2035C28.0973 23.2035 27.9385 23.2293 27.7669 23.2807C27.5996 23.3279 27.4452 23.3923 27.3036 23.4738L27.0462 22.9719ZM27.6833 24.9474C27.6833 25.0718 27.7283 25.1684 27.8184 25.237C27.9085 25.3013 28.0308 25.3335 28.1852 25.3335C28.4555 25.3335 28.7 25.2413 28.9189 25.0568V24.4262L28.3654 24.4905C27.9107 24.5463 27.6833 24.6986 27.6833 24.9474ZM30.4872 25.8419V23.5381C30.4872 23.4008 30.4789 23.2593 30.4614 23.1134C30.4444 22.9633 30.4209 22.8346 30.3907 22.7273L31.0728 22.6115C31.0943 22.7059 31.1137 22.7981 31.1307 22.8882C31.1523 22.9783 31.1674 23.0619 31.1757 23.1392C31.2961 22.959 31.429 22.8281 31.5747 22.7466C31.7208 22.6651 31.89 22.6244 32.0831 22.6244C32.1947 22.6244 32.3083 22.6394 32.4241 22.6694L32.3598 23.3644C32.3041 23.3472 32.2504 23.3365 32.1989 23.3322C32.1474 23.3279 32.0853 23.3258 32.0123 23.3258C31.6777 23.3258 31.4138 23.4287 31.2208 23.6347V25.8419H30.4872ZM33.2985 27.2898C33.2043 27.2898 33.1078 27.279 33.009 27.2576C32.9147 27.2361 32.8329 27.2104 32.7644 27.1804L32.8996 26.5755C32.951 26.6012 33.0048 26.6184 33.0604 26.6269C33.1161 26.6398 33.1721 26.6463 33.2277 26.6463C33.3265 26.6463 33.4166 26.6034 33.498 26.5176C33.5794 26.4361 33.6612 26.2773 33.7426 26.0414L33.7747 25.9577L32.5135 22.6758H33.305L34.1608 25.1018L35.0296 22.6758H35.7889L34.4697 26.0735C34.3497 26.391 34.238 26.6377 34.1351 26.8136C34.0321 26.9895 33.9163 27.1117 33.7876 27.1804C33.6589 27.2533 33.4957 27.2898 33.2985 27.2898Z" fill="white"/>
</g>
<defs>
<clipPath id="clip0_1356_188189">
<rect width="48" height="48" rx="5" fill="white"/>
</clipPath>
</defs>
</svg>
